%FSLAX25Y25*%
%MOIN*%
G70*
G01*
G75*
G04 Layer_Color=2752767*
%ADD10C,0.00500*%
%ADD11C,0.00667*%
D10*
X-13339Y120313D02*
Y124313D01*
X-9339D01*
Y120313D01*
X-13339D01*
X17028Y134801D02*
X15028Y138801D01*
X19028D01*
X17028Y134801D01*
X-17028D02*
X-19028Y138801D01*
X-15028D01*
X-17028Y134801D01*
X9417Y120313D02*
Y124313D01*
X13417D01*
Y120313D01*
X9417D01*
X122700Y-9500D02*
X123700Y-8500D01*
X124700D01*
X123700Y-7500D01*
X124700Y-6500D01*
X123700D01*
X122700Y-5500D01*
X121700Y-6500D01*
X120700D01*
X121700Y-7500D01*
X120700Y-8500D01*
X121700D01*
X122700Y-9500D01*
X100000Y-13900D02*
X101000Y-12900D01*
X102000D01*
X101000Y-11900D01*
X102000Y-10900D01*
X101000D01*
X100000Y-9900D01*
X99000Y-10900D01*
X98000D01*
X99000Y-11900D01*
X98000Y-12900D01*
X99000D01*
X100000Y-13900D01*
X129300Y-19500D02*
X130300Y-18500D01*
X131300D01*
X130300Y-17500D01*
X131300Y-16500D01*
X130300D01*
X129300Y-15500D01*
X128300Y-16500D01*
X127300D01*
X128300Y-17500D01*
X127300Y-18500D01*
X128300D01*
X129300Y-19500D01*
X118400D02*
X119400Y-18500D01*
X120400D01*
X119400Y-17500D01*
X120400Y-16500D01*
X119400D01*
X118400Y-15500D01*
X117400Y-16500D01*
X116400D01*
X117400Y-17500D01*
X116400Y-18500D01*
X117400D01*
X118400Y-19500D01*
X118500Y-12800D02*
X119500Y-11800D01*
X120500D01*
X119500Y-10800D01*
X120500Y-9800D01*
X119500D01*
X118500Y-8800D01*
X117500Y-9800D01*
X116500D01*
X117500Y-10800D01*
X116500Y-11800D01*
X117500D01*
X118500Y-12800D01*
X131200Y-12400D02*
X132200Y-11400D01*
X133200D01*
X132200Y-10400D01*
X133200Y-9400D01*
X132200D01*
X131200Y-8400D01*
X130200Y-9400D01*
X129200D01*
X130200Y-10400D01*
X129200Y-11400D01*
X130200D01*
X131200Y-12400D01*
X131300Y-800D02*
X132300Y200D01*
X133300D01*
X132300Y1200D01*
X133300Y2200D01*
X132300D01*
X131300Y3200D01*
X130300Y2200D01*
X129300D01*
X130300Y1200D01*
X129300Y200D01*
X130300D01*
X131300Y-800D01*
X121600D02*
X122600Y200D01*
X123600D01*
X122600Y1200D01*
X123600Y2200D01*
X122600D01*
X121600Y3200D01*
X120600Y2200D01*
X119600D01*
X120600Y1200D01*
X119600Y200D01*
X120600D01*
X121600Y-800D01*
X95200Y300D02*
X96200Y1300D01*
X97200D01*
X96200Y2300D01*
X97200Y3300D01*
X96200D01*
X95200Y4300D01*
X94200Y3300D01*
X93200D01*
X94200Y2300D01*
X93200Y1300D01*
X94200D01*
X95200Y300D01*
X102900Y500D02*
X103900Y1500D01*
X104900D01*
X103900Y2500D01*
X104900Y3500D01*
X103900D01*
X102900Y4500D01*
X101900Y3500D01*
X100900D01*
X101900Y2500D01*
X100900Y1500D01*
X101900D01*
X102900Y500D01*
X116900Y-1000D02*
X117900Y0D01*
X118900D01*
X117900Y1000D01*
X118900Y2000D01*
X117900D01*
X116900Y3000D01*
X115900Y2000D01*
X114900D01*
X115900Y1000D01*
X114900Y0D01*
X115900D01*
X116900Y-1000D01*
X100197Y24870D02*
X101197Y25870D01*
X102197D01*
X101197Y26870D01*
X102197Y27870D01*
X101197D01*
X100197Y28870D01*
X99197Y27870D01*
X98197D01*
X99197Y26870D01*
X98197Y25870D01*
X99197D01*
X100197Y24870D01*
X81496Y66307D02*
X82496Y67307D01*
X83496D01*
X82496Y68307D01*
X83496Y69307D01*
X82496D01*
X81496Y70307D01*
X80496Y69307D01*
X79496D01*
X80496Y68307D01*
X79496Y67307D01*
X80496D01*
X81496Y66307D01*
X133563Y-27098D02*
X134563Y-26098D01*
X135563D01*
X134563Y-25098D01*
X135563Y-24098D01*
X134563D01*
X133563Y-23098D01*
X132563Y-24098D01*
X131563D01*
X132563Y-25098D01*
X131563Y-26098D01*
X132563D01*
X133563Y-27098D01*
X100197Y53610D02*
X101197Y54610D01*
X102197D01*
X101197Y55610D01*
X102197Y56610D01*
X101197D01*
X100197Y57610D01*
X99197Y56610D01*
X98197D01*
X99197Y55610D01*
X98197Y54610D01*
X99197D01*
X100197Y53610D01*
X102776Y56169D02*
X103776Y57169D01*
X104776D01*
X103776Y58169D01*
X104776Y59169D01*
X103776D01*
X102776Y60169D01*
X101776Y59169D01*
X100776D01*
X101776Y58169D01*
X100776Y57169D01*
X101776D01*
X102776Y56169D01*
X-106988Y18965D02*
X-105988Y19965D01*
X-104988D01*
X-105988Y20965D01*
X-104988Y21965D01*
X-105988D01*
X-106988Y22965D01*
X-107988Y21965D01*
X-108988D01*
X-107988Y20965D01*
X-108988Y19965D01*
X-107988D01*
X-106988Y18965D01*
X-121457Y37370D02*
X-120457Y38370D01*
X-119457D01*
X-120457Y39370D01*
X-119457Y40370D01*
X-120457D01*
X-121457Y41370D01*
X-122457Y40370D01*
X-123457D01*
X-122457Y39370D01*
X-123457Y38370D01*
X-122457D01*
X-121457Y37370D01*
X110335Y65126D02*
X111335Y66126D01*
X112335D01*
X111335Y67126D01*
X112335Y68126D01*
X111335D01*
X110335Y69126D01*
X109335Y68126D01*
X108335D01*
X109335Y67126D01*
X108335Y66126D01*
X109335D01*
X110335Y65126D01*
X110138Y36484D02*
X111138Y37484D01*
X112138D01*
X111138Y38484D01*
X112138Y39484D01*
X111138D01*
X110138Y40484D01*
X109138Y39484D01*
X108138D01*
X109138Y38484D01*
X108138Y37484D01*
X109138D01*
X110138Y36484D01*
X-59055Y137272D02*
X-58055Y138272D01*
X-57055D01*
X-58055Y139272D01*
X-57055Y140272D01*
X-58055D01*
X-59055Y141272D01*
X-60055Y140272D01*
X-61055D01*
X-60055Y139272D01*
X-61055Y138272D01*
X-60055D01*
X-59055Y137272D01*
X-37008Y136583D02*
X-36008Y137583D01*
X-35008D01*
X-36008Y138583D01*
X-35008Y139583D01*
X-36008D01*
X-37008Y140583D01*
X-38008Y139583D01*
X-39008D01*
X-38008Y138583D01*
X-39008Y137583D01*
X-38008D01*
X-37008Y136583D01*
X-75886Y72409D02*
X-74886Y73409D01*
X-73886D01*
X-74886Y74410D01*
X-73886Y75410D01*
X-74886D01*
X-75886Y76410D01*
X-76886Y75410D01*
X-77886D01*
X-76886Y74410D01*
X-77886Y73409D01*
X-76886D01*
X-75886Y72409D01*
X-83071Y77528D02*
X-82071Y78528D01*
X-81071D01*
X-82071Y79528D01*
X-81071Y80528D01*
X-82071D01*
X-83071Y81528D01*
X-84071Y80528D01*
X-85071D01*
X-84071Y79528D01*
X-85071Y78528D01*
X-84071D01*
X-83071Y77528D01*
X-52953Y103217D02*
X-51953Y104217D01*
X-50953D01*
X-51953Y105217D01*
X-50953Y106217D01*
X-51953D01*
X-52953Y107217D01*
X-53953Y106217D01*
X-54953D01*
X-53953Y105217D01*
X-54953Y104217D01*
X-53953D01*
X-52953Y103217D01*
X-60925Y103413D02*
X-59925Y104413D01*
X-58925D01*
X-59925Y105413D01*
X-58925Y106413D01*
X-59925D01*
X-60925Y107413D01*
X-61925Y106413D01*
X-62925D01*
X-61925Y105413D01*
X-62925Y104413D01*
X-61925D01*
X-60925Y103413D01*
X-74705Y100657D02*
X-73705Y101657D01*
X-72705D01*
X-73705Y102657D01*
X-72705Y103657D01*
X-73705D01*
X-74705Y104657D01*
X-75705Y103657D01*
X-76705D01*
X-75705Y102657D01*
X-76705Y101657D01*
X-75705D01*
X-74705Y100657D01*
X68504Y3413D02*
X69504Y4413D01*
X70504D01*
X69504Y5413D01*
X70504Y6413D01*
X69504D01*
X68504Y7413D01*
X67504Y6413D01*
X66504D01*
X67504Y5413D01*
X66504Y4413D01*
X67504D01*
X68504Y3413D01*
X68110Y-2984D02*
X69110Y-1984D01*
X70110D01*
X69110Y-984D01*
X70110Y16D01*
X69110D01*
X68110Y1016D01*
X67110Y16D01*
X66110D01*
X67110Y-984D01*
X66110Y-1984D01*
X67110D01*
X68110Y-2984D01*
X113189Y-23752D02*
X114189Y-22752D01*
X115189D01*
X114189Y-21752D01*
X115189Y-20752D01*
X114189D01*
X113189Y-19752D01*
X112189Y-20752D01*
X111189D01*
X112189Y-21752D01*
X111189Y-22752D01*
X112189D01*
X113189Y-23752D01*
X123228Y70638D02*
X124228Y71638D01*
X125228D01*
X124228Y72638D01*
X125228Y73638D01*
X124228D01*
X123228Y74638D01*
X122228Y73638D01*
X121228D01*
X122228Y72638D01*
X121228Y71638D01*
X122228D01*
X123228Y70638D01*
X112500Y83335D02*
X113500Y84335D01*
X114500D01*
X113500Y85335D01*
X114500Y86335D01*
X113500D01*
X112500Y87335D01*
X111500Y86335D01*
X110500D01*
X111500Y85335D01*
X110500Y84335D01*
X111500D01*
X112500Y83335D01*
X102067Y85697D02*
X103067Y86697D01*
X104067D01*
X103067Y87697D01*
X104067Y88697D01*
X103067D01*
X102067Y89697D01*
X101067Y88697D01*
X100067D01*
X101067Y87697D01*
X100067Y86697D01*
X101067D01*
X102067Y85697D01*
X107776Y96130D02*
X108776Y97130D01*
X109776D01*
X108776Y98130D01*
X109776Y99130D01*
X108776D01*
X107776Y100130D01*
X106776Y99130D01*
X105776D01*
X106776Y98130D01*
X105776Y97130D01*
X106776D01*
X107776Y96130D01*
X98032Y96819D02*
X99032Y97819D01*
X100031D01*
X99032Y98819D01*
X100031Y99819D01*
X99032D01*
X98032Y100819D01*
X97031Y99819D01*
X96031D01*
X97031Y98819D01*
X96031Y97819D01*
X97031D01*
X98032Y96819D01*
X20473Y61783D02*
X21473Y62783D01*
X22473D01*
X21473Y63783D01*
X22473Y64783D01*
X21473D01*
X20473Y65783D01*
X19473Y64783D01*
X18473D01*
X19473Y63783D01*
X18473Y62783D01*
X19473D01*
X20473Y61783D01*
X23720Y61878D02*
X24720Y62878D01*
X25720D01*
X24720Y63878D01*
X25720Y64878D01*
X24720D01*
X23720Y65878D01*
X22720Y64878D01*
X21720D01*
X22720Y63878D01*
X21720Y62878D01*
X22720D01*
X23720Y61878D01*
X36417Y62173D02*
X37417Y63173D01*
X38417D01*
X37417Y64173D01*
X38417Y65173D01*
X37417D01*
X36417Y66173D01*
X35417Y65173D01*
X34417D01*
X35417Y64173D01*
X34417Y63173D01*
X35417D01*
X36417Y62173D01*
X-1280Y61287D02*
X-280Y62287D01*
X721D01*
X-280Y63287D01*
X721Y64287D01*
X-280D01*
X-1280Y65287D01*
X-2279Y64287D01*
X-3280D01*
X-2279Y63287D01*
X-3280Y62287D01*
X-2279D01*
X-1280Y61287D01*
X-62205Y47213D02*
X-61205Y48213D01*
X-60205D01*
X-61205Y49213D01*
X-60205Y50213D01*
X-61205D01*
X-62205Y51213D01*
X-63205Y50213D01*
X-64205D01*
X-63205Y49213D01*
X-64205Y48213D01*
X-63205D01*
X-62205Y47213D01*
X6299Y57842D02*
X7299Y58842D01*
X8299D01*
X7299Y59842D01*
X8299Y60843D01*
X7299D01*
X6299Y61843D01*
X5299Y60843D01*
X4299D01*
X5299Y59842D01*
X4299Y58842D01*
X5299D01*
X6299Y57842D01*
X11024Y135008D02*
X12024Y136008D01*
X13024D01*
X12024Y137008D01*
X13024Y138008D01*
X12024D01*
X11024Y139008D01*
X10024Y138008D01*
X9024D01*
X10024Y137008D01*
X9024Y136008D01*
X10024D01*
X11024Y135008D01*
X-8563Y131858D02*
X-7563Y132858D01*
X-6563D01*
X-7563Y133858D01*
X-6563Y134858D01*
X-7563D01*
X-8563Y135858D01*
X-9563Y134858D01*
X-10563D01*
X-9563Y133858D01*
X-10563Y132858D01*
X-9563D01*
X-8563Y131858D01*
X134744Y-4854D02*
X135744Y-3854D01*
X136744D01*
X135744Y-2854D01*
X136744Y-1854D01*
X135744D01*
X134744Y-854D01*
X133744Y-1854D01*
X132744D01*
X133744Y-2854D01*
X132744Y-3854D01*
X133744D01*
X134744Y-4854D01*
X141339D02*
X142339Y-3854D01*
X143339D01*
X142339Y-2854D01*
X143339Y-1854D01*
X142339D01*
X141339Y-854D01*
X140339Y-1854D01*
X139339D01*
X140339Y-2854D01*
X139339Y-3854D01*
X140339D01*
X141339Y-4854D01*
X37402Y114437D02*
X38402Y115437D01*
X39402D01*
X38402Y116437D01*
X39402Y117437D01*
X38402D01*
X37402Y118437D01*
X36402Y117437D01*
X35402D01*
X36402Y116437D01*
X35402Y115437D01*
X36402D01*
X37402Y114437D01*
X50787Y114142D02*
X51787Y115142D01*
X52787D01*
X51787Y116142D01*
X52787Y117142D01*
X51787D01*
X50787Y118142D01*
X49787Y117142D01*
X48787D01*
X49787Y116142D01*
X48787Y115142D01*
X49787D01*
X50787Y114142D01*
X64468Y113748D02*
X65469Y114748D01*
X66469D01*
X65469Y115748D01*
X66469Y116748D01*
X65469D01*
X64468Y117748D01*
X63468Y116748D01*
X62468D01*
X63468Y115748D01*
X62468Y114748D01*
X63468D01*
X64468Y113748D01*
X77559Y113945D02*
X78559Y114945D01*
X79559D01*
X78559Y115945D01*
X79559Y116945D01*
X78559D01*
X77559Y117945D01*
X76559Y116945D01*
X75559D01*
X76559Y115945D01*
X75559Y114945D01*
X76559D01*
X77559Y113945D01*
X-94784Y46819D02*
X-93783Y47819D01*
X-92783D01*
X-93783Y48819D01*
X-92783Y49819D01*
X-93783D01*
X-94784Y50819D01*
X-95784Y49819D01*
X-96784D01*
X-95784Y48819D01*
X-96784Y47819D01*
X-95784D01*
X-94784Y46819D01*
X-102362Y72606D02*
X-101362Y73606D01*
X-100362D01*
X-101362Y74606D01*
X-100362Y75606D01*
X-101362D01*
X-102362Y76606D01*
X-103362Y75606D01*
X-104362D01*
X-103362Y74606D01*
X-104362Y73606D01*
X-103362D01*
X-102362Y72606D01*
X-118799Y73098D02*
X-117799Y74098D01*
X-116799D01*
X-117799Y75098D01*
X-116799Y76098D01*
X-117799D01*
X-118799Y77098D01*
X-119799Y76098D01*
X-120799D01*
X-119799Y75098D01*
X-120799Y74098D01*
X-119799D01*
X-118799Y73098D01*
X-92815Y90520D02*
X-91815Y91520D01*
X-90815D01*
X-91815Y92520D01*
X-90815Y93520D01*
X-91815D01*
X-92815Y94520D01*
X-93815Y93520D01*
X-94815D01*
X-93815Y92520D01*
X-94815Y91520D01*
X-93815D01*
X-92815Y90520D01*
X-66240Y127331D02*
X-65240Y128331D01*
X-64240D01*
X-65240Y129331D01*
X-64240Y130331D01*
X-65240D01*
X-66240Y131331D01*
X-67240Y130331D01*
X-68240D01*
X-67240Y129331D01*
X-68240Y128331D01*
X-67240D01*
X-66240Y127331D01*
X-49016Y126740D02*
X-48016Y127740D01*
X-47016D01*
X-48016Y128740D01*
X-47016Y129740D01*
X-48016D01*
X-49016Y130740D01*
X-50016Y129740D01*
X-51016D01*
X-50016Y128740D01*
X-51016Y127740D01*
X-50016D01*
X-49016Y126740D01*
X-30413Y112469D02*
X-29413Y113469D01*
X-28413D01*
X-29413Y114469D01*
X-28413Y115469D01*
X-29413D01*
X-30413Y116469D01*
X-31413Y115469D01*
X-32413D01*
X-31413Y114469D01*
X-32413Y113469D01*
X-31413D01*
X-30413Y112469D01*
X-42618Y110303D02*
X-41618Y111303D01*
X-40618D01*
X-41618Y112303D01*
X-40618Y113303D01*
X-41618D01*
X-42618Y114303D01*
X-43618Y113303D01*
X-44618D01*
X-43618Y112303D01*
X-44618Y111303D01*
X-43618D01*
X-42618Y110303D01*
X91831Y48984D02*
X92831Y49984D01*
X93831D01*
X92831Y50984D01*
X93831Y51984D01*
X92831D01*
X91831Y52984D01*
X90831Y51984D01*
X89831D01*
X90831Y50984D01*
X89831Y49984D01*
X90831D01*
X91831Y48984D01*
X100787Y36681D02*
X101787Y37681D01*
X102787D01*
X101787Y38681D01*
X102787Y39681D01*
X101787D01*
X100787Y40681D01*
X99787Y39681D01*
X98787D01*
X99787Y38681D01*
X98787Y37681D01*
X99787D01*
X100787Y36681D01*
X127165Y26642D02*
X128165Y27642D01*
X129165D01*
X128165Y28642D01*
X129165Y29642D01*
X128165D01*
X127165Y30642D01*
X126165Y29642D01*
X125165D01*
X126165Y28642D01*
X125165Y27642D01*
X126165D01*
X127165Y26642D01*
X110630Y18276D02*
X111630Y19276D01*
X112630D01*
X111630Y20276D01*
X112630Y21276D01*
X111630D01*
X110630Y22276D01*
X109630Y21276D01*
X108630D01*
X109630Y20276D01*
X108630Y19276D01*
X109630D01*
X110630Y18276D01*
X91437Y22016D02*
X92437Y23016D01*
X93437D01*
X92437Y24016D01*
X93437Y25016D01*
X92437D01*
X91437Y26016D01*
X90437Y25016D01*
X89437D01*
X90437Y24016D01*
X89437Y23016D01*
X90437D01*
X91437Y22016D01*
X78248Y6465D02*
X79248Y7465D01*
X80248D01*
X79248Y8465D01*
X80248Y9465D01*
X79248D01*
X78248Y10465D01*
X77248Y9465D01*
X76248D01*
X77248Y8465D01*
X76248Y7465D01*
X77248D01*
X78248Y6465D01*
X76575Y9221D02*
X77575Y10221D01*
X78575D01*
X77575Y11220D01*
X78575Y12220D01*
X77575D01*
X76575Y13220D01*
X75575Y12220D01*
X74575D01*
X75575Y11220D01*
X74575Y10221D01*
X75575D01*
X76575Y9221D01*
X-19783Y107941D02*
X-18783Y108941D01*
X-17784D01*
X-18783Y109941D01*
X-17784Y110941D01*
X-18783D01*
X-19783Y111941D01*
X-20784Y110941D01*
X-21783D01*
X-20784Y109941D01*
X-21783Y108941D01*
X-20784D01*
X-19783Y107941D01*
X-19882Y110205D02*
X-18882Y111205D01*
X-17882D01*
X-18882Y112205D01*
X-17882Y113205D01*
X-18882D01*
X-19882Y114205D01*
X-20882Y113205D01*
X-21882D01*
X-20882Y112205D01*
X-21882Y111205D01*
X-20882D01*
X-19882Y110205D01*
X-19980Y112764D02*
X-18980Y113764D01*
X-17980D01*
X-18980Y114764D01*
X-17980Y115764D01*
X-18980D01*
X-19980Y116764D01*
X-20980Y115764D01*
X-21980D01*
X-20980Y114764D01*
X-21980Y113764D01*
X-20980D01*
X-19980Y112764D01*
X-15453Y107941D02*
X-14453Y108941D01*
X-13453D01*
X-14453Y109941D01*
X-13453Y110941D01*
X-14453D01*
X-15453Y111941D01*
X-16453Y110941D01*
X-17453D01*
X-16453Y109941D01*
X-17453Y108941D01*
X-16453D01*
X-15453Y107941D01*
X-17520Y108039D02*
X-16520Y109039D01*
X-15520D01*
X-16520Y110039D01*
X-15520Y111039D01*
X-16520D01*
X-17520Y112039D01*
X-18520Y111039D01*
X-19520D01*
X-18520Y110039D01*
X-19520Y109039D01*
X-18520D01*
X-17520Y108039D01*
X-15551Y110500D02*
X-14551Y111500D01*
X-13551D01*
X-14551Y112500D01*
X-13551Y113500D01*
X-14551D01*
X-15551Y114500D01*
X-16551Y113500D01*
X-17551D01*
X-16551Y112500D01*
X-17551Y111500D01*
X-16551D01*
X-15551Y110500D01*
X-17618D02*
X-16618Y111500D01*
X-15618D01*
X-16618Y112500D01*
X-15618Y113500D01*
X-16618D01*
X-17618Y114500D01*
X-18618Y113500D01*
X-19618D01*
X-18618Y112500D01*
X-19618Y111500D01*
X-18618D01*
X-17618Y110500D01*
X-15846Y112764D02*
X-14846Y113764D01*
X-13847D01*
X-14846Y114764D01*
X-13847Y115764D01*
X-14846D01*
X-15846Y116764D01*
X-16847Y115764D01*
X-17846D01*
X-16847Y114764D01*
X-17846Y113764D01*
X-16847D01*
X-15846Y112764D01*
X-18012D02*
X-17012Y113764D01*
X-16012D01*
X-17012Y114764D01*
X-16012Y115764D01*
X-17012D01*
X-18012Y116764D01*
X-19012Y115764D01*
X-20012D01*
X-19012Y114764D01*
X-20012Y113764D01*
X-19012D01*
X-18012Y112764D01*
X-9350Y74181D02*
X-8350Y75181D01*
X-7350D01*
X-8350Y76181D01*
X-7350Y77181D01*
X-8350D01*
X-9350Y78181D01*
X-10350Y77181D01*
X-11350D01*
X-10350Y76181D01*
X-11350Y75181D01*
X-10350D01*
X-9350Y74181D01*
X-6988Y76150D02*
X-5988Y77150D01*
X-4988D01*
X-5988Y78150D01*
X-4988Y79150D01*
X-5988D01*
X-6988Y80150D01*
X-7988Y79150D01*
X-8988D01*
X-7988Y78150D01*
X-8988Y77150D01*
X-7988D01*
X-6988Y76150D01*
Y78512D02*
X-5988Y79512D01*
X-4988D01*
X-5988Y80512D01*
X-4988Y81512D01*
X-5988D01*
X-6988Y82512D01*
X-7988Y81512D01*
X-8988D01*
X-7988Y80512D01*
X-8988Y79512D01*
X-7988D01*
X-6988Y78512D01*
Y81071D02*
X-5988Y82071D01*
X-4988D01*
X-5988Y83071D01*
X-4988Y84071D01*
X-5988D01*
X-6988Y85071D01*
X-7988Y84071D01*
X-8988D01*
X-7988Y83071D01*
X-8988Y82071D01*
X-7988D01*
X-6988Y81071D01*
X-9350Y76445D02*
X-8350Y77445D01*
X-7350D01*
X-8350Y78445D01*
X-7350Y79445D01*
X-8350D01*
X-9350Y80445D01*
X-10350Y79445D01*
X-11350D01*
X-10350Y78445D01*
X-11350Y77445D01*
X-10350D01*
X-9350Y76445D01*
X-11713Y76543D02*
X-10713Y77543D01*
X-9713D01*
X-10713Y78543D01*
X-9713Y79543D01*
X-10713D01*
X-11713Y80543D01*
X-12713Y79543D01*
X-13713D01*
X-12713Y78543D01*
X-13713Y77543D01*
X-12713D01*
X-11713Y76543D01*
X-9350Y78709D02*
X-8350Y79709D01*
X-7350D01*
X-8350Y80709D01*
X-7350Y81709D01*
X-8350D01*
X-9350Y82709D01*
X-10350Y81709D01*
X-11350D01*
X-10350Y80709D01*
X-11350Y79709D01*
X-10350D01*
X-9350Y78709D01*
X-11713Y78807D02*
X-10713Y79807D01*
X-9713D01*
X-10713Y80807D01*
X-9713Y81807D01*
X-10713D01*
X-11713Y82807D01*
X-12713Y81807D01*
X-13713D01*
X-12713Y80807D01*
X-13713Y79807D01*
X-12713D01*
X-11713Y78807D01*
X-9350Y80972D02*
X-8350Y81972D01*
X-7350D01*
X-8350Y82972D01*
X-7350Y83972D01*
X-8350D01*
X-9350Y84972D01*
X-10350Y83972D01*
X-11350D01*
X-10350Y82972D01*
X-11350Y81972D01*
X-10350D01*
X-9350Y80972D01*
X-11516Y81169D02*
X-10516Y82169D01*
X-9516D01*
X-10516Y83169D01*
X-9516Y84169D01*
X-10516D01*
X-11516Y85169D01*
X-12516Y84169D01*
X-13516D01*
X-12516Y83169D01*
X-13516Y82169D01*
X-12516D01*
X-11516Y81169D01*
X-7992Y121135D02*
X-6992Y122135D01*
X-5992D01*
X-6992Y123135D01*
X-5992Y124135D01*
X-6992D01*
X-7992Y125135D01*
X-8992Y124135D01*
X-9992D01*
X-8992Y123135D01*
X-9992Y122135D01*
X-8992D01*
X-7992Y121135D01*
X9055Y110205D02*
X10055Y111205D01*
X11055D01*
X10055Y112205D01*
X11055Y113205D01*
X10055D01*
X9055Y114205D01*
X8055Y113205D01*
X7055D01*
X8055Y112205D01*
X7055Y111205D01*
X8055D01*
X9055Y110205D01*
X110466Y-9847D02*
X111466Y-8847D01*
X112466D01*
X111466Y-7847D01*
X112466Y-6847D01*
X111466D01*
X110466Y-5847D01*
X109466Y-6847D01*
X108466D01*
X109466Y-7847D01*
X108466Y-8847D01*
X109466D01*
X110466Y-9847D01*
X99803Y17193D02*
X100803Y18193D01*
X101803D01*
X100803Y19193D01*
X101803Y20193D01*
X100803D01*
X99803Y21193D01*
X98803Y20193D01*
X97803D01*
X98803Y19193D01*
X97803Y18193D01*
X98803D01*
X99803Y17193D01*
X102854Y23099D02*
X103854Y24099D01*
X104854D01*
X103854Y25098D01*
X104854Y26098D01*
X103854D01*
X102854Y27099D01*
X101854Y26098D01*
X100854D01*
X101854Y25098D01*
X100854Y24099D01*
X101854D01*
X102854Y23099D01*
X87303Y67D02*
X88303Y1067D01*
X89303D01*
X88303Y2067D01*
X89303Y3067D01*
X88303D01*
X87303Y4067D01*
X86303Y3067D01*
X85303D01*
X86303Y2067D01*
X85303Y1067D01*
X86303D01*
X87303Y67D01*
X131200Y-33300D02*
X132200Y-32300D01*
X133200D01*
X132200Y-31300D01*
X133200Y-30300D01*
X132200D01*
X131200Y-29300D01*
X130200Y-30300D01*
X129200D01*
X130200Y-31300D01*
X129200Y-32300D01*
X130200D01*
X131200Y-33300D01*
X84646Y1937D02*
X85646Y2937D01*
X86646D01*
X85646Y3937D01*
X86646Y4937D01*
X85646D01*
X84646Y5937D01*
X83646Y4937D01*
X82646D01*
X83646Y3937D01*
X82646Y2937D01*
X83646D01*
X84646Y1937D01*
X80610Y17882D02*
X81610Y18882D01*
X82610D01*
X81610Y19882D01*
X82610Y20882D01*
X81610D01*
X80610Y21882D01*
X79610Y20882D01*
X78610D01*
X79610Y19882D01*
X78610Y18882D01*
X79610D01*
X80610Y17882D01*
X105320Y8237D02*
X106320Y9237D01*
X107320D01*
X106320Y10237D01*
X107320Y11237D01*
X106320D01*
X105320Y12237D01*
X104320Y11237D01*
X103320D01*
X104320Y10237D01*
X103320Y9237D01*
X104320D01*
X105320Y8237D01*
X91437Y17882D02*
X92437Y18882D01*
X93437D01*
X92437Y19882D01*
X93437Y20882D01*
X92437D01*
X91437Y21882D01*
X90437Y20882D01*
X89437D01*
X90437Y19882D01*
X89437Y18882D01*
X90437D01*
X91437Y17882D01*
X91482Y10795D02*
X92482Y11795D01*
X93482D01*
X92482Y12795D01*
X93482Y13795D01*
X92482D01*
X91482Y14795D01*
X90482Y13795D01*
X89482D01*
X90482Y12795D01*
X89482Y11795D01*
X90482D01*
X91482Y10795D01*
X97539Y8335D02*
X98539Y9335D01*
X99539D01*
X98539Y10335D01*
X99539Y11335D01*
X98539D01*
X97539Y12335D01*
X96539Y11335D01*
X95539D01*
X96539Y10335D01*
X95539Y9335D01*
X96539D01*
X97539Y8335D01*
X82776Y37272D02*
X83776Y38272D01*
X84776D01*
X83776Y39272D01*
X84776Y40272D01*
X83776D01*
X82776Y41272D01*
X81776Y40272D01*
X80776D01*
X81776Y39272D01*
X80776Y38272D01*
X81776D01*
X82776Y37272D01*
X87402Y31681D02*
X88402Y32681D01*
X89402D01*
X88402Y33681D01*
X89402Y34681D01*
X88402D01*
X87402Y35681D01*
X86402Y34681D01*
X85402D01*
X86402Y33681D01*
X85402Y32681D01*
X86402D01*
X87402Y31681D01*
X84646Y23591D02*
X85646Y24591D01*
X86646D01*
X85646Y25591D01*
X86646Y26591D01*
X85646D01*
X84646Y27591D01*
X83646Y26591D01*
X82646D01*
X83646Y25591D01*
X82646Y24591D01*
X83646D01*
X84646Y23591D01*
X109346Y29480D02*
X110346Y30480D01*
X111346D01*
X110346Y31480D01*
X111346Y32480D01*
X110346D01*
X109346Y33480D01*
X108346Y32480D01*
X107346D01*
X108346Y31480D01*
X107346Y30480D01*
X108346D01*
X109346Y29480D01*
X97146Y23054D02*
X98146Y24054D01*
X99146D01*
X98146Y25054D01*
X99146Y26054D01*
X98146D01*
X97146Y27053D01*
X96146Y26054D01*
X95146D01*
X96146Y25054D01*
X95146Y24054D01*
X96146D01*
X97146Y23054D01*
X106966Y-11494D02*
X107966Y-10494D01*
X108966D01*
X107966Y-9494D01*
X108966Y-8494D01*
X107966D01*
X106966Y-7494D01*
X105966Y-8494D01*
X104966D01*
X105966Y-9494D01*
X104966Y-10494D01*
X105966D01*
X106966Y-11494D01*
X-114272Y36681D02*
X-113272Y37681D01*
X-112272D01*
X-113272Y38681D01*
X-112272Y39681D01*
X-113272D01*
X-114272Y40681D01*
X-115272Y39681D01*
X-116272D01*
X-115272Y38681D01*
X-116272Y37681D01*
X-115272D01*
X-114272Y36681D01*
X120177Y-35858D02*
X121177Y-34858D01*
X122177D01*
X121177Y-33858D01*
X122177Y-32858D01*
X121177D01*
X120177Y-31858D01*
X119177Y-32858D01*
X118177D01*
X119177Y-33858D01*
X118177Y-34858D01*
X119177D01*
X120177Y-35858D01*
X119095Y-40780D02*
X120095Y-39779D01*
X121095D01*
X120095Y-38780D01*
X121095Y-37780D01*
X120095D01*
X119095Y-36779D01*
X118095Y-37780D01*
X117095D01*
X118095Y-38780D01*
X117095Y-39779D01*
X118095D01*
X119095Y-40780D01*
X-97441Y22803D02*
X-96441Y23803D01*
X-95441D01*
X-96441Y24803D01*
X-95441Y25803D01*
X-96441D01*
X-97441Y26803D01*
X-98441Y25803D01*
X-99441D01*
X-98441Y24803D01*
X-99441Y23803D01*
X-98441D01*
X-97441Y22803D01*
X-99803Y17980D02*
X-98803Y18980D01*
X-97803D01*
X-98803Y19980D01*
X-97803Y20980D01*
X-98803D01*
X-99803Y21980D01*
X-100803Y20980D01*
X-101803D01*
X-100803Y19980D01*
X-101803Y18980D01*
X-100803D01*
X-99803Y17980D01*
X21358Y85008D02*
X22358Y86008D01*
X23358D01*
X22358Y87008D01*
X23358Y88008D01*
X22358D01*
X21358Y89008D01*
X20358Y88008D01*
X19358D01*
X20358Y87008D01*
X19358Y86008D01*
X20358D01*
X21358Y85008D01*
X30709Y46819D02*
X31709Y47819D01*
X32709D01*
X31709Y48819D01*
X32709Y49819D01*
X31709D01*
X30709Y50819D01*
X29709Y49819D01*
X28709D01*
X29709Y48819D01*
X28709Y47819D01*
X29709D01*
X30709Y46819D01*
X19291Y47213D02*
X20291Y48213D01*
X21291D01*
X20291Y49213D01*
X21291Y50213D01*
X20291D01*
X19291Y51213D01*
X18291Y50213D01*
X17291D01*
X18291Y49213D01*
X17291Y48213D01*
X18291D01*
X19291Y47213D01*
X-96850Y65913D02*
X-95850Y66913D01*
X-94850D01*
X-95850Y67913D01*
X-94850Y68913D01*
X-95850D01*
X-96850Y69913D01*
X-97850Y68913D01*
X-98850D01*
X-97850Y67913D01*
X-98850Y66913D01*
X-97850D01*
X-96850Y65913D01*
X-97063Y70654D02*
X-96063Y71654D01*
X-95063D01*
X-96063Y72654D01*
X-95063Y73654D01*
X-96063D01*
X-97063Y74654D01*
X-98063Y73654D01*
X-99063D01*
X-98063Y72654D01*
X-99063Y71654D01*
X-98063D01*
X-97063Y70654D01*
X-105600Y47300D02*
X-104600Y48300D01*
X-103600D01*
X-104600Y49300D01*
X-103600Y50300D01*
X-104600D01*
X-105600Y51300D01*
X-106600Y50300D01*
X-107600D01*
X-106600Y49300D01*
X-107600Y48300D01*
X-106600D01*
X-105600Y47300D01*
X35630Y139142D02*
X36630Y140142D01*
X37630D01*
X36630Y141142D01*
X37630Y142142D01*
X36630D01*
X35630Y143142D01*
X34630Y142142D01*
X33630D01*
X34630Y141142D01*
X33630Y140142D01*
X34630D01*
X35630Y139142D01*
X15847Y82354D02*
X16847Y83355D01*
X17847D01*
X16847Y84355D01*
X17847Y85355D01*
X16847D01*
X15847Y86355D01*
X14847Y85355D01*
X13847D01*
X14847Y84355D01*
X13847Y83355D01*
X14847D01*
X15847Y82354D01*
X36614Y70638D02*
X37614Y71638D01*
X38614D01*
X37614Y72638D01*
X38614Y73638D01*
X37614D01*
X36614Y74638D01*
X35614Y73638D01*
X34614D01*
X35614Y72638D01*
X34614Y71638D01*
X35614D01*
X36614Y70638D01*
X2953Y112173D02*
X3953Y113173D01*
X4953D01*
X3953Y114173D01*
X4953Y115173D01*
X3953D01*
X2953Y116173D01*
X1953Y115173D01*
X953D01*
X1953Y114173D01*
X953Y113173D01*
X1953D01*
X2953Y112173D01*
X984Y119063D02*
X1984Y120063D01*
X2984D01*
X1984Y121063D01*
X2984Y122063D01*
X1984D01*
X984Y123063D01*
X-16Y122063D01*
X-1016D01*
X-16Y121063D01*
X-1016Y120063D01*
X-16D01*
X984Y119063D01*
X-118110Y51543D02*
X-117110Y52543D01*
X-116110D01*
X-117110Y53543D01*
X-116110Y54543D01*
X-117110D01*
X-118110Y55543D01*
X-119110Y54543D01*
X-120110D01*
X-119110Y53543D01*
X-120110Y52543D01*
X-119110D01*
X-118110Y51543D01*
X-113779Y51937D02*
X-112779Y52937D01*
X-111779D01*
X-112779Y53937D01*
X-111779Y54937D01*
X-112779D01*
X-113779Y55937D01*
X-114779Y54937D01*
X-115779D01*
X-114779Y53937D01*
X-115779Y52937D01*
X-114779D01*
X-113779Y51937D01*
X-39393Y100060D02*
X-38393Y101060D01*
X-37393D01*
X-38393Y102060D01*
X-37393Y103060D01*
X-38393D01*
X-39393Y104060D01*
X-40393Y103060D01*
X-41393D01*
X-40393Y102060D01*
X-41393Y101060D01*
X-40393D01*
X-39393Y100060D01*
X-30948Y99906D02*
X-29948Y100906D01*
X-28948D01*
X-29948Y101906D01*
X-28948Y102906D01*
X-29948D01*
X-30948Y103906D01*
X-31948Y102906D01*
X-32948D01*
X-31948Y101906D01*
X-32948Y100906D01*
X-31948D01*
X-30948Y99906D01*
X9449Y83039D02*
X10449Y84039D01*
X11449D01*
X10449Y85039D01*
X11449Y86039D01*
X10449D01*
X9449Y87039D01*
X8449Y86039D01*
X7449D01*
X8449Y85039D01*
X7449Y84039D01*
X8449D01*
X9449Y83039D01*
X12659Y83249D02*
X13659Y84249D01*
X14659D01*
X13659Y85249D01*
X14659Y86249D01*
X13659D01*
X12659Y87249D01*
X11659Y86249D01*
X10659D01*
X11659Y85249D01*
X10659Y84249D01*
X11659D01*
X12659Y83249D01*
X18012Y84713D02*
X19012Y85713D01*
X20012D01*
X19012Y86713D01*
X20012Y87713D01*
X19012D01*
X18012Y88713D01*
X17012Y87713D01*
X16012D01*
X17012Y86713D01*
X16012Y85713D01*
X17012D01*
X18012Y84713D01*
X76378Y95244D02*
X77378Y96244D01*
X78378D01*
X77378Y97244D01*
X78378Y98244D01*
X77378D01*
X76378Y99244D01*
X75378Y98244D01*
X74378D01*
X75378Y97244D01*
X74378Y96244D01*
X75378D01*
X76378Y95244D01*
X66535Y89732D02*
X67535Y90732D01*
X68535D01*
X67535Y91732D01*
X68535Y92732D01*
X67535D01*
X66535Y93732D01*
X65535Y92732D01*
X64535D01*
X65535Y91732D01*
X64535Y90732D01*
X65535D01*
X66535Y89732D01*
X67323Y98394D02*
X68323Y99394D01*
X69323D01*
X68323Y100394D01*
X69323Y101394D01*
X68323D01*
X67323Y102394D01*
X66323Y101394D01*
X65323D01*
X66323Y100394D01*
X65323Y99394D01*
X66323D01*
X67323Y98394D01*
X63189Y89732D02*
X64189Y90732D01*
X65189D01*
X64189Y91732D01*
X65189Y92732D01*
X64189D01*
X63189Y93732D01*
X62189Y92732D01*
X61189D01*
X62189Y91732D01*
X61189Y90732D01*
X62189D01*
X63189Y89732D01*
X1476Y63157D02*
X2476Y64157D01*
X3476D01*
X2476Y65158D01*
X3476Y66158D01*
X2476D01*
X1476Y67158D01*
X476Y66158D01*
X-524D01*
X476Y65158D01*
X-524Y64157D01*
X476D01*
X1476Y63157D01*
X3543Y60131D02*
X4543Y61131D01*
X5543D01*
X4543Y62131D01*
X5543Y63131D01*
X4543D01*
X3543Y64131D01*
X2543Y63131D01*
X1543D01*
X2543Y62131D01*
X1543Y61131D01*
X2543D01*
X3543Y60131D01*
X107382Y23886D02*
X108382Y24886D01*
X109382D01*
X108382Y25886D01*
X109382Y26886D01*
X108382D01*
X107382Y27886D01*
X106382Y26886D01*
X105382D01*
X106382Y25886D01*
X105382Y24886D01*
X106382D01*
X107382Y23886D01*
X110630Y46031D02*
X111630Y47031D01*
X112630D01*
X111630Y48031D01*
X112630Y49031D01*
X111630D01*
X110630Y50031D01*
X109630Y49031D01*
X108630D01*
X109630Y48031D01*
X108630Y47031D01*
X109630D01*
X110630Y46031D01*
X102776Y50559D02*
X103776Y51559D01*
X104776D01*
X103776Y52559D01*
X104776Y53559D01*
X103776D01*
X102776Y54559D01*
X101776Y53559D01*
X100776D01*
X101776Y52559D01*
X100776Y51559D01*
X101776D01*
X102776Y50559D01*
X102362Y41012D02*
X103362Y42012D01*
X104362D01*
X103362Y43012D01*
X104362Y44012D01*
X103362D01*
X102362Y45012D01*
X101362Y44012D01*
X100362D01*
X101362Y43012D01*
X100362Y42012D01*
X101362D01*
X102362Y41012D01*
X100197Y60992D02*
X101197Y61992D01*
X102197D01*
X101197Y62992D01*
X102197Y63992D01*
X101197D01*
X100197Y64992D01*
X99197Y63992D01*
X98197D01*
X99197Y62992D01*
X98197Y61992D01*
X99197D01*
X100197Y60992D01*
X100394Y46819D02*
X101394Y47819D01*
X102394D01*
X101394Y48819D01*
X102394Y49819D01*
X101394D01*
X100394Y50819D01*
X99394Y49819D01*
X98394D01*
X99394Y48819D01*
X98394Y47819D01*
X99394D01*
X100394Y46819D01*
X81890Y60992D02*
X82890Y61992D01*
X83890D01*
X82890Y62992D01*
X83890Y63992D01*
X82890D01*
X81890Y64992D01*
X80890Y63992D01*
X79890D01*
X80890Y62992D01*
X79890Y61992D01*
X80890D01*
X81890Y60992D01*
X81496Y46591D02*
X82496Y47591D01*
X83496D01*
X82496Y48591D01*
X83496Y49591D01*
X82496D01*
X81496Y50591D01*
X80496Y49591D01*
X79496D01*
X80496Y48591D01*
X79496Y47591D01*
X80496D01*
X81496Y46591D01*
X82284Y41012D02*
X83284Y42012D01*
X84284D01*
X83284Y43012D01*
X84284Y44012D01*
X83284D01*
X82284Y45012D01*
X81283Y44012D01*
X80283D01*
X81283Y43012D01*
X80283Y42012D01*
X81283D01*
X82284Y41012D01*
Y50756D02*
X83284Y51756D01*
X84284D01*
X83284Y52756D01*
X84284Y53756D01*
X83284D01*
X82284Y54756D01*
X81283Y53756D01*
X80283D01*
X81283Y52756D01*
X80283Y51756D01*
X81283D01*
X82284Y50756D01*
X90158Y55480D02*
X91158Y56480D01*
X92158D01*
X91158Y57480D01*
X92158Y58480D01*
X91158D01*
X90158Y59480D01*
X89157Y58480D01*
X88157D01*
X89157Y57480D01*
X88157Y56480D01*
X89157D01*
X90158Y55480D01*
X52362Y45638D02*
X53362Y46638D01*
X54362D01*
X53362Y47638D01*
X54362Y48638D01*
X53362D01*
X52362Y49638D01*
X51362Y48638D01*
X50362D01*
X51362Y47638D01*
X50362Y46638D01*
X51362D01*
X52362Y45638D01*
X62205D02*
X63205Y46638D01*
X64205D01*
X63205Y47638D01*
X64205Y48638D01*
X63205D01*
X62205Y49638D01*
X61205Y48638D01*
X60205D01*
X61205Y47638D01*
X60205Y46638D01*
X61205D01*
X62205Y45638D01*
X40945Y46425D02*
X41945Y47425D01*
X42945D01*
X41945Y48425D01*
X42945Y49425D01*
X41945D01*
X40945Y50425D01*
X39945Y49425D01*
X38945D01*
X39945Y48425D01*
X38945Y47425D01*
X39945D01*
X40945Y46425D01*
X9449Y46819D02*
X10449Y47819D01*
X11449D01*
X10449Y48819D01*
X11449Y49819D01*
X10449D01*
X9449Y50819D01*
X8449Y49819D01*
X7449D01*
X8449Y48819D01*
X7449Y47819D01*
X8449D01*
X9449Y46819D01*
X-52362Y47213D02*
X-51362Y48213D01*
X-50362D01*
X-51362Y49213D01*
X-50362Y50213D01*
X-51362D01*
X-52362Y51213D01*
X-53362Y50213D01*
X-54362D01*
X-53362Y49213D01*
X-54362Y48213D01*
X-53362D01*
X-52362Y47213D01*
X-12598Y47606D02*
X-11598Y48606D01*
X-10598D01*
X-11598Y49606D01*
X-10598Y50606D01*
X-11598D01*
X-12598Y51606D01*
X-13598Y50606D01*
X-14598D01*
X-13598Y49606D01*
X-14598Y48606D01*
X-13598D01*
X-12598Y47606D01*
X-22835Y47213D02*
X-21835Y48213D01*
X-20835D01*
X-21835Y49213D01*
X-20835Y50213D01*
X-21835D01*
X-22835Y51213D01*
X-23835Y50213D01*
X-24835D01*
X-23835Y49213D01*
X-24835Y48213D01*
X-23835D01*
X-22835Y47213D01*
X39724Y71228D02*
X40724Y72228D01*
X41724D01*
X40724Y73228D01*
X41724Y74228D01*
X40724D01*
X39724Y75228D01*
X38724Y74228D01*
X37724D01*
X38724Y73228D01*
X37724Y72228D01*
X38724D01*
X39724Y71228D01*
X40157Y63354D02*
X41157Y64354D01*
X42158D01*
X41157Y65354D01*
X42158Y66354D01*
X41157D01*
X40157Y67354D01*
X39158Y66354D01*
X38157D01*
X39158Y65354D01*
X38157Y64354D01*
X39158D01*
X40157Y63354D01*
X-31496Y74294D02*
X-30496Y75294D01*
X-29496D01*
X-30496Y76294D01*
X-29496Y77294D01*
X-30496D01*
X-31496Y78294D01*
X-32496Y77294D01*
X-33496D01*
X-32496Y76294D01*
X-33496Y75294D01*
X-32496D01*
X-31496Y74294D01*
X-27559D02*
X-26559Y75294D01*
X-25559D01*
X-26559Y76294D01*
X-25559Y77294D01*
X-26559D01*
X-27559Y78294D01*
X-28559Y77294D01*
X-29559D01*
X-28559Y76294D01*
X-29559Y75294D01*
X-28559D01*
X-27559Y74294D01*
X-24606D02*
X-23606Y75294D01*
X-22606D01*
X-23606Y76294D01*
X-22606Y77294D01*
X-23606D01*
X-24606Y78294D01*
X-25606Y77294D01*
X-26606D01*
X-25606Y76294D01*
X-26606Y75294D01*
X-25606D01*
X-24606Y74294D01*
X-19685Y74772D02*
X-18685Y75772D01*
X-17685D01*
X-18685Y76772D01*
X-17685Y77772D01*
X-18685D01*
X-19685Y78772D01*
X-20685Y77772D01*
X-21685D01*
X-20685Y76772D01*
X-21685Y75772D01*
X-20685D01*
X-19685Y74772D01*
X-16732D02*
X-15732Y75772D01*
X-14732D01*
X-15732Y76772D01*
X-14732Y77772D01*
X-15732D01*
X-16732Y78772D01*
X-17732Y77772D01*
X-18732D01*
X-17732Y76772D01*
X-18732Y75772D01*
X-17732D01*
X-16732Y74772D01*
Y71327D02*
X-15732Y72327D01*
X-14732D01*
X-15732Y73327D01*
X-14732Y74327D01*
X-15732D01*
X-16732Y75327D01*
X-17732Y74327D01*
X-18732D01*
X-17732Y73327D01*
X-18732Y72327D01*
X-17732D01*
X-16732Y71327D01*
X-19685Y70638D02*
X-18685Y71638D01*
X-17685D01*
X-18685Y72638D01*
X-17685Y73638D01*
X-18685D01*
X-19685Y74638D01*
X-20685Y73638D01*
X-21685D01*
X-20685Y72638D01*
X-21685Y71638D01*
X-20685D01*
X-19685Y70638D01*
X-22835Y70835D02*
X-21835Y71835D01*
X-20835D01*
X-21835Y72835D01*
X-20835Y73835D01*
X-21835D01*
X-22835Y74835D01*
X-23835Y73835D01*
X-24835D01*
X-23835Y72835D01*
X-24835Y71835D01*
X-23835D01*
X-22835Y70835D01*
X-25591D02*
X-24590Y71835D01*
X-23591D01*
X-24590Y72835D01*
X-23591Y73835D01*
X-24590D01*
X-25591Y74835D01*
X-26591Y73835D01*
X-27591D01*
X-26591Y72835D01*
X-27591Y71835D01*
X-26591D01*
X-25591Y70835D01*
X-28543D02*
X-27543Y71835D01*
X-26543D01*
X-27543Y72835D01*
X-26543Y73835D01*
X-27543D01*
X-28543Y74835D01*
X-29543Y73835D01*
X-30543D01*
X-29543Y72835D01*
X-30543Y71835D01*
X-29543D01*
X-28543Y70835D01*
X-30948D02*
X-29948Y71835D01*
X-28948D01*
X-29948Y72835D01*
X-28948Y73835D01*
X-29948D01*
X-30948Y74835D01*
X-31948Y73835D01*
X-32948D01*
X-31948Y72835D01*
X-32948Y71835D01*
X-31948D01*
X-30948Y70835D01*
X-29528Y67882D02*
X-28528Y68882D01*
X-27528D01*
X-28528Y69882D01*
X-27528Y70882D01*
X-28528D01*
X-29528Y71882D01*
X-30528Y70882D01*
X-31528D01*
X-30528Y69882D01*
X-31528Y68882D01*
X-30528D01*
X-29528Y67882D01*
X-25591D02*
X-24590Y68882D01*
X-23591D01*
X-24590Y69882D01*
X-23591Y70882D01*
X-24590D01*
X-25591Y71882D01*
X-26591Y70882D01*
X-27591D01*
X-26591Y69882D01*
X-27591Y68882D01*
X-26591D01*
X-25591Y67882D01*
X-95571Y25362D02*
X-94571Y26362D01*
X-93571D01*
X-94571Y27362D01*
X-93571Y28362D01*
X-94571D01*
X-95571Y29362D01*
X-96571Y28362D01*
X-97571D01*
X-96571Y27362D01*
X-97571Y26362D01*
X-96571D01*
X-95571Y25362D01*
X60236Y1445D02*
X61236Y2445D01*
X62236D01*
X61236Y3445D01*
X62236Y4445D01*
X61236D01*
X60236Y5445D01*
X59236Y4445D01*
X58236D01*
X59236Y3445D01*
X58236Y2445D01*
X59236D01*
X60236Y1445D01*
X-87700Y30300D02*
X-86700Y31300D01*
X-85700D01*
X-86700Y32300D01*
X-85700Y33300D01*
X-86700D01*
X-87700Y34300D01*
X-88700Y33300D01*
X-89700D01*
X-88700Y32300D01*
X-89700Y31300D01*
X-88700D01*
X-87700Y30300D01*
X-128000Y-21800D02*
X-127000Y-20800D01*
X-126000D01*
X-127000Y-19800D01*
X-126000Y-18800D01*
X-127000D01*
X-128000Y-17800D01*
X-129000Y-18800D01*
X-130000D01*
X-129000Y-19800D01*
X-130000Y-20800D01*
X-129000D01*
X-128000Y-21800D01*
X-136100Y-21600D02*
X-135100Y-20600D01*
X-134100D01*
X-135100Y-19600D01*
X-134100Y-18600D01*
X-135100D01*
X-136100Y-17600D01*
X-137100Y-18600D01*
X-138100D01*
X-137100Y-19600D01*
X-138100Y-20600D01*
X-137100D01*
X-136100Y-21600D01*
X-136600Y-30200D02*
X-135600Y-29200D01*
X-134600D01*
X-135600Y-28200D01*
X-134600Y-27200D01*
X-135600D01*
X-136600Y-26200D01*
X-137600Y-27200D01*
X-138600D01*
X-137600Y-28200D01*
X-138600Y-29200D01*
X-137600D01*
X-136600Y-30200D01*
X-137300Y-37800D02*
X-136300Y-36800D01*
X-135300D01*
X-136300Y-35800D01*
X-135300Y-34800D01*
X-136300D01*
X-137300Y-33800D01*
X-138300Y-34800D01*
X-139300D01*
X-138300Y-35800D01*
X-139300Y-36800D01*
X-138300D01*
X-137300Y-37800D01*
X-127500D02*
X-126500Y-36800D01*
X-125500D01*
X-126500Y-35800D01*
X-125500Y-34800D01*
X-126500D01*
X-127500Y-33800D01*
X-128500Y-34800D01*
X-129500D01*
X-128500Y-35800D01*
X-129500Y-36800D01*
X-128500D01*
X-127500Y-37800D01*
Y-29900D02*
X-126500Y-28900D01*
X-125500D01*
X-126500Y-27900D01*
X-125500Y-26900D01*
X-126500D01*
X-127500Y-25900D01*
X-128500Y-26900D01*
X-129500D01*
X-128500Y-27900D01*
X-129500Y-28900D01*
X-128500D01*
X-127500Y-29900D01*
X-119000Y-38000D02*
X-118000Y-37000D01*
X-117000D01*
X-118000Y-36000D01*
X-117000Y-35000D01*
X-118000D01*
X-119000Y-34000D01*
X-120000Y-35000D01*
X-121000D01*
X-120000Y-36000D01*
X-121000Y-37000D01*
X-120000D01*
X-119000Y-38000D01*
X-118700Y-30400D02*
X-117700Y-29400D01*
X-116700D01*
X-117700Y-28400D01*
X-116700Y-27400D01*
X-117700D01*
X-118700Y-26400D01*
X-119700Y-27400D01*
X-120700D01*
X-119700Y-28400D01*
X-120700Y-29400D01*
X-119700D01*
X-118700Y-30400D01*
X-118400Y-21900D02*
X-117400Y-20900D01*
X-116400D01*
X-117400Y-19900D01*
X-116400Y-18900D01*
X-117400D01*
X-118400Y-17900D01*
X-119400Y-18900D01*
X-120400D01*
X-119400Y-19900D01*
X-120400Y-20900D01*
X-119400D01*
X-118400Y-21900D01*
X-107200Y-22200D02*
X-106200Y-21200D01*
X-105200D01*
X-106200Y-20200D01*
X-105200Y-19200D01*
X-106200D01*
X-107200Y-18200D01*
X-108200Y-19200D01*
X-109200D01*
X-108200Y-20200D01*
X-109200Y-21200D01*
X-108200D01*
X-107200Y-22200D01*
X-107300Y-28700D02*
X-106300Y-27700D01*
X-105300D01*
X-106300Y-26700D01*
X-105300Y-25700D01*
X-106300D01*
X-107300Y-24700D01*
X-108300Y-25700D01*
X-109300D01*
X-108300Y-26700D01*
X-109300Y-27700D01*
X-108300D01*
X-107300Y-28700D01*
X-136100Y11500D02*
X-135100Y12500D01*
X-134100D01*
X-135100Y13500D01*
X-134100Y14500D01*
X-135100D01*
X-136100Y15500D01*
X-137100Y14500D01*
X-138100D01*
X-137100Y13500D01*
X-138100Y12500D01*
X-137100D01*
X-136100Y11500D01*
X-125600Y12200D02*
X-124600Y13200D01*
X-123600D01*
X-124600Y14200D01*
X-123600Y15200D01*
X-124600D01*
X-125600Y16200D01*
X-126600Y15200D01*
X-127600D01*
X-126600Y14200D01*
X-127600Y13200D01*
X-126600D01*
X-125600Y12200D01*
X-148400Y38900D02*
X-147400Y39900D01*
X-146400D01*
X-147400Y40900D01*
X-146400Y41900D01*
X-147400D01*
X-148400Y42900D01*
X-149400Y41900D01*
X-150400D01*
X-149400Y40900D01*
X-150400Y39900D01*
X-149400D01*
X-148400Y38900D01*
X-138800D02*
X-137800Y39900D01*
X-136800D01*
X-137800Y40900D01*
X-136800Y41900D01*
X-137800D01*
X-138800Y42900D01*
X-139800Y41900D01*
X-140800D01*
X-139800Y40900D01*
X-140800Y39900D01*
X-139800D01*
X-138800Y38900D01*
X-129200Y38000D02*
X-128200Y39000D01*
X-127200D01*
X-128200Y40000D01*
X-127200Y41000D01*
X-128200D01*
X-129200Y42000D01*
X-130200Y41000D01*
X-131200D01*
X-130200Y40000D01*
X-131200Y39000D01*
X-130200D01*
X-129200Y38000D01*
X-135900Y53100D02*
X-134900Y54100D01*
X-133900D01*
X-134900Y55100D01*
X-133900Y56100D01*
X-134900D01*
X-135900Y57100D01*
X-136900Y56100D01*
X-137900D01*
X-136900Y55100D01*
X-137900Y54100D01*
X-136900D01*
X-135900Y53100D01*
X-135000Y60600D02*
X-134000Y61600D01*
X-133000D01*
X-134000Y62600D01*
X-133000Y63600D01*
X-134000D01*
X-135000Y64600D01*
X-136000Y63600D01*
X-137000D01*
X-136000Y62600D01*
X-137000Y61600D01*
X-136000D01*
X-135000Y60600D01*
X-118900Y87900D02*
X-117900Y88900D01*
X-116900D01*
X-117900Y89900D01*
X-116900Y90900D01*
X-117900D01*
X-118900Y91900D01*
X-119900Y90900D01*
X-120900D01*
X-119900Y89900D01*
X-120900Y88900D01*
X-119900D01*
X-118900Y87900D01*
X-110600Y88000D02*
X-109600Y89000D01*
X-108600D01*
X-109600Y90000D01*
X-108600Y91000D01*
X-109600D01*
X-110600Y92000D01*
X-111600Y91000D01*
X-112600D01*
X-111600Y90000D01*
X-112600Y89000D01*
X-111600D01*
X-110600Y88000D01*
X-101800Y87800D02*
X-100800Y88800D01*
X-99800D01*
X-100800Y89800D01*
X-99800Y90800D01*
X-100800D01*
X-101800Y91800D01*
X-102800Y90800D01*
X-103800D01*
X-102800Y89800D01*
X-103800Y88800D01*
X-102800D01*
X-101800Y87800D01*
X-112300Y98400D02*
X-111300Y99400D01*
X-110300D01*
X-111300Y100400D01*
X-110300Y101400D01*
X-111300D01*
X-112300Y102400D01*
X-113300Y101400D01*
X-114300D01*
X-113300Y100400D01*
X-114300Y99400D01*
X-113300D01*
X-112300Y98400D01*
X-103100Y97800D02*
X-102100Y98800D01*
X-101100D01*
X-102100Y99800D01*
X-101100Y100800D01*
X-102100D01*
X-103100Y101800D01*
X-104100Y100800D01*
X-105100D01*
X-104100Y99800D01*
X-105100Y98800D01*
X-104100D01*
X-103100Y97800D01*
X-106300Y105200D02*
X-105300Y106200D01*
X-104300D01*
X-105300Y107200D01*
X-104300Y108200D01*
X-105300D01*
X-106300Y109200D01*
X-107300Y108200D01*
X-108300D01*
X-107300Y107200D01*
X-108300Y106200D01*
X-107300D01*
X-106300Y105200D01*
X-99000Y105300D02*
X-98000Y106300D01*
X-97000D01*
X-98000Y107300D01*
X-97000Y108300D01*
X-98000D01*
X-99000Y109300D01*
X-100000Y108300D01*
X-101000D01*
X-100000Y107300D01*
X-101000Y106300D01*
X-100000D01*
X-99000Y105300D01*
X-88700Y105400D02*
X-87700Y106400D01*
X-86700D01*
X-87700Y107400D01*
X-86700Y108400D01*
X-87700D01*
X-88700Y109400D01*
X-89700Y108400D01*
X-90700D01*
X-89700Y107400D01*
X-90700Y106400D01*
X-89700D01*
X-88700Y105400D01*
X-99500Y112200D02*
X-98500Y113200D01*
X-97500D01*
X-98500Y114200D01*
X-97500Y115200D01*
X-98500D01*
X-99500Y116200D01*
X-100500Y115200D01*
X-101500D01*
X-100500Y114200D01*
X-101500Y113200D01*
X-100500D01*
X-99500Y112200D01*
X-89900D02*
X-88900Y113200D01*
X-87900D01*
X-88900Y114200D01*
X-87900Y115200D01*
X-88900D01*
X-89900Y116200D01*
X-90900Y115200D01*
X-91900D01*
X-90900Y114200D01*
X-91900Y113200D01*
X-90900D01*
X-89900Y112200D01*
X-83800Y111900D02*
X-82800Y112900D01*
X-81800D01*
X-82800Y113900D01*
X-81800Y114900D01*
X-82800D01*
X-83800Y115900D01*
X-84800Y114900D01*
X-85800D01*
X-84800Y113900D01*
X-85800Y112900D01*
X-84800D01*
X-83800Y111900D01*
X-83700Y124900D02*
X-82700Y125900D01*
X-81700D01*
X-82700Y126900D01*
X-81700Y127900D01*
X-82700D01*
X-83700Y128900D01*
X-84700Y127900D01*
X-85700D01*
X-84700Y126900D01*
X-85700Y125900D01*
X-84700D01*
X-83700Y124900D01*
X-75500Y129000D02*
X-74500Y130000D01*
X-73500D01*
X-74500Y131000D01*
X-73500Y132000D01*
X-74500D01*
X-75500Y133000D01*
X-76500Y132000D01*
X-77500D01*
X-76500Y131000D01*
X-77500Y130000D01*
X-76500D01*
X-75500Y129000D01*
X-69900Y132000D02*
X-68900Y133000D01*
X-67900D01*
X-68900Y134000D01*
X-67900Y135000D01*
X-68900D01*
X-69900Y136000D01*
X-70900Y135000D01*
X-71900D01*
X-70900Y134000D01*
X-71900Y133000D01*
X-70900D01*
X-69900Y132000D01*
X-35300Y83200D02*
X-34300Y84200D01*
X-33300D01*
X-34300Y85200D01*
X-33300Y86200D01*
X-34300D01*
X-35300Y87200D01*
X-36300Y86200D01*
X-37300D01*
X-36300Y85200D01*
X-37300Y84200D01*
X-36300D01*
X-35300Y83200D01*
X-19500Y82500D02*
X-18500Y83500D01*
X-17500D01*
X-18500Y84500D01*
X-17500Y85500D01*
X-18500D01*
X-19500Y86500D01*
X-20500Y85500D01*
X-21500D01*
X-20500Y84500D01*
X-21500Y83500D01*
X-20500D01*
X-19500Y82500D01*
Y88400D02*
X-18500Y89400D01*
X-17500D01*
X-18500Y90400D01*
X-17500Y91400D01*
X-18500D01*
X-19500Y92400D01*
X-20500Y91400D01*
X-21500D01*
X-20500Y90400D01*
X-21500Y89400D01*
X-20500D01*
X-19500Y88400D01*
X-34800Y89000D02*
X-33800Y90000D01*
X-32800D01*
X-33800Y91000D01*
X-32800Y92000D01*
X-33800D01*
X-34800Y93000D01*
X-35800Y92000D01*
X-36800D01*
X-35800Y91000D01*
X-36800Y90000D01*
X-35800D01*
X-34800Y89000D01*
X-66100Y86700D02*
X-65100Y87700D01*
X-64100D01*
X-65100Y88700D01*
X-64100Y89700D01*
X-65100D01*
X-66100Y90700D01*
X-67100Y89700D01*
X-68100D01*
X-67100Y88700D01*
X-68100Y87700D01*
X-67100D01*
X-66100Y86700D01*
X-65100Y76300D02*
X-64100Y77300D01*
X-63100D01*
X-64100Y78300D01*
X-63100Y79300D01*
X-64100D01*
X-65100Y80300D01*
X-66100Y79300D01*
X-67100D01*
X-66100Y78300D01*
X-67100Y77300D01*
X-66100D01*
X-65100Y76300D01*
X1700Y83600D02*
X2700Y84600D01*
X3700D01*
X2700Y85600D01*
X3700Y86600D01*
X2700D01*
X1700Y87600D01*
X700Y86600D01*
X-300D01*
X700Y85600D01*
X-300Y84600D01*
X700D01*
X1700Y83600D01*
X2000Y73200D02*
X3000Y74200D01*
X4000D01*
X3000Y75200D01*
X4000Y76200D01*
X3000D01*
X2000Y77200D01*
X1000Y76200D01*
X0D01*
X1000Y75200D01*
X0Y74200D01*
X1000D01*
X2000Y73200D01*
X11400Y71500D02*
X12400Y72500D01*
X13400D01*
X12400Y73500D01*
X13400Y74500D01*
X12400D01*
X11400Y75500D01*
X10400Y74500D01*
X9400D01*
X10400Y73500D01*
X9400Y72500D01*
X10400D01*
X11400Y71500D01*
X12200Y76400D02*
X13200Y77400D01*
X14200D01*
X13200Y78400D01*
X14200Y79400D01*
X13200D01*
X12200Y80400D01*
X11200Y79400D01*
X10200D01*
X11200Y78400D01*
X10200Y77400D01*
X11200D01*
X12200Y76400D01*
X20000Y101800D02*
X21000Y102800D01*
X22000D01*
X21000Y103800D01*
X22000Y104800D01*
X21000D01*
X20000Y105800D01*
X19000Y104800D01*
X18000D01*
X19000Y103800D01*
X18000Y102800D01*
X19000D01*
X20000Y101800D01*
X29300Y88100D02*
X30300Y89100D01*
X31300D01*
X30300Y90100D01*
X31300Y91100D01*
X30300D01*
X29300Y92100D01*
X28300Y91100D01*
X27300D01*
X28300Y90100D01*
X27300Y89100D01*
X28300D01*
X29300Y88100D01*
X29600Y81900D02*
X30600Y82900D01*
X31600D01*
X30600Y83900D01*
X31600Y84900D01*
X30600D01*
X29600Y85900D01*
X28600Y84900D01*
X27600D01*
X28600Y83900D01*
X27600Y82900D01*
X28600D01*
X29600Y81900D01*
X22300Y94400D02*
X23300Y95400D01*
X24300D01*
X23300Y96400D01*
X24300Y97400D01*
X23300D01*
X22300Y98400D01*
X21300Y97400D01*
X20300D01*
X21300Y96400D01*
X20300Y95400D01*
X21300D01*
X22300Y94400D01*
X71300Y66600D02*
X72300Y67600D01*
X73300D01*
X72300Y68600D01*
X73300Y69600D01*
X72300D01*
X71300Y70600D01*
X70300Y69600D01*
X69300D01*
X70300Y68600D01*
X69300Y67600D01*
X70300D01*
X71300Y66600D01*
X60100Y71100D02*
X61100Y72100D01*
X62100D01*
X61100Y73100D01*
X62100Y74100D01*
X61100D01*
X60100Y75100D01*
X59100Y74100D01*
X58100D01*
X59100Y73100D01*
X58100Y72100D01*
X59100D01*
X60100Y71100D01*
X29700Y62100D02*
X30700Y63100D01*
X31700D01*
X30700Y64100D01*
X31700Y65100D01*
X30700D01*
X29700Y66100D01*
X28700Y65100D01*
X27700D01*
X28700Y64100D01*
X27700Y63100D01*
X28700D01*
X29700Y62100D01*
X83300Y87300D02*
X84300Y88300D01*
X85300D01*
X84300Y89300D01*
X85300Y90300D01*
X84300D01*
X83300Y91300D01*
X82300Y90300D01*
X81300D01*
X82300Y89300D01*
X81300Y88300D01*
X82300D01*
X83300Y87300D01*
X91900Y87400D02*
X92900Y88400D01*
X93900D01*
X92900Y89400D01*
X93900Y90400D01*
X92900D01*
X91900Y91400D01*
X90900Y90400D01*
X89900D01*
X90900Y89400D01*
X89900Y88400D01*
X90900D01*
X91900Y87400D01*
X92800Y113600D02*
X93800Y114600D01*
X94800D01*
X93800Y115600D01*
X94800Y116600D01*
X93800D01*
X92800Y117600D01*
X91800Y116600D01*
X90800D01*
X91800Y115600D01*
X90800Y114600D01*
X91800D01*
X92800Y113600D01*
X92900Y104200D02*
X93900Y105200D01*
X94900D01*
X93900Y106200D01*
X94900Y107200D01*
X93900D01*
X92900Y108200D01*
X91900Y107200D01*
X90900D01*
X91900Y106200D01*
X90900Y105200D01*
X91900D01*
X92900Y104200D01*
X42100Y132400D02*
X43100Y133400D01*
X44100D01*
X43100Y134400D01*
X44100Y135400D01*
X43100D01*
X42100Y136400D01*
X41100Y135400D01*
X40100D01*
X41100Y134400D01*
X40100Y133400D01*
X41100D01*
X42100Y132400D01*
X50100Y132300D02*
X51100Y133300D01*
X52100D01*
X51100Y134300D01*
X52100Y135300D01*
X51100D01*
X50100Y136300D01*
X49100Y135300D01*
X48100D01*
X49100Y134300D01*
X48100Y133300D01*
X49100D01*
X50100Y132300D01*
X58800Y132400D02*
X59800Y133400D01*
X60800D01*
X59800Y134400D01*
X60800Y135400D01*
X59800D01*
X58800Y136400D01*
X57800Y135400D01*
X56800D01*
X57800Y134400D01*
X56800Y133400D01*
X57800D01*
X58800Y132400D01*
X22600Y116700D02*
X23600Y117700D01*
X24600D01*
X23600Y118700D01*
X24600Y119700D01*
X23600D01*
X22600Y120700D01*
X21600Y119700D01*
X20600D01*
X21600Y118700D01*
X20600Y117700D01*
X21600D01*
X22600Y116700D01*
X-11500Y136800D02*
X-10500Y137800D01*
X-9500D01*
X-10500Y138800D01*
X-9500Y139800D01*
X-10500D01*
X-11500Y140800D01*
X-12500Y139800D01*
X-13500D01*
X-12500Y138800D01*
X-13500Y137800D01*
X-12500D01*
X-11500Y136800D01*
X-13300Y130800D02*
X-12300Y131800D01*
X-11300D01*
X-12300Y132800D01*
X-11300Y133800D01*
X-12300D01*
X-13300Y134800D01*
X-14300Y133800D01*
X-15300D01*
X-14300Y132800D01*
X-15300Y131800D01*
X-14300D01*
X-13300Y130800D01*
X-28500Y118600D02*
X-27500Y119600D01*
X-26500D01*
X-27500Y120600D01*
X-26500Y121600D01*
X-27500D01*
X-28500Y122600D01*
X-29500Y121600D01*
X-30500D01*
X-29500Y120600D01*
X-30500Y119600D01*
X-29500D01*
X-28500Y118600D01*
X-25100Y118800D02*
X-24100Y119800D01*
X-23100D01*
X-24100Y120800D01*
X-23100Y121800D01*
X-24100D01*
X-25100Y122800D01*
X-26100Y121800D01*
X-27100D01*
X-26100Y120800D01*
X-27100Y119800D01*
X-26100D01*
X-25100Y118800D01*
X-68600Y120000D02*
X-67600Y121000D01*
X-66600D01*
X-67600Y122000D01*
X-66600Y123000D01*
X-67600D01*
X-68600Y124000D01*
X-69600Y123000D01*
X-70600D01*
X-69600Y122000D01*
X-70600Y121000D01*
X-69600D01*
X-68600Y120000D01*
X129000Y20000D02*
X130000Y21000D01*
X131000D01*
X130000Y22000D01*
X131000Y23000D01*
X130000D01*
X129000Y24000D01*
X128000Y23000D01*
X127000D01*
X128000Y22000D01*
X127000Y21000D01*
X128000D01*
X129000Y20000D01*
X132400Y28300D02*
X133400Y29300D01*
X134400D01*
X133400Y30300D01*
X134400Y31300D01*
X133400D01*
X132400Y32300D01*
X131400Y31300D01*
X130400D01*
X131400Y30300D01*
X130400Y29300D01*
X131400D01*
X132400Y28300D01*
X105600Y-22500D02*
X106600Y-21500D01*
X107600D01*
X106600Y-20500D01*
X107600Y-19500D01*
X106600D01*
X105600Y-18500D01*
X104600Y-19500D01*
X103600D01*
X104600Y-20500D01*
X103600Y-21500D01*
X104600D01*
X105600Y-22500D01*
X111400Y-28100D02*
X112400Y-27100D01*
X113400D01*
X112400Y-26100D01*
X113400Y-25100D01*
X112400D01*
X111400Y-24100D01*
X110400Y-25100D01*
X109400D01*
X110400Y-26100D01*
X109400Y-27100D01*
X110400D01*
X111400Y-28100D01*
X129800Y-39600D02*
X130800Y-38600D01*
X131800D01*
X130800Y-37600D01*
X131800Y-36600D01*
X130800D01*
X129800Y-35600D01*
X128800Y-36600D01*
X127800D01*
X128800Y-37600D01*
X127800Y-38600D01*
X128800D01*
X129800Y-39600D01*
D11*
X-15028Y120344D02*
G03*
X-15028Y120344I-2000J0D01*
G01*
X19008D02*
G03*
X19008Y120344I-2000J0D01*
G01*
M02*
