%FSLAX25Y25*%
%MOIN*%
G70*
G01*
G75*
G04 Layer_Physical_Order=5*
G04 Layer_Color=16711680*
%ADD10C,0.00787*%
%ADD11C,0.01181*%
%ADD12C,0.03937*%
%ADD13R,0.01969X0.02362*%
%ADD14R,0.05118X0.03150*%
%ADD15R,0.02362X0.01969*%
%ADD16R,0.03937X0.03543*%
%ADD17R,0.02756X0.04921*%
%ADD18R,0.06693X0.03543*%
%ADD19R,0.06299X0.04921*%
%ADD20O,0.02362X0.05512*%
%ADD21O,0.07874X0.05906*%
%ADD22R,0.07874X0.05906*%
%ADD23R,0.03150X0.05118*%
%ADD24R,0.03150X0.03150*%
%ADD25R,0.04921X0.02756*%
%ADD26R,0.05906X0.11811*%
%ADD27O,0.05906X0.07874*%
%ADD28R,0.05906X0.07874*%
%ADD29R,0.03543X0.03937*%
G04:AMPARAMS|DCode=30|XSize=118.11mil|YSize=59.06mil|CornerRadius=14.76mil|HoleSize=0mil|Usage=FLASHONLY|Rotation=270.000|XOffset=0mil|YOffset=0mil|HoleType=Round|Shape=RoundedRectangle|*
%AMROUNDEDRECTD30*
21,1,0.11811,0.02953,0,0,270.0*
21,1,0.08858,0.05906,0,0,270.0*
1,1,0.02953,-0.01476,-0.04429*
1,1,0.02953,-0.01476,0.04429*
1,1,0.02953,0.01476,0.04429*
1,1,0.02953,0.01476,-0.04429*
%
%ADD30ROUNDEDRECTD30*%
%ADD31C,0.07874*%
%ADD32R,0.30709X0.12598*%
%ADD33R,0.17717X0.18504*%
%ADD34R,0.14173X0.15354*%
%ADD35R,0.09843X0.11417*%
%ADD36C,0.02559*%
G04:AMPARAMS|DCode=37|XSize=39.37mil|YSize=82.68mil|CornerRadius=17.72mil|HoleSize=0mil|Usage=FLASHONLY|Rotation=0.000|XOffset=0mil|YOffset=0mil|HoleType=Round|Shape=RoundedRectangle|*
%AMROUNDEDRECTD37*
21,1,0.03937,0.04724,0,0,0.0*
21,1,0.00394,0.08268,0,0,0.0*
1,1,0.03543,0.00197,-0.02362*
1,1,0.03543,-0.00197,-0.02362*
1,1,0.03543,-0.00197,0.02362*
1,1,0.03543,0.00197,0.02362*
%
%ADD37ROUNDEDRECTD37*%
G04:AMPARAMS|DCode=38|XSize=39.37mil|YSize=62.99mil|CornerRadius=17.72mil|HoleSize=0mil|Usage=FLASHONLY|Rotation=0.000|XOffset=0mil|YOffset=0mil|HoleType=Round|Shape=RoundedRectangle|*
%AMROUNDEDRECTD38*
21,1,0.03937,0.02756,0,0,0.0*
21,1,0.00394,0.06299,0,0,0.0*
1,1,0.03543,0.00197,-0.01378*
1,1,0.03543,-0.00197,-0.01378*
1,1,0.03543,-0.00197,0.01378*
1,1,0.03543,0.00197,0.01378*
%
%ADD38ROUNDEDRECTD38*%
%ADD39C,0.02362*%
%ADD40C,0.00197*%
%ADD41C,0.01969*%
%ADD42R,0.01181X0.03347*%
%ADD43R,0.02362X0.03347*%
%ADD44R,0.05512X0.02362*%
%ADD45R,0.01575X0.04724*%
%ADD46C,0.11811*%
G36*
X25894Y141707D02*
X25186Y141492D01*
X24126Y140925D01*
X23197Y140163D01*
X22434Y139234D01*
X21867Y138173D01*
X21519Y137023D01*
X21401Y135827D01*
X21519Y134631D01*
X21867Y133480D01*
X22434Y132420D01*
X23197Y131491D01*
X24126Y130728D01*
X25186Y130162D01*
X26336Y129813D01*
X27533Y129695D01*
X28729Y129813D01*
X29879Y130162D01*
X30939Y130728D01*
X31868Y131491D01*
X32631Y132420D01*
X33198Y133480D01*
X33547Y134631D01*
X33665Y135827D01*
X33547Y137023D01*
X33341Y137701D01*
X33770Y137958D01*
X33800Y137928D01*
X33800Y137928D01*
X34191Y137667D01*
X34651Y137575D01*
X34651Y137575D01*
X36811D01*
X36811Y137575D01*
X37272Y137667D01*
X37663Y137928D01*
X40258Y140524D01*
X62673D01*
X65504Y139269D01*
X72719Y135637D01*
X79747Y131656D01*
X86571Y127334D01*
X93175Y122683D01*
X99543Y117714D01*
X105659Y112438D01*
X111509Y106868D01*
X117079Y101018D01*
X122355Y94902D01*
X127324Y88534D01*
X131975Y81931D01*
X136296Y75106D01*
X139293Y69817D01*
X139293Y69817D01*
X139293Y69817D01*
X139618Y69033D01*
X139513Y68692D01*
X114998Y56472D01*
X114845Y56353D01*
X114684Y56246D01*
X114000Y55562D01*
X113739Y55172D01*
X113647Y54711D01*
X113647Y54711D01*
Y37496D01*
X111804Y35653D01*
X110827D01*
Y36142D01*
X110827D01*
Y36614D01*
X110906Y36630D01*
X111557Y37065D01*
X111992Y37716D01*
X112145Y38484D01*
X111992Y39252D01*
X111557Y39904D01*
X110906Y40339D01*
X110138Y40491D01*
X109370Y40339D01*
X108981Y40079D01*
X103740D01*
Y36142D01*
X105812D01*
X105861Y35644D01*
X105445Y35561D01*
X105288Y35457D01*
X105054Y35300D01*
X105054Y35300D01*
X104463Y34710D01*
X104202Y34319D01*
X104111Y33858D01*
X102634Y33563D01*
X99170D01*
X98979Y34025D01*
X99277Y34323D01*
X99277Y34323D01*
X99538Y34714D01*
X99629Y35175D01*
X99629Y35175D01*
Y39757D01*
X100852Y40979D01*
X100852Y40979D01*
X100967Y41151D01*
X101457Y41249D01*
X101594Y41157D01*
X102362Y41005D01*
X103130Y41157D01*
X103388Y41330D01*
X103740Y41142D01*
Y41142D01*
X103740Y41142D01*
X110827D01*
Y45079D01*
X103740D01*
Y44989D01*
X103299Y44753D01*
X103130Y44866D01*
X102362Y45019D01*
X101594Y44866D01*
X101204Y45074D01*
Y46031D01*
X101348Y46753D01*
X101753Y47360D01*
X101813Y47400D01*
X102248Y48051D01*
X102401Y48819D01*
X102248Y49587D01*
X101813Y50238D01*
X101732Y50292D01*
X102007Y50705D01*
X102776Y50552D01*
X103543Y50705D01*
X104195Y51140D01*
X104196Y51142D01*
X110827D01*
Y55079D01*
X103740D01*
Y54768D01*
X103354Y54451D01*
X102776Y54566D01*
X102007Y54413D01*
X101370Y53987D01*
X101350Y53987D01*
Y53987D01*
X101348Y53987D01*
X101348D01*
X101322Y53960D01*
X100470D01*
X100399Y53969D01*
Y53960D01*
X99316D01*
X99316Y53960D01*
X98855Y53869D01*
X98464Y53607D01*
X96786Y51929D01*
X96525Y51539D01*
X96434Y51078D01*
X96434Y51078D01*
Y42231D01*
X95999Y41796D01*
X95738Y41406D01*
X95646Y40945D01*
X95646Y40945D01*
Y36326D01*
X94227Y34907D01*
X94016Y34591D01*
X93589D01*
X93505Y34608D01*
X93371Y34808D01*
X93371Y34808D01*
X92543Y35637D01*
Y44783D01*
X92451Y45244D01*
X92347Y45401D01*
X92190Y45635D01*
X92190Y45635D01*
X90639Y47186D01*
X90650Y47197D01*
X90552Y47273D01*
X89370Y48455D01*
Y50079D01*
X82813D01*
X82264Y50445D01*
X82225Y50453D01*
X82284Y50749D01*
X83052Y50902D01*
X83411Y51142D01*
X89370D01*
Y55079D01*
X82283D01*
Y54763D01*
X81515Y54610D01*
X80864Y54175D01*
X80429Y53524D01*
X80276Y52756D01*
X80429Y51988D01*
X80864Y51337D01*
X81318Y51034D01*
X81220Y50543D01*
X80728Y50445D01*
X80077Y50011D01*
X79642Y49359D01*
X79489Y48591D01*
X79642Y47823D01*
X80077Y47172D01*
X80599Y46823D01*
X80645Y46755D01*
X81035Y46494D01*
X81496Y46403D01*
X81897Y46483D01*
X82283Y46165D01*
Y46142D01*
X87285D01*
X87401Y46119D01*
Y46119D01*
X87416Y46131D01*
X88238Y45967D01*
X88555Y45756D01*
X88604Y45258D01*
X88424Y45079D01*
X82283D01*
Y45019D01*
X81515Y44866D01*
X80864Y44431D01*
X80429Y43780D01*
X80276Y43012D01*
X80429Y42244D01*
X80864Y41593D01*
X81411Y41227D01*
Y40727D01*
X81356Y40691D01*
X80921Y40040D01*
X80769Y39272D01*
X80921Y38504D01*
X81356Y37852D01*
X82008Y37417D01*
X82283Y37363D01*
Y36142D01*
X87132D01*
X87181Y35644D01*
X86633Y35535D01*
X85982Y35100D01*
X85547Y34449D01*
X85395Y33681D01*
X85298Y33563D01*
X83268D01*
Y27264D01*
X83268Y27264D01*
X83268D01*
X83333Y27142D01*
X83258Y27031D01*
X83227Y27010D01*
X82791Y26359D01*
X82639Y25591D01*
X82791Y24823D01*
X83227Y24171D01*
X83878Y23736D01*
X84646Y23584D01*
X85414Y23736D01*
X86065Y24171D01*
X86500Y24823D01*
X86653Y25591D01*
X86500Y26359D01*
X86065Y27010D01*
X86074Y27016D01*
Y27016D01*
D01*
Y27016D01*
X86672Y27264D01*
X95766D01*
X96001Y26823D01*
X95800Y26522D01*
X95727Y26473D01*
X95291Y25822D01*
X95139Y25054D01*
X95291Y24285D01*
X95727Y23634D01*
X96378Y23199D01*
X97146Y23046D01*
X97914Y23199D01*
X98565Y23634D01*
X99000Y24285D01*
X99025Y24411D01*
X99429Y25016D01*
X100197Y24863D01*
X100868Y24996D01*
X101000Y24330D01*
X101098Y24185D01*
X100862Y23744D01*
X100492D01*
X100031Y23652D01*
X99875Y23547D01*
X99641Y23391D01*
X99641Y23391D01*
X98952Y22702D01*
X98691Y22311D01*
X98599Y21850D01*
X98599Y21850D01*
Y21094D01*
X98585D01*
X98533Y20832D01*
X98387Y20615D01*
X98384Y20612D01*
X97949Y19961D01*
X97796Y19193D01*
X97949Y18425D01*
X98384Y17774D01*
X99035Y17339D01*
X99803Y17186D01*
X100571Y17339D01*
X101222Y17774D01*
X101657Y18425D01*
X101810Y19193D01*
X101657Y19961D01*
X101222Y20612D01*
X101219Y20615D01*
X101073Y20832D01*
X101021Y21094D01*
X101021Y21094D01*
X101262Y21335D01*
X107382D01*
X107382Y21335D01*
X107843Y21427D01*
X108233Y21688D01*
X113155Y26609D01*
X113155Y26609D01*
X113416Y27000D01*
X113507Y27461D01*
Y31723D01*
X117383Y35598D01*
X117644Y35989D01*
X117735Y36450D01*
X117735Y36450D01*
Y51182D01*
X118549Y53611D01*
X142815Y65707D01*
X142866Y65746D01*
X142976Y65792D01*
X143564Y66244D01*
X144016Y66832D01*
X144225Y67337D01*
X144724Y67360D01*
X145716Y65479D01*
X149018Y58445D01*
X151991Y51266D01*
X154630Y43957D01*
X156929Y36534D01*
X158882Y29013D01*
X160486Y21410D01*
X161737Y13741D01*
X162633Y6022D01*
X163171Y-1729D01*
X163350Y-9498D01*
X163171Y-17266D01*
X162633Y-25018D01*
X161737Y-32737D01*
X160636Y-39487D01*
X160225Y-39772D01*
X159800Y-39687D01*
X121315D01*
X120998Y-39301D01*
X121102Y-38780D01*
X120949Y-38012D01*
X120514Y-37360D01*
X119863Y-36925D01*
X119095Y-36773D01*
X118326Y-36925D01*
X117675Y-37360D01*
X117673Y-37364D01*
X117455Y-37510D01*
X117193Y-37562D01*
Y-37572D01*
Y-37575D01*
X115388D01*
X112796Y-35136D01*
X112823Y-35063D01*
X118276D01*
Y-35066D01*
Y-35076D01*
X118537Y-35128D01*
X118755Y-35274D01*
X118758Y-35278D01*
X119409Y-35713D01*
X120177Y-35865D01*
X120945Y-35713D01*
X121596Y-35278D01*
X122031Y-34626D01*
X122184Y-33858D01*
X122031Y-33090D01*
X122240Y-32700D01*
X128826D01*
Y-32710D01*
X128896Y-32700D01*
X129768D01*
D01*
X129772Y-32727D01*
Y-32727D01*
X129772D01*
D01*
D01*
X129773Y-32727D01*
X129781Y-32719D01*
X130432Y-33154D01*
X131200Y-33307D01*
X131968Y-33154D01*
X132619Y-32719D01*
X133054Y-32068D01*
X133207Y-31300D01*
X133054Y-30532D01*
X132619Y-29881D01*
X131968Y-29446D01*
X131200Y-29293D01*
X130432Y-29446D01*
X129781Y-29881D01*
X129760Y-29912D01*
X129348Y-30187D01*
X128826Y-30291D01*
Y-30292D01*
X112377D01*
X112147Y-30062D01*
X112147Y-30062D01*
X112147Y-30062D01*
X112050Y-29997D01*
X112050Y-29997D01*
X112015Y-29974D01*
X110088Y-28368D01*
X105067Y-24674D01*
X99833Y-21289D01*
X94403Y-18227D01*
X90487Y-16320D01*
X90404Y-15827D01*
X90812Y-15418D01*
X91073Y-15028D01*
X91165Y-14567D01*
Y3642D01*
X91535D01*
Y9941D01*
X88651D01*
X88395Y10324D01*
X87194Y11525D01*
X86738Y11829D01*
X86201Y11936D01*
X80413D01*
X79876Y11829D01*
X79420Y11525D01*
X78431Y10536D01*
X78428Y10538D01*
X78261Y10469D01*
X78248Y10472D01*
X77480Y10319D01*
X76829Y9884D01*
X76394Y9233D01*
X76241Y8465D01*
X76394Y7696D01*
X76829Y7045D01*
X77480Y6610D01*
X78248Y6458D01*
X79016Y6610D01*
X79667Y7045D01*
X80102Y7696D01*
X80226Y8320D01*
X80253Y8384D01*
X80995Y9127D01*
X83268D01*
Y5384D01*
X83227Y5356D01*
X82791Y4705D01*
X82639Y3937D01*
X82791Y3169D01*
X83227Y2518D01*
X83878Y2083D01*
X84646Y1930D01*
X84951Y1991D01*
X85366Y1713D01*
X85449Y1299D01*
X85884Y648D01*
X86535Y213D01*
X87303Y60D01*
X88071Y213D01*
X88315Y376D01*
X88756Y140D01*
Y-14068D01*
X87813Y-15011D01*
X87623D01*
X83039Y-13112D01*
X77146Y-11079D01*
X71142Y-9405D01*
X65047Y-8096D01*
X61799Y-7602D01*
X61774Y-7597D01*
Y-7597D01*
X61598Y-7562D01*
D01*
X61598D01*
X61529D01*
X60948Y-6982D01*
Y492D01*
X60948Y492D01*
X60948Y492D01*
Y492D01*
X60948D01*
X60948Y492D01*
X60857Y953D01*
X60752Y1110D01*
X60596Y1344D01*
X60596Y1344D01*
X60649Y1520D01*
X61004Y1591D01*
X61655Y2026D01*
X62090Y2677D01*
X62243Y3445D01*
X62090Y4213D01*
X61655Y4864D01*
X61004Y5299D01*
X60236Y5452D01*
X60232Y5451D01*
X59975Y5502D01*
X59753Y5650D01*
X59744Y5641D01*
X59744Y5641D01*
X57840Y7544D01*
X57449Y7806D01*
X56988Y7897D01*
X56988Y7897D01*
X-73025D01*
X-74878Y9751D01*
Y20005D01*
X-74878Y20005D01*
X-74970Y20466D01*
X-75231Y20857D01*
X-75231Y20857D01*
X-80718Y26344D01*
X-81109Y26605D01*
X-81569Y26696D01*
X-81569Y26696D01*
X-93202D01*
X-93375Y26869D01*
X-93375Y26870D01*
X-93365Y26879D01*
X-93514Y27101D01*
X-93565Y27358D01*
X-93564Y27362D01*
X-93717Y28130D01*
X-94152Y28781D01*
X-94803Y29217D01*
X-95571Y29369D01*
X-96339Y29217D01*
X-96990Y28781D01*
X-97425Y28130D01*
X-97578Y27362D01*
X-97467Y26805D01*
X-98209Y26658D01*
X-98748Y26297D01*
X-99189Y26533D01*
Y31299D01*
X-99189Y31299D01*
X-99281Y31760D01*
X-99542Y32151D01*
X-100428Y33037D01*
X-100819Y33298D01*
X-101280Y33389D01*
X-101280Y33389D01*
X-102241D01*
X-102462Y33838D01*
X-102343Y33994D01*
X-102259Y34058D01*
Y34058D01*
X-102257Y34076D01*
X-102203Y34112D01*
X-101768Y34763D01*
X-101615Y35531D01*
Y38681D01*
X-101768Y39449D01*
X-102203Y40100D01*
X-102854Y40535D01*
X-103622Y40688D01*
X-104390Y40535D01*
X-105041Y40100D01*
X-105476Y39449D01*
X-105629Y38681D01*
Y35531D01*
X-105535Y35058D01*
Y34154D01*
X-106645D01*
X-106881Y34595D01*
X-106768Y34763D01*
X-106615Y35531D01*
Y38681D01*
X-106768Y39449D01*
X-107203Y40100D01*
X-107854Y40535D01*
X-108622Y40688D01*
X-109390Y40535D01*
X-110041Y40100D01*
X-110476Y39449D01*
X-110629Y38681D01*
Y35531D01*
X-110476Y34763D01*
X-110041Y34112D01*
X-110038Y34110D01*
X-109892Y33892D01*
X-109840Y33630D01*
X-109826D01*
Y32933D01*
X-109735Y32472D01*
X-109646Y32339D01*
Y30217D01*
X-109646D01*
Y30217D01*
X-109744Y30118D01*
X-109744D01*
Y26181D01*
X-106217D01*
Y26165D01*
X-106217D01*
Y22228D01*
X-102673D01*
Y26165D01*
D01*
Y26165D01*
X-102657Y26181D01*
X-102657D01*
Y30118D01*
X-102657D01*
Y30118D01*
X-102559Y30217D01*
X-102559D01*
Y30981D01*
X-101778D01*
X-101598Y30800D01*
Y23819D01*
X-101598Y23819D01*
X-101506Y23358D01*
X-101245Y22967D01*
X-100575Y22297D01*
X-100624Y21799D01*
X-101222Y21399D01*
X-101657Y20748D01*
X-101810Y19980D01*
X-101693Y19390D01*
X-102010Y19004D01*
X-115354D01*
X-115892Y18897D01*
X-116348Y18592D01*
X-116652Y18136D01*
X-116759Y17599D01*
Y-10748D01*
X-116652Y-11285D01*
X-116348Y-11741D01*
X-115892Y-12046D01*
X-115354Y-12152D01*
X-83071D01*
X-82533Y-12046D01*
X-82077Y-11741D01*
X-81773Y-11285D01*
X-81666Y-10748D01*
X-81666Y-10748D01*
X-81666Y-10748D01*
Y-10747D01*
Y5798D01*
X-81204Y5989D01*
X-76135Y920D01*
X-76135Y920D01*
X-75744Y659D01*
X-75284Y567D01*
X-75284Y567D01*
X53322D01*
X54898Y-1008D01*
Y-9351D01*
X54898Y-9351D01*
X54924Y-9479D01*
Y-10349D01*
X54924Y-10349D01*
X55015Y-10810D01*
X55276Y-11201D01*
X56685Y-12609D01*
X56685Y-12609D01*
X57075Y-12870D01*
X57536Y-12962D01*
X57536Y-12962D01*
X58004D01*
X58017Y-12959D01*
X63722Y-13827D01*
X69529Y-15074D01*
X75250Y-16669D01*
X80864Y-18606D01*
X86351Y-20879D01*
X91690Y-23479D01*
X96863Y-26396D01*
X101850Y-29621D01*
X106634Y-33140D01*
X111196Y-36942D01*
X113618Y-39223D01*
X113434Y-39687D01*
X76989D01*
X73389Y-35863D01*
X68824Y-31566D01*
X64008Y-27552D01*
X58958Y-23837D01*
X53693Y-20433D01*
X48232Y-17353D01*
X42596Y-14608D01*
X36804Y-12209D01*
X30877Y-10164D01*
X24838Y-8480D01*
X18708Y-7165D01*
X12510Y-6221D01*
X6267Y-5654D01*
X0Y-5465D01*
X-6267Y-5654D01*
X-12510Y-6221D01*
X-18708Y-7165D01*
X-24838Y-8480D01*
X-30877Y-10164D01*
X-36804Y-12209D01*
X-42596Y-14608D01*
X-48232Y-17353D01*
X-53693Y-20433D01*
X-58958Y-23837D01*
X-64008Y-27552D01*
X-68824Y-31566D01*
X-73389Y-35863D01*
X-76897Y-39590D01*
X-76894Y-39593D01*
X-77160Y-39991D01*
X-77179Y-40087D01*
X-159490D01*
X-159807Y-38676D01*
X-161180Y-30762D01*
X-162163Y-22789D01*
X-162754Y-14779D01*
X-162952Y-6748D01*
X-162754Y1282D01*
X-162163Y9292D01*
X-161180Y17265D01*
X-159807Y25179D01*
X-158047Y33016D01*
X-155905Y40758D01*
X-153385Y48385D01*
X-150494Y55879D01*
X-147239Y63223D01*
X-143628Y70398D01*
X-140741Y75494D01*
X-140247Y75414D01*
X-140183Y75093D01*
X-139922Y74703D01*
X-136317Y71097D01*
X-135926Y70836D01*
X-135465Y70745D01*
X-135465Y70745D01*
X-112820D01*
Y69980D01*
X-112598D01*
Y69784D01*
X-112598D01*
Y69019D01*
X-113402D01*
Y69571D01*
X-116945D01*
Y69571D01*
X-120488D01*
Y65634D01*
X-119826D01*
Y62629D01*
X-119840D01*
X-119892Y62368D01*
X-120038Y62150D01*
X-120041Y62147D01*
X-120476Y61496D01*
X-120629Y60728D01*
Y57579D01*
X-120476Y56811D01*
X-120041Y56160D01*
X-120038Y56157D01*
X-119892Y55939D01*
X-119840Y55678D01*
X-119826D01*
Y54779D01*
X-119828D01*
X-119826Y54763D01*
Y54518D01*
X-119965Y54311D01*
X-120117Y53543D01*
X-119965Y52775D01*
X-119529Y52124D01*
X-118878Y51689D01*
X-118110Y51536D01*
X-117342Y51689D01*
X-116691Y52124D01*
X-116256Y52775D01*
X-116156Y53279D01*
X-115656D01*
X-115634Y53169D01*
X-115199Y52518D01*
X-114548Y52083D01*
X-113779Y51930D01*
X-113012Y52083D01*
X-112360Y52518D01*
X-111925Y53169D01*
X-111773Y53937D01*
X-111925Y54705D01*
X-112360Y55356D01*
X-112360Y55357D01*
X-112381Y55407D01*
X-112402Y55458D01*
X-112402Y55458D01*
X-112404Y55460D01*
Y55678D01*
X-112404D01*
X-112404Y55678D01*
X-112352Y55939D01*
X-112206Y56157D01*
X-112203Y56160D01*
X-111768Y56811D01*
X-111615Y57579D01*
Y60728D01*
X-111768Y61496D01*
X-112203Y62147D01*
X-112206Y62150D01*
X-112352Y62368D01*
X-112404Y62629D01*
X-112418D01*
Y65847D01*
X-110130D01*
X-109813Y65460D01*
X-109826Y65394D01*
X-109826Y65394D01*
Y62629D01*
X-109840D01*
X-109892Y62368D01*
X-110038Y62150D01*
X-110041Y62147D01*
X-110476Y61496D01*
X-110629Y60728D01*
Y57579D01*
X-110476Y56811D01*
X-110041Y56160D01*
X-109390Y55724D01*
X-108622Y55572D01*
X-107854Y55724D01*
X-107203Y56160D01*
X-106768Y56811D01*
X-106615Y57579D01*
Y60728D01*
X-106768Y61496D01*
X-107203Y62147D01*
X-107206Y62150D01*
X-107352Y62368D01*
X-107404Y62629D01*
X-107418D01*
Y64895D01*
X-107328Y64985D01*
X-107327Y64985D01*
D01*
X-106466Y65847D01*
X-105512D01*
Y66256D01*
X-104964D01*
Y62306D01*
X-104969D01*
X-105033Y62153D01*
X-105041Y62147D01*
X-105476Y61496D01*
X-105629Y60728D01*
Y57579D01*
X-105476Y56811D01*
X-105050Y56173D01*
X-105050Y56153D01*
D01*
D01*
Y56153D01*
D01*
D01*
X-105050Y56151D01*
Y56151D01*
D01*
X-105027Y56129D01*
Y56015D01*
X-106604Y54438D01*
X-106908Y53983D01*
X-107015Y53445D01*
Y50744D01*
X-107029Y50730D01*
X-107029Y50730D01*
X-107031Y50726D01*
X-107041Y50701D01*
X-107041Y50701D01*
X-107037Y50693D01*
X-107454Y50068D01*
X-107607Y49300D01*
X-107454Y48532D01*
X-107019Y47881D01*
X-106368Y47446D01*
X-105600Y47293D01*
X-104832Y47446D01*
X-104181Y47881D01*
X-103746Y48532D01*
X-103593Y49300D01*
X-103746Y50068D01*
X-104181Y50719D01*
X-104175Y50725D01*
X-104180Y50738D01*
X-104185Y50750D01*
X-104185Y50750D01*
X-104205Y50771D01*
Y52863D01*
X-102629Y54440D01*
X-102324Y54895D01*
X-102217Y55433D01*
X-102217Y55433D01*
X-102217Y55433D01*
Y55433D01*
Y56129D01*
X-102195Y56151D01*
X-102195Y56151D01*
X-102194Y56153D01*
X-102194D01*
X-102194Y56173D01*
X-102163Y56219D01*
X-101557Y56625D01*
X-100853Y56764D01*
X-100098D01*
Y56004D01*
X-93602D01*
Y60335D01*
X-100098D01*
Y59574D01*
X-100771D01*
Y59589D01*
X-100881Y59574D01*
X-101615D01*
Y60728D01*
X-101768Y61496D01*
X-102126Y62032D01*
X-102154Y62101D01*
Y66256D01*
X-101591D01*
Y69799D01*
X-105527D01*
Y69799D01*
X-105734D01*
Y69980D01*
X-105734D01*
Y73917D01*
X-112820D01*
Y73153D01*
X-134967D01*
X-137568Y75755D01*
X-137410Y76034D01*
X-133182Y82711D01*
X-128631Y89172D01*
X-123769Y95403D01*
X-118607Y101387D01*
X-113157Y107111D01*
X-107433Y112561D01*
X-101449Y117723D01*
X-95218Y122586D01*
X-88756Y127137D01*
X-82079Y131365D01*
X-75203Y135260D01*
X-68143Y138814D01*
X-60918Y142017D01*
X-60439Y142201D01*
X-29298D01*
X-29224Y141707D01*
X-29932Y141492D01*
X-30992Y140925D01*
X-31921Y140163D01*
X-32684Y139234D01*
X-33251Y138173D01*
X-33600Y137023D01*
X-33718Y135827D01*
X-33600Y134631D01*
X-33251Y133480D01*
X-32684Y132420D01*
X-31921Y131491D01*
X-30992Y130728D01*
X-29932Y130162D01*
X-28782Y129813D01*
X-27586Y129695D01*
X-26389Y129813D01*
X-25239Y130162D01*
X-24179Y130728D01*
X-23250Y131491D01*
X-22487Y132420D01*
X-21920Y133480D01*
X-21572Y134631D01*
X-21454Y135827D01*
X-21572Y137023D01*
X-21920Y138173D01*
X-22487Y139234D01*
X-23250Y140163D01*
X-24179Y140925D01*
X-25239Y141492D01*
X-25947Y141707D01*
X-25873Y142201D01*
X25820D01*
X25894Y141707D01*
D02*
G37*
%LPC*%
G36*
X89370Y60079D02*
X82283D01*
Y56142D01*
X88654D01*
X88716Y56094D01*
X88738Y56061D01*
X89389Y55626D01*
X90158Y55473D01*
X90926Y55626D01*
X91577Y56061D01*
X92012Y56712D01*
X92164Y57480D01*
X92012Y58248D01*
X91577Y58899D01*
X90926Y59335D01*
X90158Y59487D01*
X89757Y59408D01*
X89370Y59725D01*
Y60079D01*
D02*
G37*
G36*
X110827Y50079D02*
X103740D01*
Y46142D01*
X110039D01*
X110630Y46024D01*
X111398Y46177D01*
X112049Y46612D01*
X112484Y47263D01*
X112637Y48031D01*
X112484Y48799D01*
X112049Y49451D01*
X111398Y49886D01*
X110827Y49999D01*
Y50079D01*
D02*
G37*
G36*
X102776Y60176D02*
X102007Y60024D01*
X101356Y59588D01*
X100921Y58937D01*
X100768Y58169D01*
X100921Y57401D01*
X101356Y56750D01*
X102007Y56315D01*
X102776Y56162D01*
X103543Y56315D01*
D01*
Y56315D01*
X103740Y56142D01*
Y56142D01*
X110827D01*
Y60079D01*
X103740D01*
X103740Y60079D01*
Y60079D01*
X103585Y59996D01*
X103543Y60024D01*
X102776Y60176D01*
D02*
G37*
G36*
X82283Y65079D02*
X82129Y64952D01*
X81890Y64999D01*
X81122Y64846D01*
X80471Y64411D01*
X80036Y63760D01*
X79883Y62992D01*
X80036Y62224D01*
X80471Y61573D01*
X81122Y61138D01*
X81890Y60985D01*
X82658Y61138D01*
X82664Y61142D01*
X89370D01*
Y65079D01*
X82283D01*
Y65079D01*
D02*
G37*
G36*
X110827Y70079D02*
X103740D01*
Y66142D01*
X108575D01*
X108585Y66127D01*
X108610Y66142D01*
X108625D01*
X108915Y65707D01*
X109139Y65557D01*
X108994Y65079D01*
X103740D01*
Y64245D01*
X103523Y64202D01*
Y64196D01*
X102098D01*
Y64210D01*
X101837Y64262D01*
X101619Y64408D01*
X101616Y64411D01*
X100965Y64846D01*
X100197Y64999D01*
X99429Y64846D01*
X98778Y64411D01*
X98343Y63760D01*
X98190Y62992D01*
X98343Y62224D01*
X98778Y61573D01*
X99429Y61138D01*
X100197Y60985D01*
X100965Y61138D01*
X101616Y61573D01*
X101619Y61576D01*
X101837Y61722D01*
X102098Y61774D01*
Y61784D01*
Y61788D01*
X103523D01*
X103523Y61781D01*
D01*
D01*
Y61781D01*
X103523D01*
X103740Y61570D01*
Y61142D01*
X110827D01*
Y64823D01*
X110827Y64823D01*
X110827Y64823D01*
X110827Y65079D01*
Y65079D01*
Y65217D01*
X111103Y65272D01*
X111754Y65707D01*
X112189Y66358D01*
X112342Y67126D01*
X112189Y67894D01*
X111754Y68545D01*
X111103Y68980D01*
X110827Y69035D01*
Y70079D01*
D02*
G37*
G36*
X-114272Y40688D02*
X-115040Y40535D01*
X-115691Y40100D01*
X-116126Y39449D01*
X-116279Y38681D01*
X-116126Y37913D01*
X-115691Y37262D01*
X-115629Y37221D01*
Y35531D01*
X-115476Y34763D01*
X-115041Y34112D01*
X-114390Y33677D01*
X-113622Y33524D01*
X-112854Y33677D01*
X-112203Y34112D01*
X-111768Y34763D01*
X-111615Y35531D01*
Y38681D01*
X-111768Y39449D01*
X-112203Y40100D01*
X-112854Y40535D01*
X-113622Y40688D01*
X-113947Y40624D01*
X-114272Y40688D01*
D02*
G37*
G36*
X131200Y-8393D02*
X130432Y-8546D01*
X129781Y-8981D01*
X129778Y-8984D01*
X129560Y-9130D01*
X129299Y-9182D01*
Y-9196D01*
X121367D01*
Y-9181D01*
X121251Y-9196D01*
X119642D01*
X119268Y-8946D01*
X118500Y-8793D01*
X117732Y-8946D01*
X117081Y-9381D01*
X116646Y-10032D01*
X116493Y-10800D01*
X116646Y-11568D01*
X117081Y-12219D01*
X117732Y-12654D01*
X118500Y-12807D01*
X119268Y-12654D01*
X119919Y-12219D01*
X119960Y-12159D01*
X120572Y-11749D01*
X121301Y-11604D01*
X129299D01*
Y-11608D01*
Y-11618D01*
X129560Y-11670D01*
X129778Y-11816D01*
X129781Y-11819D01*
X130432Y-12254D01*
X131200Y-12407D01*
X131968Y-12254D01*
X132619Y-11819D01*
X133054Y-11168D01*
X133207Y-10400D01*
X133054Y-9632D01*
X132619Y-8981D01*
X131968Y-8546D01*
X131200Y-8393D01*
D02*
G37*
G36*
X129300Y-15493D02*
X128532Y-15646D01*
X127894Y-16072D01*
X127874Y-16072D01*
Y-16072D01*
X127873Y-16073D01*
X127873D01*
X127850Y-16095D01*
X119850D01*
X119827Y-16073D01*
X119827Y-16073D01*
X119826Y-16072D01*
X119826Y-16072D01*
X119806Y-16072D01*
X119168Y-15646D01*
X118400Y-15493D01*
X117632Y-15646D01*
X116981Y-16081D01*
X116546Y-16732D01*
X116393Y-17500D01*
X116546Y-18268D01*
X116981Y-18919D01*
X117632Y-19354D01*
X118400Y-19507D01*
X119168Y-19354D01*
X119806Y-18928D01*
X119823Y-18928D01*
X119823D01*
X119826Y-18928D01*
D01*
D01*
Y-18928D01*
Y-18928D01*
X119827Y-18927D01*
X119826Y-18926D01*
Y-18926D01*
X119826Y-18926D01*
X119826Y-18910D01*
X119829Y-18905D01*
X127850D01*
X127873Y-18927D01*
D01*
D01*
X127874Y-18928D01*
X127874Y-18928D01*
X127894Y-18928D01*
X128532Y-19354D01*
X129300Y-19507D01*
X130068Y-19354D01*
X130719Y-18919D01*
X131154Y-18268D01*
X131307Y-17500D01*
X131154Y-16732D01*
X130719Y-16081D01*
X130068Y-15646D01*
X129300Y-15493D01*
D02*
G37*
G36*
X97539Y12342D02*
X96771Y12189D01*
X96120Y11754D01*
X95685Y11103D01*
X95532Y10335D01*
X95534Y10328D01*
X95217Y9941D01*
X93504D01*
Y3642D01*
X93504Y3642D01*
X93504D01*
X93604Y3455D01*
X93346Y3068D01*
X93193Y2300D01*
X93346Y1532D01*
X93781Y881D01*
X94432Y446D01*
X95200Y293D01*
X95968Y446D01*
X96619Y881D01*
X97054Y1532D01*
X97207Y2300D01*
X97054Y3068D01*
X96966Y3201D01*
X97201Y3642D01*
X98993D01*
Y-8697D01*
X98993Y-8697D01*
X99084Y-9158D01*
X99345Y-9548D01*
X100148Y-10351D01*
X100539Y-10613D01*
X101000Y-10704D01*
X104394D01*
X104394Y-10704D01*
X104422Y-10699D01*
X105065D01*
Y-10702D01*
Y-10712D01*
X105326Y-10764D01*
X105544Y-10910D01*
X105546Y-10914D01*
X106198Y-11349D01*
X106966Y-11502D01*
X107734Y-11349D01*
X108385Y-10914D01*
X108820Y-10262D01*
X108973Y-9494D01*
X108820Y-8726D01*
X108385Y-8075D01*
X107734Y-7640D01*
X106966Y-7487D01*
X106198Y-7640D01*
X105546Y-8075D01*
X105544Y-8079D01*
X105326Y-8224D01*
X105065Y-8276D01*
Y-8290D01*
X104400D01*
X104372Y-8296D01*
X101499D01*
X101401Y-8198D01*
Y604D01*
X101842Y839D01*
X102132Y646D01*
X102900Y493D01*
X103668Y646D01*
X104319Y1081D01*
X104754Y1732D01*
X104907Y2500D01*
X104754Y3268D01*
X104954Y3642D01*
X106720D01*
X106762Y3431D01*
X107023Y3041D01*
X108332Y1732D01*
X108332Y1732D01*
X109915Y149D01*
X110305Y-113D01*
X110766Y-204D01*
X110766Y-204D01*
X114999D01*
Y-208D01*
Y-218D01*
X115260Y-270D01*
X115478Y-416D01*
X115481Y-419D01*
X116132Y-854D01*
X116900Y-1007D01*
X117668Y-854D01*
X118319Y-419D01*
X118754Y232D01*
X118907Y1000D01*
X118754Y1768D01*
X118319Y2419D01*
X117668Y2854D01*
X116900Y3007D01*
X116132Y2854D01*
X115481Y2419D01*
X115478Y2416D01*
X115260Y2270D01*
X114999Y2218D01*
Y2204D01*
X111265D01*
X110035Y3435D01*
X110035Y3435D01*
X109449Y4020D01*
Y9941D01*
X107570D01*
X107327Y10237D01*
X107174Y11005D01*
X106739Y11656D01*
X106088Y12091D01*
X105320Y12244D01*
X104552Y12091D01*
X103901Y11656D01*
X103466Y11005D01*
X103313Y10237D01*
X103070Y9941D01*
X99862D01*
X99545Y10328D01*
X99546Y10335D01*
X99394Y11103D01*
X98959Y11754D01*
X98307Y12189D01*
X97539Y12342D01*
D02*
G37*
G36*
X91437Y21889D02*
X90669Y21736D01*
X90018Y21301D01*
X90015Y21297D01*
X89797Y21152D01*
X89536Y21100D01*
Y21090D01*
Y21086D01*
X82511D01*
Y21090D01*
Y21100D01*
X82250Y21152D01*
X82032Y21297D01*
X82029Y21301D01*
X81378Y21736D01*
X80610Y21889D01*
X79842Y21736D01*
X79191Y21301D01*
X78756Y20650D01*
X78603Y19882D01*
X78756Y19114D01*
X79191Y18463D01*
X79842Y18028D01*
X80610Y17875D01*
X81378Y18028D01*
X82029Y18463D01*
X82032Y18466D01*
X82250Y18612D01*
X82511Y18664D01*
Y18674D01*
Y18678D01*
X89536D01*
Y18674D01*
Y18664D01*
X89797Y18612D01*
X90015Y18466D01*
X90018Y18463D01*
X90669Y18028D01*
X91437Y17875D01*
X92205Y18028D01*
X92856Y18463D01*
X93291Y19114D01*
X93444Y19882D01*
X93291Y20650D01*
X92856Y21301D01*
X92205Y21736D01*
X91437Y21889D01*
D02*
G37*
G36*
X131300Y3207D02*
X130532Y3054D01*
X129881Y2619D01*
X129878Y2616D01*
X129660Y2470D01*
X129399Y2418D01*
Y2404D01*
X123501D01*
Y2418D01*
X123240Y2470D01*
X123022Y2616D01*
X123019Y2619D01*
X122368Y3054D01*
X121600Y3207D01*
X120832Y3054D01*
X120181Y2619D01*
X119746Y1968D01*
X119593Y1200D01*
X119746Y432D01*
X120181Y-219D01*
X120832Y-654D01*
X121600Y-807D01*
X122368Y-654D01*
X123019Y-219D01*
X123022Y-216D01*
X123240Y-70D01*
X123501Y-18D01*
Y-8D01*
Y-4D01*
X129399D01*
Y-8D01*
Y-18D01*
X129660Y-70D01*
X129878Y-216D01*
X129881Y-219D01*
X130532Y-654D01*
X131300Y-807D01*
X132068Y-654D01*
X132719Y-219D01*
X133154Y432D01*
X133307Y1200D01*
X133154Y1968D01*
X132719Y2619D01*
X132068Y3054D01*
X131300Y3207D01*
D02*
G37*
G36*
X-44712Y96011D02*
Y95992D01*
X-55735D01*
Y96011D01*
X-57123Y95829D01*
X-58416Y95293D01*
X-59526Y94441D01*
X-60378Y93331D01*
X-60913Y92038D01*
X-61096Y90650D01*
X-61077D01*
Y81595D01*
X-61084D01*
X-60950Y79896D01*
X-60552Y78239D01*
X-59900Y76665D01*
X-59009Y75212D01*
X-57903Y73916D01*
X-56607Y72809D01*
X-55154Y71919D01*
X-53579Y71267D01*
X-51922Y70869D01*
X-50223Y70735D01*
X-48524Y70869D01*
X-46867Y71267D01*
X-45293Y71919D01*
X-43840Y72809D01*
X-42544Y73916D01*
X-41437Y75212D01*
X-40547Y76665D01*
X-39895Y78239D01*
X-39497Y79896D01*
X-39363Y81595D01*
X-39370D01*
Y90650D01*
X-39351D01*
X-39533Y92038D01*
X-40069Y93331D01*
X-40921Y94441D01*
X-42031Y95293D01*
X-43324Y95829D01*
X-44712Y96011D01*
D02*
G37*
G36*
X67323Y102401D02*
X66555Y102248D01*
X65904Y101813D01*
X65469Y101162D01*
X65316Y100394D01*
X65317Y100389D01*
X65266Y100132D01*
X65117Y99911D01*
X65125Y99904D01*
X65127Y99901D01*
X65127Y99901D01*
X64109Y98883D01*
X63848Y98492D01*
X63756Y98032D01*
X63756Y98031D01*
Y94200D01*
X63346Y93789D01*
X63338Y93796D01*
X63196Y93738D01*
X63189Y93739D01*
X62421Y93587D01*
X61770Y93151D01*
X61335Y92500D01*
X61287Y92259D01*
X60789Y92210D01*
X60325Y93331D01*
X59473Y94441D01*
X58363Y95293D01*
X57070Y95829D01*
X55682Y96011D01*
Y95992D01*
X44659D01*
Y96011D01*
X43271Y95829D01*
X41978Y95293D01*
X40868Y94441D01*
X40016Y93331D01*
X39480Y92038D01*
X39298Y90650D01*
X39317D01*
Y81595D01*
X39310D01*
X39444Y79896D01*
X39842Y78239D01*
X40494Y76665D01*
X41384Y75212D01*
X42491Y73916D01*
X43787Y72809D01*
X45240Y71919D01*
X46814Y71267D01*
X48471Y70869D01*
X50170Y70735D01*
X51869Y70869D01*
X53526Y71267D01*
X55101Y71919D01*
X56554Y72809D01*
X57850Y73916D01*
X58956Y75212D01*
X59847Y76665D01*
X60499Y78239D01*
X60897Y79896D01*
X61031Y81595D01*
X61024D01*
Y90568D01*
X61492Y90710D01*
X61504Y90711D01*
X61770Y90313D01*
X62421Y89878D01*
X63189Y89725D01*
X63957Y89878D01*
X64608Y90313D01*
X64612Y90319D01*
X65112D01*
X65116Y90313D01*
X65767Y89878D01*
X66535Y89725D01*
X67304Y89878D01*
X67955Y90313D01*
X68390Y90964D01*
X68542Y91732D01*
X68390Y92500D01*
X67955Y93151D01*
X67951Y93154D01*
X67805Y93372D01*
X67753Y93633D01*
X67740D01*
Y96040D01*
X74476D01*
Y96026D01*
X74738Y95974D01*
X74956Y95828D01*
X74959Y95825D01*
X75610Y95390D01*
X76378Y95237D01*
X77146Y95390D01*
X77797Y95825D01*
X78232Y96476D01*
X78385Y97244D01*
X78232Y98012D01*
X77797Y98663D01*
X77146Y99098D01*
X76378Y99251D01*
X75610Y99098D01*
X74959Y98663D01*
X74956Y98659D01*
X74738Y98514D01*
X74477Y98462D01*
Y98453D01*
X74476Y98452D01*
X74476D01*
X74476Y98448D01*
X68816D01*
X68671Y98927D01*
X68742Y98975D01*
X69177Y99626D01*
X69330Y100394D01*
X69177Y101162D01*
X68742Y101813D01*
X68091Y102248D01*
X67323Y102401D01*
D02*
G37*
G36*
X9547Y125901D02*
X-9055D01*
X-9362Y125840D01*
X-9623Y125666D01*
X-9623Y125666D01*
X-10607Y124682D01*
X-10781Y124421D01*
X-10781Y124421D01*
Y124421D01*
X-10910Y124335D01*
X-11339Y124420D01*
X-12145Y124260D01*
X-12829Y123803D01*
X-13286Y123119D01*
X-13446Y122313D01*
X-13286Y121507D01*
X-12829Y120823D01*
X-12145Y120366D01*
X-11417Y120221D01*
Y119990D01*
X-11417D01*
Y115924D01*
X-11429Y115868D01*
X-11715Y115811D01*
X-11975Y115637D01*
X-11975Y115637D01*
X-13953Y113658D01*
X-14128Y113398D01*
X-14189Y113091D01*
Y109444D01*
X-14214Y109252D01*
Y78740D01*
X-14052Y77507D01*
X-13576Y76358D01*
X-12818Y75371D01*
X-11831Y74613D01*
X-10682Y74137D01*
X-9449Y73975D01*
X-8215Y74137D01*
X-7278Y74526D01*
X-7183Y74545D01*
X-7102Y74599D01*
X-7066Y74613D01*
X-6974Y74684D01*
X-6597Y74936D01*
X-6545Y75013D01*
X-6079Y75371D01*
X-5322Y76358D01*
X-4846Y77507D01*
X-4684Y78740D01*
Y104446D01*
X-4623Y104905D01*
X-4288Y105715D01*
X-3754Y106411D01*
X-3058Y106945D01*
X-2248Y107281D01*
X-1327Y107402D01*
X9109Y107367D01*
X9118Y107363D01*
X9236D01*
X9353Y107352D01*
X9392Y107363D01*
X9431D01*
X9869Y107450D01*
X9869D01*
X10159Y107570D01*
X10549Y107831D01*
X10771Y108053D01*
X10771Y108053D01*
X10771Y108053D01*
X11032Y108443D01*
X11152Y108733D01*
Y108733D01*
X11244Y109194D01*
Y109274D01*
X11259Y109353D01*
X11248Y112170D01*
X11255Y112205D01*
Y115069D01*
X11417D01*
Y119990D01*
X11417D01*
Y120206D01*
X12224Y120366D01*
X12908Y120823D01*
X13364Y121507D01*
X13525Y122313D01*
X13364Y123119D01*
X12908Y123803D01*
X12224Y124260D01*
X11417Y124420D01*
X11127Y124363D01*
X11076Y124618D01*
X10902Y124879D01*
X10902Y124879D01*
X10115Y125666D01*
X9854Y125840D01*
X9547Y125901D01*
D02*
G37*
G36*
X-39393Y104067D02*
X-40161Y103914D01*
X-40812Y103479D01*
X-41247Y102828D01*
X-41400Y102060D01*
X-41247Y101292D01*
X-40812Y100641D01*
X-40161Y100206D01*
X-39393Y100053D01*
X-38625Y100206D01*
X-38183Y100501D01*
X-37609D01*
X-37596Y100500D01*
Y100501D01*
X-32398D01*
X-32375Y100479D01*
D01*
D01*
X-32374Y100478D01*
X-32374Y100478D01*
X-32354Y100478D01*
X-31716Y100052D01*
X-30948Y99899D01*
X-30180Y100052D01*
X-29529Y100487D01*
X-29094Y101138D01*
X-28941Y101906D01*
X-29094Y102674D01*
X-29529Y103325D01*
X-30180Y103761D01*
X-30948Y103913D01*
X-31716Y103761D01*
X-32354Y103334D01*
X-32374Y103334D01*
Y103334D01*
X-32375Y103334D01*
X-32375D01*
X-32398Y103311D01*
X-37645D01*
X-37945Y103436D01*
X-37974Y103479D01*
X-38625Y103914D01*
X-39393Y104067D01*
D02*
G37*
G36*
X21358Y89015D02*
X20590Y88862D01*
X19939Y88427D01*
X19842Y88282D01*
X19352Y88185D01*
X18780Y88567D01*
X18012Y88720D01*
X17244Y88567D01*
X16593Y88132D01*
X16158Y87481D01*
X16005Y86713D01*
X16005Y86713D01*
X16005Y86713D01*
X15847Y86362D01*
X15079Y86209D01*
X14894Y86085D01*
X14403Y86182D01*
X14079Y86668D01*
X13428Y87103D01*
X12659Y87256D01*
X11891Y87103D01*
X11240Y86668D01*
X11225Y86645D01*
X10735Y86548D01*
X10217Y86894D01*
X9449Y87046D01*
X8681Y86894D01*
X8030Y86459D01*
X7594Y85807D01*
X7442Y85039D01*
X7594Y84271D01*
X8030Y83620D01*
X8681Y83185D01*
X9449Y83032D01*
X9453Y83033D01*
X9710Y82982D01*
X9932Y82834D01*
X9941Y82844D01*
X13756Y79029D01*
Y53150D01*
X13756Y53150D01*
X13848Y52689D01*
X14109Y52298D01*
X15922Y50485D01*
X15731Y50023D01*
X11350D01*
Y50037D01*
X11088Y50089D01*
X10870Y50235D01*
X10868Y50238D01*
X10217Y50673D01*
X9449Y50826D01*
X8681Y50673D01*
X8030Y50238D01*
X7594Y49587D01*
X7442Y48819D01*
X7594Y48051D01*
X8030Y47400D01*
X8681Y46965D01*
X9449Y46812D01*
X10217Y46965D01*
X10868Y47400D01*
X10870Y47403D01*
X11088Y47549D01*
X11350Y47601D01*
Y47611D01*
Y47615D01*
X16440D01*
Y47600D01*
X16554Y47615D01*
X18140D01*
X18523Y47358D01*
X19291Y47205D01*
X20059Y47358D01*
X20711Y47793D01*
X21146Y48445D01*
X21170Y48569D01*
X21586Y48847D01*
X21845Y48796D01*
X26061D01*
X27184Y48648D01*
X28328Y48174D01*
X29239Y47474D01*
X29289Y47400D01*
X29941Y46965D01*
X30709Y46812D01*
X31477Y46965D01*
X32128Y47400D01*
X32168Y47459D01*
X32774Y47865D01*
X33497Y48008D01*
X37159D01*
X38020Y47895D01*
X38837Y47557D01*
X39496Y47051D01*
X39526Y47006D01*
X40177Y46571D01*
X40945Y46418D01*
X41713Y46571D01*
X42364Y47006D01*
X42799Y47657D01*
X42952Y48425D01*
X42799Y49193D01*
X42877Y49340D01*
X43372Y49413D01*
X45999Y46786D01*
X45999Y46786D01*
X46389Y46525D01*
X46389Y46525D01*
X46390Y46525D01*
D01*
X46390Y46525D01*
X46390Y46525D01*
X46850Y46434D01*
X46850Y46434D01*
X50461D01*
Y46430D01*
Y46420D01*
X50723Y46368D01*
X50941Y46222D01*
X50943Y46219D01*
X51594Y45783D01*
X52362Y45631D01*
X53130Y45783D01*
X53781Y46219D01*
X53784Y46222D01*
X54002Y46368D01*
X54263Y46420D01*
Y46430D01*
Y46434D01*
X60304D01*
Y46430D01*
Y46420D01*
X60565Y46368D01*
X60783Y46222D01*
X60786Y46219D01*
X61437Y45783D01*
X62205Y45631D01*
X62973Y45783D01*
X63624Y46219D01*
X64059Y46870D01*
X64212Y47638D01*
X64059Y48406D01*
X63624Y49057D01*
X62973Y49492D01*
X62205Y49645D01*
X61437Y49492D01*
X60786Y49057D01*
X60783Y49053D01*
X60565Y48908D01*
X60304Y48856D01*
Y48842D01*
X54263D01*
Y48856D01*
X54002Y48908D01*
X53784Y49053D01*
X53781Y49057D01*
X53130Y49492D01*
X52362Y49645D01*
X51594Y49492D01*
X50943Y49057D01*
X50941Y49053D01*
X50723Y48908D01*
X50461Y48856D01*
Y48842D01*
X47349D01*
X44552Y51639D01*
X44162Y51900D01*
X43701Y51992D01*
X43701Y51992D01*
X32580D01*
X32145Y52426D01*
X31754Y52687D01*
X31293Y52779D01*
X31293Y52779D01*
X22996D01*
X21774Y54001D01*
X21383Y54262D01*
X20922Y54354D01*
X20922Y54354D01*
X20184D01*
X19315Y55223D01*
Y61719D01*
X19705Y61928D01*
X20473Y61776D01*
X21241Y61928D01*
X21893Y62363D01*
X21893D01*
Y62363D01*
X22301Y62459D01*
X22301Y62459D01*
D01*
X22952Y62024D01*
X23720Y61871D01*
X24488Y62024D01*
X25140Y62459D01*
X25575Y63110D01*
X25727Y63878D01*
X25575Y64646D01*
X25140Y65297D01*
X24488Y65732D01*
X24310Y65768D01*
X23398Y66680D01*
X23363Y66725D01*
X23358Y66720D01*
X23255Y66822D01*
Y74311D01*
X23255Y74311D01*
Y86024D01*
X23212Y86240D01*
X23213Y86240D01*
X23365Y87008D01*
X23213Y87776D01*
X22777Y88427D01*
X22126Y88862D01*
X21358Y89015D01*
D02*
G37*
G36*
X-97063Y74661D02*
X-97831Y74508D01*
X-98482Y74073D01*
X-98917Y73422D01*
X-99070Y72654D01*
X-98917Y71886D01*
X-98482Y71234D01*
X-98479Y71232D01*
X-98333Y71014D01*
X-98281Y70753D01*
X-98277D01*
Y70328D01*
X-98277D01*
X-98267Y70254D01*
Y69358D01*
X-98281Y69344D01*
X-98281Y69344D01*
X-98283Y69339D01*
X-98299Y69301D01*
X-98299Y69301D01*
X-98295Y69294D01*
X-98705Y68681D01*
X-98857Y67913D01*
X-98705Y67145D01*
X-98270Y66494D01*
X-97619Y66059D01*
X-96850Y65906D01*
X-96082Y66059D01*
X-95431Y66494D01*
X-94996Y67145D01*
X-94843Y67913D01*
X-94996Y68681D01*
X-95431Y69333D01*
X-95465Y69355D01*
X-95751Y69783D01*
X-95859Y70325D01*
Y70753D01*
X-95845D01*
X-95793Y71014D01*
X-95647Y71232D01*
X-95644Y71234D01*
X-95209Y71886D01*
X-95056Y72654D01*
X-95209Y73422D01*
X-95644Y74073D01*
X-96295Y74508D01*
X-97063Y74661D01*
D02*
G37*
G36*
X1476Y67164D02*
X708Y67012D01*
X57Y66577D01*
X-378Y65926D01*
X-531Y65158D01*
X-541Y65148D01*
X-1280Y65294D01*
X-2048Y65142D01*
X-2699Y64707D01*
X-3134Y64056D01*
X-3287Y63287D01*
X-3273Y63217D01*
X-3402Y62237D01*
X-3807Y61258D01*
X-4416Y60465D01*
X-4458Y60423D01*
X-4458Y60423D01*
X-4458Y60423D01*
X-8558Y56322D01*
X-49797D01*
X-49797Y56322D01*
X-50258Y56231D01*
X-50649Y55970D01*
X-50649Y55970D01*
X-56202Y50417D01*
X-60304D01*
Y50431D01*
X-60565Y50483D01*
X-60783Y50628D01*
X-60786Y50632D01*
X-61437Y51067D01*
X-62205Y51220D01*
X-62973Y51067D01*
X-63624Y50632D01*
X-64059Y49981D01*
X-64212Y49213D01*
X-64059Y48445D01*
X-63624Y47793D01*
X-62973Y47358D01*
X-62205Y47205D01*
X-61437Y47358D01*
X-60786Y47793D01*
X-60783Y47797D01*
X-60565Y47943D01*
X-60304Y47995D01*
Y48005D01*
Y48008D01*
X-55703D01*
X-55703Y48008D01*
X-55242Y48100D01*
X-54851Y48361D01*
X-54640Y48573D01*
X-54216Y48445D01*
X-53781Y47793D01*
X-53130Y47358D01*
X-52362Y47205D01*
X-51594Y47358D01*
X-50943Y47793D01*
X-50508Y48445D01*
X-50355Y49213D01*
X-50362Y49245D01*
X-50278Y49884D01*
X-50019Y50509D01*
X-49606Y51046D01*
X-49610Y51049D01*
X-49610Y51049D01*
X-48320Y52339D01*
X-24078D01*
X-23842Y51898D01*
X-23947Y51740D01*
X-24039Y51279D01*
X-24039Y51279D01*
Y51113D01*
X-24053D01*
X-24105Y50852D01*
X-24250Y50634D01*
X-24254Y50632D01*
X-24689Y49981D01*
X-24842Y49213D01*
X-24689Y48445D01*
X-24254Y47793D01*
X-23603Y47358D01*
X-22835Y47205D01*
X-22067Y47358D01*
X-21415Y47793D01*
X-20980Y48445D01*
X-20828Y49213D01*
X-20980Y49981D01*
X-21415Y50632D01*
X-21419Y50634D01*
X-21350Y50764D01*
X-14661D01*
X-14453Y50374D01*
X-14605Y49606D01*
X-14453Y48838D01*
X-14018Y48187D01*
X-13366Y47752D01*
X-12598Y47599D01*
X-11830Y47752D01*
X-11179Y48187D01*
X-11149Y48232D01*
X-10490Y48738D01*
X-9673Y49076D01*
X-8813Y49189D01*
X-6102D01*
X-6102Y49189D01*
X-5641Y49281D01*
X-5251Y49542D01*
X3772Y58565D01*
X4221D01*
Y58559D01*
X4264Y58565D01*
X4594D01*
X4859Y58455D01*
X4880Y58423D01*
X5531Y57988D01*
X6299Y57836D01*
X7067Y57988D01*
X7718Y58423D01*
X8153Y59074D01*
X8306Y59842D01*
X8153Y60611D01*
X7718Y61262D01*
X7067Y61697D01*
X6299Y61850D01*
X5903Y61771D01*
X5549Y62124D01*
X5550Y62131D01*
X5398Y62900D01*
X4963Y63551D01*
X4311Y63986D01*
X3543Y64139D01*
X3504Y64131D01*
X3331Y64389D01*
X3483Y65158D01*
X3331Y65926D01*
X2896Y66577D01*
X2245Y67012D01*
X1476Y67164D01*
D02*
G37*
G36*
X96824Y82610D02*
X95899Y82489D01*
X95037Y82131D01*
X94297Y81564D01*
X93729Y80823D01*
X93372Y79961D01*
X93250Y79036D01*
X93372Y78111D01*
X93729Y77249D01*
X94297Y76509D01*
X95037Y75941D01*
X95899Y75584D01*
X96824Y75463D01*
X97749Y75584D01*
X98611Y75941D01*
X99351Y76509D01*
X99919Y77249D01*
X100276Y78111D01*
X100398Y79036D01*
X100276Y79961D01*
X99919Y80823D01*
X99351Y81564D01*
X98611Y82131D01*
X97749Y82489D01*
X96824Y82610D01*
D02*
G37*
G36*
X39724Y75235D02*
X38956Y75083D01*
X38305Y74648D01*
X37949Y74114D01*
X37382Y74492D01*
X36614Y74645D01*
X35846Y74492D01*
X35195Y74057D01*
X34760Y73406D01*
X34607Y72638D01*
X34760Y71870D01*
X35186Y71232D01*
X35186Y71212D01*
D01*
D01*
D01*
D01*
X35186Y71212D01*
X35186D01*
Y71212D01*
D01*
D01*
X35186Y71212D01*
X35186Y71211D01*
X35186D01*
X35187Y71210D01*
D01*
D01*
D01*
Y71210D01*
D01*
X35213Y71184D01*
Y70332D01*
X35204Y70261D01*
X35213D01*
Y66074D01*
X35210Y66074D01*
Y66074D01*
X35209Y66074D01*
X35199D01*
X35147Y65813D01*
X35002Y65595D01*
X34998Y65592D01*
X34563Y64941D01*
X34410Y64173D01*
X34563Y63405D01*
X34998Y62754D01*
X35649Y62319D01*
X36417Y62166D01*
X37185Y62319D01*
X37837Y62754D01*
X38272Y63405D01*
X38322Y63657D01*
X38503Y63778D01*
X38794Y63898D01*
X39389Y63500D01*
X40157Y63347D01*
X40925Y63500D01*
X41577Y63935D01*
X42012Y64586D01*
X42165Y65354D01*
X42012Y66122D01*
X41577Y66773D01*
X41511Y66817D01*
X41080Y67463D01*
X40929Y68224D01*
Y71327D01*
X40942D01*
X40994Y71589D01*
X41140Y71807D01*
X41144Y71809D01*
X41579Y72460D01*
X41731Y73228D01*
X41579Y73996D01*
X41144Y74648D01*
X40492Y75083D01*
X39724Y75235D01*
D02*
G37*
%LPD*%
G36*
X10335Y124311D02*
Y124075D01*
X9927Y123803D01*
X9470Y123119D01*
X9310Y122313D01*
X9470Y121507D01*
X9927Y120823D01*
X10335Y120551D01*
Y115518D01*
X10433Y115354D01*
X10456Y109350D01*
X10364Y108890D01*
X10103Y108499D01*
X9713Y108238D01*
X9275Y108151D01*
X9252Y108169D01*
Y108169D01*
X9252Y108169D01*
X-1378Y108205D01*
X-2457Y108063D01*
X-3463Y107646D01*
X-4326Y106984D01*
X-4989Y106120D01*
X-5405Y105115D01*
X-5548Y104035D01*
X-5548D01*
Y104035D01*
X-9843Y104020D01*
X-10150Y104081D01*
X-10410Y104255D01*
X-10584Y104516D01*
X-10642Y104808D01*
X-10630Y104823D01*
X-10630D01*
X-10632Y105658D01*
X-13386Y106496D01*
Y113091D01*
X-11407Y115069D01*
X-10630D01*
Y115847D01*
X-10531Y115945D01*
Y118307D01*
X-10039Y118799D01*
Y120695D01*
X-9848Y120823D01*
X-9392Y121507D01*
X-9231Y122313D01*
X-9392Y123119D01*
X-9848Y123803D01*
X-10039Y123931D01*
Y124114D01*
X-9055Y125098D01*
X9547D01*
X10335Y124311D01*
D02*
G37*
%LPC*%
G36*
X984Y123070D02*
X216Y122917D01*
X-435Y122482D01*
X-870Y121831D01*
X-918Y121588D01*
X-2535D01*
X-2535Y121588D01*
X-2996Y121496D01*
X-3387Y121235D01*
X-3804Y120818D01*
X-4065Y120427D01*
X-4152Y119990D01*
X-8268D01*
Y115069D01*
X-2171D01*
X-2108Y114751D01*
D01*
X-2105Y114739D01*
X-2097Y114697D01*
X-1836Y114306D01*
X-1048Y113519D01*
X-1048Y113519D01*
X-658Y113258D01*
X-197Y113166D01*
X-197Y113166D01*
X1258D01*
X1534Y112754D01*
X2185Y112319D01*
X2953Y112166D01*
X3721Y112319D01*
X4372Y112754D01*
X4807Y113405D01*
X4960Y114173D01*
X4933Y114306D01*
X4807Y114941D01*
X4875Y115069D01*
X8268D01*
Y115881D01*
Y119990D01*
X3172D01*
X2855Y120377D01*
X2991Y121063D01*
X2839Y121831D01*
X2403Y122482D01*
X1752Y122917D01*
X984Y123070D01*
D02*
G37*
%LPD*%
D10*
X59449Y3445D02*
G03*
X58892Y4789I-1901J0D01*
G01*
X58892Y4789D02*
G03*
X60236Y4232I1344J1344D01*
G01*
X-94784Y27362D02*
G03*
X-94227Y26018I1901J0D01*
G01*
X-94227Y26018D02*
G03*
X-95571Y26575I-1344J-1344D01*
G01*
X39724Y68301D02*
G03*
X40714Y65911I3380J0D01*
G01*
X40281Y72672D02*
G03*
X39724Y71327I1344J-1344D01*
G01*
D02*
G03*
X39168Y72672I-1901J0D01*
G01*
X-23391Y49769D02*
G03*
X-22835Y51113I-1344J1344D01*
G01*
D02*
G03*
X-22278Y49769I1901J0D01*
G01*
X-10697Y50394D02*
G03*
X-12598Y49606I0J-2688D01*
G01*
X-8796Y50394D02*
G03*
X-12042Y49049I0J-4589D01*
G01*
X-51805Y50557D02*
G03*
X-52362Y49213I1344J-1344D01*
G01*
X-50461Y51901D02*
G03*
X-51575Y49213I2688J-2688D01*
G01*
X10006Y49376D02*
G03*
X11350Y48819I1344J1344D01*
G01*
D02*
G03*
X10006Y48262I0J-1901D01*
G01*
X40945Y48425D02*
G03*
X39044Y49213I-1901J-1901D01*
G01*
X40388Y47868D02*
G03*
X37143Y49213I-3245J-3245D01*
G01*
X61648Y47081D02*
G03*
X60304Y47638I-1344J-1344D01*
G01*
D02*
G03*
X61648Y48195I0J1901D01*
G01*
X52919D02*
G03*
X54263Y47638I1344J1344D01*
G01*
D02*
G03*
X52919Y47081I0J-1901D01*
G01*
X51805D02*
G03*
X50461Y47638I-1344J-1344D01*
G01*
D02*
G03*
X51805Y48195I0J1901D01*
G01*
X90158Y57480D02*
G03*
X88637Y58110I-1521J-1521D01*
G01*
X89601Y56924D02*
G03*
X86736Y58110I-2865J-2865D01*
G01*
X81496Y48591D02*
G03*
X82657Y48110I1161J1161D01*
G01*
X82053Y49148D02*
G03*
X84558Y48110I2506J2506D01*
G01*
X82446Y63549D02*
G03*
X83506Y63110I1059J1059D01*
G01*
X84076D02*
G03*
X82446Y62435I0J-2304D01*
G01*
X100951Y48262D02*
G03*
X100000Y45968I2295J-2295D01*
G01*
X100754Y63549D02*
G03*
X102098Y62992I1344J1344D01*
G01*
D02*
G03*
X100754Y62435I0J-1901D01*
G01*
X102919Y43569D02*
G03*
X104026Y43110I1107J1107D01*
G01*
X104501D02*
G03*
X102919Y42455I0J-2237D01*
G01*
X102219Y52002D02*
G03*
X100399Y52756I-1819J-1819D01*
G01*
X101350D02*
G03*
X102219Y53116I0J1229D01*
G01*
X103332D02*
G03*
X104201Y52756I869J869D01*
G01*
X105152D02*
G03*
X103332Y52002I0J-2573D01*
G01*
X106595Y25886D02*
G03*
X106038Y27230I-1901J0D01*
G01*
X106038Y27230D02*
G03*
X107382Y26673I1344J1344D01*
G01*
X2033Y64601D02*
G03*
X1181Y62544I2057J-2057D01*
G01*
Y63969D02*
G03*
X920Y64601I-893J0D01*
G01*
X63189Y92520D02*
G03*
X64197Y92937I0J1426D01*
G01*
X64672Y93413D02*
G03*
X63976Y91732I1680J-1680D01*
G01*
X67323Y99606D02*
G03*
X65979Y99050I0J-1901D01*
G01*
X65979Y99050D02*
G03*
X66535Y100394I-1344J1344D01*
G01*
X65979Y92289D02*
G03*
X66535Y93633I-1344J1344D01*
G01*
D02*
G03*
X67092Y92289I1901J0D01*
G01*
X75821Y96687D02*
G03*
X74476Y97244I-1345J-1345D01*
G01*
X74477D02*
G03*
X75821Y97801I0J1900D01*
G01*
X10236Y85039D02*
G03*
X10793Y83695I1901J0D01*
G01*
X10793Y83695D02*
G03*
X9449Y84252I-1344J-1344D01*
G01*
X-114336Y54494D02*
G03*
X-113622Y56218I-1724J1724D01*
G01*
Y55458D02*
G03*
X-113223Y54494I1363J0D01*
G01*
X-118622Y54779D02*
G03*
X-118110Y53543I1747J0D01*
G01*
X-118622Y56680D02*
G03*
X-117553Y54100I3648J0D01*
G01*
X1541Y120506D02*
G03*
X984Y119162I1344J-1344D01*
G01*
D02*
G03*
X428Y120506I-1901J0D01*
G01*
X2396Y114730D02*
G03*
X2953Y116074I-1344J1344D01*
G01*
D02*
G03*
X3509Y114730I1901J0D01*
G01*
X37171Y72081D02*
G03*
X36417Y70261I1820J-1820D01*
G01*
Y71212D02*
G03*
X36057Y72081I-1229J0D01*
G01*
X16635Y84355D02*
G03*
X17195Y83002I1913J0D01*
G01*
X17183Y83014D02*
G03*
X15847Y83567I-1336J-1336D01*
G01*
X35630Y141929D02*
G03*
X36974Y142486I0J1901D01*
G01*
X36974Y142486D02*
G03*
X36417Y141142I1344J-1344D01*
G01*
X-96506Y72097D02*
G03*
X-97063Y70753I1344J-1344D01*
G01*
D02*
G03*
X-97620Y72097I-1901J0D01*
G01*
X-97407Y68470D02*
G03*
X-97063Y69301I-831J831D01*
G01*
Y70328D02*
G03*
X-96294Y68470I2627J0D01*
G01*
X16440Y48819D02*
G03*
X18735Y49769I0J3245D01*
G01*
X31265Y49376D02*
G03*
X29758Y50000I-1507J-1507D01*
G01*
X30709Y48819D02*
G03*
X27857Y50000I-2851J-2851D01*
G01*
X30152Y48262D02*
G03*
X25956Y50000I-4196J-4196D01*
G01*
X33560Y49213D02*
G03*
X31265Y48262I0J-3245D01*
G01*
X-99246Y20537D02*
G03*
X-97902Y19980I1344J1344D01*
G01*
D02*
G03*
X-99246Y19423I0J-1901D01*
G01*
X118538Y-39336D02*
G03*
X117193Y-38780I-1344J-1344D01*
G01*
D02*
G03*
X118538Y-38223I0J1901D01*
G01*
X119620Y-34415D02*
G03*
X118276Y-33858I-1344J-1344D01*
G01*
D02*
G03*
X119620Y-33301I0J1901D01*
G01*
X106409Y-10051D02*
G03*
X105065Y-9494I-1344J-1344D01*
G01*
D02*
G03*
X106409Y-8938I0J1901D01*
G01*
X97146Y25054D02*
G03*
X97638Y26242I-1188J1188D01*
G01*
X96589Y25610D02*
G03*
X97638Y28143I-2532J2532D01*
G01*
X84089Y26147D02*
G03*
X84842Y27967I-1819J1819D01*
G01*
Y27016D02*
G03*
X85202Y26147I1229J0D01*
G01*
X87958Y33124D02*
G03*
X87402Y31780I1344J-1344D01*
G01*
Y31780D02*
G03*
X86845Y33124I-1901J0D01*
G01*
X98096Y9778D02*
G03*
X97638Y8671I1106J-1106D01*
G01*
Y8196D02*
G03*
X96983Y9778I-2237J0D01*
G01*
X91929Y9815D02*
G03*
X90925Y12239I-3428J0D01*
G01*
X90880Y19325D02*
G03*
X89536Y19882I-1344J-1344D01*
G01*
D02*
G03*
X90880Y20439I0J1901D01*
G01*
X81167D02*
G03*
X82511Y19882I1344J1344D01*
G01*
D02*
G03*
X81167Y19325I0J-1901D01*
G01*
X130643Y-31857D02*
G03*
X129772Y-31496I-871J-871D01*
G01*
X128826D02*
G03*
X130643Y-30743I0J2570D01*
G01*
X102298Y25655D02*
G03*
X102756Y26762I-1106J1106D01*
G01*
Y27237D02*
G03*
X103411Y25655I2237J0D01*
G01*
X99246Y19750D02*
G03*
X99803Y21094I-1344J1344D01*
G01*
D02*
G03*
X100360Y19750I1901J0D01*
G01*
X5742Y59286D02*
G03*
X4575Y59769I-1167J-1167D01*
G01*
X4221D02*
G03*
X5742Y60399I0J2151D01*
G01*
X-61648Y49769D02*
G03*
X-60304Y49213I1344J1344D01*
G01*
D02*
G03*
X-61648Y48656I0J-1901D01*
G01*
X-2262Y60915D02*
G03*
X-1280Y63287I-2372J2372D01*
G01*
X-3606Y59571D02*
G03*
X-2067Y63287I-3716J3716D01*
G01*
X-875Y62612D02*
G03*
X-1280Y61898I428J-714D01*
G01*
D02*
G03*
X-1684Y62612I-832J0D01*
G01*
X35860Y64730D02*
G03*
X36417Y66074I-1344J1344D01*
G01*
Y66074D02*
G03*
X36974Y64730I1901J0D01*
G01*
X110335Y67126D02*
G03*
X108640Y68110I-1695J-967D01*
G01*
X109651Y66736D02*
G03*
X107284Y68110I-2367J-1351D01*
G01*
X103332Y58726D02*
G03*
X104819Y58110I1487J1487D01*
G01*
X104534D02*
G03*
X103332Y57613I0J-1699D01*
G01*
X116343Y443D02*
G03*
X114999Y1000I-1344J-1344D01*
G01*
D02*
G03*
X116343Y1557I0J1901D01*
G01*
X102343Y3057D02*
G03*
X102756Y4053I-996J996D01*
G01*
Y4749D02*
G03*
X103457Y3057I2393J0D01*
G01*
X94643Y2857D02*
G03*
X95079Y3908I-1051J1051D01*
G01*
Y4494D02*
G03*
X95757Y2857I2315J0D01*
G01*
X122157Y1757D02*
G03*
X123501Y1200I1344J1344D01*
G01*
D02*
G03*
X122157Y643I0J-1901D01*
G01*
X130743D02*
G03*
X129399Y1200I-1344J-1344D01*
G01*
D02*
G03*
X130743Y1757I0J1901D01*
G01*
X130643Y-10957D02*
G03*
X129299Y-10400I-1344J-1344D01*
G01*
D02*
G03*
X130643Y-9843I0J1901D01*
G01*
X121367Y-10400D02*
G03*
X119057Y-11357I0J-3267D01*
G01*
X-108065Y34975D02*
G03*
X-108622Y33630I1344J-1344D01*
G01*
D02*
G03*
X-109179Y34975I-1901J0D01*
G01*
X-109179Y61285D02*
G03*
X-108622Y62629I-1344J1344D01*
G01*
D02*
G03*
X-108065Y61285I1901J0D01*
G01*
X-119179D02*
G03*
X-118622Y62629I-1344J1344D01*
G01*
D02*
G03*
X-118065Y61285I1901J0D01*
G01*
Y57022D02*
G03*
X-118622Y55678I1344J-1344D01*
G01*
D02*
G03*
X-119179Y57022I-1901J0D01*
G01*
X-103622Y35531D02*
G03*
X-104331Y33911I1498J-1620D01*
G01*
X-103087Y34953D02*
G03*
X-104331Y32111I2628J-2842D01*
G01*
X-114179Y61285D02*
G03*
X-113622Y62629I-1344J1344D01*
G01*
D02*
G03*
X-113065Y61285I1901J0D01*
G01*
Y57022D02*
G03*
X-113622Y55678I1344J-1344D01*
G01*
D02*
G03*
X-114179Y57022I-1901J0D01*
G01*
X105152Y42553D02*
G03*
X103808Y43110I-1344J-1344D01*
G01*
D02*
G03*
X105152Y43667I0J1901D01*
G01*
X102952Y52756D02*
G03*
X105152Y53667I0J3111D01*
G01*
Y57553D02*
G03*
X103808Y58110I-1344J-1344D01*
G01*
D02*
G03*
X105152Y58667I0J1901D01*
G01*
Y62554D02*
G03*
X104093Y62992I-1059J-1059D01*
G01*
X103523D02*
G03*
X105152Y63667I0J2304D01*
G01*
X83695Y62554D02*
G03*
X82351Y63110I-1344J-1344D01*
G01*
D02*
G03*
X83695Y63667I0J1901D01*
G01*
X87958Y58667D02*
G03*
X89302Y58110I1344J1344D01*
G01*
D02*
G03*
X87958Y57553I0J-1901D01*
G01*
X89788Y46334D02*
G03*
X87401Y47323I-2386J-2386D01*
G01*
X83695Y47554D02*
G03*
X82351Y48110I-1344J-1344D01*
G01*
D02*
G03*
X83695Y48667I0J1901D01*
G01*
X87995Y38628D02*
G03*
X89134Y38110I1139J994D01*
G01*
D02*
G03*
X87995Y37593I0J-1512D01*
G01*
X104921Y28839D02*
G03*
X105269Y27999I1188J0D01*
G01*
X105709Y28839D02*
G03*
X106613Y26654I3089J0D01*
G01*
X105037Y32267D02*
G03*
X105315Y32939I-672J672D01*
G01*
D02*
G03*
X105593Y32267I950J0D01*
G01*
X103034Y28560D02*
G03*
X102756Y27888I672J-672D01*
G01*
D02*
G03*
X102478Y28560I-950J0D01*
G01*
X97916D02*
G03*
X97638Y27888I672J-672D01*
G01*
D02*
G03*
X97359Y28560I-950J0D01*
G01*
Y32267D02*
G03*
X97638Y32939I-672J672D01*
G01*
D02*
G03*
X97916Y32267I950J0D01*
G01*
X94800D02*
G03*
X95079Y32939I-672J672D01*
G01*
D02*
G03*
X95357Y32267I950J0D01*
G01*
X92241D02*
G03*
X92520Y32939I-672J672D01*
G01*
D02*
G03*
X92798Y32267I950J0D01*
G01*
X89764Y33414D02*
G03*
X90239Y32267I1623J0D01*
G01*
X87123D02*
G03*
X87402Y32939I-672J672D01*
G01*
D02*
G03*
X87680Y32267I950J0D01*
G01*
X85121Y28560D02*
G03*
X84842Y27888I672J-672D01*
G01*
D02*
G03*
X84564Y28560I-950J0D01*
G01*
X90239Y4938D02*
G03*
X89961Y4266I672J-672D01*
G01*
D02*
G03*
X89682Y4938I-950J0D01*
G01*
X91929Y10742D02*
G03*
X92798Y8644I2967J0D01*
G01*
X95357Y4938D02*
G03*
X95079Y4266I672J-672D01*
G01*
D02*
G03*
X94800Y4938I-950J0D01*
G01*
X97359Y8644D02*
G03*
X97638Y9317I-672J672D01*
G01*
D02*
G03*
X97916Y8644I950J0D01*
G01*
X100475Y4938D02*
G03*
X100197Y4266I672J-672D01*
G01*
D02*
G03*
X99919Y4938I-950J0D01*
G01*
X103034D02*
G03*
X102756Y4266I672J-672D01*
G01*
D02*
G03*
X102478Y4938I-950J0D01*
G01*
X108152D02*
G03*
X107874Y4266I672J-672D01*
G01*
D02*
G03*
X107596Y4938I-950J0D01*
G01*
X-114756Y68217D02*
G03*
X-113786Y67815I970J970D01*
G01*
X-113710D02*
G03*
X-114756Y67382I0J-1479D01*
G01*
X-114149Y67299D02*
G03*
X-115221Y67597I-800J-800D01*
G01*
X-118299Y66988D02*
G03*
X-118622Y66208I780J-780D01*
G01*
Y65752D02*
G03*
X-119134Y66988I-1748J0D01*
G01*
X-111244Y67397D02*
G03*
X-112252Y67815I-1008J-1008D01*
G01*
D02*
G03*
X-111244Y68233I0J1426D01*
G01*
X-107701Y68429D02*
G03*
X-107283Y69437I-1008J1008D01*
G01*
D02*
G03*
X-106866Y68429I1426J0D01*
G01*
X-108179Y65837D02*
G03*
X-107837Y67412I-1054J1054D01*
G01*
X-107283Y69790D02*
G03*
X-107923Y71334I-2184J0D01*
G01*
X-111466Y71531D02*
G03*
X-112475Y71949I-1008J-1008D01*
G01*
D02*
G03*
X-111466Y72366I0J1426D01*
G01*
X-107456Y31571D02*
G03*
X-107874Y30562I1008J-1008D01*
G01*
D02*
G03*
X-108292Y31571I-1426J0D01*
G01*
X-108622Y33713D02*
G03*
X-108013Y32243I2079J0D01*
G01*
X-108622Y35614D02*
G03*
X-107456Y32800I3980J0D01*
G01*
X-103913Y32603D02*
G03*
X-102905Y32185I1008J1008D01*
G01*
D02*
G03*
X-103913Y31767I0J-1426D01*
G01*
X-104748Y32800D02*
G03*
X-104331Y33808I-1008J1008D01*
G01*
D02*
G03*
X-103913Y32800I1426J0D01*
G01*
X-108390Y28764D02*
G03*
X-107874Y30010I-1246J1246D01*
G01*
Y29535D02*
G03*
X-107555Y28764I1090J0D01*
G01*
X-104012Y27535D02*
G03*
X-104429Y26527I1008J-1008D01*
G01*
D02*
G03*
X-104847Y27535I-1426J0D01*
G01*
X-104862Y24811D02*
G03*
X-104429Y25857I-1046J1046D01*
G01*
Y25781D02*
G03*
X-104027Y24811I1372J0D01*
G01*
X114936Y-38780D02*
G03*
X58004Y-11757I-68936J-71753D01*
G01*
X111295Y-30913D02*
G03*
X87388Y-16215I-64850J-78689D01*
G01*
D02*
G03*
X61598Y-8767I-40943J-93388D01*
G01*
X142991Y69015D02*
G03*
X63554Y143287I-147848J-78513D01*
G01*
X-60661Y143401D02*
G03*
X-139071Y75554I61364J-150149D01*
G01*
X140936Y69349D02*
G03*
X62990Y141728I-145793J-78847D01*
G01*
X142286Y66789D02*
G03*
X142999Y69019I-729J1462D01*
G01*
X140256Y67716D02*
G03*
X140866Y69624I-624J1251D01*
G01*
X112044Y-33865D02*
G03*
X59446Y-10253I-65599J-75738D01*
G01*
X61030Y-8767D02*
X61598D01*
X59744Y-7480D02*
X61030Y-8767D01*
X118500Y-10800D02*
X118900Y-10400D01*
X131200D01*
X121600Y1200D02*
X131300D01*
X104394Y-9500D02*
X104400Y-9494D01*
X106966D01*
X101000Y-9500D02*
X104394D01*
X100197Y-8697D02*
X101000Y-9500D01*
X100197Y-8697D02*
Y6791D01*
X95079Y2295D02*
Y6791D01*
X102756Y2644D02*
X102900Y2500D01*
X102756Y2644D02*
Y4000D01*
Y6791D01*
Y3378D02*
Y4000D01*
X107874Y3892D02*
X109183Y2583D01*
X110335Y1431D01*
X109183Y2583D02*
X110766Y1000D01*
X116900D01*
X57536Y-11757D02*
X58004D01*
X114936Y-38780D02*
X119095D01*
X87388Y-16215D02*
X88312D01*
X111295Y-30913D02*
X111878Y-31496D01*
X131004D02*
X131200Y-31300D01*
X111878Y-31496D02*
X131004D01*
X109350Y68110D02*
X110335Y67126D01*
X107283Y68110D02*
X109350D01*
X18110Y54724D02*
Y82087D01*
X16535Y53802D02*
Y80180D01*
X14961Y53150D02*
Y79528D01*
X-1280Y61898D02*
Y63287D01*
X-8059Y55118D02*
X-1280Y61898D01*
X-62205Y49213D02*
X-55703D01*
X-49797Y55118D01*
X-8059D01*
X1181Y62131D02*
Y64173D01*
X-7407Y53543D02*
X1181Y62131D01*
X99316Y52756D02*
X106929D01*
X95079Y34055D02*
X96850Y35827D01*
Y40945D01*
X97638Y41732D01*
Y51078D01*
X95079Y30413D02*
Y34055D01*
X98425Y35175D02*
Y40256D01*
X97638Y34387D02*
X98425Y35175D01*
X97638Y30413D02*
Y34387D01*
X98425Y40256D02*
X100000Y41831D01*
Y48425D01*
X97638Y51078D02*
X99316Y52756D01*
X100000Y48425D02*
X100394Y48819D01*
X88012Y48110D02*
X91339Y44783D01*
Y35138D02*
X92520Y33957D01*
X81496Y47607D02*
X81999Y48110D01*
X92520Y30413D02*
Y33957D01*
X91339Y35138D02*
Y44783D01*
X89764Y30610D02*
X89961Y30413D01*
X89764Y30610D02*
Y37480D01*
X89134Y38110D02*
X89764Y37480D01*
X85827Y38110D02*
X89134D01*
X85827Y48110D02*
X88012D01*
X91482Y12795D02*
X91929Y12348D01*
Y7382D02*
Y12348D01*
Y7382D02*
X92520Y6791D01*
X30709Y49213D02*
X40157D01*
X2165Y114370D02*
X2953Y115157D01*
X112303Y27461D02*
Y32222D01*
X116531Y36450D01*
Y51378D01*
X107382Y22539D02*
X112303Y27461D01*
X100492Y22539D02*
X107382D01*
X99803Y21850D02*
X100492Y22539D01*
X99803Y19193D02*
Y21850D01*
X105315Y27953D02*
X107382Y25886D01*
X39759Y141728D02*
X62990D01*
X-139071Y75554D02*
X-135465Y71949D01*
X105315Y27953D02*
Y30413D01*
Y33858D02*
X105905Y34449D01*
X105315Y30413D02*
Y33858D01*
X105905Y34449D02*
X112303D01*
X114852Y36997D01*
Y54711D01*
X30026Y143405D02*
X34651Y138779D01*
X-60708Y143405D02*
X30026D01*
X36811Y138779D02*
X39759Y141728D01*
X34651Y138779D02*
X36811D01*
X35630Y141142D02*
X37822Y143333D01*
X63508D01*
X116531Y51378D02*
X117565Y54466D01*
X142278Y66785D01*
X115535Y55394D02*
X140248Y67713D01*
X114852Y54711D02*
X115535Y55394D01*
X80610Y19882D02*
X91437D01*
X97539Y10335D02*
X97638Y10236D01*
Y6791D02*
Y10236D01*
X89961Y-14567D02*
Y6791D01*
X88312Y-16215D02*
X89961Y-14567D01*
X56128Y-10349D02*
X57536Y-11757D01*
X56128Y-10349D02*
Y-9377D01*
X56102Y-9351D02*
X56128Y-9377D01*
X59744Y-7480D02*
Y492D01*
X55118Y5118D02*
X59744Y492D01*
X112100Y-33858D02*
X120177D01*
X-74176Y5118D02*
X55118D01*
X108280Y30413D02*
X109346Y31480D01*
X107874Y30413D02*
X108280D01*
X82776Y39272D02*
X83937Y38110D01*
X85827D01*
X36417Y64173D02*
Y72834D01*
X87402Y30413D02*
Y33681D01*
X84646Y25591D02*
X84842Y25787D01*
Y30413D01*
X102756Y25984D02*
X102854Y25886D01*
X102756Y25984D02*
Y30413D01*
X97342Y25349D02*
X97638Y25644D01*
Y30413D01*
X107874Y3892D02*
Y6791D01*
X57677Y-8366D02*
X59460Y-10149D01*
X54473Y3347D02*
X57677Y143D01*
Y-8366D02*
Y143D01*
X-74631Y3347D02*
X54473D01*
X-77658Y8600D02*
X-74176Y5118D01*
X53821Y1772D02*
X56102Y-510D01*
X-75284Y1772D02*
X53821D01*
X-81299Y7787D02*
X-75284Y1772D01*
X-79232Y7947D02*
X-74631Y3347D01*
X-77658Y8600D02*
Y19353D01*
X-82222Y23917D02*
X-77658Y19353D01*
X-96555Y23917D02*
X-82222D01*
X-97441Y24803D02*
X-96555Y23917D01*
X-79232Y7947D02*
Y18701D01*
X-82874Y22343D02*
X-79232Y18701D01*
X-98917Y22343D02*
X-82874D01*
X-100394Y23819D02*
X-98917Y22343D01*
X-100394Y23819D02*
Y31299D01*
X-101280Y32185D02*
X-100394Y31299D01*
X-104331Y32185D02*
X-101280D01*
X56102Y-9351D02*
Y-510D01*
X-81299Y7787D02*
Y9449D01*
X-104429Y23984D02*
Y28150D01*
Y23984D02*
X-104347Y23902D01*
X-107972Y28150D02*
X-107874Y28248D01*
Y32185D01*
X-81299Y9449D02*
X-81271D01*
X-81299D02*
Y18504D01*
X-82776Y19980D02*
X-81299Y18504D01*
X-99803Y19980D02*
X-82776D01*
X15748Y84449D02*
X18110Y82087D01*
Y54724D02*
X19685Y53150D01*
X16535Y53802D02*
X18763Y51575D01*
X14961Y53150D02*
X18898Y49213D01*
X31293Y51575D02*
X32081Y50787D01*
X43701D01*
X46850Y47638D01*
X22497Y51575D02*
X31293D01*
X21845Y50000D02*
X30315D01*
X18763Y51575D02*
X20270D01*
X19685Y53150D02*
X20922D01*
X-107874Y31893D02*
Y32185D01*
X-97063Y68126D02*
X-96850Y67913D01*
X-97063Y68126D02*
Y72654D01*
X-113622Y53937D02*
Y59153D01*
X-108622Y32933D02*
Y37106D01*
X-104331Y32185D02*
Y36398D01*
X12659Y84056D02*
Y85249D01*
Y84056D02*
X16535Y80180D01*
X706Y120363D02*
X984Y120085D01*
Y117529D02*
Y120085D01*
X117Y120363D02*
X706D01*
X95Y120384D02*
X117Y120363D01*
X-2535Y120384D02*
X95D01*
X-2953Y119966D02*
X-2535Y120384D01*
X-2953Y119966D02*
X-2953Y119966D01*
Y117529D02*
Y119966D01*
X2953Y115157D02*
Y117529D01*
X-197Y114370D02*
X2165D01*
X-984Y115157D02*
X-197Y114370D01*
X-984Y115157D02*
Y117529D01*
X-135465Y71949D02*
X-111049D01*
X-107506D02*
X-107283Y71727D01*
Y67815D02*
Y71727D01*
X-118622Y54055D02*
Y59153D01*
Y60039D02*
Y67508D01*
Y54055D02*
X-118110Y53543D01*
X-118717Y67602D02*
X-118622Y67508D01*
X-108622Y65394D02*
X-107087Y66929D01*
X-108622Y59153D02*
Y65394D01*
X20270Y51575D02*
X21845Y50000D01*
X30315D02*
X30709Y49606D01*
X20922Y53150D02*
X22497Y51575D01*
X40157Y49213D02*
X40945Y48425D01*
X18898Y49213D02*
X19291D01*
X6226Y59769D02*
X6299Y59842D01*
X3273Y59769D02*
X6226D01*
X-6102Y50394D02*
X3273Y59769D01*
X-6755Y51968D02*
X3408Y62131D01*
X3543D01*
X-52362Y50000D02*
X-48819Y53543D01*
X-52362Y49213D02*
Y50000D01*
X-48819Y53543D02*
X-7407D01*
X9449Y48819D02*
X18898D01*
X9449Y85039D02*
X9449D01*
X14961Y79528D01*
X46850Y47638D02*
X52362D01*
X62205D01*
X18898Y48819D02*
X19291Y49213D01*
X64961Y98032D02*
X67323Y100394D01*
X64961Y93701D02*
Y98032D01*
X63189Y91929D02*
X64961Y93701D01*
X63189Y91732D02*
Y91929D01*
X66535Y96850D02*
X66929Y97244D01*
X66535Y91732D02*
Y96850D01*
X76378Y97244D02*
X76378Y97244D01*
X66929Y97244D02*
X76378D01*
X-12598Y50394D02*
X-6102D01*
X-12598Y50394D02*
X-12598Y50394D01*
X-12598Y49606D02*
Y50394D01*
X-22146Y51968D02*
X-6755D01*
X-22835Y51279D02*
X-22146Y51968D01*
X-22835Y49213D02*
Y51279D01*
Y49213D02*
X-22441D01*
X102834Y58110D02*
X107283D01*
X102776Y58169D02*
X102834Y58110D01*
X102461Y43110D02*
X107283D01*
X102362Y43012D02*
X102461Y43110D01*
X107165Y62992D02*
X107283Y63110D01*
X100197Y62992D02*
X107165D01*
X106929Y52756D02*
X107283Y53110D01*
X82008Y63110D02*
X85827D01*
X81890Y62992D02*
X82008Y63110D01*
X81999Y48110D02*
X85827D01*
X89527Y58110D02*
X90158Y57480D01*
X85827Y58110D02*
X89527D01*
X-113622Y59153D02*
Y66772D01*
X-114862Y67815D02*
X-114665D01*
X-110827D01*
X-114961Y68110D02*
X-114665Y67815D01*
X-113622Y66772D01*
X-115354Y67323D02*
X-114862Y67815D01*
X39724Y65788D02*
Y73228D01*
Y65788D02*
X40157Y65354D01*
X36417Y64173D02*
X36417Y64173D01*
X1181D02*
X1969Y64961D01*
Y65354D01*
X-81569Y25492D02*
X-76083Y20005D01*
X-93701Y25492D02*
X-81569D01*
X-73524Y6693D02*
X56988D01*
X-76083Y9252D02*
Y20005D01*
X-95571Y27362D02*
X-93701Y25492D01*
X56988Y6693D02*
X60236Y3445D01*
X-76083Y9252D02*
X-73524Y6693D01*
D11*
X18602Y86713D02*
G03*
X19020Y85704I1426J0D01*
G01*
D02*
G03*
X18012Y86122I-1008J-1008D01*
G01*
X-31366Y101489D02*
G03*
X-32374Y101906I-1008J-1008D01*
G01*
D02*
G03*
X-31366Y102324I0J1426D01*
G01*
X-38976Y102478D02*
G03*
X-37596Y101906I1379J1379D01*
G01*
X-106018Y49718D02*
G03*
X-105610Y50701I-983J983D01*
G01*
Y50750D02*
G03*
X-105182Y49718I1461J0D01*
G01*
X86886Y2485D02*
G03*
X87303Y3493I-1008J1008D01*
G01*
D02*
G03*
X87721Y2485I1426J0D01*
G01*
X78248Y9055D02*
G03*
X79424Y9542I0J1663D01*
G01*
X79187Y9305D02*
G03*
X78839Y8465I840J-840D01*
G01*
X23130Y63878D02*
G03*
X22364Y65726I-2614J0D01*
G01*
X118818Y-17082D02*
G03*
X119826Y-17500I1008J1008D01*
G01*
D02*
G03*
X118818Y-17918I0J-1426D01*
G01*
X128882D02*
G03*
X127874Y-17500I-1008J-1008D01*
G01*
D02*
G03*
X128882Y-17082I0J1426D01*
G01*
X-100771Y58169D02*
G03*
X-103205Y57161I0J-3442D01*
G01*
X-104040Y61146D02*
G03*
X-103559Y62306I-1160J1160D01*
G01*
Y62002D02*
G03*
X-103205Y61146I1211J0D01*
G01*
Y57161D02*
G03*
X-103622Y56153I1008J-1008D01*
G01*
D02*
G03*
X-104040Y57161I-1426J0D01*
G01*
X-98490Y57613D02*
G03*
X-99834Y58169I-1344J-1344D01*
G01*
D02*
G03*
X-98490Y58726I0J1901D01*
G01*
X118400Y-17500D02*
X129900D01*
X21850Y66240D02*
X23720Y64370D01*
X21850Y66240D02*
Y74311D01*
X-102638Y58169D02*
X-96850D01*
X-103622Y59153D02*
X-102638Y58169D01*
X87303Y6693D02*
X87402Y6791D01*
X87303Y2067D02*
Y6693D01*
X80413Y10531D02*
X86201D01*
X78937Y9055D02*
X80413Y10531D01*
X86201D02*
X87402Y9331D01*
Y6791D02*
Y9331D01*
X21112Y86762D02*
X21850Y86024D01*
Y74311D02*
Y86024D01*
X19882Y81795D02*
Y84842D01*
X18012Y86713D02*
X19882Y84842D01*
Y64374D02*
Y81795D01*
Y64374D02*
X20473Y63783D01*
X-103622Y59153D02*
X-103559Y59217D01*
Y68028D01*
X-105610Y53445D02*
X-103622Y55433D01*
Y59153D01*
X19882Y81795D02*
Y84449D01*
X-39393Y102060D02*
X-39239Y101906D01*
X-30948D01*
X-105610Y49310D02*
Y53445D01*
Y49310D02*
X-105600Y49300D01*
D13*
X-107988Y24197D02*
D03*
X-104445Y24197D02*
D03*
X-107972Y28150D02*
D03*
X-104429D02*
D03*
X-107874Y32185D02*
D03*
X-104331D02*
D03*
X-115173Y67602D02*
D03*
X-118717Y67602D02*
D03*
X-110827Y67815D02*
D03*
X-107283D02*
D03*
X-107506Y71949D02*
D03*
X-111049D02*
D03*
D15*
X-103559Y71571D02*
D03*
X-103559Y68028D02*
D03*
D20*
X-108622Y37106D02*
D03*
X-108622Y59153D02*
D03*
X-118622D02*
D03*
X-113622Y37106D02*
D03*
X-103622D02*
D03*
X-113622Y59153D02*
D03*
X-103622D02*
D03*
X-118622Y37106D02*
D03*
D25*
X-96850Y58169D02*
D03*
Y51476D02*
D03*
D31*
X-18419Y119571D02*
G03*
X-19685Y116516I3055J-3055D01*
G01*
X-18419Y119571D02*
G03*
X-19685Y116516I3055J-3055D01*
G01*
X29626Y61432D02*
Y92520D01*
X29528Y61333D02*
X29626Y61432D01*
X29528Y59769D02*
Y61333D01*
X31127Y58169D02*
X71850D01*
X-9449Y78740D02*
Y109252D01*
X27657Y94488D02*
X29626Y92520D01*
X-31299Y61024D02*
X-19685Y72638D01*
X-69882Y61024D02*
X-31299D01*
X-77756Y53150D02*
X-69882Y61024D01*
X-77756Y30092D02*
Y53150D01*
Y30092D02*
X-68334Y20669D01*
X65079D02*
X71850Y27441D01*
Y58169D01*
X29528Y59769D02*
X31127Y58169D01*
X98Y94488D02*
X27657D01*
X98Y83056D02*
Y94488D01*
Y83056D02*
X1969Y81186D01*
Y76294D02*
Y81186D01*
X-999Y73327D02*
X1969Y76294D01*
X-19685Y117687D02*
X-17028Y120344D01*
X-19685Y72638D02*
Y117687D01*
D36*
X-11339Y122313D02*
D03*
X11417D02*
D03*
D37*
X-17028Y120344D02*
D03*
X17008D02*
D03*
D38*
X17028Y136801D02*
D03*
X-17028D02*
D03*
D39*
X122700Y-7500D02*
D03*
X100000Y-11900D02*
D03*
X129300Y-17500D02*
D03*
X118400D02*
D03*
X118500Y-10800D02*
D03*
X131200Y-10400D02*
D03*
X131300Y1200D02*
D03*
X121600D02*
D03*
X95200Y2300D02*
D03*
X102900Y2500D02*
D03*
X116900Y1000D02*
D03*
X100197Y26870D02*
D03*
X81496Y68307D02*
D03*
X133563Y-25098D02*
D03*
X100197Y55610D02*
D03*
X102776Y58169D02*
D03*
X-106988Y20965D02*
D03*
X-121457Y39370D02*
D03*
X110335Y67126D02*
D03*
X110138Y38484D02*
D03*
X-59055Y139272D02*
D03*
X-37008Y138583D02*
D03*
X-75886Y74410D02*
D03*
X-83071Y79528D02*
D03*
X-52953Y105217D02*
D03*
X-60925Y105413D02*
D03*
X-74705Y102657D02*
D03*
X68504Y5413D02*
D03*
X68110Y-984D02*
D03*
X113189Y-21752D02*
D03*
X123228Y72638D02*
D03*
X112500Y85335D02*
D03*
X102067Y87697D02*
D03*
X107776Y98130D02*
D03*
X98032Y98819D02*
D03*
X20473Y63783D02*
D03*
X23720Y63878D02*
D03*
X36417Y64173D02*
D03*
X-1280Y63287D02*
D03*
X-62205Y49213D02*
D03*
X6299Y59842D02*
D03*
X11024Y137008D02*
D03*
X-8563Y133858D02*
D03*
X134744Y-2854D02*
D03*
X141339D02*
D03*
X37402Y116437D02*
D03*
X50787Y116142D02*
D03*
X64468Y115748D02*
D03*
X77559Y115945D02*
D03*
X-94784Y48819D02*
D03*
X-102362Y74606D02*
D03*
X-118799Y75098D02*
D03*
X-92815Y92520D02*
D03*
X-66240Y129331D02*
D03*
X-49016Y128740D02*
D03*
X-30413Y114469D02*
D03*
X-42618Y112303D02*
D03*
X91831Y50984D02*
D03*
X100787Y38681D02*
D03*
X127165Y28642D02*
D03*
X110630Y20276D02*
D03*
X91437Y24016D02*
D03*
X78248Y8465D02*
D03*
X76575Y11220D02*
D03*
X-19783Y109941D02*
D03*
X-19882Y112205D02*
D03*
X-19980Y114764D02*
D03*
X-15453Y109941D02*
D03*
X-17520Y110039D02*
D03*
X-15551Y112500D02*
D03*
X-17618D02*
D03*
X-15846Y114764D02*
D03*
X-18012D02*
D03*
X-9350Y76181D02*
D03*
X-6988Y78150D02*
D03*
Y80512D02*
D03*
Y83071D02*
D03*
X-9350Y78445D02*
D03*
X-11713Y78543D02*
D03*
X-9350Y80709D02*
D03*
X-11713Y80807D02*
D03*
X-9350Y82972D02*
D03*
X-11516Y83169D02*
D03*
X-7992Y123135D02*
D03*
X9055Y112205D02*
D03*
X110466Y-7847D02*
D03*
X99803Y19193D02*
D03*
X102854Y25098D02*
D03*
X87303Y2067D02*
D03*
X131200Y-31300D02*
D03*
X84646Y3937D02*
D03*
X80610Y19882D02*
D03*
X105320Y10237D02*
D03*
X91437Y19882D02*
D03*
X91482Y12795D02*
D03*
X97539Y10335D02*
D03*
X82776Y39272D02*
D03*
X87402Y33681D02*
D03*
X84646Y25591D02*
D03*
X109346Y31480D02*
D03*
X97146Y25054D02*
D03*
X106966Y-9494D02*
D03*
X-114272Y38681D02*
D03*
X120177Y-33858D02*
D03*
X119095Y-38780D02*
D03*
X-97441Y24803D02*
D03*
X-99803Y19980D02*
D03*
X21358Y87008D02*
D03*
X30709Y48819D02*
D03*
X19291Y49213D02*
D03*
X-96850Y67913D02*
D03*
X-97063Y72654D02*
D03*
X-105600Y49300D02*
D03*
X35630Y141142D02*
D03*
X15847Y84355D02*
D03*
X36614Y72638D02*
D03*
X2953Y114173D02*
D03*
X984Y121063D02*
D03*
X-118110Y53543D02*
D03*
X-113779Y53937D02*
D03*
X-39393Y102060D02*
D03*
X-30948Y101906D02*
D03*
X9449Y85039D02*
D03*
X12659Y85249D02*
D03*
X18012Y86713D02*
D03*
X76378Y97244D02*
D03*
X66535Y91732D02*
D03*
X67323Y100394D02*
D03*
X63189Y91732D02*
D03*
X1476Y65158D02*
D03*
X3543Y62131D02*
D03*
X107382Y25886D02*
D03*
X110630Y48031D02*
D03*
X102776Y52559D02*
D03*
X102362Y43012D02*
D03*
X100197Y62992D02*
D03*
X100394Y48819D02*
D03*
X81890Y62992D02*
D03*
X81496Y48591D02*
D03*
X82284Y43012D02*
D03*
Y52756D02*
D03*
X90158Y57480D02*
D03*
X52362Y47638D02*
D03*
X62205D02*
D03*
X40945Y48425D02*
D03*
X9449Y48819D02*
D03*
X-52362Y49213D02*
D03*
X-12598Y49606D02*
D03*
X-22835Y49213D02*
D03*
X39724Y73228D02*
D03*
X40157Y65354D02*
D03*
X-31496Y76294D02*
D03*
X-27559D02*
D03*
X-24606D02*
D03*
X-19685Y76772D02*
D03*
X-16732D02*
D03*
Y73327D02*
D03*
X-19685Y72638D02*
D03*
X-22835Y72835D02*
D03*
X-25591D02*
D03*
X-28543D02*
D03*
X-30948D02*
D03*
X-29528Y69882D02*
D03*
X-25591D02*
D03*
X-95571Y27362D02*
D03*
X60236Y3445D02*
D03*
X-87700Y32300D02*
D03*
X-128000Y-19800D02*
D03*
X-136100Y-19600D02*
D03*
X-136600Y-28200D02*
D03*
X-137300Y-35800D02*
D03*
X-127500D02*
D03*
Y-27900D02*
D03*
X-119000Y-36000D02*
D03*
X-118700Y-28400D02*
D03*
X-118400Y-19900D02*
D03*
X-107200Y-20200D02*
D03*
X-107300Y-26700D02*
D03*
X-136100Y13500D02*
D03*
X-125600Y14200D02*
D03*
X-148400Y40900D02*
D03*
X-138800D02*
D03*
X-129200Y40000D02*
D03*
X-135900Y55100D02*
D03*
X-135000Y62600D02*
D03*
X-118900Y89900D02*
D03*
X-110600Y90000D02*
D03*
X-101800Y89800D02*
D03*
X-112300Y100400D02*
D03*
X-103100Y99800D02*
D03*
X-106300Y107200D02*
D03*
X-99000Y107300D02*
D03*
X-88700Y107400D02*
D03*
X-99500Y114200D02*
D03*
X-89900D02*
D03*
X-83800Y113900D02*
D03*
X-83700Y126900D02*
D03*
X-75500Y131000D02*
D03*
X-69900Y134000D02*
D03*
X-35300Y85200D02*
D03*
X-19500Y84500D02*
D03*
Y90400D02*
D03*
X-34800Y91000D02*
D03*
X-66100Y88700D02*
D03*
X-65100Y78300D02*
D03*
X1700Y85600D02*
D03*
X2000Y75200D02*
D03*
X11400Y73500D02*
D03*
X12200Y78400D02*
D03*
X20000Y103800D02*
D03*
X29300Y90100D02*
D03*
X29600Y83900D02*
D03*
X22300Y96400D02*
D03*
X71300Y68600D02*
D03*
X60100Y73100D02*
D03*
X29700Y64100D02*
D03*
X83300Y89300D02*
D03*
X91900Y89400D02*
D03*
X92800Y115600D02*
D03*
X92900Y106200D02*
D03*
X42100Y134400D02*
D03*
X50100Y134300D02*
D03*
X58800Y134400D02*
D03*
X22600Y118700D02*
D03*
X-11500Y138800D02*
D03*
X-13300Y132800D02*
D03*
X-28500Y120600D02*
D03*
X-25100Y120800D02*
D03*
X-68600Y122000D02*
D03*
X129000Y22000D02*
D03*
X132400Y30300D02*
D03*
X105600Y-20500D02*
D03*
X111400Y-26100D02*
D03*
X129800Y-37600D02*
D03*
D41*
X8916Y112344D02*
G03*
X9449Y113630I-1287J1287D01*
G01*
X-5391Y124016D02*
G03*
X-7853Y122996I0J-3481D01*
G01*
D02*
G03*
X-8287Y121947I1049J-1049D01*
G01*
X-8553Y120783D02*
G03*
X-8169Y123050I-1403J1403D01*
G01*
X-7874Y76214D02*
G03*
X-9405Y78256I-2128J0D01*
G01*
X-7874Y76491D02*
G03*
X-9381Y78250I-1780J0D01*
G01*
X-6911Y77969D02*
G03*
X-7874Y76512I621J-1457D01*
G01*
Y76772D02*
Y77165D01*
X9449Y112205D02*
Y117529D01*
X-9449D02*
Y119888D01*
X-8287Y121049D01*
Y123135D01*
X-7407Y124016D01*
X6890D01*
X8366Y122539D01*
Y121049D02*
Y122539D01*
Y121049D02*
X9449Y119966D01*
Y117529D02*
Y119966D01*
X-9449Y110236D02*
Y117529D01*
Y109252D02*
Y110236D01*
D42*
X-984Y117529D02*
D03*
X6890D02*
D03*
X4921D02*
D03*
X2953D02*
D03*
X984D02*
D03*
X-2953D02*
D03*
X-4921D02*
D03*
X-6890D02*
D03*
D43*
X-12598D02*
D03*
X-9449D02*
D03*
X12598D02*
D03*
X9449D02*
D03*
D44*
X107283Y68110D02*
D03*
Y38110D02*
D03*
Y43110D02*
D03*
Y48110D02*
D03*
Y53110D02*
D03*
Y58110D02*
D03*
Y63110D02*
D03*
X85827Y68110D02*
D03*
Y63110D02*
D03*
Y58110D02*
D03*
Y53110D02*
D03*
Y48110D02*
D03*
Y43110D02*
D03*
Y38110D02*
D03*
D45*
X107874Y30413D02*
D03*
X105315D02*
D03*
X102756D02*
D03*
X100197D02*
D03*
X97638D02*
D03*
X95079D02*
D03*
X92520D02*
D03*
X89961D02*
D03*
X87402D02*
D03*
X84842D02*
D03*
Y6791D02*
D03*
X87402D02*
D03*
X89961D02*
D03*
X92520D02*
D03*
X95079D02*
D03*
X97638D02*
D03*
X100197D02*
D03*
X102756D02*
D03*
X105315D02*
D03*
X107874D02*
D03*
D46*
X-68334Y20669D02*
X65079D01*
M02*
