M48
;Layer_Color=9474304
;FILE_FORMAT=2:5
INCH,LZ
;TYPE=PLATED
T1F00S00C0.01575
T3F00S00C0.02559
%
T01
X-01373Y-00358
X-01366Y-00282
X-01361Y-00196
X-0128Y-00198
X-01275Y-00279
Y-00358
X-0119Y-0036
X-01187Y-00284
X-01184Y-00199
X-01072Y-00202
X-01073Y-00267
X-0106988Y0020965
X-0099803Y001998
X-0097441Y0024803
X-0095571Y0027362
X-00877Y00323
X-01256Y00142
X-01361Y00135
X0060236Y0003445
X0068504Y0005413
X006811Y-0000984
X0078248Y0008465
X0076575Y001122
X008061Y0019882
X0084646Y0025591
X0091437Y0024016
X0091437Y0019882
X0091482Y0012795
X0097539Y0010335
X010532Y0010237
X01029Y00025
X00952Y00023
X0087303Y0002067
X0084646Y0003937
X0099803Y0019193
X0100197Y002687
X0102854Y0025098
X0107382Y0025886
X0109346Y003148
X011063Y0020276
X0097146Y0025054
X0087402Y0033681
X0127165Y0028642
X01324Y00303
X0129Y0022
X01313Y00012
X0134744Y-0002854
X0141339
X01312Y-00104
X01293Y-00175
X01184
X01185Y-00108
X01227Y-00075
X01216Y00012
X01169Y0001
X0110466Y-0007847
X0106966Y-0009494
X01Y-00119
X01056Y-00205
X0113189Y-0021752
X01114Y-00261
X0120177Y-0033858
X0119095Y-003878
X01298Y-00376
X01312Y-00313
X0133563Y-0025098
X0110138Y0038484
X0100787Y0038681
X0102362Y0043012
X0100394Y0048819
X0102776Y0052559
Y0058169
X0100197Y005561
X0100197Y0062992
X0110335Y0067126
X0123228Y0072638
X01125Y0085335
X0102067Y0087697
X00919Y00894
X00833Y00893
X0076378Y0097244
X0067323Y0100394
X0066535Y0091732
X0063189
X00601Y00731
X00713Y00686
X0081496Y0068307
X008189Y0062992
X0082284Y0052756
X0081496Y0048591
X0082284Y0043012
X0082776Y0039272
X0091831Y0050984
X0090158Y005748
X011063Y0048031
X0062205Y0047638
X0052362
X0040945Y0048425
X0030709Y0048819
X0019291Y0049213
X0020473Y0063783
X002372Y0063878
X00297Y00641
X0036417Y0064173
X0040157Y0065354
X0039724Y0073228
X0036614Y0072638
X00296Y00839
X00293Y00901
X0021358Y0087008
X0018012Y0086713
X0015847Y0084355
X00223Y00964
X002Y01038
X00226Y01187
X0037402Y0116437
X0050787Y0116142
X0064468Y0115748
X0077559Y0115945
X00928Y01156
X00929Y01062
X0098032Y0098819
X0107776Y009813
X00588Y01344
X00501Y01343
X00421Y01344
X003563Y0141142
X0011024Y0137008
X-0008563Y0133858
X-00133Y01328
X-00115Y01388
X-0007992Y0123135
X0000984Y0121063
X0002953Y0114173
X0009055Y0112205
X-0015551Y01125
X-0017618
X-001752Y0110039
X-0015453Y0109941
X-0019783
X-0019882Y0112205
X-001998Y0114764
X-0018012
X-0015846
X-0030413Y0114469
X-00285Y01206
X-00251Y01208
X-0030948Y0101906
X-0039393Y010206
X-0042618Y0112303
X-0052953Y0105217
X-0060925Y0105413
X-0074705Y0102657
X-00887Y01074
X-00899Y01142
X-00838Y01139
X-00837Y01269
X-00755Y0131
X-00699Y0134
X-006624Y0129331
X-00686Y0122
X-0049016Y012874
X-0059055Y0139272
X-0037008Y0138583
X-00348Y0091
X-00353Y00852
X-0031496Y0076294
X-0027559
X-0024606
X-0025591Y0072835
X-0022835
X-0019685Y0072638
X-0016732Y0073327
Y0076772
X-0019685
X-00195Y00845
Y00904
X-0011516Y0083169
X-000935Y0082972
Y0080709
Y0078445
Y0076181
X-0006988Y007815
Y0080512
Y0083071
X-0011713Y0080807
Y0078543
X0002Y00752
X0001476Y0065158
X-000128Y0063287
X0003543Y0062131
X0006299Y0059842
X0009449Y0048819
X-0012598Y0049606
X-0022835Y0049213
X-0025591Y0069882
X-0029528
X-0028543Y0072835
X-0030948
X-00651Y00783
X-00661Y00887
X-0075886Y007441
X-0083071Y0079528
X-0097063Y0072654
X-009685Y0067913
X-0102362Y0074606
X-01018Y00898
X-01106Y009
X-01189Y00899
X-0118799Y0075098
X-011811Y0053543
X-0113779Y0053937
X-01056Y00493
X-0094784Y0048819
X-0114272Y0038681
X-0121457Y003937
X-01292Y004
X-01388Y00409
X-01359Y00551
X-0135Y00626
X-01123Y01004
X-01031Y00998
X-01063Y01072
X-0099Y01073
X-00995Y01142
X-0092815Y009252
X-0062205Y0049213
X-0052362
X00114Y00735
X00122Y00784
X0012659Y0085249
X0009449Y0085039
X00017Y00856
X-01484Y00409
T03
X-0011339Y0122313
X0011417
M30
