%FSLAX25Y25*%
%MOIN*%
G70*
G01*
G75*
G04 Layer_Physical_Order=1*
G04 Layer_Color=255*
%ADD10C,0.00787*%
%ADD11C,0.01181*%
%ADD12C,0.03937*%
%ADD13R,0.01969X0.02362*%
%ADD14R,0.05118X0.03150*%
%ADD15R,0.02362X0.01969*%
%ADD16R,0.03937X0.03543*%
%ADD17R,0.02756X0.04921*%
%ADD18R,0.06693X0.03543*%
%ADD19R,0.06299X0.04921*%
%ADD20O,0.02362X0.05512*%
%ADD21O,0.07874X0.05906*%
%ADD22R,0.07874X0.05906*%
%ADD23R,0.03150X0.05118*%
%ADD24R,0.03150X0.03150*%
%ADD25R,0.04921X0.02756*%
%ADD26R,0.05906X0.11811*%
%ADD27O,0.05906X0.07874*%
%ADD28R,0.05906X0.07874*%
%ADD29R,0.03543X0.03937*%
G04:AMPARAMS|DCode=30|XSize=118.11mil|YSize=59.06mil|CornerRadius=14.76mil|HoleSize=0mil|Usage=FLASHONLY|Rotation=270.000|XOffset=0mil|YOffset=0mil|HoleType=Round|Shape=RoundedRectangle|*
%AMROUNDEDRECTD30*
21,1,0.11811,0.02953,0,0,270.0*
21,1,0.08858,0.05906,0,0,270.0*
1,1,0.02953,-0.01476,-0.04429*
1,1,0.02953,-0.01476,0.04429*
1,1,0.02953,0.01476,0.04429*
1,1,0.02953,0.01476,-0.04429*
%
%ADD30ROUNDEDRECTD30*%
%ADD31C,0.07874*%
%ADD32R,0.30709X0.12598*%
%ADD33R,0.17717X0.18504*%
%ADD34R,0.14173X0.15354*%
%ADD35R,0.09843X0.11417*%
%ADD36C,0.02559*%
G04:AMPARAMS|DCode=37|XSize=39.37mil|YSize=82.68mil|CornerRadius=17.72mil|HoleSize=0mil|Usage=FLASHONLY|Rotation=0.000|XOffset=0mil|YOffset=0mil|HoleType=Round|Shape=RoundedRectangle|*
%AMROUNDEDRECTD37*
21,1,0.03937,0.04724,0,0,0.0*
21,1,0.00394,0.08268,0,0,0.0*
1,1,0.03543,0.00197,-0.02362*
1,1,0.03543,-0.00197,-0.02362*
1,1,0.03543,-0.00197,0.02362*
1,1,0.03543,0.00197,0.02362*
%
%ADD37ROUNDEDRECTD37*%
G04:AMPARAMS|DCode=38|XSize=39.37mil|YSize=62.99mil|CornerRadius=17.72mil|HoleSize=0mil|Usage=FLASHONLY|Rotation=0.000|XOffset=0mil|YOffset=0mil|HoleType=Round|Shape=RoundedRectangle|*
%AMROUNDEDRECTD38*
21,1,0.03937,0.02756,0,0,0.0*
21,1,0.00394,0.06299,0,0,0.0*
1,1,0.03543,0.00197,-0.01378*
1,1,0.03543,-0.00197,-0.01378*
1,1,0.03543,-0.00197,0.01378*
1,1,0.03543,0.00197,0.01378*
%
%ADD38ROUNDEDRECTD38*%
%ADD39C,0.02362*%
G36*
X-15157Y29134D02*
Y20374D01*
X-16873Y18658D01*
X-16935Y18617D01*
X-17008Y18602D01*
X-30413D01*
X-31261Y17755D01*
X-31261Y17755D01*
X-31261Y17755D01*
X-31496Y17520D01*
Y17187D01*
Y12874D01*
X-31511Y12801D01*
X-31552Y12739D01*
X-32228Y12064D01*
X-32289Y12022D01*
X-32362Y12008D01*
X-67244D01*
X-67317Y12022D01*
X-67322Y12026D01*
X-67431Y12071D01*
X-67535Y12126D01*
X-67574Y12130D01*
X-67611Y12145D01*
X-67729D01*
X-67846Y12157D01*
X-67884Y12145D01*
X-67924D01*
X-68033Y12100D01*
X-68146Y12066D01*
X-68255Y12008D01*
X-79908D01*
X-80500Y12600D01*
Y20000D01*
X-79831Y20669D01*
X-63671D01*
X-63644Y20628D01*
X-62993Y20193D01*
X-62224Y20040D01*
X-61456Y20193D01*
X-60805Y20628D01*
X-60778Y20669D01*
X-58671D01*
X-58644Y20628D01*
X-57993Y20193D01*
X-57224Y20040D01*
X-56456Y20193D01*
X-55805Y20628D01*
X-55370Y21279D01*
X-55315Y21555D01*
X-55216Y21654D01*
Y25098D01*
X-53543Y26772D01*
X-44291D01*
X-43799Y27264D01*
Y29429D01*
X-43110Y30118D01*
X-16142D01*
X-15157Y29134D01*
D02*
G37*
G36*
X75253Y57308D02*
Y18193D01*
X74689D01*
Y17826D01*
X74394D01*
X73856Y17719D01*
X73400Y17415D01*
X72797Y16811D01*
X72492Y16355D01*
X72385Y15818D01*
Y9576D01*
X72492Y9038D01*
X72797Y8583D01*
X74006Y7373D01*
X74006D01*
X74006Y7373D01*
X74007D01*
X74007Y7373D01*
Y7373D01*
X74007Y7373D01*
Y7373D01*
X74462Y7068D01*
X75000Y6961D01*
X76585D01*
Y6961D01*
X76585Y6961D01*
X76937D01*
X76984Y6942D01*
X77480Y6610D01*
X78248Y6458D01*
X79016Y6610D01*
X79063Y6642D01*
X79504Y6406D01*
Y-1063D01*
X79365Y-1400D01*
X79308Y-1474D01*
X79089Y-1621D01*
X78260Y-1277D01*
X77284Y-1149D01*
X76307Y-1277D01*
X75397Y-1654D01*
X74616Y-2254D01*
X74016Y-3035D01*
X73640Y-3945D01*
X73511Y-4921D01*
Y-6890D01*
X73640Y-7866D01*
X74016Y-8776D01*
X74616Y-9557D01*
X75397Y-10157D01*
X76307Y-10534D01*
X77284Y-10662D01*
X78260Y-10534D01*
X79170Y-10157D01*
X79951Y-9557D01*
X80550Y-8776D01*
X80927Y-7866D01*
X81056Y-6890D01*
Y-4921D01*
X81038Y-4789D01*
X81042Y-4770D01*
X81033Y-4722D01*
X81050Y-4699D01*
X81050D01*
X81029Y-4594D01*
X81166Y-3908D01*
X81533Y-3359D01*
X81550Y-3342D01*
X81561Y-3333D01*
X81560Y-3332D01*
X81560Y-3332D01*
X81821Y-2941D01*
X81850Y-2798D01*
X82328Y-2653D01*
X82756Y-3081D01*
Y-3088D01*
X82756Y-3088D01*
X82756Y-3088D01*
X83168Y-3625D01*
X83427Y-4250D01*
X83516Y-4921D01*
X83520D01*
X83543Y-5038D01*
Y-10630D01*
X91024D01*
Y-1181D01*
X84670D01*
X84212Y-992D01*
X83629Y-544D01*
X83629Y-544D01*
X83629Y-544D01*
X83625D01*
X83488Y-407D01*
Y1874D01*
X83878Y2083D01*
X84646Y1930D01*
X84951Y1991D01*
X85366Y1713D01*
X85449Y1299D01*
X85884Y648D01*
X86535Y213D01*
X87303Y60D01*
X88071Y213D01*
X88709Y639D01*
X88726Y639D01*
X88726D01*
X88729Y639D01*
D01*
D01*
Y639D01*
Y639D01*
X88731Y640D01*
X88729Y641D01*
Y641D01*
X88729Y641D01*
X88729Y657D01*
X88732Y662D01*
X90151D01*
X95695Y-4882D01*
Y-12800D01*
X95695Y-12800D01*
X95695D01*
X95802Y-13338D01*
X96107Y-13793D01*
X98227Y-15914D01*
X98683Y-16218D01*
X99221Y-16325D01*
X101397D01*
Y-16889D01*
X102579D01*
X103107Y-17416D01*
X103111Y-17422D01*
X103112Y-17421D01*
X104163Y-18473D01*
X104619Y-18778D01*
X105157Y-18884D01*
X116925D01*
Y-18902D01*
X116925Y-18902D01*
X116925D01*
D01*
X116925Y-18902D01*
X116977Y-18923D01*
X116977Y-18923D01*
D01*
D01*
D01*
X116981Y-18919D01*
D01*
X117632Y-19354D01*
X118400Y-19507D01*
X119168Y-19354D01*
X119819Y-18919D01*
X120254Y-18268D01*
X120407Y-17500D01*
X120254Y-16732D01*
X119819Y-16081D01*
X119168Y-15646D01*
X118400Y-15493D01*
X117632Y-15646D01*
X117029Y-16048D01*
X117024Y-16046D01*
X116969Y-16069D01*
X116969Y-16069D01*
D01*
X116966Y-16075D01*
X108484D01*
Y-12968D01*
X108499D01*
Y-12004D01*
X109924D01*
X110118Y-12030D01*
Y-12004D01*
X111883D01*
X112019Y-12018D01*
Y-12004D01*
X116599D01*
Y-12008D01*
Y-12018D01*
X116860Y-12070D01*
X117078Y-12216D01*
X117081Y-12219D01*
X117732Y-12654D01*
X118500Y-12807D01*
X119268Y-12654D01*
X119919Y-12219D01*
X120354Y-11568D01*
X120455Y-11061D01*
X120934Y-10916D01*
X121960Y-11943D01*
Y-31866D01*
X121950Y-31916D01*
X121796Y-32147D01*
X121306Y-32245D01*
X120945Y-32004D01*
X120177Y-31851D01*
X119409Y-32004D01*
X118758Y-32439D01*
X118323Y-33090D01*
X118170Y-33858D01*
X118323Y-34626D01*
X118420Y-34772D01*
X118184Y-35213D01*
X112878D01*
X112796Y-35136D01*
X108122Y-31240D01*
X103221Y-27634D01*
X98111Y-24331D01*
X92812Y-21342D01*
X87341Y-18678D01*
X81719Y-16349D01*
X75968Y-14365D01*
X70107Y-12731D01*
X64157Y-11454D01*
X62707Y-11233D01*
X62235Y-10760D01*
Y-373D01*
X62261D01*
X62235Y-169D01*
Y1528D01*
X62245D01*
X62235Y1607D01*
Y2355D01*
X62235Y2355D01*
X62143Y2816D01*
X62124Y2845D01*
X62243Y3445D01*
X62090Y4213D01*
X61655Y4864D01*
X61004Y5299D01*
X61004Y5299D01*
X61004D01*
D01*
X60827Y5335D01*
X60842Y5413D01*
Y17717D01*
Y18390D01*
X69390D01*
X69390Y18390D01*
X69697Y18451D01*
X69957Y18625D01*
X69958Y18625D01*
X72418Y21086D01*
X72592Y21346D01*
X72653Y21654D01*
Y26257D01*
X73828Y27432D01*
X74133Y27888D01*
X74240Y28425D01*
Y56791D01*
X74133Y57329D01*
X73828Y57785D01*
X73047Y58566D01*
X73152Y58820D01*
X73642Y58918D01*
X75253Y57308D01*
D02*
G37*
G36*
X-34267Y66748D02*
Y58661D01*
X-34206Y58354D01*
X-34032Y58094D01*
X-33772Y57920D01*
X-33760Y57917D01*
Y43978D01*
X-33984Y43436D01*
X-34079Y42717D01*
X-33984Y41997D01*
X-33858Y41693D01*
Y38583D01*
X-35138Y37303D01*
X-89075D01*
X-91142Y39370D01*
Y64272D01*
X-88386Y67028D01*
X-34547D01*
X-34267Y66748D01*
D02*
G37*
G36*
X-5413Y84252D02*
Y67740D01*
X-5275Y66337D01*
X-4729Y64537D01*
X-3843Y62879D01*
X-2650Y61425D01*
X-1196Y60232D01*
X463Y59346D01*
X2262Y58800D01*
X3665Y58661D01*
X4721D01*
X4880Y58423D01*
X5531Y57988D01*
X6299Y57836D01*
X6807Y57936D01*
X7192Y57618D01*
X7085Y38107D01*
X6543Y37515D01*
X4285D01*
X4285Y37515D01*
X3978Y37454D01*
X3717Y37280D01*
X3717Y37280D01*
X3599Y37162D01*
X3537Y37121D01*
X3464Y37106D01*
X-13191D01*
X-13197Y37108D01*
X-14121Y37230D01*
X-14174Y37227D01*
X-14226Y37237D01*
X-32237D01*
X-32335Y37257D01*
X-32874Y37795D01*
Y56732D01*
X-31929Y57677D01*
X-16043D01*
X-15862Y57859D01*
X-15748D01*
X-15441Y57920D01*
X-15180Y58094D01*
X-15006Y58354D01*
X-14945Y58661D01*
Y58775D01*
X-14469Y59252D01*
Y84449D01*
X-13583Y85335D01*
X-6496D01*
X-5413Y84252D01*
D02*
G37*
G36*
X-15269Y16942D02*
X-15213Y16887D01*
X-15213Y16882D01*
X-15179Y16800D01*
Y16800D01*
X-15160Y16756D01*
X-15157Y16752D01*
X-15157Y16752D01*
Y1405D01*
X-52192D01*
Y1407D01*
X-53070Y1291D01*
X-53889Y952D01*
X-54592Y413D01*
X-55132Y-290D01*
X-55471Y-1109D01*
X-55578Y-1926D01*
X-55584Y-1955D01*
Y-9620D01*
X-55599Y-9634D01*
X-55599D01*
X-55599Y-9634D01*
X-55664Y-10133D01*
X-55967Y-10863D01*
X-56448Y-11490D01*
X-57075Y-11971D01*
X-57119Y-11990D01*
X-58183Y-12086D01*
X-63488Y-12894D01*
X-79006D01*
X-80600Y-11300D01*
Y4770D01*
X-80159Y5005D01*
X-79760Y4738D01*
X-78876Y4563D01*
X-75924D01*
X-75040Y4738D01*
X-74291Y5239D01*
X-73791Y5988D01*
X-73615Y6871D01*
Y11205D01*
X-68255D01*
X-68216Y11213D01*
X-68176Y11209D01*
X-68063Y11243D01*
X-67948Y11266D01*
X-67915Y11288D01*
X-67877Y11300D01*
X-67837Y11321D01*
X-67800Y11332D01*
X-67768Y11349D01*
X-67738Y11329D01*
X-67629Y11284D01*
X-67557Y11270D01*
X-67555Y11269D01*
X-67551Y11266D01*
X-67546Y11265D01*
X-67474Y11235D01*
X-67473Y11235D01*
X-67473D01*
X-67473D01*
X-67400Y11220D01*
X-67321D01*
X-67244Y11205D01*
X-32362D01*
X-32285Y11220D01*
X-32206D01*
X-32133Y11235D01*
X-32133Y11235D01*
X-32133D01*
X-32060Y11265D01*
X-32055Y11266D01*
X-32052Y11269D01*
X-32007Y11287D01*
X-31925Y11321D01*
X-31920Y11322D01*
X-31916Y11325D01*
X-31844Y11355D01*
X-31843Y11355D01*
X-31843Y11355D01*
X-31782Y11396D01*
X-31726Y11452D01*
X-31660Y11496D01*
X-30984Y12172D01*
X-30940Y12237D01*
X-30884Y12293D01*
X-30843Y12355D01*
X-30813Y12428D01*
X-30810Y12432D01*
X-30809Y12437D01*
X-30776Y12516D01*
X-30757Y12563D01*
X-30754Y12567D01*
X-30753Y12572D01*
X-30723Y12645D01*
X-30723Y12645D01*
X-30723Y12645D01*
X-30723Y12645D01*
X-30723Y12645D01*
Y12645D01*
X-30709Y12718D01*
Y12756D01*
X-30693Y12874D01*
X-30693Y12874D01*
X-30693D01*
Y17187D01*
X-30693Y17187D01*
X-30693Y17187D01*
X-30081Y17799D01*
X-17008D01*
X-16931Y17815D01*
X-16852D01*
X-16779Y17830D01*
X-16779Y17830D01*
X-16779D01*
X-16705Y17860D01*
X-16701Y17861D01*
X-16697Y17863D01*
X-16653Y17882D01*
X-16570Y17916D01*
X-16566Y17917D01*
X-16562Y17919D01*
X-16489Y17949D01*
X-16489Y17949D01*
X-16489Y17949D01*
X-16427Y17991D01*
X-16372Y18046D01*
X-15269Y16942D01*
D02*
G37*
G36*
X100675Y-1405D02*
Y-1410D01*
Y-1410D01*
X100696Y-1426D01*
X101067Y-1797D01*
X101102Y-1880D01*
Y-3869D01*
X101117D01*
Y-4306D01*
X101117D01*
Y-8243D01*
X104661D01*
Y-6194D01*
X104684Y-6078D01*
X104690D01*
X104772Y-5665D01*
X105006Y-5314D01*
X105002Y-5310D01*
X106192Y-4120D01*
X106192Y-4120D01*
X106193Y-4121D01*
X106200Y-4112D01*
X106398Y-3914D01*
X106400Y-3915D01*
X106400Y-3915D01*
X106417Y-3921D01*
X106417Y-3921D01*
X106427Y-3917D01*
D01*
D01*
X106444Y-3910D01*
D01*
D01*
D01*
D01*
D01*
X106444Y-3910D01*
D01*
X106444Y-3910D01*
D01*
D01*
D01*
D01*
X106444Y-3909D01*
X106533Y-3869D01*
X108188D01*
Y-3869D01*
X108188D01*
X108188Y-3869D01*
X108582D01*
Y-3869D01*
X112208D01*
Y-4078D01*
X112208D01*
Y-8015D01*
X115751D01*
Y-7612D01*
X116152D01*
Y-7612D01*
X117629D01*
X118384Y-8366D01*
X118239Y-8845D01*
X117732Y-8946D01*
X117081Y-9381D01*
X117078Y-9384D01*
X116860Y-9530D01*
X116599Y-9582D01*
Y-9596D01*
X111887D01*
X110680Y-9437D01*
X109433Y-8920D01*
X108441Y-8159D01*
X108385Y-8075D01*
X107734Y-7640D01*
X106966Y-7487D01*
X106198Y-7640D01*
X105546Y-8075D01*
X105111Y-8726D01*
X105051Y-9031D01*
X104956D01*
Y-12952D01*
X101397D01*
Y-13516D01*
X99802D01*
X98505Y-12218D01*
Y-4300D01*
X98398Y-3762D01*
X98093Y-3307D01*
X94928Y-141D01*
X95163Y300D01*
X95200Y293D01*
X95968Y446D01*
X96619Y881D01*
X96622Y884D01*
X96840Y1030D01*
X97101Y1082D01*
Y1092D01*
Y1096D01*
X98174D01*
X100675Y-1405D01*
D02*
G37*
G36*
X134373Y-11650D02*
X134496Y-11638D01*
X135664Y-11791D01*
X136868Y-12290D01*
X137826Y-13025D01*
X137884Y-13101D01*
X138665Y-13700D01*
X139575Y-14077D01*
X139902Y-14120D01*
Y-14620D01*
X139575Y-14663D01*
X138665Y-15040D01*
X137884Y-15640D01*
X137284Y-16421D01*
X136907Y-17331D01*
X136779Y-18307D01*
X136907Y-19284D01*
X137284Y-20193D01*
X137884Y-20975D01*
X138665Y-21574D01*
X139575Y-21951D01*
X139902Y-21994D01*
Y-22494D01*
X139575Y-22537D01*
X138665Y-22914D01*
X137884Y-23514D01*
X137284Y-24295D01*
X136907Y-25205D01*
X136779Y-26181D01*
X136785Y-26229D01*
X136670Y-27100D01*
X136316Y-27957D01*
X135768Y-28671D01*
X135749Y-28690D01*
X135749Y-28690D01*
Y-28690D01*
X135749Y-28690D01*
X135749Y-28690D01*
X135749Y-28690D01*
X135740Y-28699D01*
X135660Y-28764D01*
X135667Y-28771D01*
X134462Y-29977D01*
X134309Y-30102D01*
X134323Y-30116D01*
X134048Y-30390D01*
X133782D01*
X133158Y-30266D01*
X132650Y-29926D01*
X132619Y-29881D01*
X131968Y-29446D01*
X131200Y-29293D01*
X130432Y-29446D01*
X130046Y-29128D01*
Y-20411D01*
X130199Y-19640D01*
X130650Y-18966D01*
X130719Y-18919D01*
X131154Y-18268D01*
X131307Y-17500D01*
X131154Y-16732D01*
X130719Y-16081D01*
X130650Y-16034D01*
X130199Y-15360D01*
X130046Y-14589D01*
Y-12572D01*
X130432Y-12254D01*
Y-12254D01*
D01*
X131200Y-12407D01*
X131968Y-12254D01*
X132619Y-11819D01*
X132651Y-11772D01*
X132975Y-11637D01*
X133147D01*
X133181Y-11642D01*
Y-11637D01*
X134373D01*
Y-11650D01*
D02*
G37*
G36*
X90961Y14484D02*
X91126D01*
X91339Y14272D01*
Y14272D01*
X94882D01*
Y10630D01*
X95528D01*
X95528Y10630D01*
X95532Y10335D01*
X95532Y10335D01*
X95532D01*
X95685Y9567D01*
X95716Y9520D01*
X95481Y9079D01*
X88583D01*
X88583Y9079D01*
X88122Y8987D01*
X87732Y8726D01*
X85138Y6133D01*
X85138Y6133D01*
X85129Y6142D01*
X84907Y5994D01*
X84650Y5943D01*
X84646Y5944D01*
X83878Y5791D01*
X83488Y6000D01*
Y9934D01*
X84153Y10600D01*
X84155Y10597D01*
X84171Y10618D01*
X84543Y10989D01*
X84625Y11024D01*
X86614D01*
Y14484D01*
X87024D01*
Y14484D01*
X90961D01*
Y14484D01*
D02*
G37*
G36*
X145716Y65479D02*
X149018Y58445D01*
X151991Y51266D01*
X154630Y43957D01*
X156929Y36534D01*
X158882Y29013D01*
X160486Y21410D01*
X161737Y13741D01*
X162633Y6022D01*
X163171Y-1729D01*
X163350Y-9498D01*
X163171Y-17266D01*
X162633Y-25018D01*
X161737Y-32737D01*
X160636Y-39487D01*
X160225Y-39772D01*
X159800Y-39687D01*
X127169D01*
X126978Y-39225D01*
X127652Y-38552D01*
X127652Y-38552D01*
X127913Y-38161D01*
X128004Y-37700D01*
X128004Y-37700D01*
Y-34363D01*
X128466Y-34172D01*
X129343Y-35049D01*
X129798Y-35353D01*
X130336Y-35460D01*
X134848D01*
Y-35467D01*
X134922Y-35460D01*
X134954D01*
X135964Y-35593D01*
X136811Y-35944D01*
Y-37795D01*
X146260D01*
Y-30315D01*
X143595D01*
X143497Y-29825D01*
X144406Y-29448D01*
X145187Y-28849D01*
X145787Y-28067D01*
X146164Y-27158D01*
X146292Y-26181D01*
X146164Y-25205D01*
X145787Y-24295D01*
X145187Y-23514D01*
X144406Y-22914D01*
X143496Y-22537D01*
X142520Y-22409D01*
Y-22080D01*
X143496Y-21951D01*
X144406Y-21574D01*
X145187Y-20975D01*
X145787Y-20193D01*
X146164Y-19284D01*
X146292Y-18307D01*
X146164Y-17331D01*
X145787Y-16421D01*
X145187Y-15640D01*
X144406Y-15040D01*
X143496Y-14663D01*
X143168Y-14620D01*
Y-14120D01*
X143496Y-14077D01*
X144406Y-13700D01*
X145187Y-13101D01*
X145787Y-12319D01*
X146164Y-11409D01*
X146292Y-10433D01*
X146164Y-9457D01*
X145787Y-8547D01*
X145187Y-7766D01*
X144406Y-7166D01*
X143496Y-6789D01*
X142520Y-6661D01*
X140551D01*
X139575Y-6789D01*
X138665Y-7166D01*
X137884Y-7766D01*
X137826Y-7841D01*
X136868Y-8576D01*
X135664Y-9075D01*
X134496Y-9228D01*
X134373Y-9216D01*
Y-9229D01*
X133181D01*
Y-9217D01*
X132875Y-9157D01*
X132625Y-8989D01*
X132619Y-8981D01*
X131968Y-8546D01*
X131200Y-8393D01*
X130432Y-8546D01*
X130046Y-8228D01*
Y-860D01*
X130487Y-624D01*
X130532Y-654D01*
X131300Y-807D01*
X132068Y-654D01*
X132719Y-219D01*
X133154Y432D01*
X133307Y1200D01*
X133306Y1204D01*
X133357Y1461D01*
X133505Y1683D01*
X133496Y1693D01*
X133496Y1693D01*
X135852Y4049D01*
X136105Y4016D01*
X136748Y3749D01*
X137300Y3326D01*
X137525Y3032D01*
Y3032D01*
X137525D01*
X137525D01*
X137525Y3032D01*
X137525D01*
X137590Y3022D01*
Y3022D01*
D01*
X137657Y2922D01*
X137690Y2900D01*
X137884Y2647D01*
X138665Y2048D01*
X139575Y1671D01*
X140551Y1543D01*
X142520D01*
X143496Y1671D01*
X144406Y2048D01*
X145187Y2647D01*
X145787Y3429D01*
X146164Y4339D01*
X146292Y5315D01*
X146164Y6291D01*
X145787Y7201D01*
X145187Y7982D01*
X144406Y8582D01*
X143496Y8959D01*
X142520Y9087D01*
X140551D01*
X139575Y8959D01*
X138665Y8582D01*
X137884Y7982D01*
X137690Y7730D01*
X137657Y7708D01*
X137590Y7609D01*
X137525Y7598D01*
X137525Y7598D01*
X137525Y7597D01*
X137300Y7304D01*
X136748Y6881D01*
X136105Y6614D01*
X135477Y6532D01*
X135417Y6539D01*
Y6539D01*
D01*
Y6539D01*
X135415Y6540D01*
X135415D01*
D01*
D01*
D01*
X135415Y6519D01*
X135415Y6519D01*
X134954Y6427D01*
X134563Y6166D01*
X134563Y6166D01*
X131793Y3396D01*
X131793Y3396D01*
X131783Y3405D01*
X131561Y3257D01*
X131304Y3206D01*
X131300Y3207D01*
X130532Y3054D01*
X130487Y3024D01*
X130046Y3260D01*
Y13879D01*
X129939Y14416D01*
X129634Y14872D01*
X123238Y21269D01*
X122782Y21574D01*
X122244Y21680D01*
X119390D01*
Y22244D01*
X117126D01*
Y27362D01*
X115713D01*
X115578Y28039D01*
X115590Y28130D01*
X115574D01*
Y29351D01*
X115590D01*
X115578Y29441D01*
X115713Y30118D01*
X117126D01*
Y35236D01*
X114856D01*
X114665Y35698D01*
X117383Y38416D01*
X117383Y38416D01*
X117539Y38650D01*
X117644Y38807D01*
X117735Y39267D01*
X117735Y39267D01*
X117735Y39267D01*
Y39267D01*
Y52938D01*
X118270Y53472D01*
X142815Y65707D01*
X142864Y65745D01*
X142968Y65788D01*
X143556Y66239D01*
X144008Y66827D01*
X144221Y67343D01*
X144721Y67366D01*
X145716Y65479D01*
D02*
G37*
G36*
X57699Y25508D02*
X58084Y25250D01*
X58342Y24864D01*
X58448Y24330D01*
Y22446D01*
X58509Y22139D01*
X58939Y21102D01*
X59074Y20079D01*
X59020Y19674D01*
X59022Y19647D01*
X59015Y19621D01*
X59032Y19492D01*
X59041Y19361D01*
X59052Y19337D01*
X59056Y19311D01*
X59121Y19197D01*
X59179Y19080D01*
X59199Y19062D01*
X59213Y19039D01*
X59542Y18664D01*
X59563Y18647D01*
X59578Y18625D01*
X59687Y18553D01*
X59791Y18473D01*
X59816Y18466D01*
X59839Y18451D01*
X59967Y18426D01*
X60039Y18406D01*
Y17717D01*
Y5413D01*
X59468Y5299D01*
X58817Y4864D01*
X58382Y4213D01*
X58229Y3445D01*
X58333Y2920D01*
X57480Y2067D01*
X55610Y197D01*
X54722D01*
X54542Y432D01*
X53853Y961D01*
X53051Y1293D01*
X52190Y1406D01*
Y1405D01*
X17493D01*
X17236Y1662D01*
X17138Y1846D01*
X17277Y2055D01*
X17338Y2362D01*
Y2756D01*
Y13447D01*
X17369Y13478D01*
X17543Y13738D01*
X17604Y14045D01*
Y14207D01*
X23479D01*
Y13907D01*
X23540Y13600D01*
X23714Y13340D01*
X23714Y13340D01*
X23842Y13212D01*
X23842Y13212D01*
X24531Y12523D01*
X24791Y12348D01*
X25099Y12287D01*
X37893D01*
X37893Y12287D01*
X38201Y12348D01*
X38461Y12523D01*
X38757Y12818D01*
X38931Y13079D01*
X38992Y13386D01*
Y18390D01*
X49959D01*
X50266Y18451D01*
X50527Y18625D01*
X50701Y18886D01*
X50762Y19193D01*
Y20026D01*
X50904Y21102D01*
X50979Y21283D01*
X51040Y21591D01*
Y24330D01*
X51146Y24864D01*
X51349Y25168D01*
X51476Y25295D01*
X51486Y25305D01*
X51789Y25508D01*
X52207Y25591D01*
X52281D01*
X52699Y25508D01*
X53084Y25250D01*
X53342Y24864D01*
X53392Y24615D01*
X53442Y24495D01*
X53484Y24371D01*
X53501Y24351D01*
X53511Y24326D01*
X53604Y24234D01*
X53690Y24135D01*
X53714Y24123D01*
X53733Y24105D01*
X53854Y24055D01*
X53971Y23997D01*
X53998Y23995D01*
X54022Y23985D01*
X54153D01*
X54284Y23976D01*
X54777Y24041D01*
X55066D01*
X55213Y24022D01*
X55344Y24030D01*
X55475D01*
X55499Y24040D01*
X55526Y24042D01*
X55643Y24100D01*
X55764Y24150D01*
X55783Y24169D01*
X55807Y24181D01*
X55893Y24279D01*
X55986Y24372D01*
X55996Y24396D01*
X56013Y24416D01*
X56055Y24540D01*
X56106Y24661D01*
X56146Y24864D01*
X56404Y25250D01*
X56789Y25508D01*
X57207Y25591D01*
X57281D01*
X57699Y25508D01*
D02*
G37*
G36*
X35826Y25606D02*
X35904Y25591D01*
X36929D01*
X37002Y25576D01*
X37064Y25535D01*
X37346Y25253D01*
X37387Y25191D01*
X37417Y25041D01*
Y25041D01*
X37417Y25041D01*
X37417Y25040D01*
X37424Y25024D01*
X37463Y24828D01*
X37637Y24568D01*
X37637Y24568D01*
X38133Y24072D01*
X38175Y24010D01*
X38189Y23937D01*
Y19193D01*
X38250Y18886D01*
X38313Y18791D01*
X38250Y18697D01*
X38189Y18390D01*
Y13465D01*
X38175Y13392D01*
X38133Y13330D01*
X37949Y13146D01*
X37887Y13105D01*
X37814Y13090D01*
X25178D01*
X25105Y13105D01*
X25043Y13146D01*
X24409Y13780D01*
X24409Y13780D01*
X24338Y13851D01*
X24296Y13913D01*
X24282Y13986D01*
Y14207D01*
X24282Y14207D01*
X24282Y14207D01*
Y14207D01*
Y15018D01*
X16801D01*
Y14207D01*
X16801Y14207D01*
X16801D01*
Y14124D01*
X16787Y14051D01*
X16702Y13924D01*
X16688Y13891D01*
X16597Y13754D01*
X16535Y13447D01*
Y2756D01*
Y2441D01*
X16521Y2368D01*
X16470Y2292D01*
X16425Y2183D01*
X16369Y2079D01*
X16365Y2039D01*
X16350Y2002D01*
Y1885D01*
X16339Y1767D01*
X15145Y1405D01*
X5571D01*
X2578Y1677D01*
X2004Y1791D01*
X1999Y1814D01*
X2067Y2559D01*
Y13386D01*
X7644Y18963D01*
X16321D01*
X16628Y19025D01*
X16889Y19198D01*
X16889Y19198D01*
X17604Y19913D01*
X17698Y19820D01*
Y19820D01*
X17698Y19820D01*
Y19820D01*
X17735Y19805D01*
X17766Y19780D01*
X17879Y19746D01*
X17988Y19701D01*
X18065Y19685D01*
X18144D01*
D01*
X18383Y19525D01*
X18430Y19494D01*
X18430Y19494D01*
X18430Y19494D01*
X18563Y19406D01*
X18719Y19374D01*
X18719Y19374D01*
X18719D01*
X18719Y19374D01*
X19174Y19284D01*
X19174D01*
X19331Y19253D01*
X19487Y19284D01*
X19487D01*
X19942Y19374D01*
X19942Y19374D01*
X19942D01*
X19942Y19374D01*
X20099Y19406D01*
X20231Y19494D01*
X20231Y19494D01*
X20231Y19494D01*
X20316Y19551D01*
X20517Y19685D01*
X20517Y19685D01*
X20596D01*
X23065D01*
X23144D01*
D01*
X23383Y19525D01*
X23430Y19494D01*
X23430Y19494D01*
X23430Y19494D01*
X23562Y19406D01*
X23719Y19374D01*
X23719Y19374D01*
X23719D01*
X23719Y19374D01*
X24174Y19284D01*
X24174D01*
X24331Y19253D01*
X24487Y19284D01*
X24487D01*
X24942Y19374D01*
X24942Y19374D01*
X24942D01*
X24942Y19374D01*
X25099Y19406D01*
X25231Y19494D01*
X25231Y19494D01*
X25231Y19494D01*
X25316Y19551D01*
X25517Y19685D01*
X25590Y19715D01*
X25628Y19741D01*
X25628Y19741D01*
X25628Y19741D01*
X25628Y19741D01*
X25684Y19797D01*
X25712Y19815D01*
X25712Y19815D01*
X25750Y19841D01*
X25757Y19852D01*
X25804Y19898D01*
X25840Y19953D01*
X25850Y19962D01*
X25850Y19962D01*
X25850Y19962D01*
X25850Y19962D01*
X25857Y19973D01*
Y19973D01*
X25903Y20020D01*
X25929Y20081D01*
X25954Y20119D01*
X25959Y20131D01*
X25978Y20159D01*
X25984Y20191D01*
X26096Y20359D01*
X26096Y20359D01*
D01*
X26096Y20359D01*
X26185Y20492D01*
X26216Y20648D01*
X26216Y20648D01*
Y20648D01*
X26267Y20907D01*
X26338Y21260D01*
Y24409D01*
X26200Y25100D01*
Y25171D01*
X26251Y25221D01*
X26737Y25547D01*
X26737Y25547D01*
X26803Y25591D01*
X26882D01*
X30671D01*
X30749Y25606D01*
X30787D01*
X30826D01*
X30904Y25591D01*
X35671D01*
X35749Y25606D01*
X35787D01*
X35826D01*
D02*
G37*
G36*
X16529Y26462D02*
X16591Y26421D01*
X17168Y25843D01*
X17210Y25781D01*
X17224Y25708D01*
Y20725D01*
X17222Y20717D01*
X17224Y20693D01*
Y20669D01*
X16377Y19822D01*
X16315Y19781D01*
X16242Y19766D01*
X6750D01*
X6031Y19671D01*
X5588Y19488D01*
X5512D01*
X5458Y19434D01*
X5360Y19394D01*
X4785Y18952D01*
X3958Y18126D01*
X1969D01*
X1661Y18065D01*
X1401Y17890D01*
X1227Y17630D01*
X1166Y17323D01*
Y1969D01*
X1201Y1791D01*
X814Y1405D01*
X-14355D01*
Y16752D01*
X-14370Y16829D01*
Y16908D01*
X-14385Y16981D01*
X-14385Y16981D01*
Y16981D01*
X-14415Y17054D01*
X-14416Y17059D01*
X-14418Y17063D01*
X-14437Y17107D01*
X-14471Y17189D01*
X-14472Y17194D01*
X-14474Y17198D01*
X-14504Y17271D01*
X-14504Y17271D01*
X-14504Y17271D01*
X-14546Y17333D01*
X-14602Y17389D01*
X-14646Y17454D01*
X-15256Y18065D01*
Y18738D01*
X-14900Y19089D01*
X-8661Y18996D01*
X-7957Y20119D01*
X-7716Y20071D01*
X-7716D01*
X-7559Y20040D01*
X-7402Y20071D01*
X-7402D01*
X-6948Y20162D01*
X-6948Y20162D01*
X-6791Y20193D01*
X-6658Y20282D01*
X-6658Y20282D01*
X-6658Y20282D01*
X-6577Y20336D01*
X-6273Y20539D01*
X-6273D01*
X-6273Y20539D01*
X-6140Y20628D01*
X-6051Y20761D01*
X-6051Y20761D01*
Y20761D01*
X-5848Y21066D01*
X-5793Y21146D01*
X-5793Y21146D01*
X-5793Y21146D01*
X-5705Y21279D01*
X-5674Y21436D01*
X-5674Y21436D01*
Y21436D01*
X-5622Y21695D01*
X-5552Y22047D01*
Y23740D01*
X-5539Y23806D01*
X-5473Y23819D01*
X4195D01*
X4378Y23855D01*
X4502Y23880D01*
X4502Y23880D01*
X4502D01*
X4763Y24054D01*
X4763Y24054D01*
X4883Y24174D01*
X4883Y24174D01*
X4992Y24337D01*
X5057Y24435D01*
Y24435D01*
X5057Y24435D01*
X5082Y24559D01*
X5118Y24742D01*
Y24742D01*
Y24742D01*
Y25708D01*
X5133Y25781D01*
X5174Y25843D01*
X5751Y26421D01*
X5813Y26462D01*
X5886Y26476D01*
X16456D01*
X16529Y26462D01*
D02*
G37*
G36*
X-90207Y66692D02*
X-90105Y66444D01*
X-91709Y64839D01*
X-91883Y64579D01*
X-91945Y64272D01*
Y39370D01*
X-91883Y39063D01*
X-91709Y38802D01*
X-89643Y36735D01*
X-89382Y36561D01*
X-89075Y36500D01*
X-81376D01*
X-81140Y36059D01*
X-81242Y35907D01*
X-81303Y35600D01*
Y21953D01*
X-81287Y21875D01*
Y21796D01*
X-81257Y21723D01*
X-81242Y21646D01*
X-81198Y21580D01*
X-81168Y21507D01*
X-80842Y21020D01*
X-80759Y20937D01*
X-80732Y20904D01*
X-81068Y20568D01*
X-81242Y20307D01*
X-81303Y20000D01*
Y18294D01*
X-81781Y18149D01*
X-82077Y18592D01*
X-82533Y18897D01*
X-83071Y19004D01*
X-97596D01*
X-97913Y19390D01*
X-97796Y19980D01*
X-97949Y20748D01*
X-98384Y21399D01*
X-98387Y21402D01*
X-98533Y21620D01*
X-98585Y21881D01*
X-98599D01*
Y22740D01*
X-98209Y22949D01*
X-97441Y22796D01*
X-96673Y22949D01*
X-96022Y23384D01*
X-95587Y24035D01*
X-95434Y24803D01*
X-95476Y25014D01*
X-95198Y25429D01*
X-94803Y25508D01*
X-94152Y25943D01*
X-93717Y26594D01*
X-93564Y27362D01*
X-93717Y28130D01*
X-94152Y28781D01*
X-94204Y28816D01*
X-94758Y29539D01*
X-95130Y30437D01*
X-95252Y31364D01*
Y46260D01*
X-95344Y46721D01*
X-95605Y47111D01*
X-96196Y47702D01*
Y52100D01*
X-96196Y52100D01*
X-96287Y52561D01*
X-96548Y52952D01*
X-96548Y52952D01*
X-98014Y54417D01*
X-92849Y59582D01*
X-92588Y59972D01*
X-92497Y60433D01*
Y64991D01*
X-90698Y66789D01*
X-90207Y66692D01*
D02*
G37*
G36*
X107359Y31578D02*
X107339Y31480D01*
X107492Y30712D01*
X107927Y30061D01*
X108578Y29626D01*
X109346Y29473D01*
X110115Y29626D01*
X110766Y30061D01*
X110768Y30065D01*
X110986Y30210D01*
X111247Y30262D01*
X111247Y30262D01*
Y30262D01*
X111470D01*
X111614Y30118D01*
Y30118D01*
X113027D01*
X113162Y29441D01*
X113150Y29351D01*
X113166D01*
Y28130D01*
X113150D01*
X113162Y28039D01*
X113027Y27362D01*
X111614D01*
Y22244D01*
X112303D01*
Y18937D01*
X106620D01*
X106519Y19037D01*
Y21669D01*
X109760D01*
Y25213D01*
X109649D01*
X109332Y25599D01*
X109389Y25886D01*
X109236Y26654D01*
X108801Y27305D01*
X108150Y27740D01*
X107382Y27893D01*
X106614Y27740D01*
X105963Y27305D01*
X105528Y26654D01*
X105440Y26213D01*
X104978Y26022D01*
X104423Y26392D01*
X104347Y26407D01*
X104274Y26518D01*
X103622Y26953D01*
X102854Y27106D01*
X102184Y26972D01*
X102051Y27638D01*
X101616Y28289D01*
X100965Y28724D01*
X100197Y28877D01*
X99429Y28724D01*
X98778Y28289D01*
X98343Y27638D01*
X98317Y27512D01*
X97914Y26908D01*
X97146Y27061D01*
X96378Y26908D01*
X95727Y26473D01*
X95400Y25984D01*
X94882D01*
Y22858D01*
X93209D01*
X92748Y22766D01*
X92591Y22662D01*
X92357Y22505D01*
X92357Y22505D01*
X91930Y22078D01*
X91930Y22078D01*
X91920Y22087D01*
X91698Y21939D01*
X91441Y21888D01*
X91437Y21889D01*
X90669Y21736D01*
X90018Y21301D01*
X89583Y20650D01*
X89430Y19882D01*
X89583Y19114D01*
X90014Y18469D01*
X89983Y18410D01*
X89727Y18027D01*
X88972D01*
X88889Y18062D01*
X88518Y18433D01*
X88502Y18454D01*
X88502D01*
X88497D01*
X88212Y18739D01*
Y26569D01*
X88212Y26569D01*
X88120Y27030D01*
X87859Y27420D01*
X87859Y27421D01*
X86047Y29233D01*
Y31688D01*
X86488Y31924D01*
X86633Y31827D01*
X87402Y31674D01*
X88170Y31827D01*
X88377Y31965D01*
X88621D01*
X88637Y31963D01*
Y31965D01*
X90397D01*
X90538Y31947D01*
Y31965D01*
X107042D01*
X107359Y31578D01*
D02*
G37*
G36*
X71430Y56209D02*
Y35603D01*
X70725Y34898D01*
X70663Y34857D01*
X70590Y34843D01*
X55886D01*
X55813Y34857D01*
X55751Y34898D01*
X54583Y36066D01*
X54542Y36128D01*
X54528Y36201D01*
Y36713D01*
Y57060D01*
X70579D01*
X71430Y56209D01*
D02*
G37*
G36*
X53725Y36201D02*
X53740Y36124D01*
Y36044D01*
X53755Y35971D01*
X53755Y35971D01*
Y35971D01*
X53785Y35898D01*
X53786Y35894D01*
X53788Y35890D01*
X53807Y35846D01*
X53841Y35763D01*
X53842Y35759D01*
X53844Y35755D01*
X53874Y35682D01*
X53875Y35682D01*
X53875Y35682D01*
X53916Y35620D01*
X53972Y35564D01*
X54016Y35498D01*
X55184Y34331D01*
X55249Y34287D01*
X55305Y34231D01*
X55367Y34190D01*
X55440Y34159D01*
X55444Y34157D01*
X55449Y34156D01*
X55528Y34123D01*
X55575Y34103D01*
X55579Y34101D01*
X55583Y34100D01*
X55656Y34070D01*
X55656Y34070D01*
D01*
D01*
X55730Y34055D01*
X55809D01*
X55886Y34040D01*
X70590D01*
X70668Y34055D01*
X70747Y34055D01*
X70820Y34070D01*
X70820D01*
X70820Y34070D01*
X70820Y34070D01*
X70893Y34100D01*
X70898Y34101D01*
X70901Y34103D01*
X70947Y34122D01*
X71028Y34156D01*
X71032Y34157D01*
X71036Y34159D01*
X71109Y34190D01*
X71109Y34190D01*
X71109Y34190D01*
X71109Y34190D01*
X71171Y34231D01*
X71227Y34287D01*
X71293Y34331D01*
X71389Y34426D01*
X71850Y34235D01*
Y21654D01*
X69390Y19193D01*
X60205D01*
X60175Y19201D01*
X60150Y19203D01*
X60133Y19220D01*
X60106Y19238D01*
X59856Y19524D01*
X59841Y19553D01*
X59826Y19572D01*
X59828Y19597D01*
X59824Y19628D01*
X59883Y20079D01*
X59789Y20793D01*
X59735Y21207D01*
Y21207D01*
X59721Y21312D01*
X59680Y21410D01*
Y21410D01*
X59281Y22373D01*
X59251Y22525D01*
Y24330D01*
Y24409D01*
X59236Y24487D01*
Y24487D01*
X59130Y25021D01*
Y25021D01*
X59130Y25021D01*
X59098Y25177D01*
X59010Y25310D01*
X59010Y25310D01*
X59010Y25310D01*
X58956Y25391D01*
X58752Y25696D01*
Y25696D01*
X58752Y25696D01*
X58663Y25829D01*
X58530Y25917D01*
X58530Y25917D01*
X58530D01*
X58226Y26121D01*
X58145Y26175D01*
D01*
X58012Y26264D01*
X57855Y26295D01*
X57855Y26295D01*
X57438Y26378D01*
X57438D01*
X57244Y26417D01*
X57050Y26378D01*
X57050D01*
X56633Y26295D01*
X56633Y26295D01*
X56476Y26264D01*
X56343Y26175D01*
D01*
X56262Y26121D01*
X55825Y25829D01*
X55736Y25696D01*
X55736Y25696D01*
Y25696D01*
X55390Y25177D01*
X55334Y24895D01*
X55314Y24847D01*
X55310Y24829D01*
X55291Y24831D01*
X55240Y24828D01*
X55118Y24844D01*
X54724D01*
X54257Y24782D01*
X54206Y24786D01*
X54187Y24783D01*
X54183Y24802D01*
X54164Y24850D01*
X54129Y25021D01*
X54129Y25021D01*
X54098Y25177D01*
X54010Y25310D01*
X54010Y25310D01*
X54010Y25310D01*
X53956Y25391D01*
X53752Y25696D01*
Y25696D01*
X53752Y25696D01*
X53663Y25829D01*
X53531Y25917D01*
X53531Y25917D01*
X53530D01*
X53226Y26121D01*
X53145Y26175D01*
D01*
X53012Y26264D01*
X52855Y26295D01*
X52855Y26295D01*
X52438Y26378D01*
X52438D01*
X52244Y26417D01*
X52050Y26378D01*
X52050D01*
X51633Y26295D01*
X51633Y26295D01*
X51476Y26264D01*
X51343Y26175D01*
D01*
X51246Y26110D01*
X50825Y25829D01*
X50544Y25408D01*
X50479Y25310D01*
X50479Y25310D01*
X50478Y25310D01*
X50390Y25177D01*
X50359Y25021D01*
X50359Y25021D01*
Y25021D01*
X50307Y24762D01*
X50237Y24409D01*
Y24330D01*
Y21670D01*
X50207Y21518D01*
X50122Y21312D01*
X50108Y21207D01*
Y21207D01*
X49982Y20253D01*
X49959Y20079D01*
Y20026D01*
Y19272D01*
X49946Y19206D01*
X49880Y19193D01*
X39007D01*
X38992Y19272D01*
Y23937D01*
X38976Y24014D01*
X38976Y24093D01*
X38962Y24166D01*
Y24166D01*
X38962Y24166D01*
Y24166D01*
X38932Y24239D01*
X38931Y24244D01*
X38928Y24248D01*
X38904Y24307D01*
X38876Y24374D01*
X38875Y24379D01*
X38872Y24383D01*
X38842Y24456D01*
X38842Y24456D01*
X38842Y24456D01*
X38842Y24456D01*
X38801Y24518D01*
X38745Y24574D01*
X38701Y24639D01*
X38260Y25080D01*
X38219Y25142D01*
X38211Y25180D01*
X38204Y25197D01*
Y25198D01*
X38175Y25348D01*
Y25348D01*
Y25348D01*
X38174Y25348D01*
X38096Y25538D01*
X38088Y25555D01*
X38087Y25560D01*
X38085Y25564D01*
X38055Y25637D01*
X38055Y25637D01*
X38055Y25637D01*
X38054Y25637D01*
X38013Y25699D01*
X37957Y25755D01*
X37913Y25820D01*
X37631Y26102D01*
X37566Y26146D01*
X37510Y26202D01*
X37448Y26244D01*
X37375Y26274D01*
X37371Y26276D01*
X37367Y26277D01*
X37287Y26310D01*
X37240Y26330D01*
X37236Y26332D01*
X37231Y26333D01*
X37159Y26363D01*
X37158Y26363D01*
D01*
D01*
X37086Y26378D01*
X37006D01*
X36929Y26393D01*
X35983D01*
X35905D01*
X35905Y26393D01*
X35904D01*
X35826Y26409D01*
X35826D01*
X35787Y26417D01*
X35749Y26409D01*
X35749D01*
X35671Y26393D01*
X35669D01*
X35669Y26393D01*
X35592D01*
X30983D01*
X30905D01*
X30905Y26393D01*
X30904D01*
X30826Y26409D01*
X30826D01*
X30787Y26417D01*
X30749Y26409D01*
X30749D01*
X30671Y26393D01*
X30670D01*
X30670Y26393D01*
X30592D01*
X26803D01*
X26725Y26378D01*
X26646Y26378D01*
X26573Y26348D01*
X26496Y26332D01*
X26430Y26288D01*
X26357Y26258D01*
X26291Y26214D01*
X26291Y26214D01*
X25805Y25889D01*
X25749Y25833D01*
X25683Y25789D01*
X25633Y25739D01*
X25589Y25673D01*
X25583Y25668D01*
X25580Y25660D01*
X25459Y25478D01*
X25416Y25264D01*
X25413Y25257D01*
Y25249D01*
X25398Y25171D01*
Y25100D01*
X25413Y25022D01*
Y24943D01*
X25535Y24330D01*
Y21339D01*
X25480Y21064D01*
Y21064D01*
X25429Y20805D01*
Y20805D01*
X25429Y20805D01*
X25317Y20638D01*
X25317Y20638D01*
X25317Y20638D01*
Y20638D01*
X25296Y20588D01*
X25292Y20577D01*
X25292Y20577D01*
X25286Y20564D01*
X25261Y20527D01*
X25236Y20466D01*
X25190Y20419D01*
X25189Y20419D01*
X25189Y20419D01*
X25182Y20408D01*
X25182Y20408D01*
X25144Y20383D01*
X25071Y20353D01*
X24870Y20218D01*
X24785Y20162D01*
X24331Y20071D01*
X23876Y20162D01*
X23829Y20193D01*
X23829Y20193D01*
X23829Y20193D01*
X23590Y20353D01*
X23517Y20383D01*
X23451Y20427D01*
X23374Y20442D01*
X23301Y20472D01*
X23222D01*
X23144Y20488D01*
X20517D01*
X20489Y20482D01*
X20460Y20486D01*
X20411Y20472D01*
X20360D01*
X20287Y20442D01*
X20210Y20427D01*
X20186Y20411D01*
X20158Y20403D01*
X20158Y20403D01*
X20118Y20372D01*
X20071Y20353D01*
X19870Y20218D01*
X19870Y20218D01*
X19785Y20162D01*
X19331Y20071D01*
X18876Y20162D01*
X18829Y20193D01*
X18829Y20193D01*
X18829Y20193D01*
X18590Y20353D01*
X18517Y20383D01*
X18451Y20427D01*
X18374Y20442D01*
X18301Y20472D01*
X18222D01*
X18027Y20725D01*
Y25708D01*
X18012Y25786D01*
Y25865D01*
X17997Y25938D01*
X17997Y25938D01*
Y25938D01*
X17967Y26011D01*
X17966Y26016D01*
X17964Y26019D01*
X17945Y26064D01*
X17911Y26146D01*
X17910Y26151D01*
X17908Y26154D01*
X17877Y26227D01*
X17877Y26227D01*
X17877Y26228D01*
X17836Y26289D01*
X17780Y26345D01*
X17736Y26411D01*
X17159Y26988D01*
X17093Y27032D01*
X17037Y27088D01*
X16975Y27129D01*
X16902Y27160D01*
X16898Y27162D01*
X16894Y27163D01*
X16814Y27196D01*
X16767Y27215D01*
X16764Y27218D01*
X16759Y27219D01*
X16686Y27249D01*
X16686Y27249D01*
D01*
D01*
X16613Y27264D01*
X16534D01*
X16456Y27279D01*
X5886D01*
X5809Y27264D01*
X5729D01*
X5657Y27249D01*
X5657Y27249D01*
X5656D01*
X5583Y27219D01*
X5579Y27218D01*
X5575Y27216D01*
X5531Y27197D01*
X5449Y27163D01*
X5444Y27162D01*
X5440Y27160D01*
X5367Y27129D01*
X5367Y27129D01*
X5367Y27129D01*
X5305Y27088D01*
X5249Y27032D01*
X5184Y26988D01*
X4606Y26411D01*
X4562Y26345D01*
X4506Y26289D01*
X4465Y26227D01*
X4435Y26154D01*
X4432Y26151D01*
X4431Y26146D01*
X4398Y26066D01*
X4379Y26019D01*
X4376Y26016D01*
X4375Y26011D01*
X4345Y25938D01*
X4345Y25938D01*
D01*
D01*
X4331Y25865D01*
Y25786D01*
X4315Y25708D01*
Y24821D01*
X4301Y24748D01*
X4259Y24686D01*
X4251Y24678D01*
X4189Y24636D01*
X4116Y24622D01*
X-5473D01*
X-5551Y24606D01*
X-5630D01*
X-5695Y24593D01*
X-5696D01*
X-5769Y24563D01*
X-5780Y24561D01*
X-5790Y24554D01*
X-5844Y24532D01*
X-5985Y24473D01*
X-5985Y24473D01*
D01*
X-6207Y24252D01*
X-6265Y24111D01*
X-6287Y24057D01*
X-6294Y24047D01*
X-6296Y24035D01*
X-6326Y23962D01*
Y23962D01*
D01*
X-6339Y23896D01*
Y23817D01*
X-6355Y23740D01*
Y22126D01*
X-6410Y21851D01*
Y21851D01*
X-6461Y21592D01*
D01*
X-6515Y21511D01*
X-6515Y21511D01*
X-6719Y21207D01*
X-6719Y21207D01*
D01*
D01*
X-6719Y21207D01*
X-7023Y21003D01*
X-7023Y21003D01*
X-7104Y20949D01*
D01*
X-7559Y20859D01*
X-7559Y20859D01*
X-7800Y20907D01*
X-7812D01*
X-7823Y20911D01*
X-7969Y20907D01*
X-8114D01*
X-8124Y20902D01*
X-8136Y20902D01*
X-8269Y20842D01*
X-8403Y20787D01*
X-8411Y20778D01*
X-8422Y20774D01*
X-8522Y20668D01*
X-8625Y20565D01*
X-8629Y20554D01*
X-8637Y20546D01*
X-9101Y19805D01*
X-14320Y19883D01*
X-14416Y20067D01*
X-14355Y20374D01*
Y29134D01*
X-14355Y29134D01*
X-14416Y29441D01*
X-14590Y29702D01*
X-15574Y30686D01*
X-15834Y30860D01*
X-16142Y30921D01*
X-43110D01*
X-43418Y30860D01*
X-43678Y30686D01*
X-44367Y29997D01*
X-44541Y29736D01*
X-44602Y29429D01*
Y27596D01*
X-44624Y27575D01*
X-53543D01*
X-53851Y27513D01*
X-54111Y27339D01*
X-54111Y27339D01*
X-55784Y25666D01*
X-55958Y25406D01*
X-56019Y25098D01*
Y21918D01*
X-56057Y21862D01*
X-56072Y21784D01*
X-56103Y21711D01*
X-56126Y21592D01*
X-56384Y21207D01*
X-56770Y20949D01*
X-57224Y20859D01*
X-57679Y20949D01*
X-58098Y21229D01*
X-58104Y21237D01*
X-58169Y21281D01*
X-58225Y21337D01*
X-58298Y21367D01*
X-58364Y21411D01*
X-58442Y21426D01*
X-58514Y21457D01*
X-58594D01*
X-58671Y21472D01*
X-60778D01*
X-60855Y21457D01*
X-60934D01*
X-61007Y21426D01*
X-61085Y21411D01*
X-61151Y21367D01*
X-61224Y21337D01*
X-61280Y21281D01*
X-61345Y21237D01*
X-61351Y21229D01*
X-61770Y20949D01*
X-62224Y20859D01*
X-62679Y20949D01*
X-63098Y21229D01*
X-63103Y21237D01*
X-63169Y21281D01*
X-63225Y21337D01*
X-63298Y21367D01*
X-63364Y21411D01*
X-63441Y21426D01*
X-63515Y21457D01*
X-63594D01*
X-63671Y21472D01*
X-79831D01*
X-79831Y21472D01*
X-80114Y21416D01*
X-80175Y21466D01*
X-80500Y21953D01*
Y35600D01*
X-79600Y36500D01*
X-35138D01*
X-35138Y36500D01*
X-35060Y36516D01*
X-34252D01*
Y36516D01*
X-34252D01*
X-34252Y36516D01*
X-33858Y36516D01*
Y36516D01*
X-32644D01*
X-32643Y36515D01*
X-32565Y36500D01*
X-32492Y36469D01*
X-32393Y36450D01*
X-32314D01*
X-32237Y36434D01*
X-14226D01*
X-13302Y36312D01*
X-13252Y36316D01*
X-13191Y36303D01*
X-1334D01*
X-394Y36180D01*
X546Y36303D01*
X3464D01*
X3542Y36319D01*
X3621D01*
X3694Y36333D01*
X3694Y36333D01*
X3694D01*
X3767Y36364D01*
X3771Y36365D01*
X3775Y36367D01*
X3805Y36380D01*
X3902Y36419D01*
X3906Y36420D01*
X3910Y36423D01*
X3983Y36453D01*
X3983Y36453D01*
X3983Y36453D01*
X4045Y36495D01*
X4101Y36551D01*
X4167Y36595D01*
X4229Y36657D01*
X4291Y36698D01*
X4364Y36713D01*
X10811D01*
Y36201D01*
X10827Y36124D01*
Y36044D01*
X10841Y35971D01*
X10841Y35971D01*
Y35971D01*
X10871Y35898D01*
X10872Y35894D01*
X10875Y35890D01*
X10893Y35846D01*
X10927Y35763D01*
X10928Y35759D01*
X10931Y35755D01*
X10961Y35682D01*
X10961Y35682D01*
X10961Y35682D01*
X11003Y35620D01*
X11058Y35564D01*
X11102Y35498D01*
X12270Y34331D01*
X12336Y34287D01*
X12392Y34231D01*
X12454Y34190D01*
X12527Y34159D01*
X12531Y34157D01*
X12535Y34156D01*
X12615Y34123D01*
X12662Y34103D01*
X12665Y34101D01*
X12670Y34100D01*
X12743Y34070D01*
X12743Y34070D01*
D01*
D01*
X12816Y34055D01*
X12895D01*
X12973Y34040D01*
X27677D01*
X27755Y34055D01*
X27834Y34055D01*
X27907Y34070D01*
X27907D01*
X27907Y34070D01*
X27907Y34070D01*
X27980Y34100D01*
X27984Y34101D01*
X27988Y34103D01*
X28033Y34122D01*
X28114Y34156D01*
X28119Y34157D01*
X28123Y34159D01*
X28196Y34190D01*
X28196Y34190D01*
X28196Y34190D01*
X28196Y34190D01*
X28258Y34231D01*
X28314Y34287D01*
X28379Y34331D01*
X29350Y35302D01*
X29394Y35367D01*
X29450Y35423D01*
X29492Y35485D01*
X29522Y35558D01*
X29524Y35562D01*
X29525Y35567D01*
X29558Y35646D01*
X29578Y35693D01*
X29580Y35697D01*
X29581Y35702D01*
X29611Y35775D01*
X29611Y35774D01*
X29612Y35775D01*
X29612Y35775D01*
X29612Y35775D01*
Y35775D01*
X29626Y35848D01*
Y35886D01*
X29641Y36004D01*
X29641Y36004D01*
X29641D01*
Y36713D01*
X32268D01*
Y36201D01*
X32283Y36124D01*
Y36044D01*
X32298Y35971D01*
X32298Y35971D01*
Y35971D01*
X32328Y35898D01*
X32329Y35894D01*
X32332Y35890D01*
X32350Y35846D01*
X32384Y35763D01*
X32385Y35759D01*
X32388Y35755D01*
X32418Y35682D01*
X32418Y35682D01*
X32418Y35682D01*
X32459Y35620D01*
X32515Y35564D01*
X32559Y35498D01*
X33727Y34331D01*
X33793Y34287D01*
X33849Y34231D01*
X33911Y34190D01*
X33983Y34159D01*
X33987Y34157D01*
X33992Y34156D01*
X34071Y34123D01*
X34119Y34103D01*
X34122Y34101D01*
X34127Y34100D01*
X34200Y34070D01*
X34200Y34070D01*
D01*
D01*
X34273Y34055D01*
X34352D01*
X34429Y34040D01*
X49134D01*
X49211Y34055D01*
X49290Y34055D01*
X49363Y34070D01*
X49363D01*
X49363Y34070D01*
X49363Y34070D01*
X49436Y34100D01*
X49441Y34101D01*
X49445Y34103D01*
X49490Y34122D01*
X49571Y34156D01*
X49576Y34157D01*
X49580Y34159D01*
X49653Y34190D01*
X49653Y34190D01*
X49653Y34190D01*
X49653Y34190D01*
X49715Y34231D01*
X49771Y34287D01*
X49836Y34331D01*
X50807Y35302D01*
X50851Y35367D01*
X50907Y35423D01*
X50948Y35485D01*
X50979Y35558D01*
X50981Y35562D01*
X50982Y35567D01*
X51015Y35646D01*
X51034Y35693D01*
X51037Y35697D01*
X51038Y35702D01*
X51068Y35775D01*
X51068Y35774D01*
X51068Y35775D01*
X51068Y35775D01*
X51068Y35775D01*
Y35775D01*
X51083Y35848D01*
Y35886D01*
X51098Y36004D01*
X51098Y36004D01*
X51098D01*
Y36713D01*
X53725D01*
Y36201D01*
D02*
G37*
G36*
X22333Y57471D02*
X22789Y57167D01*
X23327Y57060D01*
X28767D01*
X28839Y56988D01*
Y49507D01*
X28702Y48819D01*
X28839Y48130D01*
Y46749D01*
X28780Y46457D01*
Y43307D01*
X28839Y43014D01*
Y36713D01*
Y36004D01*
X28824Y35931D01*
X28783Y35869D01*
X27812Y34898D01*
X27750Y34857D01*
X27677Y34843D01*
X12973D01*
X12900Y34857D01*
X12838Y34898D01*
X11670Y36066D01*
X11629Y36128D01*
X11614Y36201D01*
Y36713D01*
Y57579D01*
X12500Y58465D01*
X21340D01*
X22333Y57471D01*
D02*
G37*
G36*
X50295Y56988D02*
Y46750D01*
X50237Y46457D01*
Y43307D01*
X50295Y43014D01*
Y36713D01*
Y36004D01*
X50281Y35931D01*
X50239Y35869D01*
X49269Y34898D01*
X49207Y34857D01*
X49134Y34843D01*
X34429D01*
X34356Y34857D01*
X34295Y34898D01*
X33127Y36066D01*
X33086Y36128D01*
X33071Y36201D01*
Y36713D01*
Y57060D01*
X50224D01*
X50295Y56988D01*
D02*
G37*
G36*
X-65043Y142534D02*
X-66304Y141009D01*
X-66304Y141009D01*
X-66304D01*
X-66565Y140618D01*
X-66657Y140157D01*
X-66657Y140157D01*
Y133195D01*
X-66657Y133195D01*
X-66565Y132734D01*
X-66304Y132343D01*
X-64992Y131031D01*
X-64993Y131030D01*
X-64993Y131030D01*
D01*
X-64985Y131024D01*
X-64786Y130825D01*
X-64787Y130824D01*
X-64787Y130824D01*
X-64794Y130807D01*
D01*
D01*
D01*
D01*
Y130807D01*
D01*
X-64794Y130807D01*
D01*
X-64790Y130797D01*
D01*
D01*
X-64783Y130780D01*
D01*
D01*
X-64783Y130780D01*
D01*
D01*
D01*
D01*
D01*
D01*
D01*
D01*
X-64753Y130750D01*
X-64741Y130691D01*
Y129035D01*
X-60804D01*
Y132579D01*
X-60495D01*
Y132579D01*
X-57038D01*
X-56803Y132138D01*
X-57017Y131817D01*
X-57124Y131279D01*
Y129410D01*
X-58653Y127881D01*
X-74213D01*
X-74750Y127774D01*
X-75206Y127470D01*
X-77286Y125390D01*
X-77591Y124934D01*
X-77697Y124397D01*
Y122849D01*
X-77703Y122849D01*
Y122849D01*
X-77808Y122835D01*
X-78655D01*
Y121639D01*
X-78667Y121629D01*
X-79470Y121296D01*
X-80320Y121185D01*
X-99933D01*
X-99950Y121196D01*
X-100411Y121288D01*
X-100470Y121585D01*
X-96786Y124700D01*
X-90219Y129325D01*
X-83432Y133623D01*
X-76443Y137582D01*
X-69268Y141193D01*
X-65345Y142933D01*
X-65043Y142534D01*
D02*
G37*
G36*
X-43367Y125448D02*
Y119817D01*
X-43367Y119817D01*
X-43367D01*
X-43260Y119279D01*
X-42956Y118823D01*
X-42037Y117904D01*
X-41581Y117600D01*
X-41043Y117493D01*
X-38869D01*
X-37795Y116418D01*
X-37804Y116408D01*
X-37721Y116345D01*
X-37323Y115946D01*
Y115939D01*
Y115939D01*
X-37113Y115626D01*
X-37039Y115256D01*
X-37035D01*
X-37008Y115120D01*
Y112303D01*
D01*
Y112303D01*
X-37205Y112106D01*
X-37402D01*
Y105633D01*
X-44974D01*
X-45596Y106255D01*
Y117500D01*
X-45596Y117500D01*
X-45687Y117961D01*
X-45948Y118351D01*
X-47182Y119585D01*
Y121255D01*
X-46615D01*
Y124396D01*
X-45572D01*
X-45572Y124396D01*
X-45111Y124487D01*
X-44720Y124749D01*
X-43829Y125639D01*
X-43367Y125448D01*
D02*
G37*
G36*
X-61776Y121457D02*
X-62864D01*
Y118504D01*
X-63255D01*
Y118504D01*
X-67192D01*
Y117921D01*
X-67702D01*
Y118488D01*
X-71639D01*
Y114945D01*
X-71639D01*
Y113290D01*
X-71662Y113173D01*
X-71676D01*
X-71728Y112912D01*
X-71876Y112690D01*
X-71876D01*
X-71876Y112690D01*
Y112690D01*
X-71867Y112680D01*
X-72870Y111677D01*
X-73441D01*
Y111688D01*
X-73491Y111682D01*
X-73930Y111769D01*
Y113819D01*
X-78655D01*
Y109605D01*
X-78678Y109488D01*
X-78681D01*
X-78774Y109025D01*
X-79036Y108632D01*
X-79036Y108632D01*
X-79036Y108632D01*
Y108627D01*
X-79384Y108279D01*
X-79477Y108207D01*
X-79478Y108207D01*
X-79467Y108196D01*
X-83824Y103839D01*
X-84085Y103448D01*
X-84177Y102988D01*
X-84177Y102988D01*
Y93182D01*
X-84791Y92567D01*
X-84791Y92567D01*
X-85267Y92092D01*
X-85267Y92092D01*
X-85701Y91657D01*
X-88779D01*
X-89240Y91565D01*
X-89631Y91304D01*
X-91501Y89434D01*
X-91762Y89043D01*
X-91854Y88583D01*
X-91854Y88583D01*
Y85440D01*
X-92330Y84964D01*
X-98028D01*
X-98489Y84872D01*
X-98880Y84611D01*
X-98880Y84611D01*
X-100277Y83215D01*
X-100538Y82824D01*
X-100629Y82363D01*
X-100629Y82363D01*
Y79416D01*
X-100629Y79416D01*
X-100538Y78955D01*
X-100277Y78565D01*
X-99283Y77571D01*
X-99284Y77570D01*
X-99275Y77564D01*
X-99077Y77365D01*
X-99077Y77363D01*
D01*
X-99085Y77346D01*
D01*
D01*
D01*
D01*
Y77346D01*
D01*
X-99085Y77346D01*
D01*
X-99080Y77337D01*
D01*
D01*
X-99080Y77337D01*
D01*
D01*
X-99073Y77319D01*
D01*
D01*
D01*
D01*
D01*
D01*
D01*
D01*
D01*
D01*
X-99073Y77319D01*
D01*
X-99073Y77319D01*
D01*
D01*
D01*
D01*
X-99070Y77322D01*
D01*
X-99068Y77324D01*
D01*
X-99068D01*
Y77324D01*
D01*
X-99067Y77325D01*
X-99065Y77327D01*
D01*
X-99053Y77339D01*
X-99032Y77230D01*
Y75575D01*
X-98267D01*
Y74555D01*
X-98281D01*
X-98333Y74293D01*
X-98479Y74075D01*
X-98482Y74073D01*
X-98917Y73422D01*
X-99070Y72654D01*
X-99066Y72631D01*
X-99383Y72244D01*
X-105118D01*
Y69801D01*
X-105141Y69685D01*
X-105141Y69685D01*
Y69131D01*
X-105142Y69128D01*
X-105141D01*
Y67355D01*
X-105158Y67227D01*
X-105141D01*
Y65459D01*
X-105430Y65170D01*
X-105432Y65172D01*
X-105444Y65157D01*
X-106071Y64529D01*
X-106073D01*
X-106073D01*
X-106079Y64521D01*
X-106265Y64335D01*
X-106367Y64183D01*
X-108170D01*
Y59570D01*
X-112107D01*
Y60246D01*
X-114543D01*
X-114580Y60274D01*
X-115472Y60644D01*
X-116359Y60760D01*
X-116370Y60768D01*
X-116831Y60859D01*
X-117292Y60768D01*
X-117302Y60761D01*
X-117545D01*
X-117645Y60774D01*
Y60774D01*
X-117757D01*
X-118111Y61128D01*
Y61328D01*
Y63002D01*
X-117619D01*
Y63002D01*
X-112107D01*
Y68120D01*
D01*
Y68120D01*
X-111821Y68405D01*
X-107087D01*
Y70848D01*
X-107063Y70965D01*
Y71519D01*
X-107063Y71521D01*
X-107063D01*
Y73295D01*
X-107047Y73422D01*
X-107063D01*
Y76968D01*
X-102218D01*
Y82087D01*
X-107730D01*
Y80518D01*
X-107938Y80379D01*
X-107938Y80379D01*
X-108257Y80060D01*
X-108297Y80029D01*
X-108297D01*
X-108292Y80025D01*
X-108292Y80025D01*
X-109119Y79198D01*
X-109120Y79197D01*
X-109193Y79141D01*
X-109193Y79141D01*
X-109185Y79132D01*
X-109446Y78742D01*
X-109537Y78281D01*
X-109472Y77952D01*
Y73340D01*
X-109627Y72560D01*
X-109772Y72342D01*
X-114173D01*
Y71578D01*
X-115256D01*
X-115717Y71487D01*
X-116107Y71226D01*
X-116107Y71226D01*
X-116206Y71127D01*
X-116467Y70736D01*
X-116559Y70276D01*
X-116559Y70275D01*
Y69599D01*
X-116583D01*
X-116559Y69413D01*
Y68176D01*
X-116564D01*
X-116575Y68120D01*
X-117619D01*
Y66903D01*
X-118296Y66769D01*
X-118386Y66781D01*
Y66765D01*
X-118950D01*
X-119411Y66673D01*
X-119802Y66412D01*
D01*
D01*
X-119805Y66415D01*
X-119807Y66412D01*
D01*
X-119824Y66391D01*
X-120601Y65613D01*
X-120601Y65613D01*
X-120601Y65613D01*
X-120603Y65611D01*
X-120947Y65267D01*
X-121208Y64877D01*
X-121209Y64872D01*
X-122048D01*
Y64856D01*
X-122457D01*
Y64856D01*
X-126394D01*
Y61313D01*
X-126394D01*
Y57769D01*
X-124406D01*
X-124323Y57735D01*
X-123952Y57364D01*
X-123936Y57343D01*
X-123933Y57345D01*
X-123423Y56835D01*
X-123423Y56835D01*
X-123032Y56574D01*
X-123032Y56574D01*
X-123032Y56574D01*
D01*
X-123032Y56574D01*
X-123032Y56574D01*
X-122571Y56482D01*
X-122571Y56482D01*
X-118386D01*
Y56467D01*
X-118296Y56479D01*
X-117619Y56344D01*
Y55847D01*
X-118005Y55529D01*
X-118110Y55550D01*
X-118878Y55398D01*
X-119529Y54962D01*
X-119965Y54311D01*
X-120117Y53543D01*
X-119965Y52775D01*
X-119529Y52124D01*
X-118878Y51689D01*
X-118110Y51536D01*
X-118106Y51537D01*
X-118047Y51525D01*
X-117920Y51314D01*
X-117813Y51055D01*
X-117910Y50909D01*
X-144956D01*
X-145238Y51321D01*
X-144435Y53404D01*
X-141310Y60453D01*
X-137844Y67339D01*
X-134043Y74048D01*
X-132642Y76260D01*
X-126288D01*
Y75591D01*
X-122351D01*
Y79134D01*
Y79701D01*
X-121805D01*
X-121805Y79698D01*
D01*
X-121805Y79277D01*
X-121805Y79277D01*
Y79277D01*
X-117868D01*
Y79277D01*
X-117868Y79277D01*
X-117867Y79698D01*
D01*
X-117867Y79701D01*
X-116982D01*
X-116982Y79701D01*
X-116521Y79793D01*
X-116130Y80054D01*
X-116032Y80152D01*
X-116032Y80152D01*
X-116022Y80143D01*
X-115960Y80225D01*
X-115767Y80417D01*
X-115252Y80761D01*
X-114625Y80886D01*
X-114620Y80882D01*
Y80882D01*
X-114503Y80905D01*
X-111667D01*
Y86024D01*
X-117179D01*
Y83473D01*
X-117199Y83372D01*
X-117188Y83316D01*
X-117208Y83290D01*
X-117208D01*
X-117183Y83166D01*
X-117274Y82709D01*
X-117703Y82452D01*
X-117868Y82502D01*
Y82821D01*
X-121805D01*
Y82123D01*
X-121805Y82123D01*
Y82110D01*
X-122351D01*
Y82677D01*
X-126288D01*
Y79134D01*
Y78669D01*
X-132893D01*
X-133134Y79107D01*
X-131545Y81617D01*
X-127050Y87999D01*
X-122247Y94154D01*
X-122148Y94268D01*
X-121949D01*
X-121949Y94268D01*
X-98933D01*
Y93701D01*
X-94996D01*
Y97244D01*
X-91066D01*
Y99864D01*
X-90708Y100158D01*
X-90256Y99944D01*
Y98881D01*
X-84744D01*
Y103999D01*
X-90256D01*
Y102782D01*
X-90933Y102648D01*
X-91023Y102660D01*
Y102644D01*
X-92384D01*
X-92385Y102644D01*
X-92385Y102644D01*
X-94541D01*
X-94541Y102644D01*
X-95002Y102552D01*
X-95392Y102291D01*
X-95392Y102291D01*
X-96472Y101212D01*
X-96474Y101214D01*
X-96490Y101193D01*
X-96862Y100821D01*
X-96944Y100787D01*
X-98933D01*
Y97244D01*
Y96677D01*
X-122070D01*
X-122278Y97131D01*
X-118607Y101387D01*
X-113157Y107111D01*
X-107433Y112561D01*
X-101449Y117723D01*
X-100100Y118776D01*
X-80332D01*
Y118750D01*
X-80133Y118776D01*
X-78655D01*
Y116142D01*
X-73930D01*
Y122835D01*
X-74777D01*
X-74882Y122849D01*
Y122849D01*
X-74888Y122849D01*
Y123814D01*
X-73631Y125071D01*
X-61776D01*
Y121457D01*
D02*
G37*
G36*
X-53702Y123627D02*
Y121255D01*
X-53151D01*
Y120880D01*
X-53151D01*
X-53134Y120713D01*
Y118979D01*
X-53141D01*
X-53134Y118906D01*
Y117520D01*
X-53415D01*
Y112402D01*
X-48004D01*
Y105757D01*
X-48004Y105757D01*
X-47913Y105296D01*
X-47651Y104905D01*
X-46505Y103758D01*
X-46677Y103342D01*
X-46746Y103296D01*
X-66409D01*
X-67100Y103987D01*
X-67093Y103993D01*
X-67252Y104231D01*
X-67308Y104512D01*
X-67317D01*
X-67344Y104648D01*
Y106283D01*
X-67344D01*
Y109827D01*
X-68108D01*
Y111358D01*
X-68104D01*
X-68108Y111389D01*
Y111402D01*
X-67702D01*
Y111969D01*
X-67192D01*
Y111417D01*
X-63255D01*
X-63255Y111417D01*
Y111417D01*
X-62886Y111389D01*
D01*
X-62873Y111216D01*
Y111216D01*
X-62864Y111168D01*
Y108465D01*
X-57352D01*
Y113583D01*
X-60188D01*
X-60305Y113606D01*
Y113606D01*
X-60309Y113602D01*
X-60937Y113727D01*
X-61457Y114074D01*
X-61499Y114129D01*
X-61504Y114123D01*
X-61895Y114384D01*
X-62356Y114476D01*
X-62817Y114384D01*
X-62817Y114384D01*
X-62817Y114384D01*
X-62898Y114383D01*
X-63255Y114734D01*
Y114961D01*
Y115512D01*
X-62289D01*
X-62289Y115512D01*
X-61828Y115604D01*
X-61437Y115865D01*
X-61339Y115963D01*
X-61339Y115963D01*
X-61336Y115961D01*
X-61335Y115962D01*
X-60943Y116224D01*
X-60480Y116316D01*
X-60424Y116305D01*
Y116305D01*
X-60401Y116323D01*
X-60368Y116317D01*
X-60259Y116339D01*
X-57352D01*
Y121255D01*
X-54690D01*
Y123244D01*
X-54655Y123326D01*
X-54284Y123698D01*
X-54263Y123714D01*
X-54265Y123716D01*
X-54163Y123818D01*
X-53702Y123627D01*
D02*
G37*
G36*
X74429Y126634D02*
X74520Y126646D01*
X75197Y126512D01*
Y125098D01*
X76455D01*
X76546Y124643D01*
X76542Y124608D01*
D01*
X76541Y124607D01*
X76552Y124606D01*
D01*
D01*
D01*
X76643Y124145D01*
X76904Y123755D01*
X78086Y122574D01*
X78086Y122574D01*
X78476Y122313D01*
X78937Y122221D01*
X78937Y122221D01*
X82867D01*
X83465Y121623D01*
X83274Y121161D01*
X79134D01*
Y115650D01*
X80350D01*
X80485Y114972D01*
X80473Y114882D01*
X80489D01*
Y106673D01*
X80473D01*
X80485Y106582D01*
X80350Y105905D01*
X79134D01*
Y100394D01*
X80350D01*
X80485Y99717D01*
X80473Y99626D01*
X80489D01*
Y98727D01*
X80210Y98448D01*
X78279D01*
Y98462D01*
X78017Y98514D01*
X77799Y98659D01*
X77797Y98663D01*
X77146Y99098D01*
X76378Y99251D01*
X75610Y99098D01*
X75435Y98982D01*
X74994Y99217D01*
Y99637D01*
X75006Y99696D01*
X75009D01*
X75008Y99706D01*
X75145Y100394D01*
X76378D01*
Y105905D01*
X75145D01*
X75008Y106593D01*
X75009Y106603D01*
X75006D01*
X74994Y106662D01*
Y114894D01*
X75006Y114951D01*
X75009D01*
X75008Y114962D01*
X75145Y115650D01*
X76378D01*
Y121161D01*
X71260D01*
D01*
D01*
X71260Y121161D01*
X70801D01*
Y121161D01*
X65682D01*
Y115650D01*
X68321D01*
X68394Y115635D01*
X68468Y115650D01*
X68527D01*
X68530Y115621D01*
X68675Y115650D01*
X68704D01*
X69247Y115542D01*
X69268Y115527D01*
Y106032D01*
X69209Y105993D01*
X68771Y105905D01*
X68679D01*
X68559Y105930D01*
X68555Y105905D01*
X68447D01*
X68394Y105916D01*
X68340Y105905D01*
X65650D01*
Y101433D01*
X65469Y101162D01*
X65316Y100394D01*
X65469Y99626D01*
X65697Y99283D01*
X65462Y98842D01*
X64278D01*
X63696Y99424D01*
Y99424D01*
X63696D01*
X63193Y100079D01*
X62894Y100802D01*
Y105905D01*
X61697D01*
X61572Y106534D01*
Y106625D01*
X61588Y106752D01*
X61572D01*
Y114882D01*
X61587D01*
X61576Y114973D01*
X61710Y115650D01*
X62927D01*
Y121161D01*
X57808D01*
D01*
D01*
X57808Y121161D01*
X57349D01*
Y121161D01*
X56133D01*
X55998Y121838D01*
X56010Y121929D01*
X55994D01*
Y121982D01*
X55994Y121982D01*
X55903Y122442D01*
X55642Y122833D01*
X54395Y124080D01*
X54004Y124341D01*
X53543Y124433D01*
X53543Y124433D01*
X32436D01*
X32245Y124894D01*
X33846Y126496D01*
X34058D01*
X34843Y126340D01*
Y125098D01*
X39961D01*
Y126512D01*
X40638Y126646D01*
X40728Y126634D01*
Y126650D01*
X47526D01*
Y126634D01*
X47617Y126646D01*
X48294Y126512D01*
Y125098D01*
X53412D01*
Y126512D01*
X54089Y126646D01*
X54180Y126634D01*
Y126650D01*
X60978D01*
Y126634D01*
X61068Y126646D01*
X61745Y126512D01*
Y125098D01*
X66864D01*
Y126512D01*
X67541Y126646D01*
X67631Y126634D01*
Y126650D01*
X74429D01*
Y126634D01*
D02*
G37*
G36*
X20704Y123459D02*
X20704Y123459D01*
X21094Y123198D01*
X21555Y123107D01*
X26750D01*
X27068Y122720D01*
X27044Y122601D01*
X27044Y122601D01*
Y113212D01*
X11431D01*
Y113213D01*
X10908Y113317D01*
X10495Y113592D01*
X10474Y113624D01*
X9823Y114059D01*
X9055Y114212D01*
X8287Y114059D01*
X7636Y113624D01*
X7201Y112973D01*
X7048Y112205D01*
X7201Y111437D01*
X7636Y110785D01*
X8287Y110350D01*
X9055Y110198D01*
X9823Y110350D01*
X10461Y110777D01*
X10478Y110777D01*
X10478D01*
X10481Y110777D01*
D01*
D01*
Y110777D01*
Y110777D01*
X10482Y110777D01*
X10481Y110779D01*
Y110779D01*
X10481Y110779D01*
X10481Y110795D01*
X10486Y110804D01*
X11361D01*
X11431Y110794D01*
Y110804D01*
X28150D01*
X28150Y110804D01*
X28330Y110840D01*
X28717Y110522D01*
Y101083D01*
X28717Y101083D01*
X28809Y100622D01*
X29070Y100231D01*
X30152Y99148D01*
X30152Y99148D01*
X30543Y98887D01*
X30543Y98887D01*
X30543Y98887D01*
D01*
X30543Y98887D01*
X30543Y98887D01*
X31004Y98796D01*
X31004Y98796D01*
X33638D01*
Y75499D01*
X30604Y72464D01*
X17728D01*
X17267Y72372D01*
X16877Y72111D01*
X16877Y72111D01*
X12038Y67273D01*
X4903D01*
X3509Y68666D01*
X3118Y68928D01*
X2657Y69019D01*
X2657Y69019D01*
X0D01*
X0Y69019D01*
X-461Y68928D01*
X-852Y68666D01*
X-1836Y67682D01*
X-2097Y67291D01*
X-2189Y66831D01*
X-2189Y66831D01*
Y65871D01*
X-2313Y65246D01*
X-2653Y64737D01*
X-2699Y64707D01*
X-3101Y64104D01*
X-3601Y64129D01*
X-3984Y64846D01*
X-4484Y66495D01*
X-4611Y67779D01*
Y84252D01*
X-4672Y84559D01*
X-4846Y84820D01*
X-5928Y85902D01*
X-6189Y86076D01*
X-6496Y86137D01*
X-13583D01*
X-13890Y86076D01*
X-14150Y85902D01*
X-14150Y85902D01*
X-15036Y85017D01*
X-15210Y84756D01*
X-15271Y84449D01*
Y59584D01*
X-15513Y59343D01*
X-15687Y59083D01*
X-15748Y58775D01*
Y58741D01*
X-15862Y58661D01*
X-15862Y58661D01*
Y58661D01*
D01*
X-16169Y58600D01*
X-16349Y58480D01*
X-31929D01*
X-32236Y58419D01*
X-32497Y58245D01*
X-32539Y58203D01*
X-33036Y58252D01*
X-33062Y58290D01*
X-33092Y58363D01*
X-33148Y58419D01*
X-33192Y58485D01*
X-33258Y58529D01*
X-33314Y58585D01*
X-33336Y58594D01*
X-33451Y58671D01*
X-33465Y58741D01*
Y66748D01*
X-33526Y67055D01*
X-33700Y67315D01*
X-33700Y67315D01*
X-33980Y67595D01*
X-34240Y67769D01*
X-34547Y67830D01*
X-39356D01*
X-40423Y68898D01*
X-40151Y69170D01*
X-38583D01*
Y68405D01*
X-35039D01*
Y72342D01*
X-38583D01*
Y71578D01*
X-40650D01*
X-41110Y71487D01*
X-41501Y71226D01*
X-41837Y70889D01*
X-46497D01*
X-46595Y71380D01*
X-45293Y71919D01*
X-43840Y72809D01*
X-42544Y73916D01*
X-41437Y75212D01*
X-40547Y76665D01*
X-39895Y78239D01*
X-39497Y79896D01*
X-39363Y81595D01*
X-39370D01*
Y90650D01*
X-39351D01*
X-39533Y92038D01*
X-40069Y93331D01*
X-40921Y94441D01*
X-42031Y95293D01*
X-43324Y95829D01*
X-44712Y96011D01*
Y95992D01*
X-55735D01*
Y96011D01*
X-57123Y95829D01*
X-58416Y95293D01*
X-59526Y94441D01*
X-60378Y93331D01*
X-60913Y92038D01*
X-61096Y90650D01*
X-61077D01*
Y81595D01*
X-61084D01*
X-60950Y79896D01*
X-60552Y78239D01*
X-59900Y76665D01*
X-59009Y75212D01*
X-57903Y73916D01*
X-56607Y72809D01*
X-55154Y71919D01*
X-53852Y71380D01*
X-53950Y70889D01*
X-72030D01*
X-72221Y71351D01*
X-70713Y72860D01*
X-70713Y72860D01*
X-70452Y73250D01*
X-70360Y73711D01*
Y94383D01*
X-67916Y96827D01*
X-38257D01*
X-36740Y95310D01*
X-36740Y95310D01*
X-36349Y95049D01*
X-36349Y95049D01*
X-36349Y95049D01*
D01*
X-36349Y95049D01*
X-36349Y95049D01*
X-35888Y94957D01*
X-192D01*
X7471Y87295D01*
X8030Y86459D01*
X7594Y85807D01*
X7442Y85039D01*
X7594Y84271D01*
X8030Y83620D01*
X8681Y83185D01*
X9449Y83032D01*
X10217Y83185D01*
X10868Y83620D01*
X10883Y83643D01*
X11373Y83740D01*
X11891Y83394D01*
X12659Y83241D01*
X13428Y83394D01*
X13613Y83518D01*
X14104Y83421D01*
X14428Y82935D01*
X15079Y82500D01*
X15847Y82347D01*
X16615Y82500D01*
X17266Y82935D01*
X17702Y83586D01*
X17854Y84355D01*
X17822Y84516D01*
X18012Y84706D01*
X18780Y84858D01*
X19431Y85293D01*
X19528Y85438D01*
X20018Y85536D01*
X20590Y85154D01*
X21358Y85001D01*
X22126Y85154D01*
X22777Y85589D01*
X23213Y86240D01*
X23365Y87008D01*
X23213Y87776D01*
X22777Y88427D01*
X22126Y88862D01*
X21702Y88947D01*
X21153Y89495D01*
X21137Y89516D01*
X21135Y89513D01*
X20383Y90265D01*
X19927Y90570D01*
X19390Y90677D01*
X18988D01*
X8668Y100996D01*
X4635Y105029D01*
X4179Y105333D01*
X3642Y105440D01*
X-19300D01*
X-20224Y106364D01*
X-20224Y106364D01*
X-20224Y106364D01*
X-20243Y106384D01*
X-20721Y107006D01*
X-21032Y107757D01*
X-21138Y108559D01*
X-21134Y108563D01*
X-21134D01*
X-21161Y108699D01*
Y110728D01*
X-27657D01*
Y109968D01*
X-28362D01*
Y110319D01*
X-32299D01*
Y110292D01*
X-32592Y110052D01*
X-33044Y110265D01*
Y112011D01*
X-33034D01*
X-33040Y112054D01*
X-32991Y112303D01*
X-31890D01*
Y117815D01*
X-34313D01*
X-34449Y117842D01*
Y117842D01*
X-34463Y117831D01*
X-35190Y117975D01*
X-35757Y118354D01*
X-37294Y119891D01*
X-37750Y120196D01*
X-38287Y120303D01*
X-40461D01*
X-40557Y120398D01*
Y121752D01*
X-35827D01*
Y123467D01*
X-35434Y123768D01*
X-34107Y124317D01*
X-32836Y124485D01*
X-12670D01*
X-12525Y124006D01*
X-12829Y123803D01*
X-13286Y123119D01*
X-13446Y122313D01*
X-13286Y121507D01*
X-12829Y120823D01*
X-12145Y120366D01*
X-11339Y120206D01*
X-10532Y120366D01*
X-9848Y120823D01*
X-9497Y121348D01*
X-9007Y121446D01*
X-8760Y121281D01*
X-7992Y121128D01*
X-7224Y121281D01*
X-6573Y121716D01*
X-6138Y122367D01*
X-5985Y123135D01*
X-6138Y123903D01*
X-6573Y124555D01*
X-7224Y124990D01*
X-7992Y125142D01*
X-7839Y125295D01*
X-3248D01*
Y125827D01*
X-2582D01*
Y115551D01*
X-2582Y115551D01*
X-2490Y115090D01*
X-2230Y114700D01*
X-852Y113322D01*
X-852Y113322D01*
X-461Y113061D01*
X-461Y113061D01*
X-461Y113061D01*
D01*
X-461Y113061D01*
X-461Y113061D01*
X0Y112969D01*
X0Y112969D01*
X1052D01*
Y112966D01*
Y112955D01*
X1313Y112903D01*
X1531Y112758D01*
X1534Y112754D01*
X2185Y112319D01*
X2953Y112166D01*
X3721Y112319D01*
X4372Y112754D01*
X4807Y113405D01*
X4960Y114173D01*
X4807Y114941D01*
X4372Y115592D01*
X3721Y116027D01*
X2953Y116180D01*
X2185Y116027D01*
X1534Y115592D01*
X1531Y115589D01*
X1313Y115443D01*
X1052Y115391D01*
Y115377D01*
X499D01*
X-174Y116050D01*
Y119000D01*
X216Y119209D01*
X984Y119056D01*
X1752Y119209D01*
X2403Y119644D01*
X2839Y120295D01*
X2991Y121063D01*
X2991Y121067D01*
X3042Y121324D01*
X3190Y121546D01*
X3180Y121556D01*
X3180Y121556D01*
X3411Y121786D01*
X3411Y121786D01*
X3672Y122177D01*
X3763Y122638D01*
X3763Y122638D01*
Y124622D01*
X5022D01*
Y124604D01*
X5136Y124619D01*
X5512Y124289D01*
Y124252D01*
X9627D01*
X9927Y123803D01*
X9470Y123119D01*
X9310Y122313D01*
X9470Y121507D01*
X9927Y120823D01*
X10611Y120366D01*
X11417Y120206D01*
X12224Y120366D01*
X12908Y120823D01*
X13364Y121507D01*
X13525Y122313D01*
X13364Y123119D01*
X12908Y123803D01*
X12224Y124260D01*
X11417Y124420D01*
X10623Y124262D01*
X10593Y124287D01*
X10236Y124821D01*
Y130945D01*
D01*
Y130945D01*
X10370Y131079D01*
X13084D01*
X20704Y123459D01*
D02*
G37*
G36*
X-45680Y133472D02*
Y130020D01*
X-44521D01*
X-44423Y129528D01*
Y129156D01*
X-44442Y129014D01*
X-44423D01*
Y128452D01*
X-46070Y126804D01*
X-54085D01*
X-54085Y126804D01*
X-54546Y126713D01*
X-54936Y126452D01*
X-55968Y125419D01*
X-55968Y125419D01*
X-55978Y125429D01*
X-56200Y125281D01*
X-56461Y125229D01*
Y125215D01*
X-56577Y125192D01*
X-56715D01*
X-56906Y125654D01*
X-54725Y127835D01*
X-54421Y128291D01*
X-54314Y128828D01*
X-54314Y128828D01*
X-54314Y128828D01*
Y128828D01*
Y130697D01*
X-53641Y131371D01*
X-49016D01*
X-48478Y131478D01*
X-48022Y131782D01*
X-48022Y131782D01*
X-48022Y131782D01*
X-46141Y133663D01*
X-45680Y133472D01*
D02*
G37*
G36*
X-28900Y141805D02*
X-29932Y141492D01*
X-30992Y140925D01*
X-31921Y140163D01*
X-32684Y139234D01*
X-33251Y138173D01*
X-33600Y137023D01*
X-33718Y135827D01*
X-33600Y134631D01*
X-33251Y133480D01*
X-32684Y132420D01*
X-31921Y131491D01*
X-30992Y130728D01*
X-29932Y130162D01*
X-28782Y129813D01*
X-28232Y129759D01*
X-28257Y129259D01*
X-35969D01*
X-37276Y130567D01*
Y134252D01*
X-37383Y134790D01*
X-37688Y135245D01*
X-39164Y136722D01*
X-39620Y137026D01*
X-40157Y137133D01*
X-46063D01*
X-46601Y137026D01*
X-47056Y136722D01*
X-49154Y134624D01*
X-49617Y134815D01*
Y139075D01*
X-55128D01*
Y136632D01*
X-55151Y136516D01*
X-55160D01*
X-55231Y136162D01*
X-55431Y135862D01*
X-55425Y135855D01*
X-55726Y135555D01*
X-56558D01*
Y136122D01*
X-60495D01*
D01*
D01*
X-60495Y136122D01*
X-60804D01*
Y136122D01*
X-64249D01*
Y139659D01*
X-61607Y142300D01*
X-28973D01*
X-28900Y141805D01*
D02*
G37*
G36*
X33776Y141910D02*
X33623Y141142D01*
X33776Y140374D01*
X34211Y139723D01*
X34214Y139720D01*
X34360Y139502D01*
X34412Y139241D01*
X34426D01*
Y135046D01*
Y134350D01*
Y132782D01*
X34385Y132741D01*
X33647Y132003D01*
X27159Y125515D01*
X22054D01*
X14434Y133135D01*
X14043Y133396D01*
X13583Y133488D01*
X13583Y133488D01*
X6877D01*
Y133496D01*
X6797Y133488D01*
X4976D01*
Y133503D01*
X4856Y133488D01*
X4429D01*
Y138032D01*
X-295D01*
Y133307D01*
X-295D01*
Y133267D01*
X-649Y132913D01*
X-2657D01*
Y133307D01*
X-2657D01*
Y138032D01*
X-7382D01*
Y133307D01*
X-6890D01*
Y133071D01*
X-6890D01*
Y129232D01*
X-9018D01*
X-9153Y129259D01*
X-10428D01*
X-10464Y129264D01*
Y129259D01*
X-26914D01*
X-26939Y129759D01*
X-26389Y129813D01*
X-25239Y130162D01*
X-24179Y130728D01*
X-23250Y131491D01*
X-22487Y132420D01*
X-21920Y133480D01*
X-21572Y134631D01*
X-21454Y135827D01*
X-21572Y137023D01*
X-21920Y138173D01*
X-22487Y139234D01*
X-23250Y140163D01*
X-24179Y140925D01*
X-25239Y141492D01*
X-26271Y141805D01*
X-26198Y142300D01*
X1316D01*
X1316Y142300D01*
X1316Y142300D01*
X26145D01*
X26218Y141805D01*
X25186Y141492D01*
X24126Y140925D01*
X23197Y140163D01*
X22434Y139234D01*
X21867Y138173D01*
X21519Y137023D01*
X21401Y135827D01*
X21519Y134631D01*
X21867Y133480D01*
X22434Y132420D01*
X23197Y131491D01*
X24126Y130728D01*
X25186Y130162D01*
X26336Y129813D01*
X27533Y129695D01*
X28729Y129813D01*
X29879Y130162D01*
X30939Y130728D01*
X31868Y131491D01*
X32631Y132420D01*
X33198Y133480D01*
X33547Y134631D01*
X33665Y135827D01*
X33547Y137023D01*
X33198Y138173D01*
X32631Y139234D01*
X31868Y140163D01*
X30939Y140925D01*
X29879Y141492D01*
X28847Y141805D01*
X28920Y142300D01*
X33567D01*
X33776Y141910D01*
D02*
G37*
G36*
X34563Y64941D02*
X34410Y64173D01*
X34563Y63405D01*
X34998Y62754D01*
X35649Y62319D01*
X35554Y61838D01*
X25582D01*
X25125Y62295D01*
Y62428D01*
X25148Y62450D01*
X25148Y62450D01*
X25149Y62452D01*
X25149D01*
X25149Y62472D01*
X25575Y63110D01*
X25727Y63878D01*
X25575Y64646D01*
X25140Y65297D01*
X25150Y65331D01*
X34355D01*
X34563Y64941D01*
D02*
G37*
G36*
X61770Y90313D02*
X61773Y90311D01*
X61919Y90093D01*
X61971Y89831D01*
X61985D01*
Y73137D01*
X59737Y70889D01*
X53897D01*
X53799Y71380D01*
X55101Y71919D01*
X56554Y72809D01*
X57850Y73916D01*
X58956Y75212D01*
X59847Y76665D01*
X60499Y78239D01*
X60897Y79896D01*
X61031Y81595D01*
X61024D01*
Y90568D01*
X61492Y90710D01*
X61504Y90711D01*
X61770Y90313D01*
D02*
G37*
G36*
X-153195Y47412D02*
X-153163Y47361D01*
X-153162Y47355D01*
X-153125Y47300D01*
X-152947Y47013D01*
X-152929Y46994D01*
X-152929D01*
X-151569Y45537D01*
X-151552Y45524D01*
X-151541Y45507D01*
X-151362Y45388D01*
X-151188Y45262D01*
X-151167Y45257D01*
X-151150Y45246D01*
X-150940Y45204D01*
X-150731Y45155D01*
X-150710Y45158D01*
X-150689Y45154D01*
X-109259D01*
X-108192Y44088D01*
Y43209D01*
X-112303D01*
D01*
D01*
X-112303Y43209D01*
X-112500D01*
Y43209D01*
X-116043D01*
Y39573D01*
X-116126Y39449D01*
X-116279Y38681D01*
X-116126Y37913D01*
X-115691Y37262D01*
X-115687Y37260D01*
X-115665Y37227D01*
Y34563D01*
X-119571D01*
Y34547D01*
X-123425D01*
Y31004D01*
X-123184D01*
X-123060Y30875D01*
Y30875D01*
X-123060D01*
D01*
D01*
X-123055Y30875D01*
Y30366D01*
X-123071Y30366D01*
D01*
D01*
X-123071D01*
Y30366D01*
X-123402Y30020D01*
X-123484D01*
Y25295D01*
X-116791D01*
Y30020D01*
X-119964D01*
X-120100Y30196D01*
X-120262Y30588D01*
X-119984Y31004D01*
X-119488D01*
Y31020D01*
X-115665D01*
Y30890D01*
X-111728D01*
Y30906D01*
X-111516D01*
Y30906D01*
X-107579D01*
Y34449D01*
Y35016D01*
X-103255D01*
X-101007Y32769D01*
Y21881D01*
X-101021D01*
X-101073Y21620D01*
X-101219Y21402D01*
X-101222Y21399D01*
X-101657Y20748D01*
X-101810Y19980D01*
X-101693Y19390D01*
X-102010Y19004D01*
X-114467D01*
X-114658Y19466D01*
X-114075Y20048D01*
X-114075Y20048D01*
X-114066Y20039D01*
X-113844Y20187D01*
X-113583Y20239D01*
Y20253D01*
X-113466Y20276D01*
X-108268D01*
Y24213D01*
X-109164D01*
X-109399Y24518D01*
X-109548Y24880D01*
X-109271Y25295D01*
X-107776D01*
Y30020D01*
X-114469D01*
Y25295D01*
X-112419D01*
X-112349Y24947D01*
X-112641Y24540D01*
X-115128Y24213D01*
X-115354D01*
Y22224D01*
X-115388Y22141D01*
X-115760Y21770D01*
X-115781Y21754D01*
X-115778Y21751D01*
X-117977Y19552D01*
X-118239Y19162D01*
X-118330Y18701D01*
X-118330Y18701D01*
Y-11481D01*
X-118330Y-11481D01*
X-118239Y-11942D01*
X-117977Y-12333D01*
X-116940Y-13371D01*
X-116940Y-13371D01*
X-116706Y-13527D01*
X-116549Y-13632D01*
X-116088Y-13723D01*
X-68031D01*
X-68031Y-13724D01*
X-67896Y-13697D01*
X-63488D01*
X-63428Y-13685D01*
X-63367Y-13687D01*
X-58086Y-12884D01*
X-57046Y-12789D01*
X-56930Y-12755D01*
X-56901Y-12749D01*
X-56867Y-12747D01*
X-56852Y-12739D01*
X-56812Y-12731D01*
X-56768Y-12713D01*
X-56751Y-12702D01*
X-56746Y-12700D01*
X-56731Y-12689D01*
X-56681Y-12655D01*
X-56586Y-12608D01*
X-55959Y-12127D01*
X-55890Y-12048D01*
X-55811Y-11979D01*
X-55330Y-11352D01*
X-55284Y-11258D01*
X-55225Y-11171D01*
X-54923Y-10440D01*
X-54902Y-10338D01*
X-54869Y-10238D01*
X-54804Y-9744D01*
X-54782Y-9658D01*
X-54785Y-9639D01*
X-54781Y-9620D01*
Y-2023D01*
X-54689Y-1319D01*
X-54430Y-695D01*
X-54020Y-160D01*
X-53484Y251D01*
X-52861Y509D01*
X-52155Y602D01*
X-15157D01*
X-14850Y663D01*
X-14756Y726D01*
X-14662Y663D01*
X-14355Y602D01*
X814D01*
X814Y602D01*
X1122Y663D01*
X1382Y837D01*
X1636Y1091D01*
X1651Y1085D01*
X1847Y1004D01*
X1847D01*
X1847Y1004D01*
X2422Y890D01*
X2465D01*
X2506Y878D01*
X5498Y605D01*
X5535Y609D01*
X5571Y602D01*
X15145D01*
X15260Y625D01*
X15378Y637D01*
X16572Y999D01*
X16696Y1066D01*
X16925Y837D01*
X17186Y663D01*
X17493Y602D01*
X52148D01*
X52841Y511D01*
X53448Y259D01*
X53969Y-140D01*
X54085Y-292D01*
X54125Y-327D01*
X54155Y-371D01*
X54242Y-429D01*
X54321Y-498D01*
X54371Y-515D01*
X54415Y-545D01*
X54518Y-565D01*
X54618Y-599D01*
X54670Y-596D01*
X54722Y-606D01*
X55610D01*
X55918Y-545D01*
X56178Y-371D01*
X56178Y-371D01*
X58048Y1499D01*
X58048Y1499D01*
X58456Y1907D01*
X58955Y1875D01*
X59372Y1332D01*
X59712Y509D01*
X59826Y-356D01*
Y-11259D01*
X59826Y-11259D01*
X59918Y-11720D01*
X60179Y-12111D01*
X61264Y-13196D01*
X61655Y-13457D01*
X61924Y-13511D01*
X61917Y-13553D01*
X63722Y-13827D01*
X69529Y-15074D01*
X75250Y-16669D01*
X80864Y-18606D01*
X86351Y-20879D01*
X91690Y-23479D01*
X96863Y-26396D01*
X101850Y-29621D01*
X106634Y-33140D01*
X111196Y-36942D01*
X111429Y-37162D01*
X111431Y-37160D01*
X111551Y-37240D01*
X111570Y-37269D01*
X111961Y-37530D01*
X112422Y-37622D01*
X117032D01*
X117240Y-38012D01*
X117087Y-38780D01*
X117191Y-39301D01*
X116874Y-39687D01*
X76989D01*
X73389Y-35863D01*
X68824Y-31566D01*
X64008Y-27552D01*
X58958Y-23837D01*
X53693Y-20433D01*
X48232Y-17353D01*
X42596Y-14608D01*
X36804Y-12209D01*
X30877Y-10164D01*
X24838Y-8480D01*
X18708Y-7165D01*
X12510Y-6221D01*
X6267Y-5654D01*
X0Y-5465D01*
X-6267Y-5654D01*
X-12510Y-6221D01*
X-18708Y-7165D01*
X-24838Y-8480D01*
X-30877Y-10164D01*
X-36804Y-12209D01*
X-42596Y-14608D01*
X-48232Y-17353D01*
X-53693Y-20433D01*
X-58958Y-23837D01*
X-64008Y-27552D01*
X-68824Y-31566D01*
X-73389Y-35863D01*
X-76897Y-39590D01*
X-76894Y-39593D01*
X-77160Y-39991D01*
X-77179Y-40087D01*
X-159490D01*
X-159807Y-38676D01*
X-161180Y-30762D01*
X-162163Y-22789D01*
X-162754Y-14779D01*
X-162952Y-6748D01*
X-162754Y1282D01*
X-162163Y9292D01*
X-161180Y17265D01*
X-159807Y25179D01*
X-158047Y33016D01*
X-155905Y40758D01*
X-153693Y47452D01*
X-153195Y47412D01*
D02*
G37*
G36*
X102657Y66240D02*
X108559D01*
X108915Y65707D01*
X109567Y65272D01*
X110335Y65119D01*
X111103Y65272D01*
X111754Y65707D01*
X112189Y66358D01*
X112243Y66631D01*
X112722Y66776D01*
X113363Y66135D01*
Y59616D01*
X112976Y59298D01*
X112598Y59373D01*
X112598Y59373D01*
X109719D01*
Y60138D01*
X102969D01*
X102776Y60176D01*
X102007Y60024D01*
X101356Y59588D01*
X100921Y58937D01*
X100768Y58169D01*
X100921Y57401D01*
X101356Y56750D01*
X102007Y56315D01*
X102776Y56162D01*
X102969Y56201D01*
X109719D01*
Y56965D01*
X111788D01*
Y50094D01*
X111398Y49886D01*
X110630Y50038D01*
X109862Y49886D01*
X109744Y50098D01*
Y50098D01*
X106175D01*
Y50590D01*
X106175D01*
Y54527D01*
X102969D01*
X102776Y54566D01*
X102007Y54413D01*
X101356Y53978D01*
X100921Y53327D01*
X100768Y52559D01*
X100921Y51791D01*
X101356Y51140D01*
X101437Y51086D01*
X101162Y50673D01*
X100394Y50826D01*
X100389Y50825D01*
X100132Y50876D01*
X99911Y51024D01*
X99901Y51015D01*
X99901Y51015D01*
X99039Y51877D01*
Y60131D01*
X99704Y60796D01*
X99704Y60796D01*
X99707Y60794D01*
X99714Y60787D01*
X99936Y60935D01*
X100193Y60986D01*
X100197Y60985D01*
X100965Y61138D01*
X101616Y61573D01*
X102051Y62224D01*
X102204Y62992D01*
X102051Y63760D01*
X101616Y64411D01*
X100965Y64846D01*
X100197Y64999D01*
X99429Y64846D01*
X98778Y64411D01*
X98343Y63760D01*
X98190Y62992D01*
X98191Y62988D01*
X98140Y62731D01*
X97991Y62509D01*
X97999Y62502D01*
X98001Y62499D01*
X98001Y62499D01*
X97631Y62129D01*
X97169Y62320D01*
Y65453D01*
X97169Y65453D01*
X97077Y65914D01*
X96816Y66304D01*
X96381Y66739D01*
X96572Y67201D01*
X102657D01*
Y66240D01*
D02*
G37*
G36*
X-72769Y74210D02*
X-74515Y72464D01*
X-92384D01*
X-92385Y72464D01*
X-92845Y72372D01*
X-93236Y72111D01*
X-93236Y72111D01*
X-93868Y71480D01*
X-94992D01*
X-95209Y71886D01*
X-95056Y72654D01*
X-95209Y73422D01*
X-95644Y74073D01*
X-95647Y74075D01*
X-95793Y74293D01*
X-95845Y74555D01*
X-95859D01*
Y75575D01*
X-95095D01*
Y75591D01*
X-92234D01*
X-92053Y75536D01*
X-90648Y74784D01*
X-90158Y74382D01*
Y73032D01*
X-84646D01*
Y78150D01*
X-87594D01*
X-88208Y78404D01*
X-88834Y78487D01*
X-89157Y78551D01*
X-89158Y78551D01*
X-89323D01*
X-89461Y78569D01*
Y78551D01*
X-91165D01*
Y79134D01*
Y79701D01*
X-90059D01*
X-90059Y79701D01*
X-89598Y79793D01*
X-89208Y80054D01*
X-89170Y80091D01*
X-89146D01*
X-89146D01*
X-89064Y80197D01*
X-88931Y80330D01*
X-88931Y80330D01*
X-88931Y80330D01*
X-88897Y80364D01*
X-88323Y80748D01*
X-87608Y80890D01*
X-87598Y80882D01*
Y80882D01*
X-87482Y80905D01*
X-84646D01*
Y83404D01*
X-84623Y83515D01*
X-84631Y83552D01*
X-84625Y83560D01*
X-84625D01*
X-84641Y83640D01*
X-84475Y84475D01*
X-84045Y85118D01*
X-83991Y85172D01*
X-83991Y85172D01*
X-83730Y85563D01*
X-83658Y85925D01*
X-79528D01*
Y85925D01*
X-79528D01*
X-79528Y85925D01*
X-79134D01*
Y85925D01*
X-78566D01*
Y83783D01*
X-78682Y82907D01*
X-79022Y82087D01*
X-80709D01*
Y76968D01*
X-75197D01*
Y82087D01*
X-76158D01*
Y83752D01*
X-76153Y83805D01*
X-76158D01*
Y85925D01*
X-72769D01*
Y74210D01*
D02*
G37*
G36*
X53524Y121545D02*
X53447Y121161D01*
X52231D01*
Y115650D01*
X54803D01*
X54898Y115631D01*
X54962Y115643D01*
X54993Y115620D01*
Y115620D01*
X55129Y115647D01*
X55800Y115513D01*
X56276Y115195D01*
Y106476D01*
X56021Y106281D01*
X55396Y106022D01*
X54724Y105933D01*
Y105929D01*
X54608Y105905D01*
X52165D01*
Y100811D01*
X50499D01*
X50193Y101116D01*
X50197Y101119D01*
X49785Y101656D01*
X49526Y102282D01*
X49437Y102953D01*
X49433D01*
X49409Y103069D01*
Y105905D01*
X48232D01*
X48120Y106465D01*
Y106697D01*
X48138Y106832D01*
X48120D01*
Y114882D01*
X48136D01*
X48124Y114973D01*
X48259Y115650D01*
X49475D01*
Y121161D01*
X44357D01*
D01*
D01*
X44357Y121161D01*
X43898D01*
Y121161D01*
X38780D01*
Y115650D01*
X41222D01*
X41339Y115626D01*
Y115622D01*
X41785Y115533D01*
X42164Y115280D01*
X42167Y115283D01*
X42167Y115283D01*
X42595Y114856D01*
Y106307D01*
X42250Y106076D01*
X41415Y105910D01*
X41335Y105926D01*
Y105926D01*
X41328Y105920D01*
X41291Y105928D01*
X41179Y105905D01*
X38681D01*
Y103714D01*
X38612Y103610D01*
X38520Y103150D01*
X38612Y102689D01*
X38618Y102680D01*
X38510Y102135D01*
X38098Y101519D01*
X38047Y101479D01*
D01*
X38025Y101463D01*
D01*
D01*
D01*
D01*
D01*
X38025D01*
D01*
X38018Y101462D01*
X38013Y101461D01*
D01*
X38013D01*
D01*
D01*
X38013D01*
X37530Y101642D01*
X37269Y102033D01*
X37269Y102033D01*
X36924Y102377D01*
X36924Y102377D01*
X36925Y102378D01*
X36918Y102383D01*
X36856Y102445D01*
X36864Y102453D01*
X36794Y102507D01*
X36285Y103017D01*
X36241Y103046D01*
X36211Y103090D01*
X36211Y103089D01*
X35925Y103308D01*
Y105905D01*
X34767D01*
X34669Y106397D01*
Y106769D01*
X34688Y106911D01*
X34669D01*
Y114882D01*
X34685D01*
X34673Y114973D01*
X34807Y115650D01*
X36024D01*
Y121161D01*
X31392D01*
X31200Y121623D01*
X31601Y122024D01*
X53044D01*
X53524Y121545D01*
D02*
G37*
G36*
X-71281Y109250D02*
Y106283D01*
X-71281D01*
Y102740D01*
X-69827D01*
X-69105Y102018D01*
X-69089Y101997D01*
X-69089D01*
X-69084D01*
X-68359Y101272D01*
X-68551Y100811D01*
X-69291D01*
X-69291Y100811D01*
X-69752Y100719D01*
X-70143Y100458D01*
X-70143Y100458D01*
X-74670Y95930D01*
X-74817Y95711D01*
X-75295Y95856D01*
Y100062D01*
X-80807D01*
Y94944D01*
X-80755D01*
X-80564Y94482D01*
X-81306Y93739D01*
X-81768Y93930D01*
Y102489D01*
X-77716Y106541D01*
X-77094Y106957D01*
X-76306Y107114D01*
X-76293Y107103D01*
Y107103D01*
X-76176Y107126D01*
X-73930D01*
Y109176D01*
X-73491Y109263D01*
X-73441Y109256D01*
Y109268D01*
X-72372D01*
X-72372Y109268D01*
X-71911Y109360D01*
X-71722Y109486D01*
X-71281Y109250D01*
D02*
G37*
G36*
X69231Y139292D02*
X76024Y135711D01*
X82644Y131821D01*
X89077Y127629D01*
X95310Y123145D01*
X101329Y118377D01*
X107121Y113337D01*
X112675Y108034D01*
X117977Y102480D01*
X123018Y96688D01*
X127785Y90669D01*
X132270Y84436D01*
X136462Y78003D01*
X140352Y71383D01*
X141904Y68438D01*
Y68438D01*
D01*
D01*
X141939Y68357D01*
X141749Y67894D01*
X141729Y67886D01*
X141741Y67863D01*
X117020Y55540D01*
X116867Y55422D01*
X116706Y55314D01*
X116233Y54841D01*
X115771Y55033D01*
Y66634D01*
X115771Y66634D01*
X115679Y67095D01*
X115418Y67486D01*
X115418Y67486D01*
X111088Y71816D01*
X110697Y72077D01*
X110236Y72169D01*
X110236Y72169D01*
X95479D01*
X94807Y72841D01*
Y75586D01*
X95223Y75864D01*
X95899Y75584D01*
X96824Y75463D01*
X97749Y75584D01*
X98611Y75941D01*
X99351Y76509D01*
X99919Y77249D01*
X100276Y78111D01*
X100398Y79036D01*
X100276Y79961D01*
X99919Y80823D01*
X99351Y81564D01*
X98611Y82131D01*
X97749Y82489D01*
X96824Y82610D01*
X95899Y82489D01*
X95037Y82131D01*
X94297Y81564D01*
X93729Y80823D01*
X93372Y79961D01*
X93265Y79151D01*
X92792Y78990D01*
X88450Y83332D01*
X88059Y83593D01*
X87598Y83685D01*
X87598Y83685D01*
X76975D01*
X76696Y83963D01*
Y92611D01*
X77762Y93678D01*
X82086D01*
X82086Y93677D01*
X82547Y93769D01*
X82938Y94030D01*
X86186Y97278D01*
X86447Y97669D01*
X86539Y98130D01*
X86539Y98130D01*
X86539Y98130D01*
Y98130D01*
Y121457D01*
X86539Y121457D01*
X86539Y121457D01*
Y121457D01*
X86539D01*
X86539Y121457D01*
X86447Y121917D01*
X86343Y122074D01*
X86186Y122308D01*
X86186Y122308D01*
X84218Y124277D01*
X83827Y124538D01*
X83366Y124629D01*
X83366Y124629D01*
X80315D01*
Y125098D01*
X80315D01*
Y130610D01*
X75197D01*
Y129197D01*
X74520Y129062D01*
X74429Y129074D01*
Y129059D01*
X67631D01*
Y129074D01*
X67541Y129062D01*
X66864Y129197D01*
Y130610D01*
X61745D01*
Y129197D01*
X61068Y129062D01*
X60978Y129074D01*
Y129059D01*
X54180D01*
Y129074D01*
X54089Y129062D01*
X53412Y129197D01*
Y130610D01*
X48294D01*
Y129197D01*
X47617Y129062D01*
X47526Y129074D01*
Y129059D01*
X40728D01*
Y129074D01*
X40638Y129062D01*
X39961Y129197D01*
Y130610D01*
X36313D01*
X36122Y131072D01*
X36481Y131432D01*
X36742Y131823D01*
X36834Y132283D01*
X36834Y132283D01*
Y135046D01*
Y139241D01*
X36848D01*
X36900Y139502D01*
X37045Y139720D01*
X37049Y139723D01*
X37484Y140374D01*
X37637Y141142D01*
X37484Y141910D01*
X37693Y142300D01*
X62824D01*
X69231Y139292D01*
D02*
G37*
G36*
X46850Y100371D02*
Y100371D01*
X46855Y100374D01*
X47483Y100250D01*
X47998Y99905D01*
X48015Y99888D01*
D01*
X48015D01*
Y99888D01*
X48015Y99888D01*
X48384Y99519D01*
X48476Y99399D01*
X48490Y99413D01*
X49148Y98755D01*
X49539Y98494D01*
X50000Y98402D01*
X50000Y98402D01*
X59085D01*
X62276Y95211D01*
X62276Y95211D01*
X62666Y94950D01*
X62666Y94950D01*
X62666Y94950D01*
D01*
X62666Y94950D01*
X62666Y94950D01*
X63127Y94859D01*
X68960D01*
X69436Y94383D01*
Y79495D01*
X69436Y79495D01*
X69528Y79034D01*
X69789Y78643D01*
X71724Y76708D01*
X71724Y76708D01*
X71959Y76551D01*
X72115Y76446D01*
X72576Y76355D01*
X84442D01*
X86985Y73812D01*
Y65177D01*
X82874D01*
Y65177D01*
X82658Y64846D01*
X81890Y64999D01*
X81122Y64846D01*
X80471Y64411D01*
X80036Y63760D01*
X79883Y62992D01*
X80036Y62224D01*
X80471Y61573D01*
X81122Y61138D01*
X81890Y60985D01*
X82658Y61138D01*
X82839Y61259D01*
X82874Y61240D01*
Y61240D01*
X82874Y61240D01*
X89961D01*
Y65177D01*
X89393D01*
Y69668D01*
X89855Y69859D01*
X93637Y66077D01*
D01*
X93637Y66077D01*
X94760Y64954D01*
Y49907D01*
X94760Y49907D01*
X94852Y49446D01*
X95113Y49056D01*
X98957Y45211D01*
X99348Y44950D01*
X99809Y44859D01*
X99809Y44859D01*
X100698D01*
X100934Y44418D01*
X100508Y43780D01*
X100355Y43012D01*
X100508Y42244D01*
X100943Y41593D01*
X101594Y41157D01*
X102362Y41005D01*
X103130Y41157D01*
X103781Y41593D01*
X103796Y41615D01*
X104024Y41709D01*
X104453D01*
X104501Y41703D01*
Y41709D01*
X111811D01*
X111811Y41709D01*
X112272Y41801D01*
X112663Y42062D01*
X112900Y42300D01*
X113363Y42109D01*
Y40656D01*
X112411Y39704D01*
X112077D01*
Y39708D01*
X112047Y39704D01*
X112001D01*
Y39719D01*
X111760Y39767D01*
X111558Y39902D01*
X111557Y39904D01*
X110906Y40339D01*
X110138Y40491D01*
X109370Y40339D01*
X109087Y40149D01*
X108646Y40385D01*
Y40468D01*
X105102D01*
Y36531D01*
X105102Y36531D01*
X105102D01*
X105172Y36364D01*
X104894Y35948D01*
X91522D01*
X90576Y36895D01*
X90185Y37156D01*
X89724Y37247D01*
X89724Y37247D01*
X86417D01*
Y40945D01*
D01*
Y40945D01*
X86516Y41043D01*
X89961D01*
Y44980D01*
X88305D01*
X88224Y44996D01*
X88217Y45022D01*
X88217Y45022D01*
X88192Y45032D01*
X88189Y45033D01*
D01*
X88189D01*
X88189D01*
D01*
D01*
X88170Y45026D01*
X87972Y45224D01*
X87966Y45232D01*
X87966Y45232D01*
X87965Y45232D01*
X86675Y46521D01*
X86540Y46611D01*
X86417Y46693D01*
Y50000D01*
X82928D01*
X82918Y50007D01*
X82915Y50011D01*
X82264Y50445D01*
X82225Y50453D01*
X82261Y50637D01*
X82732Y50805D01*
X82874Y50689D01*
Y50689D01*
X89961D01*
Y51512D01*
X90126Y51545D01*
X90517Y51806D01*
X91009Y52298D01*
X91270Y52689D01*
X91362Y53150D01*
X91362Y53150D01*
Y55579D01*
X91375D01*
X91427Y55841D01*
X91573Y56059D01*
X91577Y56061D01*
X92012Y56712D01*
X92164Y57480D01*
X92012Y58248D01*
X91577Y58899D01*
X90926Y59335D01*
X90158Y59487D01*
X89389Y59335D01*
X88738Y58899D01*
X88303Y58248D01*
X88150Y57480D01*
X88303Y56712D01*
X88738Y56061D01*
X88742Y56059D01*
X88888Y55841D01*
X88939Y55579D01*
X88953D01*
Y54626D01*
X82972D01*
X82284Y54763D01*
X81515Y54610D01*
X80864Y54175D01*
X80429Y53524D01*
X80276Y52756D01*
X80429Y51988D01*
X80864Y51337D01*
X81318Y51034D01*
X81220Y50543D01*
X80728Y50445D01*
X80077Y50011D01*
X79633Y50307D01*
Y60154D01*
X79633Y60154D01*
X79633Y60154D01*
Y60154D01*
X79633D01*
X79633Y60154D01*
X79542Y60614D01*
X79437Y60771D01*
X79281Y61005D01*
X79281Y61005D01*
X77229Y63056D01*
X76839Y63317D01*
X76378Y63409D01*
X76378Y63409D01*
X41651D01*
X41505Y63887D01*
X41577Y63935D01*
X42012Y64586D01*
X42165Y65354D01*
X42012Y66122D01*
X41577Y66773D01*
X41617Y66906D01*
X60888D01*
X60888Y66906D01*
X61349Y66998D01*
X61740Y67259D01*
X67387Y72906D01*
X67387Y72906D01*
X67648Y73296D01*
X67648Y73296D01*
X67648Y73296D01*
X67740Y73757D01*
X67740Y73757D01*
Y89831D01*
X67753D01*
X67805Y90093D01*
X67951Y90311D01*
X67955Y90313D01*
X68390Y90964D01*
X68542Y91732D01*
X68390Y92500D01*
X67955Y93151D01*
X67304Y93587D01*
X66535Y93739D01*
X65767Y93587D01*
X65116Y93151D01*
X65112Y93146D01*
X64612D01*
X64608Y93151D01*
X63957Y93587D01*
X63189Y93739D01*
X62421Y93587D01*
X61770Y93151D01*
X61335Y92500D01*
X61287Y92259D01*
X60789Y92210D01*
X60325Y93331D01*
X59473Y94441D01*
X58363Y95293D01*
X57070Y95829D01*
X55682Y96011D01*
Y95992D01*
X44659D01*
Y96011D01*
X43271Y95829D01*
X41978Y95293D01*
X40868Y94441D01*
X40064Y93393D01*
X39590Y93554D01*
Y99600D01*
X39740Y99749D01*
X39751Y99738D01*
X39806Y99810D01*
X40422Y100222D01*
X41226Y100382D01*
X41240Y100371D01*
Y100371D01*
X41357Y100394D01*
X43799D01*
Y100394D01*
X43799D01*
X43799Y100394D01*
X44291D01*
Y100394D01*
X46734D01*
X46850Y100371D01*
D02*
G37*
%LPC*%
G36*
X-9449Y53248D02*
X-12992D01*
Y51535D01*
X-13366Y51461D01*
X-14018Y51025D01*
X-14453Y50374D01*
X-14605Y49606D01*
X-14453Y48838D01*
X-14196Y48455D01*
Y48337D01*
X-14413Y48012D01*
X-14566Y47244D01*
Y44094D01*
X-14413Y43326D01*
X-13978Y42675D01*
X-13327Y42240D01*
X-12559Y42087D01*
X-11791Y42240D01*
X-11140Y42675D01*
X-10705Y43326D01*
X-10552Y44094D01*
Y47244D01*
X-10705Y48012D01*
X-11000Y48455D01*
X-10744Y48838D01*
X-10650Y49311D01*
X-9449D01*
Y53248D01*
D02*
G37*
G36*
X-62205Y51220D02*
X-62973Y51067D01*
X-63624Y50632D01*
X-64059Y49981D01*
X-64212Y49213D01*
X-64059Y48445D01*
X-63924Y48243D01*
X-64079Y48012D01*
X-64231Y47244D01*
Y44094D01*
X-64079Y43326D01*
X-63644Y42675D01*
X-62993Y42240D01*
X-62224Y42087D01*
X-61456Y42240D01*
X-60805Y42675D01*
X-60370Y43326D01*
X-60217Y44094D01*
Y47244D01*
X-60370Y48012D01*
X-60505Y48214D01*
X-60350Y48445D01*
X-60198Y49213D01*
X-60350Y49981D01*
X-60786Y50632D01*
X-61437Y51067D01*
X-62205Y51220D01*
D02*
G37*
G36*
X-52362D02*
X-53130Y51067D01*
X-53781Y50632D01*
X-54216Y49981D01*
X-54369Y49213D01*
X-54216Y48445D01*
X-54003Y48125D01*
X-54079Y48012D01*
X-54232Y47244D01*
Y44094D01*
X-54079Y43326D01*
X-53644Y42675D01*
X-52992Y42240D01*
X-52224Y42087D01*
X-51456Y42240D01*
X-50805Y42675D01*
X-50370Y43326D01*
X-50217Y44094D01*
Y47244D01*
X-50370Y48012D01*
X-50583Y48331D01*
X-50508Y48445D01*
X-50355Y49213D01*
X-50508Y49981D01*
X-50943Y50632D01*
X-51594Y51067D01*
X-52362Y51220D01*
D02*
G37*
G36*
X-20472Y53839D02*
X-24016D01*
Y51396D01*
X-24039Y51279D01*
X-24039Y51279D01*
Y50775D01*
X-24254Y50632D01*
X-24689Y49981D01*
X-24842Y49213D01*
X-24689Y48445D01*
X-24407Y48022D01*
X-24413Y48012D01*
X-24566Y47244D01*
Y44094D01*
X-24413Y43326D01*
X-23978Y42675D01*
X-23327Y42240D01*
X-22559Y42087D01*
X-21791Y42240D01*
X-21140Y42675D01*
X-20705Y43326D01*
X-20552Y44094D01*
Y47244D01*
X-20705Y48012D01*
X-20987Y48435D01*
X-20980Y48445D01*
X-20828Y49213D01*
X-20888Y49515D01*
X-20571Y49902D01*
X-20472D01*
Y53839D01*
D02*
G37*
G36*
X19291Y51220D02*
X18523Y51067D01*
X17872Y50632D01*
X17437Y49981D01*
X17284Y49213D01*
X17437Y48445D01*
X17864Y47805D01*
X17476Y47225D01*
X17323Y46457D01*
Y43307D01*
X17476Y42539D01*
X17911Y41888D01*
X18563Y41453D01*
X19331Y41300D01*
X20099Y41453D01*
X20750Y41888D01*
X21185Y42539D01*
X21338Y43307D01*
Y46457D01*
X21185Y47225D01*
X20758Y47864D01*
X21146Y48445D01*
X21298Y49213D01*
X21146Y49981D01*
X20711Y50632D01*
X20059Y51067D01*
X19291Y51220D01*
D02*
G37*
G36*
X40945Y50432D02*
X40177Y50279D01*
X39526Y49844D01*
X39091Y49193D01*
X38938Y48425D01*
X39091Y47657D01*
X39156Y47559D01*
X38933Y47225D01*
X38780Y46457D01*
Y43307D01*
X38933Y42539D01*
X39368Y41888D01*
X40019Y41453D01*
X40787Y41300D01*
X41556Y41453D01*
X42207Y41888D01*
X42642Y42539D01*
X42794Y43307D01*
Y46457D01*
X42642Y47225D01*
X42576Y47323D01*
X42799Y47657D01*
X42952Y48425D01*
X42799Y49193D01*
X42364Y49844D01*
X41713Y50279D01*
X40945Y50432D01*
D02*
G37*
G36*
X62205Y49645D02*
X61437Y49492D01*
X60786Y49057D01*
X60350Y48406D01*
X60198Y47638D01*
X60335Y46949D01*
X60237Y46457D01*
Y43307D01*
X60390Y42539D01*
X60825Y41888D01*
X61476Y41453D01*
X62244Y41300D01*
X63012Y41453D01*
X63663Y41888D01*
X64098Y42539D01*
X64251Y43307D01*
Y46457D01*
X64114Y47146D01*
X64212Y47638D01*
X64059Y48406D01*
X63624Y49057D01*
X62973Y49492D01*
X62205Y49645D01*
D02*
G37*
%LPD*%
D10*
X61030Y1528D02*
G03*
X60236Y3445I-2711J0D01*
G01*
X61030Y-373D02*
G03*
X59679Y2888I-4612J0D01*
G01*
X-96457Y29501D02*
G03*
X-95571Y27362I3024J0D01*
G01*
X-96457Y31402D02*
G03*
X-95014Y27919I4925J0D01*
G01*
X-22278Y48656D02*
G03*
X-22835Y47312I1344J-1344D01*
G01*
D02*
G03*
X-23391Y48656I-1901J0D01*
G01*
X-12598Y50394D02*
G03*
X-11758Y50742I0J1188D01*
G01*
X-11220Y51279D02*
G03*
X-11813Y49669I1447J-1447D01*
G01*
X-12051Y49040D02*
G03*
X-12992Y46823I2143J-2217D01*
G01*
X10006Y48262D02*
G03*
X9449Y46918I1344J-1344D01*
G01*
D02*
G03*
X8892Y48262I-1901J0D01*
G01*
X52919Y47081D02*
G03*
X52362Y45737I1344J-1344D01*
G01*
D02*
G03*
X51805Y47081I-1901J-0D01*
G01*
Y48195D02*
G03*
X52362Y49539I-1344J1344D01*
G01*
D02*
G03*
X52919Y48195I1901J-0D01*
G01*
X90714Y56924D02*
G03*
X90158Y55579I1344J-1344D01*
G01*
D02*
G03*
X89601Y56924I-1901J0D01*
G01*
X82840Y53313D02*
G03*
X84422Y52657I1582J1582D01*
G01*
X83947D02*
G03*
X82840Y52199I0J-1565D01*
G01*
Y43569D02*
G03*
X84184Y43012I1344J1344D01*
G01*
D02*
G03*
X82840Y42455I0J-1901D01*
G01*
X82053Y49148D02*
G03*
X83397Y48591I1344J1344D01*
G01*
D02*
G03*
X82053Y48035I0J-1901D01*
G01*
X82446Y63549D02*
G03*
X83268Y63209I821J821D01*
G01*
X84313D02*
G03*
X82446Y62435I0J-2640D01*
G01*
X99606Y48819D02*
G03*
X99050Y50163I-1901J0D01*
G01*
X99050Y50163D02*
G03*
X100394Y49606I1344J1344D01*
G01*
X100197Y62205D02*
G03*
X98853Y61648I0J-1901D01*
G01*
X98853Y61648D02*
G03*
X99410Y62992I-1344J1344D01*
G01*
X102919Y43569D02*
G03*
X104501Y42913I1582J1582D01*
G01*
X104025D02*
G03*
X102919Y42455I0J-1565D01*
G01*
X103393Y53048D02*
G03*
X104404Y52559I1011J801D01*
G01*
D02*
G03*
X103393Y52070I0J-1290D01*
G01*
X110073Y47475D02*
G03*
X108491Y48130I-1582J-1582D01*
G01*
X108967D02*
G03*
X110073Y48588I0J1565D01*
G01*
X107791Y23407D02*
G03*
X106892Y25269I-2378J0D01*
G01*
X4100Y62688D02*
G03*
X5030Y62303I929J929D01*
G01*
X5859D02*
G03*
X4100Y61575I0J-2487D01*
G01*
X63746Y91176D02*
G03*
X63189Y89831I1344J-1344D01*
G01*
D02*
G03*
X62632Y91176I-1901J0D01*
G01*
X66773Y100957D02*
G03*
X67323Y102264I-1276J1307D01*
G01*
D02*
G03*
X67873Y100957I1827J0D01*
G01*
X67092Y91176D02*
G03*
X66535Y89831I1344J-1344D01*
G01*
D02*
G03*
X65979Y91176I-1901J0D01*
G01*
X76935Y97801D02*
G03*
X78279Y97244I1344J1344D01*
G01*
D02*
G03*
X76935Y96687I0J-1901D01*
G01*
X12659Y85249D02*
G03*
X12103Y86593I-1901J0D01*
G01*
X11872Y85249D02*
G03*
X10758Y87937I-3802J0D01*
G01*
X8892Y85596D02*
G03*
X9449Y86940I-1344J1344D01*
G01*
D02*
G03*
X10006Y85596I1901J0D01*
G01*
X-117323Y53543D02*
G03*
X-116766Y52199I1901J0D01*
G01*
X-116766Y52199D02*
G03*
X-118110Y52756I-1344J-1344D01*
G01*
X984Y121850D02*
G03*
X2328Y122407I0J1901D01*
G01*
X2328Y122407D02*
G03*
X1772Y121063I1344J-1344D01*
G01*
X2396Y113617D02*
G03*
X1052Y114173I-1344J-1344D01*
G01*
D02*
G03*
X2396Y114730I0J1901D01*
G01*
X36057Y73195D02*
G03*
X36417Y74063I-869J869D01*
G01*
Y75014D02*
G03*
X37171Y73195I2573J0D01*
G01*
X36187Y140585D02*
G03*
X35630Y139241I1344J-1344D01*
G01*
D02*
G03*
X35073Y140585I-1901J0D01*
G01*
X-105600Y48513D02*
G03*
X-106944Y47956I0J-1901D01*
G01*
X-106944Y47956D02*
G03*
X-106387Y49300I-1344J1344D01*
G01*
X-97620Y73210D02*
G03*
X-97063Y74555I-1344J1344D01*
G01*
D02*
G03*
X-96506Y73210I1901J0D01*
G01*
X19848Y48656D02*
G03*
X19291Y47312I1344J-1344D01*
G01*
D02*
G03*
X18735Y48656I-1901J0D01*
G01*
X31265Y48262D02*
G03*
X30709Y46918I1344J-1344D01*
G01*
D02*
G03*
X30152Y48262I-1901J0D01*
G01*
X-100360Y20537D02*
G03*
X-99803Y21881I-1344J1344D01*
G01*
D02*
G03*
X-99246Y20537I1901J0D01*
G01*
X119651Y-38223D02*
G03*
X120995Y-38780I1344J1344D01*
G01*
D02*
G03*
X119651Y-39336I0J-1901D01*
G01*
X120734Y-33301D02*
G03*
X122078Y-33858I1344J1344D01*
G01*
D02*
G03*
X120734Y-34415I0J-1901D01*
G01*
X-113715Y38124D02*
G03*
X-114272Y36780I1344J-1344D01*
G01*
D02*
G03*
X-114828Y38124I-1901J0D01*
G01*
Y39238D02*
G03*
X-114272Y40582I-1344J1344D01*
G01*
D02*
G03*
X-113715Y39238I1901J0D01*
G01*
X106409Y-10051D02*
G03*
X108217Y-10800I1808J1808D01*
G01*
X106966Y-9494D02*
G03*
X110118Y-10800I3152J3152D01*
G01*
X107522Y-8938D02*
G03*
X112019Y-10800I4496J4496D01*
G01*
X107522Y-10051D02*
G03*
X106712Y-12008I1957J-1957D01*
G01*
Y-10782D02*
G03*
X106409Y-10051I-1034J0D01*
G01*
X107253Y-10228D02*
G03*
X106712Y-11020I310J-793D01*
G01*
Y-10782D02*
G03*
X106409Y-10051I-1034J0D01*
G01*
X107434Y-10127D02*
G03*
X106966Y-11057I688J-929D01*
G01*
D02*
G03*
X106497Y-10127I-1156J0D01*
G01*
X109903Y32037D02*
G03*
X111247Y31480I1344J1344D01*
G01*
D02*
G03*
X109903Y30924I0J-1901D01*
G01*
X85202Y25034D02*
G03*
X84646Y23690I1344J-1344D01*
G01*
D02*
G03*
X84089Y25034I-1901J0D01*
G01*
X87402Y33681D02*
G03*
X88637Y33169I1235J1235D01*
G01*
X87958Y34238D02*
G03*
X90538Y33169I2580J2580D01*
G01*
X83459Y39664D02*
G03*
X84646Y38976I1187J682D01*
G01*
X83964D02*
G03*
X83332Y38715I0J-893D01*
G01*
X96653Y11533D02*
G03*
X97539Y10335I1254J0D01*
G01*
X96653Y12598D02*
G03*
X97770Y11087I1581J0D01*
G01*
X91437Y20669D02*
G03*
X92781Y21226I0J1901D01*
G01*
X92781Y21226D02*
G03*
X92224Y19882I1344J-1344D01*
G01*
X106107Y10237D02*
G03*
X106664Y8892I1901J0D01*
G01*
X106664Y8892D02*
G03*
X105320Y9449I-1344J-1344D01*
G01*
X104763Y10793D02*
G03*
X105320Y12138I-1344J1344D01*
G01*
D02*
G03*
X105877Y10793I1901J0D01*
G01*
X81167Y19325D02*
G03*
X80709Y18219I1106J-1106D01*
G01*
Y17743D02*
G03*
X80053Y19325I-2237J0D01*
G01*
X84646Y4724D02*
G03*
X85990Y5281I0J1901D01*
G01*
X85990Y5281D02*
G03*
X85433Y3937I1344J-1344D01*
G01*
X131757Y-30743D02*
G03*
X133812Y-31594I2055J2055D01*
G01*
X132390D02*
G03*
X131757Y-31857I0J-895D01*
G01*
X104305Y25025D02*
G03*
X102854Y25098I-766J-766D01*
G01*
X104921Y24410D02*
G03*
X103352Y24489I-828J-828D01*
G01*
X104904Y24427D02*
G03*
X102854Y25098I-1688J-1688D01*
G01*
X103533Y25498D02*
G03*
X104232Y25098I699J412D01*
G01*
D02*
G03*
X103533Y24699I0J-812D01*
G01*
X100394Y17767D02*
G03*
X99803Y19193I-2016J0D01*
G01*
X100394Y15866D02*
G03*
X99246Y18636I-3917J0D01*
G01*
X9612Y112761D02*
G03*
X11431Y112008I1819J1819D01*
G01*
X10481D02*
G03*
X9612Y111648I0J-1229D01*
G01*
X-8779Y123135D02*
G03*
X-9127Y123975I-1188J0D01*
G01*
X-9840Y124688D02*
G03*
X-7992Y123923I1848J1848D01*
G01*
X107817Y19898D02*
G03*
X110073Y20832I0J3191D01*
G01*
X101344Y39238D02*
G03*
X102688Y38681I1344J1344D01*
G01*
D02*
G03*
X101344Y38124I0J-1901D01*
G01*
X6856Y60399D02*
G03*
X8200Y59842I1344J1344D01*
G01*
D02*
G03*
X6856Y59286I0J-1901D01*
G01*
X-1836Y63844D02*
G03*
X-984Y65901I-2057J2057D01*
G01*
Y64476D02*
G03*
X-723Y63844I893J0D01*
G01*
X109581Y37927D02*
G03*
X108199Y38500I-1382J-1382D01*
G01*
X108275D02*
G03*
X109581Y39041I0J1847D01*
G01*
X110695D02*
G03*
X112001Y38500I1306J1306D01*
G01*
X112077D02*
G03*
X110695Y37927I0J-1955D01*
G01*
X110335Y67126D02*
G03*
X108967Y68209I-1368J-322D01*
G01*
X109568Y66945D02*
G03*
X107972Y68209I-1596J-376D01*
G01*
X103393Y58658D02*
G03*
X104404Y58169I1011J801D01*
G01*
D02*
G03*
X103393Y57680I0J-1290D01*
G01*
X100754Y26313D02*
G03*
X100197Y24969I1344J-1344D01*
G01*
D02*
G03*
X99640Y26313I-1901J0D01*
G01*
X117457Y443D02*
G03*
X116900Y-901I1344J-1344D01*
G01*
D02*
G03*
X116343Y443I-1901J0D01*
G01*
X102900Y3287D02*
G03*
X104244Y3844I0J1901D01*
G01*
X104244Y3844D02*
G03*
X103687Y2500I1344J-1344D01*
G01*
X95757Y2857D02*
G03*
X97101Y2300I1344J1344D01*
G01*
D02*
G03*
X95757Y1743I0J-1901D01*
G01*
X121043Y1757D02*
G03*
X121600Y3101I-1344J1344D01*
G01*
D02*
G03*
X122157Y1757I1901J0D01*
G01*
X131300Y1987D02*
G03*
X132644Y2544I0J1901D01*
G01*
X132644Y2544D02*
G03*
X132087Y1200I1344J-1344D01*
G01*
X131757Y-9843D02*
G03*
X133181Y-10433I1424J1424D01*
G01*
X133021D02*
G03*
X131757Y-10957I0J-1788D01*
G01*
X117943Y-11357D02*
G03*
X116599Y-10800I-1344J-1344D01*
G01*
D02*
G03*
X117943Y-10243I0J1901D01*
G01*
X-37229Y69956D02*
G03*
X-38237Y70374I-1008J-1008D01*
G01*
D02*
G03*
X-37229Y70792I0J1426D01*
G01*
X-38976Y64862D02*
G03*
X-39603Y66374I-2139J0D01*
G01*
X-39840Y66612D02*
G03*
X-37992Y65847I1848J1848D01*
G01*
X-77444Y96266D02*
G03*
X-78051Y95291I478J-974D01*
G01*
D02*
G03*
X-78658Y96266I-1085J0D01*
G01*
X-88671Y100465D02*
G03*
X-91023Y101440I-2352J-2352D01*
G01*
D02*
G03*
X-88671Y102414I0J3327D01*
G01*
X-42146Y131604D02*
G03*
X-43219Y129014I2590J-2590D01*
G01*
Y129490D02*
G03*
X-44095Y131604I-2991J0D01*
G01*
X-52614Y135927D02*
G03*
X-54260Y135317I-159J-2098D01*
G01*
X-52673Y135142D02*
G03*
X-55473Y134104I-270J-3566D01*
G01*
X-54574Y135004D02*
G03*
X-53947Y136516I-1512J1512D01*
G01*
X-51930Y117078D02*
G03*
X-50995Y114821I3192J0D01*
G01*
X-51930Y118979D02*
G03*
X-50438Y115378I5093J0D01*
G01*
X-51930Y120880D02*
G03*
X-49882Y115935I6994J0D01*
G01*
X-61669Y111216D02*
G03*
X-62356Y113271I-2402J340D01*
G01*
X-62321Y113237D02*
G03*
X-60305Y112402I2016J2016D01*
G01*
X-60368Y117521D02*
G03*
X-62191Y116815I-111J-2417D01*
G01*
X-62191Y116815D02*
G03*
X-61654Y118616I-1397J1397D01*
G01*
X-60885Y119872D02*
G03*
X-60004Y121999I-2127J2127D01*
G01*
Y122450D02*
G03*
X-58937Y119872I3645J0D01*
G01*
X-105221Y63677D02*
G03*
X-105375Y61506I1175J-1175D01*
G01*
X-104579Y64319D02*
G03*
X-104745Y61978I1266J-1266D01*
G01*
X-103937Y64960D02*
G03*
X-104115Y62451I1357J-1357D01*
G01*
X-105815Y62942D02*
G03*
X-105414Y63484I-165J542D01*
G01*
D02*
G03*
X-105013Y62942I566J0D01*
G01*
X-114162Y58090D02*
G03*
X-116429Y59557I-2267J-1018D01*
G01*
X-114880Y57767D02*
G03*
X-117645Y59557I-2765J-1242D01*
G01*
X-115598Y57445D02*
G03*
X-118862Y59557I-3264J-1466D01*
G01*
X-116317Y57122D02*
G03*
X-120079Y59557I-3762J-1690D01*
G01*
X-116034Y56712D02*
G03*
X-118386Y57687I-2352J-2352D01*
G01*
D02*
G03*
X-116034Y58661I0J3327D01*
G01*
X-116393Y58036D02*
G03*
X-116831Y59655I-1631J427D01*
G01*
X-116831Y59655D02*
G03*
X-115184Y59059I1460J1460D01*
G01*
X-116034Y64586D02*
G03*
X-118386Y65561I-2352J-2352D01*
G01*
D02*
G03*
X-116034Y66535I0J3327D01*
G01*
D02*
G03*
X-115354Y68176I-1641J1641D01*
G01*
Y67698D02*
G03*
X-114642Y65978I2432J0D01*
G01*
X-115354Y69599D02*
G03*
X-114085Y66535I4333J0D01*
G01*
X-78174Y79945D02*
G03*
X-77362Y81904I-1959J1959D01*
G01*
X-78730Y80502D02*
G03*
X-77362Y83805I-3303J3303D01*
G01*
Y81904D02*
G03*
X-76782Y80502I1983J0D01*
G01*
X-86902Y76287D02*
G03*
X-89461Y77346I-2559J-2559D01*
G01*
X-87459Y75730D02*
G03*
X-91362Y77346I-3903J-3903D01*
G01*
X-88016Y75173D02*
G03*
X-93263Y77346I-5247J-5247D01*
G01*
X-88573Y74616D02*
G03*
X-95164Y77346I-6592J-6592D01*
G01*
X-87205Y84842D02*
G03*
X-85189Y85678I0J2851D01*
G01*
X-84843Y86023D02*
G03*
X-85828Y83515I2384J-2384D01*
G01*
X-87598Y82087D02*
G03*
X-89783Y81182I0J-3089D01*
G01*
X-90010Y80955D02*
G03*
X-88976Y83460I-2495J2495D01*
G01*
X-36485Y125689D02*
G03*
X-38525Y124844I0J-2885D01*
G01*
X-34584Y125689D02*
G03*
X-37968Y124287I0J-4786D01*
G01*
X-32683Y125689D02*
G03*
X-37411Y123730I0J-6687D01*
G01*
X115345Y31703D02*
G03*
X114370Y29351I2352J-2352D01*
G01*
D02*
G03*
X113396Y31703I-3327J0D01*
G01*
X112299Y31480D02*
G03*
X114337Y32568I0J2454D01*
G01*
X110823Y31480D02*
G03*
X113683Y33006I0J3444D01*
G01*
X109347Y31480D02*
G03*
X113029Y33445I0J4433D01*
G01*
X113396Y25778D02*
G03*
X114370Y28130I-2352J2352D01*
G01*
D02*
G03*
X115345Y25778I3327J0D01*
G01*
X115148Y23829D02*
G03*
X114075Y21239I2590J-2590D01*
G01*
Y21714D02*
G03*
X113199Y23829I-2991J0D01*
G01*
X104150Y-4459D02*
G03*
X103480Y-6078I1619J-1619D01*
G01*
X106850Y-5857D02*
G03*
X107858Y-6275I1008J1008D01*
G01*
D02*
G03*
X106850Y-6692I0J-1426D01*
G01*
X104429Y47343D02*
G03*
X103085Y46786I0J-1901D01*
G01*
X103560Y47261D02*
G03*
X103839Y47933I-672J672D01*
G01*
X108390Y48548D02*
G03*
X109398Y48130I1008J1008D01*
G01*
D02*
G03*
X108390Y47712I0J-1426D01*
G01*
X103986Y52141D02*
G03*
X102978Y52559I-1008J-1008D01*
G01*
D02*
G03*
X103986Y52977I0J1426D01*
G01*
X108365Y58587D02*
G03*
X109373Y58169I1008J1008D01*
G01*
D02*
G03*
X108365Y57752I0J-1426D01*
G01*
X103986D02*
G03*
X102978Y58169I-1008J-1008D01*
G01*
D02*
G03*
X103986Y58587I0J1426D01*
G01*
X104011Y67988D02*
G03*
X103003Y68405I-1008J-1008D01*
G01*
X103003D02*
G03*
X104011Y68823I0J1426D01*
G01*
X109374Y68087D02*
G03*
X107848Y68164I-806J-806D01*
G01*
X109990Y67471D02*
G03*
X108345Y67554I-869J-869D01*
G01*
X109935Y67526D02*
G03*
X107948Y68207I-1690J-1690D01*
G01*
X108422Y68592D02*
G03*
X109252Y68209I830J708D01*
G01*
D02*
G03*
X108422Y67826I0J-1091D01*
G01*
X87771Y63823D02*
G03*
X88189Y64831I-1008J1008D01*
G01*
D02*
G03*
X88607Y63823I1426J0D01*
G01*
X84228Y62791D02*
G03*
X83220Y63209I-1008J-1008D01*
G01*
D02*
G03*
X84228Y63626I0J1426D01*
G01*
X84228Y47811D02*
G03*
X82344Y48591I-1884J-1884D01*
G01*
X-93452Y99433D02*
G03*
X-93035Y100441I-1008J1008D01*
G01*
D02*
G03*
X-92617Y99433I1426J0D01*
G01*
X88607Y53075D02*
G03*
X89615Y52657I1008J1008D01*
G01*
D02*
G03*
X88607Y52240I0J-1426D01*
G01*
X84228D02*
G03*
X83220Y52657I-1008J-1008D01*
G01*
D02*
G03*
X84228Y53075I0J1426D01*
G01*
X87598Y43209D02*
G03*
X87113Y44380I-1656J0D01*
G01*
X87344Y44149D02*
G03*
X88189Y43799I845J845D01*
G01*
X84228Y42594D02*
G03*
X83220Y43012I-1008J-1008D01*
G01*
D02*
G03*
X84228Y43429I0J1426D01*
G01*
Y38559D02*
G03*
X83220Y38976I-1008J-1008D01*
G01*
D02*
G03*
X84228Y39394I0J1426D01*
G01*
X-96768Y99606D02*
G03*
X-96096Y99885I0J950D01*
G01*
X-95620Y100360D02*
G03*
X-96177Y99016I1344J-1344D01*
G01*
X-97579Y95055D02*
G03*
X-98587Y95473I-1008J-1008D01*
G01*
D02*
G03*
X-97579Y95890I0J1426D01*
G01*
X-56461Y124011D02*
G03*
X-55117Y124568I0J1901D01*
G01*
X-55592Y124093D02*
G03*
X-55871Y123421I672J-672D01*
G01*
X-59587Y122609D02*
G03*
X-60004Y121601I1008J-1008D01*
G01*
D02*
G03*
X-60422Y122609I-1426J0D01*
G01*
X-81717Y88508D02*
G03*
X-81299Y89516I-1008J1008D01*
G01*
D02*
G03*
X-80882Y88508I1426J0D01*
G01*
X-84425Y87279D02*
G03*
X-84842Y86271I1008J-1008D01*
G01*
D02*
G03*
X-85260Y87279I-1426J0D01*
G01*
X-59141Y133933D02*
G03*
X-60149Y134350I-1008J-1008D01*
G01*
D02*
G03*
X-59141Y134768I0J1426D01*
G01*
X-57912D02*
G03*
X-56904Y134350I1008J1008D01*
G01*
D02*
G03*
X-57912Y133933I0J-1426D01*
G01*
X-62158Y134768D02*
G03*
X-61150Y134350I1008J1008D01*
G01*
D02*
G03*
X-62158Y133933I0J-1426D01*
G01*
X-63560Y130807D02*
G03*
X-63910Y131652I-1195J0D01*
G01*
X-64140Y131883D02*
G03*
X-62969Y131398I1171J1171D01*
G01*
X-93748Y76945D02*
G03*
X-94718Y77346I-970J-970D01*
G01*
X-94794D02*
G03*
X-93748Y77780I0J1479D01*
G01*
X-92519D02*
G03*
X-91473Y77346I1046J1046D01*
G01*
X-91549D02*
G03*
X-92519Y76945I0J-1372D01*
G01*
Y81323D02*
G03*
X-91511Y80905I1008J1008D01*
G01*
D02*
G03*
X-92519Y80488I0J-1426D01*
G01*
X-93748D02*
G03*
X-94718Y80890I-970J-970D01*
G01*
X-94794D02*
G03*
X-93748Y81323I0J1480D01*
G01*
X-65838Y112771D02*
G03*
X-66808Y113173I-970J-970D01*
G01*
X-66884D02*
G03*
X-65838Y113607I0J1479D01*
G01*
X-64609D02*
G03*
X-63563Y113173I1046J1046D01*
G01*
X-63639D02*
G03*
X-64609Y112771I0J-1372D01*
G01*
X-65838Y116315D02*
G03*
X-66808Y116717I-970J-970D01*
G01*
X-66884D02*
G03*
X-65838Y117150I0J1480D01*
G01*
X-64609D02*
G03*
X-63562Y116717I1046J1046D01*
G01*
X-63639D02*
G03*
X-64609Y116315I0J-1372D01*
G01*
X-51512Y122609D02*
G03*
X-51930Y121601I1008J-1008D01*
G01*
D02*
G03*
X-52347Y122609I-1426J0D01*
G01*
X-47969D02*
G03*
X-48387Y121601I1008J-1008D01*
G01*
D02*
G03*
X-48804Y122609I-1426J0D01*
G01*
X-76945Y87279D02*
G03*
X-77362Y86271I1008J-1008D01*
G01*
D02*
G03*
X-77780Y87279I-1426J0D01*
G01*
X-74237Y88508D02*
G03*
X-73819Y89516I-1008J1008D01*
G01*
D02*
G03*
X-73401Y88508I1426J0D01*
G01*
X-22370Y51824D02*
G03*
X-22835Y50830I833J-994D01*
G01*
X-21865Y51221D02*
G03*
X-22835Y49143I1741J-2078D01*
G01*
X-11220Y50492D02*
G03*
X-12565Y49935I0J-1901D01*
G01*
X-12089Y50411D02*
G03*
X-11811Y51083I-672J672D01*
G01*
X52780Y50468D02*
G03*
X52362Y49460I1008J-1008D01*
G01*
D02*
G03*
X51945Y50468I-1426J0D01*
G01*
X97061Y11974D02*
G03*
X96653Y11024I905J-950D01*
G01*
D02*
G03*
X96246Y11974I-1312J0D01*
G01*
X96236Y13213D02*
G03*
X96653Y14221I-1008J1008D01*
G01*
D02*
G03*
X97071Y13213I1426J0D01*
G01*
X97061Y11974D02*
G03*
X96653Y11024I905J-950D01*
G01*
D02*
G03*
X96246Y11974I-1312J0D01*
G01*
X-5536Y131717D02*
G03*
X-5020Y132962I-1246J1246D01*
G01*
Y132487D02*
G03*
X-4701Y131717I1090J0D01*
G01*
Y130488D02*
G03*
X-5118Y129480I1008J-1008D01*
G01*
D02*
G03*
X-5536Y130488I-1426J0D01*
G01*
X-665Y131559D02*
G03*
X343Y131142I1008J1008D01*
G01*
D02*
G03*
X-665Y130724I0J-1426D01*
G01*
X-3710Y127264D02*
G03*
X-1894Y128016I0J2569D01*
G01*
X-1059Y127181D02*
G03*
X-1378Y126410I771J-771D01*
G01*
Y125935D02*
G03*
X-1894Y127181I-1762J0D01*
G01*
X2977Y127206D02*
G03*
X2559Y126198I1008J-1008D01*
G01*
D02*
G03*
X2142Y127206I-1426J0D01*
G01*
X4976Y132283D02*
G03*
X2617Y131306I0J-3337D01*
G01*
X6877Y132283D02*
G03*
X3173Y130749I0J-5237D01*
G01*
X2756Y131758D02*
G03*
X3428Y132036I0J950D01*
G01*
X3675Y132283D02*
G03*
X3340Y131257I845J-845D01*
G01*
X1945Y130749D02*
G03*
X997Y131142I-947J-947D01*
G01*
X876D02*
G03*
X1945Y131585I0J1512D01*
G01*
X2067Y133306D02*
G03*
X2780Y131585I2434J0D01*
G01*
X92693Y15823D02*
G03*
X91647Y16256I-1046J-1046D01*
G01*
X91723D02*
G03*
X92693Y16658I0J1372D01*
G01*
X97071Y15626D02*
G03*
X96653Y14618I1008J-1008D01*
G01*
D02*
G03*
X96236Y15626I-1426J0D01*
G01*
X109936Y-2318D02*
G03*
X108928Y-1900I-1008J-1008D01*
G01*
D02*
G03*
X109936Y-1482I0J1426D01*
G01*
X113479Y-1286D02*
G03*
X113897Y-277I-1008J1008D01*
G01*
D02*
G03*
X114314Y-1286I1426J0D01*
G01*
Y-2514D02*
G03*
X113979Y-3323I809J-809D01*
G01*
Y-3722D02*
G03*
X113479Y-2514I-1708J0D01*
G01*
X102283Y-1703D02*
G03*
X102004Y-1031I-950J0D01*
G01*
X101529Y-556D02*
G03*
X102873Y-1113I1344J1344D01*
G01*
X106417Y-2687D02*
G03*
X105571Y-3037I0J-1195D01*
G01*
X105341Y-3268D02*
G03*
X105826Y-2097I-1171J1171D01*
G01*
X106834Y-1482D02*
G03*
X107842Y-1900I1008J1008D01*
G01*
D02*
G03*
X106834Y-2318I0J-1426D01*
G01*
X106294Y-14306D02*
G03*
X106712Y-13298I-1008J1008D01*
G01*
D02*
G03*
X107129Y-14306I1426J0D01*
G01*
X118908Y-5840D02*
G03*
X119860Y-8140I3253J0D01*
G01*
X116900Y-608D02*
G03*
X117803Y-2452I2334J0D01*
G01*
X116900Y1000D02*
G03*
X118286Y-1830I3583J0D01*
G01*
X117333Y-2288D02*
G03*
X116802Y-978I-1815J27D01*
G01*
X117252Y-1428D02*
G03*
X117924Y-1706I672J672D01*
G01*
X118735Y-1879D02*
G03*
X119743Y-2297I1008J1008D01*
G01*
D02*
G03*
X118735Y-2714I0J-1426D01*
G01*
X113657Y20890D02*
G03*
X114075Y21898I-1008J1008D01*
G01*
D02*
G03*
X114492Y20890I1426J0D01*
G01*
X68313Y102372D02*
G03*
X67323Y101187I213J-1185D01*
G01*
X68453Y101597D02*
G03*
X67323Y100245I243J-1352D01*
G01*
X68394Y104712D02*
G03*
X70472Y105413I332J2448D01*
G01*
X70422Y105363D02*
G03*
X69587Y103346I2016J-2016D01*
G01*
X59360Y104321D02*
G03*
X60367Y106752I-2431J2431D01*
G01*
Y106594D02*
G03*
X61309Y104321I3215J0D01*
G01*
X60743Y101637D02*
G03*
X60335Y101083I172J-554D01*
G01*
D02*
G03*
X59926Y101637I-580J0D01*
G01*
X60143Y102997D02*
G03*
X60835Y100582I2525J-583D01*
G01*
X60910Y102820D02*
G03*
X61840Y99577I3390J-783D01*
G01*
X61677Y102643D02*
G03*
X62844Y98573I4255J-982D01*
G01*
X60743Y101637D02*
G03*
X60335Y101083I172J-554D01*
G01*
D02*
G03*
X59926Y101637I-580J0D01*
G01*
X51827Y128829D02*
G03*
X54180Y127854I2352J2352D01*
G01*
D02*
G03*
X51827Y126880I0J-3327D01*
G01*
X49879D02*
G03*
X47526Y127854I-2352J-2352D01*
G01*
D02*
G03*
X49879Y128829I0J3327D01*
G01*
X56168Y118209D02*
G03*
X57003Y116192I2851J0D01*
G01*
X57216Y115979D02*
G03*
X54898Y116835I-2087J-2087D01*
G01*
X53816Y119577D02*
G03*
X54790Y121929I-2352J2352D01*
G01*
D02*
G03*
X55764Y119577I3327J0D01*
G01*
X47890Y117234D02*
G03*
X46916Y114882I2352J-2352D01*
G01*
D02*
G03*
X45942Y117234I-3327J0D01*
G01*
X63330Y126880D02*
G03*
X60978Y127854I-2352J-2352D01*
G01*
D02*
G03*
X63330Y128829I0J3327D01*
G01*
X65279D02*
G03*
X67631Y127854I2352J2352D01*
G01*
D02*
G03*
X65279Y126880I0J-3327D01*
G01*
X69619Y118209D02*
G03*
X70455Y116192I2851J0D01*
G01*
X70571Y116076D02*
G03*
X68394Y116839I-1882J-1882D01*
G01*
X61342Y117234D02*
G03*
X60367Y114882I2352J-2352D01*
G01*
D02*
G03*
X59393Y117234I-3327J0D01*
G01*
X55169Y104651D02*
G03*
X56545Y104970I431J1264D01*
G01*
X56545Y104970D02*
G03*
X56086Y103560I1157J-1157D01*
G01*
X54724Y104724D02*
G03*
X57413Y105838I0J3802D01*
G01*
X56937Y105363D02*
G03*
X56102Y103346I2016J-2016D01*
G01*
X54724Y104724D02*
G03*
X57413Y105838I0J3802D01*
G01*
X56937Y105363D02*
G03*
X56102Y103346I2016J-2016D01*
G01*
X45876Y104321D02*
G03*
X46916Y106832I-2511J2511D01*
G01*
Y106515D02*
G03*
X47825Y104321I3103J0D01*
G01*
X48228Y102953D02*
G03*
X49342Y100264I3802J0D01*
G01*
X48867Y100740D02*
G03*
X46850Y101575I-2016J-2016D01*
G01*
X18774Y47014D02*
G03*
X19291Y48263I-1249J1249D01*
G01*
Y48452D02*
G03*
X19887Y47014I2035J0D01*
G01*
X8774D02*
G03*
X9449Y48643I-1630J1630D01*
G01*
Y48072D02*
G03*
X9887Y47014I1497J0D01*
G01*
X-12992Y49508D02*
G03*
X-12126Y47902I1922J0D01*
G01*
X-23116Y47801D02*
G03*
X-22835Y48480I-679J679D01*
G01*
Y49213D02*
G03*
X-22127Y47903I1567J0D01*
G01*
X80719Y104321D02*
G03*
X81693Y106673I-2352J2352D01*
G01*
D02*
G03*
X82667Y104321I3327J0D01*
G01*
Y101978D02*
G03*
X81693Y99626I2352J-2352D01*
G01*
D02*
G03*
X80719Y101978I-3327J0D01*
G01*
X74793D02*
G03*
X73790Y99556I2422J-2422D01*
G01*
Y99696D02*
G03*
X72845Y101978I-3228J0D01*
G01*
Y104321D02*
G03*
X73790Y106603I-2283J2283D01*
G01*
Y106743D02*
G03*
X74793Y104321I3425J0D01*
G01*
X36427Y126683D02*
G03*
X33972Y127700I-2455J-2455D01*
G01*
X34178D02*
G03*
X36427Y128632I0J3182D01*
G01*
X38376Y128829D02*
G03*
X40728Y127854I2352J2352D01*
G01*
D02*
G03*
X38376Y126880I0J-3327D01*
G01*
X41926Y118148D02*
G03*
X42433Y116721I1752J-181D01*
G01*
X42709Y118067D02*
G03*
X43602Y115551I3088J-320D01*
G01*
X43019Y116135D02*
G03*
X41339Y116831I-1680J-1680D01*
G01*
X34439Y117234D02*
G03*
X33465Y114882I2352J-2352D01*
G01*
D02*
G03*
X32490Y117234I-3327J0D01*
G01*
X76781Y126880D02*
G03*
X74429Y127854I-2352J-2352D01*
G01*
D02*
G03*
X76781Y128829I0J3327D01*
G01*
X78667Y126624D02*
G03*
X77756Y124607I1777J-2017D01*
G01*
D02*
G03*
X76845Y126624I-2688J0D01*
G01*
X82667Y117234D02*
G03*
X81693Y114882I2352J-2352D01*
G01*
Y114882D02*
G03*
X80718Y117234I-3327J0D01*
G01*
X74793D02*
G03*
X73790Y114813I2422J-2422D01*
G01*
Y114951D02*
G03*
X72844Y117234I-3229J0D01*
G01*
X41291Y104723D02*
G03*
X43799Y105709I124J3369D01*
G01*
X43453Y105363D02*
G03*
X42618Y103346I2016J-2016D01*
G01*
X41240Y101575D02*
G03*
X38888Y100600I0J-3327D01*
G01*
X38888Y100601D02*
G03*
X39862Y102953I-2352J2352D01*
G01*
X32392Y104321D02*
G03*
X33465Y106911I-2590J2590D01*
G01*
Y106435D02*
G03*
X34341Y104321I2990J0D01*
G01*
X35360Y102239D02*
G03*
X33670Y102446I-978J-978D01*
G01*
X36073Y101526D02*
G03*
X34075Y101771I-1156J-1156D01*
G01*
X36004Y101594D02*
G03*
X33476Y102373I-2000J-2000D01*
G01*
X30231Y47014D02*
G03*
X30709Y48167I-1154J1154D01*
G01*
Y48548D02*
G03*
X31344Y47014I2170J0D01*
G01*
X51687D02*
G03*
X52362Y48643I-1630J1630D01*
G01*
Y48072D02*
G03*
X52801Y47014I1498J0D01*
G01*
X139298Y-11686D02*
G03*
X136274Y-10433I-3024J-3024D01*
G01*
X138742Y-12243D02*
G03*
X134373Y-10433I-4369J-4369D01*
G01*
X136274D02*
G03*
X139298Y-9180I0J4277D01*
G01*
X134373Y-10433D02*
G03*
X138742Y-8624I0J6178D01*
G01*
X140551Y-27165D02*
G03*
X137863Y-28279I0J-3802D01*
G01*
X140551Y-27953D02*
G03*
X136519Y-29623I0J-5703D01*
G01*
X140551Y-28740D02*
G03*
X135175Y-30967I0J-7604D01*
G01*
X137944Y-28197D02*
G03*
X138779Y-26181I-2016J2016D01*
G01*
X136600Y-29542D02*
G03*
X137992Y-26181I-3360J3360D01*
G01*
X139137Y4248D02*
G03*
X136995Y5315I-2141J-1615D01*
G01*
X138508Y3774D02*
G03*
X135415Y5315I-3093J-2333D01*
G01*
X136995D02*
G03*
X139137Y6382I0J2682D01*
G01*
X135415Y5315D02*
G03*
X138508Y6856I0J3875D01*
G01*
X-76293Y108307D02*
G03*
X-78615Y107345I0J-3285D01*
G01*
X-78182Y107778D02*
G03*
X-77474Y109488I-1710J1710D01*
G01*
X-75457Y111308D02*
G03*
X-73441Y110472I2016J2016D01*
G01*
D02*
G03*
X-75457Y109637I0J-2851D01*
G01*
X-77128Y119637D02*
G03*
X-77956Y119980I-828J-828D01*
G01*
X-78431D02*
G03*
X-76571Y120751I0J2631D01*
G01*
X-80332Y119980D02*
G03*
X-77128Y121308I0J4532D01*
G01*
X5022Y125827D02*
G03*
X7596Y126893I0J3639D01*
G01*
X3121Y125827D02*
G03*
X7039Y127449I0J5540D01*
G01*
X2902Y134834D02*
G03*
X2067Y132818I2016J-2016D01*
G01*
D02*
G03*
X1232Y134834I-2851J0D01*
G01*
X-4185D02*
G03*
X-5020Y132818I2016J-2016D01*
G01*
D02*
G03*
X-5855Y134834I-2851J0D01*
G01*
X102913Y38279D02*
G03*
X101943Y38681I-970J-970D01*
G01*
X101867D02*
G03*
X102913Y39114I0J1479D01*
G01*
X107292Y37886D02*
G03*
X106874Y36877I1008J-1008D01*
G01*
D02*
G03*
X106456Y37886I-1426J0D01*
G01*
X107292Y38918D02*
G03*
X108300Y38500I1008J1008D01*
G01*
D02*
G03*
X107292Y38082I0J-1426D01*
G01*
X-96449Y77764D02*
G03*
X-95440Y77346I1008J1008D01*
G01*
D02*
G03*
X-96449Y76929I0J-1426D01*
G01*
X-96645D02*
G03*
X-97063Y75921I1008J-1008D01*
G01*
D02*
G03*
X-97481Y76929I-1426J0D01*
G01*
X-97850Y77346D02*
G03*
X-98200Y78192I-1195J0D01*
G01*
X-98431Y78422D02*
G03*
X-97260Y77937I1171J1171D01*
G01*
X-96449Y81307D02*
G03*
X-95440Y80890I1008J1008D01*
G01*
D02*
G03*
X-96449Y80472I0J-1426D01*
G01*
X-69056Y112756D02*
G03*
X-69313Y112137I619J-619D01*
G01*
Y111358D02*
G03*
X-69892Y112756I-1976J0D01*
G01*
X-69056Y113591D02*
G03*
X-68048Y113173I1008J1008D01*
G01*
D02*
G03*
X-69056Y112756I0J-1426D01*
G01*
X-69868Y112583D02*
G03*
X-70540Y112304I0J-950D01*
G01*
X-71015Y111829D02*
G03*
X-70458Y113173I-1344J1344D01*
G01*
X-69056Y117134D02*
G03*
X-68048Y116717I1008J1008D01*
G01*
D02*
G03*
X-69056Y116299I0J-1426D01*
G01*
X-69730Y108473D02*
G03*
X-69313Y109481I-1008J1008D01*
G01*
D02*
G03*
X-68895Y108473I1426J0D01*
G01*
X-62608Y5522D02*
G03*
X-63583Y3169I2352J-2352D01*
G01*
D02*
G03*
X-64557Y5522I-3327J0D01*
G01*
X89607Y16673D02*
G03*
X90615Y16256I1008J1008D01*
G01*
D02*
G03*
X89607Y15838I0J-1426D01*
G01*
X88205Y16256D02*
G03*
X87648Y17600I-1901J0D01*
G01*
X88123Y17125D02*
G03*
X88795Y16846I672J672D01*
G01*
X110019Y-6661D02*
G03*
X109087Y-6275I-932J-932D01*
G01*
X108934D02*
G03*
X110019Y-5826I0J1533D01*
G01*
X113562Y-5432D02*
G03*
X113979Y-4424I-1008J1008D01*
G01*
D02*
G03*
X114397Y-5432I1426J0D01*
G01*
X107145Y-10385D02*
G03*
X108148Y-10800I1002J1002D01*
G01*
X108159D02*
G03*
X107145Y-11220I0J-1434D01*
G01*
Y-11614D02*
G03*
X106712Y-12660I1046J-1046D01*
G01*
Y-12584D02*
G03*
X106310Y-11614I-1372J0D01*
G01*
X107374Y23858D02*
G03*
X107791Y24867I-1008J1008D01*
G01*
D02*
G03*
X108209Y23858I1426J0D01*
G01*
X108406Y20315D02*
G03*
X109414Y19898I1008J1008D01*
G01*
D02*
G03*
X108406Y19480I0J-1426D01*
G01*
X121427Y-2730D02*
G03*
X120381Y-2297I-1046J-1046D01*
G01*
X120457D02*
G03*
X121427Y-1895I0J1372D01*
G01*
X78202Y-3407D02*
G03*
X79999Y-3190I760J1253D01*
G01*
X78611Y-2733D02*
G03*
X80709Y-2480I888J1463D01*
G01*
X80708Y-2481D02*
G03*
X79838Y-4770I2114J-2114D01*
G01*
X84724Y-4921D02*
G03*
X83611Y-2233I-3802J0D01*
G01*
X84719Y-3341D02*
G03*
X87035Y-3969I1706J1706D01*
G01*
X83747Y-2369D02*
G03*
X86836Y-3207I2275J2275D01*
G01*
X82776Y-1398D02*
G03*
X86637Y-2445I2844J2844D01*
G01*
X84228Y16756D02*
G03*
X84646Y17764I-1008J1008D01*
G01*
D02*
G03*
X85063Y16756I1426J0D01*
G01*
X84449Y12205D02*
G03*
X83777Y11926I0J-950D01*
G01*
X83302Y11451D02*
G03*
X83858Y12795I-1344J1344D01*
G01*
X-119465Y59974D02*
G03*
X-118457Y59557I1008J1008D01*
G01*
D02*
G03*
X-119465Y59139I0J-1426D01*
G01*
X-120481Y63533D02*
G03*
X-120095Y64416I-818J883D01*
G01*
Y64416D02*
G03*
X-119696Y63549I1141J0D01*
G01*
X-119750Y64762D02*
G03*
X-120061Y63018I1096J-1096D01*
G01*
X-118950Y65561D02*
G03*
X-119346Y63347I1391J-1391D01*
G01*
X-120694Y62682D02*
G03*
X-121664Y63084I-970J-970D01*
G01*
X-121740D02*
G03*
X-120694Y63518I0J1480D01*
G01*
X-108719Y70432D02*
G03*
X-108268Y71521I-1090J1090D01*
G01*
X-109276Y70988D02*
G03*
X-108268Y73422I-2434J2434D01*
G01*
X-112819Y69956D02*
G03*
X-113827Y70374I-1008J-1008D01*
G01*
D02*
G03*
X-112819Y70792I0J1426D01*
G01*
X-123638Y59541D02*
G03*
X-123082Y58197I1901J0D01*
G01*
X-123557Y58672D02*
G03*
X-124229Y58951I-672J-672D01*
G01*
X-123811Y63502D02*
G03*
X-122803Y63084I1008J1008D01*
G01*
D02*
G03*
X-123811Y62667I0J-1426D01*
G01*
X-103486Y70218D02*
G03*
X-103937Y69128I1090J-1090D01*
G01*
X-102929Y69661D02*
G03*
X-103937Y67227I2434J-2434D01*
G01*
X-99386Y70693D02*
G03*
X-98377Y70276I1008J1008D01*
G01*
D02*
G03*
X-99386Y69858I0J-1426D01*
G01*
X-105107Y79714D02*
G03*
X-107441Y79173I-734J-2140D01*
G01*
X-105362Y78969D02*
G03*
X-108333Y78281I-934J-2725D01*
G01*
X-106477Y79089D02*
G03*
X-107087Y79527I-609J-204D01*
G01*
D02*
G03*
X-106477Y79966I0J643D01*
G01*
X-114620Y82087D02*
G03*
X-116636Y81251I0J-2851D01*
G01*
X-116883Y81004D02*
G03*
X-115995Y83372I-2162J2162D01*
G01*
X-120451Y80631D02*
G03*
X-121113Y80905I-662J-662D01*
G01*
X-121805D02*
G03*
X-120451Y81467I0J1915D01*
G01*
X-119222D02*
G03*
X-117867Y80905I1354J1354D01*
G01*
X-118560D02*
G03*
X-119222Y80631I0J-936D01*
G01*
X-123705Y81323D02*
G03*
X-122697Y80905I1008J1008D01*
G01*
D02*
G03*
X-123705Y80488I0J-1426D01*
G01*
X-124934Y76945D02*
G03*
X-126189Y77464I-1255J-1255D01*
G01*
X-125696D02*
G03*
X-124934Y77780I0J1077D01*
G01*
X125394Y8858D02*
G03*
X126507Y6170I3802J0D01*
G01*
X126032Y6645D02*
G03*
X124016Y7480I-2016J-2016D01*
G01*
X113199Y3947D02*
G03*
X110847Y4921I-2352J-2352D01*
G01*
D02*
G03*
X113199Y5895I0J3327D01*
G01*
X114591Y4504D02*
G03*
X113897Y2828I1675J-1675D01*
G01*
X115148Y3947D02*
G03*
X113897Y927I3019J-3019D01*
G01*
Y2262D02*
G03*
X113199Y3947I-2383J0D01*
G01*
X112795Y12795D02*
G03*
X111682Y15484I-3802J0D01*
G01*
X112157Y15008D02*
G03*
X114173Y14173I2016J2016D01*
G01*
X-114311Y32244D02*
G03*
X-115595Y32776I-1284J-1284D01*
G01*
X-115044D02*
G03*
X-114311Y33079I0J1036D01*
G01*
X-113082D02*
G03*
X-112074Y32661I1008J1008D01*
G01*
D02*
G03*
X-113082Y32244I0J-1426D01*
G01*
X-114272Y38543D02*
G03*
X-113476Y36622I2716J0D01*
G01*
X-118217Y32374D02*
G03*
X-119187Y32776I-970J-970D01*
G01*
X-119263D02*
G03*
X-118217Y33209I0J1480D01*
G01*
X-116988D02*
G03*
X-115942Y32776I1046J1046D01*
G01*
X-116018D02*
G03*
X-116988Y32374I0J-1372D01*
G01*
X-120842Y33193D02*
G03*
X-119834Y32776I1008J1008D01*
G01*
X-119834D02*
G03*
X-120842Y32358I0J-1426D01*
G01*
X-121236D02*
G03*
X-121850Y30875I1483J-1483D01*
G01*
X-113583Y21457D02*
G03*
X-114927Y20900I0J-1901D01*
G01*
X-114452Y21375D02*
G03*
X-114173Y22047I-672J672D01*
G01*
X-111122Y24579D02*
G03*
X-110179Y22302I3221J0D01*
G01*
X-111122Y26480D02*
G03*
X-109622Y22859I5122J0D01*
G01*
X-110630Y22441D02*
G03*
X-110908Y23113I-950J0D01*
G01*
X-111024Y23228D02*
G03*
X-110197Y23010I601J601D01*
G01*
X-108933Y36638D02*
G03*
X-107925Y36220I1008J1008D01*
G01*
D02*
G03*
X-108933Y35803I0J-1426D01*
G01*
X-110162Y32260D02*
G03*
X-111132Y32661I-970J-970D01*
G01*
X-111208D02*
G03*
X-110162Y33095I0J1479D01*
G01*
X-121850Y30366D02*
G03*
X-120844Y27936I3437J0D01*
G01*
X-121850Y32267D02*
G03*
X-120287Y28493I5338J0D01*
G01*
X-110287Y26822D02*
G03*
X-111122Y24806I2016J-2016D01*
G01*
D02*
G03*
X-111957Y26822I-2851J0D01*
G01*
X-113854Y40626D02*
G03*
X-114272Y39618I1008J-1008D01*
G01*
D02*
G03*
X-114689Y40626I-1426J0D01*
G01*
X-113854Y41658D02*
G03*
X-112846Y41240I1008J1008D01*
G01*
D02*
G03*
X-113854Y40823I0J-1426D01*
G01*
X-110949D02*
G03*
X-111957Y41240I-1008J-1008D01*
G01*
D02*
G03*
X-110949Y41658I0J1426D01*
G01*
X-107406Y41855D02*
G03*
X-106988Y42863I-1008J1008D01*
G01*
D02*
G03*
X-106571Y41855I1426J0D01*
G01*
X81126Y12378D02*
G03*
X80709Y11370I1008J-1008D01*
G01*
D02*
G03*
X80291Y12378I-1426J0D01*
G01*
Y16756D02*
G03*
X80709Y17764I-1008J1008D01*
G01*
D02*
G03*
X81126Y16756I1426J0D01*
G01*
X-5437Y127878D02*
G03*
X-5118Y128649I-771J771D01*
G01*
Y129124D02*
G03*
X-4602Y127878I1762J0D01*
G01*
Y127681D02*
G03*
X-3594Y127264I1008J1008D01*
G01*
D02*
G03*
X-4602Y126846I0J-1426D01*
G01*
X-122694Y95471D02*
G03*
X-149239Y49759I123397J-102219D01*
G01*
X142278Y66785D02*
G03*
X142991Y69015I-729J1462D01*
G01*
D02*
G03*
X63123Y143479I-147848J-78513D01*
G01*
X-133336Y77464D02*
G03*
X-146683Y50989I134028J-84174D01*
G01*
X112225Y-36270D02*
G03*
X62116Y-12344I-66224J-74263D01*
G01*
X-100411Y120083D02*
G03*
X-152049Y47815I101114J-126832D01*
G01*
X106121Y17732D02*
X117070D01*
X105315Y18538D02*
X106121Y17732D01*
X105315Y18538D02*
Y24016D01*
X104232Y25098D02*
X105315Y24016D01*
X102854Y25098D02*
X104232D01*
X125200Y-35100D02*
Y1867D01*
X123883Y-36417D02*
X125200Y-35100D01*
X112422Y-36417D02*
X123883D01*
X117070Y17732D02*
X120177Y14626D01*
Y6890D02*
X125200Y1867D01*
X120177Y6890D02*
Y14626D01*
X106712Y-14920D02*
Y-10999D01*
X106927Y-10800D02*
X118500D01*
X106728Y-10999D02*
X106927Y-10800D01*
X131200Y-10400D02*
X131233Y-10433D01*
X141535D01*
X131300Y1200D02*
X135415Y5315D01*
X121600Y1200D02*
Y3102D01*
X135415Y5315D02*
X141535D01*
X116828Y7874D02*
X121600Y3102D01*
X107683Y7874D02*
X116828D01*
X105320Y10237D02*
X107683Y7874D01*
X123165Y-33000D02*
Y-11444D01*
X118121Y-6400D02*
X123165Y-11444D01*
X95200Y2300D02*
X98673D01*
X102873Y-1900D01*
X105321Y4921D02*
X114370D01*
X102900Y2500D02*
X105321Y4921D01*
X116900Y-1076D02*
Y1000D01*
Y-1076D02*
X118121Y-2297D01*
X113897Y4448D02*
X114370Y4921D01*
X113897Y-1900D02*
Y4448D01*
X122306Y-33858D02*
X123165Y-33000D01*
X120177Y-33858D02*
X122306D01*
X118121Y-6400D02*
Y-5840D01*
X124114Y8563D02*
X126800Y5877D01*
Y-37700D02*
Y5877D01*
X123819Y8858D02*
X124114Y8563D01*
X125721Y-38780D02*
X126800Y-37700D01*
X119193Y-38780D02*
X125721D01*
X131200Y-31594D02*
X134547D01*
X-98032Y24803D02*
Y44291D01*
X-149239Y49759D02*
X-147716Y47933D01*
X57118Y116078D02*
X57480Y115715D01*
X54790Y118405D02*
X57118Y116078D01*
X41240Y103150D02*
X43799Y105709D01*
X38386Y100098D02*
X41339Y103051D01*
X-12992Y49508D02*
X-11220Y51279D01*
X43799Y105709D02*
Y115354D01*
X41339Y117815D02*
X43799Y115354D01*
X41339Y117815D02*
Y118405D01*
X-111611Y51575D02*
X-107970Y55216D01*
X-116142Y51575D02*
X-111611D01*
X-107970Y55216D02*
X-98917D01*
X-91080Y68110D02*
X-41339D01*
X-93701Y65489D02*
X-91080Y68110D01*
X-93701Y60433D02*
Y65489D01*
X-41339Y68110D02*
X-37992Y64764D01*
Y63779D02*
Y64764D01*
X-98917Y55216D02*
X-93701Y60433D01*
X106728Y-10999D02*
X107138D01*
X106785Y-11057D02*
X106966D01*
X97835Y60630D02*
X100197Y62992D01*
X97835Y51378D02*
Y60630D01*
X95965Y49907D02*
Y65453D01*
Y49907D02*
X99809Y46063D01*
X89961Y71456D02*
X94489Y66928D01*
X95965Y65453D01*
X99809Y46063D02*
X102362D01*
X104429Y48130D01*
Y48130D01*
X73228Y79134D02*
X85630D01*
X89961Y74803D01*
Y71456D02*
Y74803D01*
X72215Y80147D02*
Y96191D01*
Y80147D02*
X73228Y79134D01*
X63779Y97638D02*
X70769D01*
X72215Y96191D01*
X60335Y101083D02*
Y103150D01*
Y101083D02*
X63779Y97638D01*
X97835Y51378D02*
X100394Y48819D01*
X102776Y58169D02*
X104404D01*
X117557Y54462D02*
X142278Y66785D01*
X110254Y35728D02*
X112992D01*
X107695Y33169D02*
X110254Y35728D01*
X116531Y53436D02*
X117557Y54462D01*
X116531Y39267D02*
Y53436D01*
X112992Y35728D02*
X116531Y39267D01*
X87913Y33169D02*
X107695D01*
X87402Y33681D02*
X87913Y33169D01*
X109252Y68209D02*
X110335Y67126D01*
X107972Y68209D02*
X109252D01*
X110236Y70965D02*
X114567Y66634D01*
Y40157D02*
Y66634D01*
X77756Y124606D02*
Y127854D01*
Y124606D02*
X78937Y123425D01*
X83366D01*
X85335Y121457D01*
Y98130D02*
Y121457D01*
X82086Y94882D02*
X85335Y98130D01*
X77264Y94882D02*
X82086D01*
X75492Y93110D02*
X77264Y94882D01*
X75492Y83465D02*
Y93110D01*
Y83465D02*
X76476Y82480D01*
X87598D01*
X93603Y76476D01*
Y72342D02*
Y76476D01*
Y72342D02*
X94980Y70965D01*
X110236D01*
X112909Y38500D02*
X114567Y40157D01*
X106874Y38500D02*
X112909D01*
X54790Y118405D02*
Y121982D01*
X53543Y123228D02*
X54790Y121982D01*
X31102Y123228D02*
X53543D01*
X29921Y122047D02*
X31102Y123228D01*
X29921Y101083D02*
Y122047D01*
Y101083D02*
X31004Y100000D01*
X34154D01*
X34843Y99311D01*
Y75000D02*
Y99311D01*
X31102Y71260D02*
X34843Y75000D01*
X17728Y71260D02*
X31102D01*
X12537Y66068D02*
X17728Y71260D01*
X4404Y66068D02*
X12537D01*
X2657Y67815D02*
X4404Y66068D01*
X0Y67815D02*
X2657D01*
X-984Y66831D02*
X0Y67815D01*
X-984Y63386D02*
Y66831D01*
Y63386D02*
X-787Y63189D01*
X66535Y73757D02*
Y91732D01*
X60888Y68110D02*
X66535Y73757D01*
X3715Y62303D02*
X13226D01*
X3543Y62131D02*
X3715Y62303D01*
X19033Y68110D02*
X60888D01*
X13226Y62303D02*
X19033Y68110D01*
X6299Y59842D02*
X12992D01*
X19685Y66535D01*
X13189Y64494D02*
X18380Y69685D01*
X2829Y64494D02*
X13189D01*
X1969Y65354D02*
X2829Y64494D01*
X63189Y72638D02*
Y91732D01*
X60236Y69685D02*
X63189Y72638D01*
X18380Y69685D02*
X60236D01*
X19685Y66535D02*
X38976D01*
X34498Y131152D02*
X35236Y131890D01*
X27657Y124311D02*
X34498Y131152D01*
X35630Y132283D01*
Y135046D01*
Y140945D01*
Y134350D02*
Y135046D01*
X13583Y132283D02*
X21555Y124311D01*
X27657D01*
X3675Y132283D02*
X13583D01*
X33347Y127700D02*
X37247D01*
X28248Y122601D02*
X33347Y127700D01*
X37247D02*
X37402Y127854D01*
X28150Y112008D02*
X28248Y112106D01*
X9646Y112008D02*
X28150D01*
X9449Y112205D02*
X9646Y112008D01*
X28248Y112106D02*
Y122601D01*
X73790Y81328D02*
Y118377D01*
X69459Y96063D02*
X70640Y94882D01*
Y79495D02*
Y94882D01*
X73790Y81328D02*
X74410Y80709D01*
X70640Y79495D02*
X72576Y77559D01*
X95276Y68405D02*
X104134D01*
X104331Y68209D01*
X91782Y71899D02*
X95276Y68405D01*
X73790Y118377D02*
X73819Y118405D01*
X91782Y71899D02*
Y75639D01*
X86713Y80709D02*
X91782Y75639D01*
X74410Y80709D02*
X86713D01*
X84941Y77559D02*
X88189Y74311D01*
Y63209D02*
Y74311D01*
X72576Y77559D02*
X84941D01*
X63127Y96063D02*
X69459D01*
X46850Y102756D02*
Y102953D01*
Y102756D02*
X50000Y99606D01*
X59584D01*
X63127Y96063D01*
X84842Y28734D02*
Y34646D01*
Y28734D02*
X87008Y26569D01*
Y18240D02*
Y26569D01*
Y18240D02*
X88992Y16256D01*
X106874Y36205D02*
Y38500D01*
X105413Y34744D02*
X106874Y36205D01*
X91024Y34744D02*
X105413D01*
X89724Y36043D02*
X91024Y34744D01*
X86240Y36043D02*
X89724D01*
X84842Y34646D02*
X86240Y36043D01*
X81693Y118110D02*
X82284Y118701D01*
X81693Y103150D02*
Y118110D01*
X-88779Y90453D02*
X-85202D01*
X-90650Y88583D02*
X-88779Y90453D01*
X-90650Y84941D02*
Y88583D01*
X-98028Y83760D02*
X-91831D01*
X-90650Y84941D01*
X-99425Y82363D02*
X-98028Y83760D01*
X-90059Y80905D02*
X-87500Y83465D01*
X-87402D01*
X-93133Y80905D02*
X-90059D01*
X-93149Y80890D02*
X-93133Y80905D01*
X-97063Y80890D02*
X-93149D01*
X-85202Y90453D02*
X-83940Y91716D01*
X-99425Y79416D02*
Y82363D01*
Y79416D02*
X-97355Y77346D01*
X-97063D01*
X-122539Y95473D02*
X-96965D01*
X103150Y38681D02*
X103331Y38500D01*
X100787Y38681D02*
X103150D01*
X110252Y19898D02*
X110531Y20177D01*
X107791Y19898D02*
X110252D01*
X40157Y45512D02*
X40787Y44882D01*
X52244D02*
X52362Y45000D01*
Y51083D01*
X-10841Y125689D02*
X-8287Y123135D01*
X-37205Y125689D02*
X-10841D01*
X-38386Y124508D02*
X-37205Y125689D01*
X-1378Y115551D02*
Y127500D01*
X-1280Y127599D01*
X-5118Y127362D02*
X-5020Y127264D01*
X-5118Y127362D02*
Y131102D01*
X-5020Y131201D01*
Y135669D01*
X-5020Y127264D02*
X-1614D01*
X2584Y125827D02*
X7874D01*
X2559Y122638D02*
Y127624D01*
X984Y121063D02*
X2559Y122638D01*
X7849Y127624D02*
X7874Y127599D01*
X2067Y131609D02*
X2534Y131142D01*
X2559Y131167D02*
X3675Y132283D01*
X2067Y131609D02*
Y135669D01*
X2534Y131142D02*
X2559Y131167D01*
X-1280Y131142D02*
X2534D01*
X102889Y-5720D02*
X106417Y-2192D01*
Y-1900D01*
X102889Y-6275D02*
Y-5720D01*
X100394Y12402D02*
Y18602D01*
X102165Y16929D02*
Y20214D01*
Y16929D02*
X105320Y13774D01*
X100726Y21654D02*
X102165Y20214D01*
X93209Y21654D02*
X100726D01*
X91437Y19882D02*
X93209Y21654D01*
X100197Y24409D02*
Y26870D01*
Y24409D02*
X103740Y20866D01*
Y17886D02*
Y20866D01*
Y17886D02*
X105469Y16158D01*
X111008D01*
X105320Y10237D02*
Y13774D01*
X107382Y25886D02*
X107791Y25476D01*
Y23441D02*
Y25476D01*
X1316Y143504D02*
X1316Y143504D01*
X1316Y143504D02*
X62992D01*
X-106988Y41532D02*
Y44587D01*
X100417Y9872D02*
Y12378D01*
X98420Y7875D02*
X100417Y9872D01*
X88583Y7875D02*
X98420D01*
X111008Y16158D02*
X114370Y12795D01*
X84646Y3937D02*
X88583Y7875D01*
X106728Y-10999D02*
X106785Y-11057D01*
X134547Y-31594D02*
X139961Y-26181D01*
X141535D01*
X82284Y-905D02*
X87283Y-5906D01*
X82284Y-905D02*
Y10433D01*
X84646Y12795D01*
X80709Y16339D02*
Y19783D01*
X96653Y11024D02*
X97441Y10236D01*
X96653Y11024D02*
Y12598D01*
X113173Y31480D02*
X114370Y32677D01*
X109346Y31480D02*
X113173D01*
X82776Y39272D02*
X83071Y38976D01*
X84646D01*
X78429Y46949D02*
X79709Y45669D01*
X78429Y46949D02*
Y60154D01*
X33366Y102165D02*
X35433D01*
X79709Y45669D02*
X85824D01*
X88189Y43304D01*
Y43012D02*
Y43304D01*
X81496Y48591D02*
X84086D01*
X84646Y48031D01*
Y16339D02*
Y25591D01*
X93094Y16256D02*
X93110Y16240D01*
X88992Y16256D02*
X93094D01*
X96653Y12598D02*
Y16240D01*
X112598Y58169D02*
X112992Y57776D01*
Y44094D02*
Y57776D01*
X111811Y42913D02*
X112992Y44094D01*
X107947Y58169D02*
X112598D01*
X113287Y33760D02*
X114370Y32677D01*
Y24803D02*
Y32677D01*
X114075Y24508D02*
X114370Y24803D01*
X114075Y20276D02*
Y24508D01*
X80709Y-2480D02*
Y12795D01*
X77284Y-5906D02*
X80709Y-2480D01*
X118121Y-2297D02*
X122026D01*
X122042Y-2313D01*
X113897Y-1900D02*
X114187D01*
X113897D02*
Y-1608D01*
Y-1900D02*
X113979Y-1983D01*
Y-6047D02*
Y-1983D01*
X110208Y-6275D02*
X110436Y-6047D01*
X106432Y-6275D02*
X110208D01*
X102274Y-1301D02*
X102873Y-1900D01*
X-106988Y41240D02*
Y41532D01*
X-114272Y36386D02*
Y41240D01*
Y36386D02*
X-114091Y36205D01*
X-109547Y36220D02*
X-102756D01*
X-99803Y33268D01*
Y19980D02*
Y33268D01*
X-100329Y119980D02*
X-76785D01*
X-76293Y119488D01*
X1705Y99544D02*
X15748Y85501D01*
X959Y97736D02*
X12659Y86036D01*
X307Y96161D02*
X9449Y87019D01*
X-35888Y96161D02*
X307D01*
X-37759Y98032D02*
X-35888Y96161D01*
X-35236Y97736D02*
X959D01*
X-37106Y99606D02*
X-35236Y97736D01*
X30709Y44961D02*
Y48819D01*
Y44961D02*
X30787Y44882D01*
X37402Y64173D02*
X39370Y62205D01*
X76378D01*
X78429Y60154D01*
X-32244Y99544D02*
X1705D01*
X-37129Y104429D02*
X-32244Y99544D01*
X-71564Y73711D02*
Y94882D01*
X-74016Y71260D02*
X-71564Y73711D01*
X-92385Y71260D02*
X-74016D01*
X-68639Y98032D02*
X-37759D01*
X-68639Y97807D02*
Y98032D01*
X-71564Y94882D02*
X-68639Y97807D01*
X9449Y85039D02*
Y87019D01*
X-69291Y99606D02*
X-37106D01*
X-73819Y95079D02*
X-69291Y99606D01*
X-73819Y88976D02*
Y95079D01*
X-45472Y104429D02*
X-37129D01*
X-46800Y105757D02*
X-45472Y104429D01*
X-46800Y105757D02*
Y117500D01*
X-68031Y-12519D02*
X-63583Y-8071D01*
X-116088Y-12519D02*
X-68031D01*
X-63583Y-8071D02*
Y6496D01*
X-121850Y32776D02*
X-114091D01*
X-109563Y32661D02*
X-109547Y32677D01*
X-113697Y32661D02*
X-109563D01*
X-87402Y83465D02*
X-84842Y86024D01*
Y87894D01*
X-97063Y77346D02*
X-89157D01*
X-98327Y67028D02*
X-97146Y68209D01*
X-83940Y91716D02*
X-82972Y92683D01*
X-84415Y91240D02*
X-83940Y91716D01*
X-82972Y92683D02*
Y102988D01*
X-81299Y92043D02*
X-78051Y95291D01*
X-81299Y88878D02*
Y92043D01*
X-78051Y95291D02*
Y97503D01*
X-82972Y102988D02*
X-76293Y109668D01*
X-97063Y72654D02*
X-97047Y72638D01*
X-97063Y72654D02*
Y77346D01*
X-98327Y61516D02*
Y67028D01*
X-101476Y58366D02*
X-98327Y61516D01*
X-114183Y58366D02*
X-101476D01*
X-95276Y66142D02*
X-91732Y69685D01*
X-95276Y61122D02*
Y66142D01*
X-99606Y56791D02*
X-95276Y61122D01*
X-110348Y56791D02*
X-99606D01*
X-113202Y53937D02*
X-110348Y56791D01*
X-114863Y57687D02*
X-114183Y58366D01*
X-113779Y53937D02*
X-113202D01*
X-40650Y70374D02*
X-36811D01*
X-41339Y69685D02*
X-40650Y70374D01*
X-91732Y69685D02*
X-41339D01*
X-116733Y59557D02*
X-114863Y57687D01*
X-120079Y59557D02*
X-116733D01*
X-120095Y59541D02*
X-120079Y59557D01*
X-121850Y29370D02*
X-120138Y27657D01*
X-121850Y29370D02*
Y32776D01*
X-114272Y41240D02*
X-110531D01*
X-118110Y53543D02*
X-116142Y51575D01*
X-45572Y125600D02*
X-43219Y127953D01*
X-54085Y125600D02*
X-45572D01*
X-43219Y127953D02*
Y132579D01*
X-69671Y116717D02*
X-62289D01*
X-60108Y118898D02*
X-60004Y119001D01*
Y123224D01*
X-111122Y23327D02*
X-110039Y22244D01*
X-109850Y22055D01*
X-111122Y23327D02*
Y27657D01*
X-117126Y-11481D02*
X-116088Y-12519D01*
X-117126Y-11481D02*
Y18701D01*
X-113583Y22244D01*
X-62106Y143504D02*
X1316D01*
X-65453Y140157D02*
X-62106Y143504D01*
X-65453Y133195D02*
Y140157D01*
Y133195D02*
X-63065Y130807D01*
X-62772D01*
X64304Y127854D02*
X77756D01*
X50853D02*
X64304D01*
X37402D02*
X50853D01*
X15748Y84454D02*
X15847Y84355D01*
X15748Y84454D02*
Y85501D01*
X-48387Y119087D02*
X-46800Y117500D01*
X-48387Y119087D02*
Y123224D01*
X36417Y72835D02*
X36614Y72638D01*
X36614D02*
X36614D01*
X36417Y72834D02*
X36614Y72638D01*
X36417Y72835D02*
Y101181D01*
X35433Y102165D02*
X36417Y101181D01*
X33366Y102165D02*
Y103150D01*
X33465Y103248D02*
Y118405D01*
X-51930Y116232D02*
Y123224D01*
X-56461D02*
X-54085Y125600D01*
X-76293Y109668D02*
Y110472D01*
X-62289Y116717D02*
X-60108Y118898D01*
X-50856Y115157D02*
X-50659Y114961D01*
X-55227Y134350D02*
X-53061Y136516D01*
X-58527Y134350D02*
X-55227D01*
X-62772D02*
X-58527D01*
X-1378Y115551D02*
X0Y114173D01*
X2953D01*
X-69671Y113173D02*
X-62257D01*
X-69671D02*
X-69313Y112815D01*
Y108055D02*
Y112815D01*
X-72372Y110472D02*
X-69671Y113173D01*
X-76203Y110472D02*
X-72372D01*
X-62257Y113173D02*
X-60108Y111024D01*
X-124320Y80905D02*
X-116982D01*
X-114423Y83465D01*
X-89157Y77346D02*
X-87402Y75590D01*
X-97063Y80890D02*
Y81283D01*
X-77953Y79528D02*
X-77362Y80118D01*
Y88976D01*
X-93035Y100789D02*
X-92385Y101440D01*
X-93035Y99016D02*
Y100789D01*
X-92385Y101440D02*
X-87500D01*
X-94541D02*
X-92385D01*
X-96965Y99016D02*
X-94541Y101440D01*
X-99803Y70276D02*
X-93369D01*
X-92385Y71260D01*
X-103937Y69685D02*
X-103347Y70276D01*
X-103937Y64960D02*
Y69685D01*
X-105414Y63484D02*
X-103937Y64960D01*
X-105414Y61624D02*
Y63484D01*
X-115354Y66052D02*
X-114863Y65561D01*
X-115354Y66052D02*
Y70276D01*
X-115256Y70374D01*
X-112402D01*
X-108858D02*
X-108268Y70965D01*
Y78347D01*
X-107087Y79527D01*
X-104974D01*
X-122571Y57687D02*
X-114863D01*
X-124426Y59541D02*
X-122571Y57687D01*
X-120095Y63084D02*
Y64416D01*
X-118950Y65561D01*
X-114863D01*
X-120095Y63084D02*
X-120079Y63100D01*
X-124426Y63084D02*
X-120095D01*
X40787Y44882D02*
X40945Y45039D01*
X19291Y44921D02*
X19331Y44882D01*
X19291Y44921D02*
Y49213D01*
X9331Y44882D02*
X9449Y45000D01*
Y48819D01*
X39724Y103150D02*
X41240D01*
X81693Y98228D02*
Y103150D01*
X80708Y97244D02*
X81693Y98228D01*
X76378Y97244D02*
X80708D01*
X67323Y102264D02*
X68209Y103150D01*
X67323Y100394D02*
Y102264D01*
X46916Y102887D02*
Y118405D01*
X46850Y102953D02*
Y103150D01*
X-22835Y49213D02*
Y51279D01*
Y47244D02*
Y49213D01*
X110630Y48031D02*
X110630D01*
X110531Y48130D02*
X110630Y48031D01*
X107972Y48130D02*
X110531D01*
X102776Y52559D02*
X104404D01*
X102264Y42913D02*
X111811D01*
X102264D02*
X102362Y43012D01*
X81890Y62992D02*
X82106Y63209D01*
X84646D01*
X104331Y68209D02*
X104429D01*
X104331Y67716D02*
Y68209D01*
X82284Y43012D02*
X84646D01*
X46850Y102953D02*
X46916Y102887D01*
X60335Y103150D02*
X60367Y103182D01*
Y118405D01*
X88189Y62992D02*
Y63209D01*
Y62992D02*
X88583Y62598D01*
X106235Y-2436D02*
X106772Y-1900D01*
X110354D01*
X82284Y52756D02*
X82382Y52657D01*
X84646D01*
X90158Y53150D02*
Y57480D01*
X89665Y52657D02*
X90158Y53150D01*
X88189Y52657D02*
X89665D01*
X-22835Y47244D02*
X-22441Y46850D01*
X-22835Y51279D02*
X-22244Y51870D01*
X-12992Y46850D02*
X-12598Y46457D01*
X-12992Y46850D02*
Y49508D01*
X38386Y74567D02*
X39724Y73228D01*
X38976Y66535D02*
X40157Y65354D01*
X36417Y64173D02*
X37402D01*
X38386Y74567D02*
Y100098D01*
X57480Y105905D02*
Y115715D01*
X56545Y104970D02*
X57480Y105905D01*
X54724Y103150D02*
X57480Y105905D01*
X68242Y118405D02*
X70472Y116174D01*
X68209Y103150D02*
X70472Y105413D01*
Y115945D01*
Y116174D01*
X-122539Y95473D02*
X-121949Y95472D01*
X-96457Y28248D02*
X-95571Y27362D01*
X61030Y-11259D02*
Y2355D01*
X60236Y3150D02*
X61030Y2355D01*
X-96457Y28248D02*
Y46260D01*
X-124422Y77464D02*
X-124320Y77362D01*
X-145476Y49705D02*
X-111137D01*
X-98942Y53642D02*
X-97400Y52100D01*
X-107200Y53642D02*
X-98942D01*
X-97400Y47203D02*
X-96457Y46260D01*
X-146683Y50989D02*
X-145476Y49705D01*
X-97400Y47203D02*
Y52100D01*
X-133336Y77464D02*
X-124422D01*
X-111137Y49705D02*
X-107200Y53642D01*
X61030Y-11259D02*
X62116Y-12344D01*
X-147716Y47933D02*
X-110682D01*
X-98975Y45235D02*
X-98032Y44291D01*
X-98975Y45235D02*
Y51375D01*
X-110682Y47933D02*
X-106881Y51733D01*
X-99333D02*
X-98975Y51375D01*
X-106881Y51733D02*
X-99333D01*
X-150689Y46358D02*
X-108542D01*
X-105600Y49300D01*
X-108542Y46140D02*
Y46358D01*
Y46140D02*
X-106988Y44587D01*
X-152049Y47815D02*
X-150689Y46358D01*
X-152067Y47835D02*
X-152049Y47815D01*
D11*
X-25591Y69291D02*
G03*
X-28615Y68039I0J-4277D01*
G01*
X-24803Y71850D02*
G03*
X-25066Y70153I1028J-1028D01*
G01*
X-25835Y70818D02*
G03*
X-25000Y72835I-2016J2016D01*
G01*
X-27851Y68802D02*
G03*
X-26181Y72835I-4033J4033D01*
G01*
X15461Y88360D02*
G03*
X18012Y87303I2551J2551D01*
G01*
X-30531Y102324D02*
G03*
X-29486Y101891I1044J1044D01*
G01*
X-29558D02*
G03*
X-30531Y101489I0J-1375D01*
G01*
X-41226Y101891D02*
G03*
X-39811Y102478I0J2002D01*
G01*
X20768Y87008D02*
G03*
X20141Y88520I-2138J0D01*
G01*
X87721Y2485D02*
G03*
X88729Y2067I1008J1008D01*
G01*
D02*
G03*
X87721Y1649I0J-1426D01*
G01*
X77830Y8047D02*
G03*
X77060Y8366I-771J-771D01*
G01*
X76585D02*
G03*
X77830Y8882I0J1762D01*
G01*
X91831Y50394D02*
G03*
X90823Y49976I0J-1426D01*
G01*
X90823Y49976D02*
G03*
X91240Y50984I-1008J1008D01*
G01*
X-42323Y110165D02*
G03*
X-43036Y111886I-2434J0D01*
G01*
Y112721D02*
G03*
X-42323Y114442I-1721J1721D01*
G01*
X24138Y63460D02*
G03*
X23720Y62452I1008J-1008D01*
G01*
D02*
G03*
X23303Y63460I-1426J0D01*
G01*
X20891Y63365D02*
G03*
X20473Y62357I1008J-1008D01*
G01*
D02*
G03*
X20056Y63365I-1426J0D01*
G01*
X100614Y56028D02*
G03*
X102811Y55118I2196J2196D01*
G01*
X117982Y-17918D02*
G03*
X116925Y-17480I-1058J-1058D01*
G01*
X117024D02*
G03*
X117982Y-17082I0J1356D01*
G01*
X129718Y-17918D02*
G03*
X128641Y-20517I2599J-2599D01*
G01*
Y-14483D02*
G03*
X129718Y-17082I3676J0D01*
G01*
X-29607Y67046D02*
G03*
X-30512Y64862I2184J-2184D01*
G01*
X-35630Y115256D02*
G03*
X-36326Y116936I-2376J0D01*
G01*
X-36801Y117411D02*
G03*
X-34449Y116437I2352J2352D01*
G01*
X-33614Y114027D02*
G03*
X-34449Y112011I2016J-2016D01*
G01*
D02*
G03*
X-35284Y114027I-2851J0D01*
G01*
X-41488D02*
G03*
X-42323Y112011I2016J-2016D01*
G01*
D02*
G03*
X-43158Y114027I-2851J0D01*
G01*
X107553Y52756D02*
G03*
X107011Y54066I-1853J0D01*
G01*
X88189Y48622D02*
G03*
X90373Y49527I0J3089D01*
G01*
X89156Y48344D02*
G03*
X87773Y48503I-791J-791D01*
G01*
X90207Y47293D02*
G03*
X88397Y47501I-1035J-1035D01*
G01*
X89365Y48135D02*
G03*
X88189Y48622I-1176J-1176D01*
G01*
X-59811Y128870D02*
G03*
X-59116Y130774I-1700J1700D01*
G01*
X103562Y-15117D02*
G03*
X104105Y-16428I1853J0D01*
G01*
X67244Y23819D02*
G03*
X68924Y24515I0J2376D01*
G01*
X67244Y25000D02*
G03*
X70941Y26531I0J5228D01*
G01*
X138881Y-35726D02*
G03*
X134848Y-34055I-4033J-4033D01*
G01*
D02*
G03*
X138881Y-32385I0J5703D01*
G01*
X-76989Y121168D02*
G03*
X-76293Y122849I-1680J1680D01*
G01*
D02*
G03*
X-75596Y121168I2376J0D01*
G01*
X-68722Y104512D02*
G03*
X-68093Y102993I2148J0D01*
G01*
X-30806Y108269D02*
G03*
X-31516Y108563I-710J-710D01*
G01*
X-29145D02*
G03*
X-29855Y108269I0J-1004D01*
G01*
X-22539Y108563D02*
G03*
X-21217Y105371I4515J0D01*
G01*
X-26049Y108006D02*
G03*
X-27393Y108563I-1344J-1344D01*
G01*
D02*
G03*
X-26049Y109120I0J1901D01*
G01*
X-42323Y112792D02*
G03*
X-41372Y110498I3245J0D01*
G01*
X-34679Y109415D02*
G03*
X-32623Y108563I2057J2057D01*
G01*
X-35793Y110498D02*
G03*
X-34449Y113743I-3245J3245D01*
G01*
X-117815Y37323D02*
G03*
X-117521Y36613I1004J0D01*
G01*
X-120271Y36335D02*
G03*
X-120981Y36040I0J-1004D01*
G01*
X-8841Y127182D02*
G03*
X-10464Y127854I-1623J-1623D01*
G01*
X87303Y2067D02*
X90733D01*
X97100Y-4300D01*
Y-12800D02*
Y-4300D01*
Y-12800D02*
X99221Y-14920D01*
X103168D01*
X118379Y-17480D02*
X118400Y-17500D01*
X105157Y-17480D02*
X118379D01*
X103168Y-15491D02*
X105157Y-17480D01*
X103168Y-15491D02*
Y-14920D01*
X128641Y-10800D02*
Y13879D01*
X122244Y20276D02*
X128641Y13879D01*
Y-32360D02*
X130336Y-34055D01*
X128641Y-32360D02*
Y-10800D01*
X117618Y20276D02*
X122244D01*
X130336Y-34055D02*
X141535D01*
X100492Y55315D02*
X100689Y55118D01*
X105959D01*
X107947Y53130D01*
Y52559D02*
Y53130D01*
X-117815Y36547D02*
X-117602Y36335D01*
X-117815Y36547D02*
Y41240D01*
X-121457Y36319D02*
X-121441Y36335D01*
X-117602D01*
X20473Y61318D02*
Y63783D01*
X23720Y61713D02*
Y63878D01*
Y61713D02*
X25000Y60433D01*
X67244Y22835D02*
X72835Y28425D01*
Y56791D01*
X71161Y58465D02*
X72835Y56791D01*
X23327Y58465D02*
X71161D01*
X20866Y60925D02*
X23327Y58465D01*
X20473Y61318D02*
X20866Y60925D01*
X76657Y16421D02*
Y57890D01*
X74114Y60433D02*
X76657Y57890D01*
X25000Y60433D02*
X74114D01*
X-74213Y126476D02*
X-58071D01*
X-76293Y124397D02*
X-74213Y126476D01*
X-65354Y128445D02*
X-60236D01*
X-66240Y129331D02*
X-65354Y128445D01*
X-58527Y130154D02*
Y130807D01*
X-60236Y128445D02*
X-58527Y130154D01*
X-58071Y126476D02*
X-55719Y128828D01*
X-76293Y119488D02*
Y124397D01*
X-55719Y128828D02*
Y131279D01*
X-54223Y132776D02*
X-49016D01*
X-55719Y131279D02*
X-54223Y132776D01*
X-38681Y129985D02*
Y134252D01*
X-40157Y135728D02*
X-38681Y134252D01*
X-46063Y135728D02*
X-40157D01*
X-42323Y109252D02*
X-41929Y108858D01*
X-42323Y109252D02*
Y115059D01*
X88878Y48031D02*
X91732Y50886D01*
X88878Y48031D02*
X89468D01*
X88189D02*
X88878D01*
X89468D02*
X90748Y46752D01*
Y39469D02*
Y46752D01*
X90256Y38976D02*
X90748Y39469D01*
X88189Y38976D02*
X90256D01*
X78051Y8366D02*
X78150Y8465D01*
X75000Y8366D02*
X78051D01*
X73790Y9576D02*
X75000Y8366D01*
X73790Y9576D02*
Y15818D01*
X-36550Y127854D02*
X-9153D01*
X-8563Y127264D01*
X-38681Y129985D02*
X-36550Y127854D01*
X-41043Y118898D02*
X-38287D01*
X-41962Y119817D02*
Y126704D01*
Y119817D02*
X-41043Y118898D01*
X-38287D02*
X-34449Y115059D01*
Y115945D01*
Y109843D02*
Y115059D01*
X-34626D02*
X-34449D01*
X-41962Y126704D02*
X-38681Y129985D01*
X102997Y-15092D02*
X103168Y-14920D01*
X74394Y16421D02*
X76657D01*
X73790Y15818D02*
X74394Y16421D01*
X21358Y87008D02*
Y87303D01*
X19390Y89272D02*
X21358Y87303D01*
X18406Y89272D02*
X19390D01*
X7675Y100002D02*
X18406Y89272D01*
X1929Y101891D02*
X17108Y86713D01*
X-30963Y101891D02*
X1929D01*
X-30963D02*
X-30948Y101906D01*
X7675Y100002D02*
X8366Y99311D01*
X3642Y104035D02*
X7675Y100002D01*
X-34350Y108563D02*
X-24409D01*
X-19882Y104035D02*
X3642D01*
X-24409Y108563D02*
X-19882Y104035D01*
X-107004Y41256D02*
X-106988Y41240D01*
X-49016Y132776D02*
X-46063Y135728D01*
X-34449Y108661D02*
X-34350Y108563D01*
X17108Y86713D02*
X18012D01*
X-66991Y101891D02*
X-39562D01*
X-69313Y104213D02*
X-66991Y101891D01*
X-69313Y104213D02*
Y104512D01*
X-39562Y101891D02*
X-39393Y102060D01*
X-31693Y64961D02*
X-24803Y71850D01*
D12*
X57087Y50411D02*
G03*
X56602Y51582I-1656J0D01*
G01*
X57087Y50411D02*
G03*
X56602Y51582I-1656J0D01*
G01*
X35787Y22047D02*
G03*
X34443Y21490I0J-1901D01*
G01*
X30385Y22158D02*
G03*
X35787Y22835I2266J3813D01*
G01*
X69291Y40265D02*
G03*
X67801Y43864I-5089J0D01*
G01*
Y45900D02*
G03*
X69291Y49498I-3599J3599D01*
G01*
X5512Y15748D02*
G03*
X7400Y12079I4510J0D01*
G01*
X68110Y51575D02*
X69291Y50394D01*
Y38583D02*
Y50394D01*
X57244Y38425D02*
Y44882D01*
X57087Y44094D02*
Y50000D01*
X58661Y51575D01*
X68110D01*
X68504Y37795D02*
X69291Y38583D01*
X58661Y37795D02*
X68504D01*
X58268Y37402D02*
X58661Y37795D01*
X57244Y38425D02*
X58268Y37402D01*
X-7087Y39764D02*
X787D01*
X-17323D02*
X-7087D01*
X-31299Y42717D02*
X-28346Y39764D01*
X-17323D01*
X787D02*
X1969Y40945D01*
X-29921Y39764D02*
X-28346D01*
X-27953Y39370D01*
X29939Y16986D02*
X35787Y22835D01*
X5512Y3937D02*
Y15748D01*
X6750Y16986D01*
X29939D01*
D13*
X-113583Y22244D02*
D03*
X-110039D02*
D03*
X-110531Y41240D02*
D03*
X-106988D02*
D03*
X-117815D02*
D03*
X-114272D02*
D03*
X-77362Y87894D02*
D03*
X-73819D02*
D03*
X-81299D02*
D03*
X-84842D02*
D03*
X-103347Y70276D02*
D03*
X-99803D02*
D03*
X-108858Y70374D02*
D03*
X-112402D02*
D03*
X-33268D02*
D03*
X-36811D02*
D03*
X55905Y51083D02*
D03*
X52362D02*
D03*
X34646D02*
D03*
X31102D02*
D03*
X13287D02*
D03*
X9744D02*
D03*
X-18701Y51870D02*
D03*
X-22244D02*
D03*
X-11220Y51279D02*
D03*
X-7677D02*
D03*
X110354Y-1900D02*
D03*
X113897D02*
D03*
X110436Y-6047D02*
D03*
X113979Y-6047D02*
D03*
X103168Y-14920D02*
D03*
X106712D02*
D03*
X106728Y-10999D02*
D03*
X103184Y-10999D02*
D03*
X102889Y-6275D02*
D03*
X106432D02*
D03*
X102873Y-1900D02*
D03*
X106417D02*
D03*
X96653Y12598D02*
D03*
X93110D02*
D03*
Y16240D02*
D03*
X96653D02*
D03*
X93110Y24016D02*
D03*
X96653D02*
D03*
X114075Y20276D02*
D03*
X117618D02*
D03*
X103331Y38500D02*
D03*
X106874Y38500D02*
D03*
X104429Y48130D02*
D03*
X107972D02*
D03*
X107947Y52559D02*
D03*
X104404D02*
D03*
X107947Y58169D02*
D03*
X104404D02*
D03*
X104429Y68209D02*
D03*
X107972D02*
D03*
X88189Y38976D02*
D03*
X84646D02*
D03*
X88189Y43012D02*
D03*
X84646D02*
D03*
X88189Y48031D02*
D03*
X84646D02*
D03*
X88189Y52657D02*
D03*
X84646D02*
D03*
X88189Y63209D02*
D03*
X84646D02*
D03*
X-5118Y131102D02*
D03*
X-8661D02*
D03*
X-5020Y127264D02*
D03*
X-8563D02*
D03*
X-56461Y123224D02*
D03*
X-60004D02*
D03*
X-51930D02*
D03*
X-48387D02*
D03*
D14*
X-120138Y27657D02*
D03*
X-111122D02*
D03*
D15*
X-109547Y36220D02*
D03*
Y32677D02*
D03*
X-113697Y32661D02*
D03*
X-113697Y36205D02*
D03*
X-117602Y36335D02*
D03*
X-117602Y32791D02*
D03*
X-121457Y32776D02*
D03*
Y36319D02*
D03*
X-96965Y99016D02*
D03*
Y95473D02*
D03*
X-93035Y99016D02*
D03*
Y95472D02*
D03*
X-93133Y77362D02*
D03*
Y80905D02*
D03*
X-97063Y77346D02*
D03*
X-97063Y80890D02*
D03*
X-119836Y81049D02*
D03*
Y77506D02*
D03*
X-124320Y80905D02*
D03*
Y77362D02*
D03*
X-124426Y59541D02*
D03*
X-124426Y63084D02*
D03*
X-120079Y59557D02*
D03*
Y63100D02*
D03*
X-67799Y35449D02*
D03*
X-67799Y38992D02*
D03*
X122042Y-5856D02*
D03*
X122042Y-2313D02*
D03*
X118121Y-5840D02*
D03*
Y-2297D02*
D03*
X76657Y12878D02*
D03*
X76657Y16421D02*
D03*
X80709Y12795D02*
D03*
Y16339D02*
D03*
X84646D02*
D03*
Y12795D02*
D03*
X88992Y16256D02*
D03*
X88992Y12713D02*
D03*
X107791Y23441D02*
D03*
X107791Y19898D02*
D03*
X2559Y127624D02*
D03*
Y131167D02*
D03*
X-1280Y131142D02*
D03*
Y127599D02*
D03*
X-30331Y108547D02*
D03*
X-30331Y112091D02*
D03*
X-69313Y104512D02*
D03*
X-69313Y108055D02*
D03*
X-65223Y113189D02*
D03*
Y116732D02*
D03*
X-69671Y113173D02*
D03*
X-69671Y116717D02*
D03*
X-62772Y134350D02*
D03*
Y130807D02*
D03*
X-58527Y134350D02*
D03*
Y130807D02*
D03*
D16*
X-78051Y97503D02*
D03*
X-87500Y93566D02*
D03*
Y101440D02*
D03*
X-77953Y79528D02*
D03*
X-87402Y75590D02*
D03*
Y83465D02*
D03*
X-104974Y79527D02*
D03*
X-114423Y75590D02*
D03*
Y83465D02*
D03*
X123819Y8858D02*
D03*
X114370Y4921D02*
D03*
Y12795D02*
D03*
X114370Y32677D02*
D03*
Y24803D02*
D03*
X123819Y28740D02*
D03*
X-50659Y114961D02*
D03*
X-60108Y111024D02*
D03*
Y118898D02*
D03*
X-42924Y132579D02*
D03*
X-52372Y128642D02*
D03*
Y136516D02*
D03*
X-105414Y61624D02*
D03*
X-114863Y57687D02*
D03*
Y65561D02*
D03*
D17*
X-19488Y70472D02*
D03*
X-12795D02*
D03*
X-19488Y62205D02*
D03*
X-12795D02*
D03*
X-37992Y47441D02*
D03*
X-31299D02*
D03*
X-37992Y54724D02*
D03*
X-31299D02*
D03*
Y63779D02*
D03*
X-37992D02*
D03*
X-41929Y108858D02*
D03*
X-35236D02*
D03*
D18*
X-37106Y6496D02*
D03*
Y17520D02*
D03*
X-46282Y6470D02*
D03*
Y17493D02*
D03*
X-54921Y6496D02*
D03*
Y17520D02*
D03*
X-63583Y6496D02*
D03*
Y17520D02*
D03*
D19*
X-29921Y27165D02*
D03*
Y39764D02*
D03*
X-38189Y39764D02*
D03*
Y27165D02*
D03*
X0Y27165D02*
D03*
Y39764D02*
D03*
D20*
X-52224Y45669D02*
D03*
Y23622D02*
D03*
X-57224Y45669D02*
D03*
X-47224D02*
D03*
Y23622D02*
D03*
X-62224Y45669D02*
D03*
X-57224Y23622D02*
D03*
X-62224D02*
D03*
X62244Y44882D02*
D03*
Y22835D02*
D03*
X57244Y44882D02*
D03*
X67244D02*
D03*
Y22835D02*
D03*
X52244Y44882D02*
D03*
X57244Y22835D02*
D03*
X52244D02*
D03*
X40787Y44882D02*
D03*
Y22835D02*
D03*
X35787Y44882D02*
D03*
X45787D02*
D03*
Y22835D02*
D03*
X30787Y44882D02*
D03*
X35787Y22835D02*
D03*
X30787D02*
D03*
X-12559Y45669D02*
D03*
Y23622D02*
D03*
X-17559Y45669D02*
D03*
X-7559D02*
D03*
Y23622D02*
D03*
X-22559Y45669D02*
D03*
X-17559Y23622D02*
D03*
X-22559D02*
D03*
X19331Y44882D02*
D03*
Y22835D02*
D03*
X14331Y44882D02*
D03*
X24331D02*
D03*
Y22835D02*
D03*
X9331Y44882D02*
D03*
X14331Y22835D02*
D03*
X9331D02*
D03*
D21*
X141535Y-2559D02*
D03*
Y-10433D02*
D03*
Y-18307D02*
D03*
Y-26181D02*
D03*
Y5315D02*
D03*
D22*
Y-34055D02*
D03*
D23*
X7874Y136614D02*
D03*
Y127599D02*
D03*
X-76293Y110472D02*
D03*
Y119488D02*
D03*
D24*
X2067Y135669D02*
D03*
X-5020D02*
D03*
D25*
X-24409Y108563D02*
D03*
Y115256D02*
D03*
D26*
X20541Y8325D02*
D03*
X6827D02*
D03*
X-6886D02*
D03*
X-20600D02*
D03*
D27*
X77284Y-5906D02*
D03*
D28*
X87283D02*
D03*
D29*
X37303Y112598D02*
D03*
X41240Y103150D02*
D03*
X33366D02*
D03*
X77756Y127854D02*
D03*
X81693Y118405D02*
D03*
X73819D02*
D03*
X37402Y127854D02*
D03*
X41339Y118405D02*
D03*
X33465D02*
D03*
X77756Y112598D02*
D03*
X81693Y103150D02*
D03*
X73819D02*
D03*
X50787Y112598D02*
D03*
X54724Y103150D02*
D03*
X46850D02*
D03*
X64304Y127854D02*
D03*
X68242Y118405D02*
D03*
X60367D02*
D03*
X50853Y127854D02*
D03*
X54790Y118405D02*
D03*
X46916D02*
D03*
X64272Y112598D02*
D03*
X68209Y103150D02*
D03*
X60335D02*
D03*
X-38386Y124508D02*
D03*
X-34449Y115059D02*
D03*
X-42323D02*
D03*
D30*
X-77400Y11300D02*
D03*
Y-4900D02*
D03*
D31*
X-394Y40945D02*
X1181Y42520D01*
Y54724D01*
X54724Y12598D02*
Y20079D01*
X55118D01*
X50451Y8325D02*
X54724Y12598D01*
X22835Y8325D02*
X50451D01*
D32*
X-53543Y60236D02*
D03*
D33*
X-24606Y67913D02*
D03*
D34*
X9055Y9646D02*
D03*
D35*
X32480Y19094D02*
D03*
D36*
X-11339Y122313D02*
D03*
X11417D02*
D03*
D37*
X-17028Y120344D02*
D03*
X17008D02*
D03*
D38*
X17028Y136801D02*
D03*
X-17028D02*
D03*
D39*
X122700Y-7500D02*
D03*
X100000Y-11900D02*
D03*
X129300Y-17500D02*
D03*
X118400D02*
D03*
X118500Y-10800D02*
D03*
X131200Y-10400D02*
D03*
X131300Y1200D02*
D03*
X121600D02*
D03*
X95200Y2300D02*
D03*
X102900Y2500D02*
D03*
X116900Y1000D02*
D03*
X100197Y26870D02*
D03*
X81496Y68307D02*
D03*
X133563Y-25098D02*
D03*
X100197Y55610D02*
D03*
X102776Y58169D02*
D03*
X-106988Y20965D02*
D03*
X-121457Y39370D02*
D03*
X110335Y67126D02*
D03*
X110138Y38484D02*
D03*
X-59055Y139272D02*
D03*
X-37008Y138583D02*
D03*
X-75886Y74410D02*
D03*
X-83071Y79528D02*
D03*
X-52953Y105217D02*
D03*
X-60925Y105413D02*
D03*
X-74705Y102657D02*
D03*
X68504Y5413D02*
D03*
X68110Y-984D02*
D03*
X113189Y-21752D02*
D03*
X123228Y72638D02*
D03*
X112500Y85335D02*
D03*
X102067Y87697D02*
D03*
X107776Y98130D02*
D03*
X98032Y98819D02*
D03*
X20473Y63783D02*
D03*
X23720Y63878D02*
D03*
X36417Y64173D02*
D03*
X-1280Y63287D02*
D03*
X-62205Y49213D02*
D03*
X6299Y59842D02*
D03*
X11024Y137008D02*
D03*
X-8563Y133858D02*
D03*
X134744Y-2854D02*
D03*
X141339D02*
D03*
X37402Y116437D02*
D03*
X50787Y116142D02*
D03*
X64468Y115748D02*
D03*
X77559Y115945D02*
D03*
X-94784Y48819D02*
D03*
X-102362Y74606D02*
D03*
X-118799Y75098D02*
D03*
X-92815Y92520D02*
D03*
X-66240Y129331D02*
D03*
X-49016Y128740D02*
D03*
X-30413Y114469D02*
D03*
X-42618Y112303D02*
D03*
X91831Y50984D02*
D03*
X100787Y38681D02*
D03*
X127165Y28642D02*
D03*
X110630Y20276D02*
D03*
X91437Y24016D02*
D03*
X78248Y8465D02*
D03*
X76575Y11220D02*
D03*
X-19783Y109941D02*
D03*
X-19882Y112205D02*
D03*
X-19980Y114764D02*
D03*
X-15453Y109941D02*
D03*
X-17520Y110039D02*
D03*
X-15551Y112500D02*
D03*
X-17618D02*
D03*
X-15846Y114764D02*
D03*
X-18012D02*
D03*
X-9350Y76181D02*
D03*
X-6988Y78150D02*
D03*
Y80512D02*
D03*
Y83071D02*
D03*
X-9350Y78445D02*
D03*
X-11713Y78543D02*
D03*
X-9350Y80709D02*
D03*
X-11713Y80807D02*
D03*
X-9350Y82972D02*
D03*
X-11516Y83169D02*
D03*
X-7992Y123135D02*
D03*
X9055Y112205D02*
D03*
X110466Y-7847D02*
D03*
X99803Y19193D02*
D03*
X102854Y25098D02*
D03*
X87303Y2067D02*
D03*
X131200Y-31300D02*
D03*
X84646Y3937D02*
D03*
X80610Y19882D02*
D03*
X105320Y10237D02*
D03*
X91437Y19882D02*
D03*
X91482Y12795D02*
D03*
X97539Y10335D02*
D03*
X82776Y39272D02*
D03*
X87402Y33681D02*
D03*
X84646Y25591D02*
D03*
X109346Y31480D02*
D03*
X97146Y25054D02*
D03*
X106966Y-9494D02*
D03*
X-114272Y38681D02*
D03*
X120177Y-33858D02*
D03*
X119095Y-38780D02*
D03*
X-97441Y24803D02*
D03*
X-99803Y19980D02*
D03*
X21358Y87008D02*
D03*
X30709Y48819D02*
D03*
X19291Y49213D02*
D03*
X-96850Y67913D02*
D03*
X-97063Y72654D02*
D03*
X-105600Y49300D02*
D03*
X35630Y141142D02*
D03*
X15847Y84355D02*
D03*
X36614Y72638D02*
D03*
X2953Y114173D02*
D03*
X984Y121063D02*
D03*
X-118110Y53543D02*
D03*
X-113779Y53937D02*
D03*
X-39393Y102060D02*
D03*
X-30948Y101906D02*
D03*
X9449Y85039D02*
D03*
X12659Y85249D02*
D03*
X18012Y86713D02*
D03*
X76378Y97244D02*
D03*
X66535Y91732D02*
D03*
X67323Y100394D02*
D03*
X63189Y91732D02*
D03*
X1476Y65158D02*
D03*
X3543Y62131D02*
D03*
X107382Y25886D02*
D03*
X110630Y48031D02*
D03*
X102776Y52559D02*
D03*
X102362Y43012D02*
D03*
X100197Y62992D02*
D03*
X100394Y48819D02*
D03*
X81890Y62992D02*
D03*
X81496Y48591D02*
D03*
X82284Y43012D02*
D03*
Y52756D02*
D03*
X90158Y57480D02*
D03*
X52362Y47638D02*
D03*
X62205D02*
D03*
X40945Y48425D02*
D03*
X9449Y48819D02*
D03*
X-52362Y49213D02*
D03*
X-12598Y49606D02*
D03*
X-22835Y49213D02*
D03*
X39724Y73228D02*
D03*
X40157Y65354D02*
D03*
X-31496Y76294D02*
D03*
X-27559D02*
D03*
X-24606D02*
D03*
X-19685Y76772D02*
D03*
X-16732D02*
D03*
Y73327D02*
D03*
X-19685Y72638D02*
D03*
X-22835Y72835D02*
D03*
X-25591D02*
D03*
X-28543D02*
D03*
X-30948D02*
D03*
X-29528Y69882D02*
D03*
X-25591D02*
D03*
X-95571Y27362D02*
D03*
X60236Y3445D02*
D03*
X-87700Y32300D02*
D03*
X-128000Y-19800D02*
D03*
X-136100Y-19600D02*
D03*
X-136600Y-28200D02*
D03*
X-137300Y-35800D02*
D03*
X-127500D02*
D03*
Y-27900D02*
D03*
X-119000Y-36000D02*
D03*
X-118700Y-28400D02*
D03*
X-118400Y-19900D02*
D03*
X-107200Y-20200D02*
D03*
X-107300Y-26700D02*
D03*
X-136100Y13500D02*
D03*
X-125600Y14200D02*
D03*
X-148400Y40900D02*
D03*
X-138800D02*
D03*
X-129200Y40000D02*
D03*
X-135900Y55100D02*
D03*
X-135000Y62600D02*
D03*
X-118900Y89900D02*
D03*
X-110600Y90000D02*
D03*
X-101800Y89800D02*
D03*
X-112300Y100400D02*
D03*
X-103100Y99800D02*
D03*
X-106300Y107200D02*
D03*
X-99000Y107300D02*
D03*
X-88700Y107400D02*
D03*
X-99500Y114200D02*
D03*
X-89900D02*
D03*
X-83800Y113900D02*
D03*
X-83700Y126900D02*
D03*
X-75500Y131000D02*
D03*
X-69900Y134000D02*
D03*
X-35300Y85200D02*
D03*
X-19500Y84500D02*
D03*
Y90400D02*
D03*
X-34800Y91000D02*
D03*
X-66100Y88700D02*
D03*
X-65100Y78300D02*
D03*
X1700Y85600D02*
D03*
X2000Y75200D02*
D03*
X11400Y73500D02*
D03*
X12200Y78400D02*
D03*
X20000Y103800D02*
D03*
X29300Y90100D02*
D03*
X29600Y83900D02*
D03*
X22300Y96400D02*
D03*
X71300Y68600D02*
D03*
X60100Y73100D02*
D03*
X29700Y64100D02*
D03*
X83300Y89300D02*
D03*
X91900Y89400D02*
D03*
X92800Y115600D02*
D03*
X92900Y106200D02*
D03*
X42100Y134400D02*
D03*
X50100Y134300D02*
D03*
X58800Y134400D02*
D03*
X22600Y118700D02*
D03*
X-11500Y138800D02*
D03*
X-13300Y132800D02*
D03*
X-28500Y120600D02*
D03*
X-25100Y120800D02*
D03*
X-68600Y122000D02*
D03*
X129000Y22000D02*
D03*
X132400Y30300D02*
D03*
X105600Y-20500D02*
D03*
X111400Y-26100D02*
D03*
X129800Y-37600D02*
D03*
M02*
