%FSLAX25Y25*%
%MOIN*%
G70*
G01*
G75*
%ADD10C,0.00787*%
%ADD11C,0.01181*%
%ADD12C,0.03937*%
%ADD13R,0.01969X0.02362*%
%ADD14R,0.05118X0.03150*%
%ADD15R,0.02362X0.01969*%
%ADD16R,0.03937X0.03543*%
%ADD17R,0.02756X0.04921*%
%ADD18R,0.06693X0.03543*%
%ADD19R,0.06299X0.04921*%
%ADD20O,0.02362X0.05512*%
%ADD21O,0.07874X0.05906*%
%ADD22R,0.07874X0.05906*%
%ADD23R,0.03150X0.05118*%
%ADD24R,0.03150X0.03150*%
%ADD25R,0.04921X0.02756*%
%ADD26R,0.05906X0.11811*%
%ADD27O,0.05906X0.07874*%
%ADD28R,0.05906X0.07874*%
%ADD29R,0.03543X0.03937*%
G04:AMPARAMS|DCode=30|XSize=118.11mil|YSize=59.06mil|CornerRadius=14.76mil|HoleSize=0mil|Usage=FLASHONLY|Rotation=270.000|XOffset=0mil|YOffset=0mil|HoleType=Round|Shape=RoundedRectangle|*
%AMROUNDEDRECTD30*
21,1,0.11811,0.02953,0,0,270.0*
21,1,0.08858,0.05906,0,0,270.0*
1,1,0.02953,-0.01476,-0.04429*
1,1,0.02953,-0.01476,0.04429*
1,1,0.02953,0.01476,0.04429*
1,1,0.02953,0.01476,-0.04429*
%
%ADD30ROUNDEDRECTD30*%
%ADD31C,0.07874*%
%ADD32R,0.30709X0.12598*%
%ADD33R,0.17717X0.18504*%
%ADD34R,0.14173X0.15354*%
%ADD35R,0.09843X0.11417*%
%ADD36C,0.02559*%
G04:AMPARAMS|DCode=37|XSize=39.37mil|YSize=82.68mil|CornerRadius=17.72mil|HoleSize=0mil|Usage=FLASHONLY|Rotation=0.000|XOffset=0mil|YOffset=0mil|HoleType=Round|Shape=RoundedRectangle|*
%AMROUNDEDRECTD37*
21,1,0.03937,0.04724,0,0,0.0*
21,1,0.00394,0.08268,0,0,0.0*
1,1,0.03543,0.00197,-0.02362*
1,1,0.03543,-0.00197,-0.02362*
1,1,0.03543,-0.00197,0.02362*
1,1,0.03543,0.00197,0.02362*
%
%ADD37ROUNDEDRECTD37*%
G04:AMPARAMS|DCode=38|XSize=39.37mil|YSize=62.99mil|CornerRadius=17.72mil|HoleSize=0mil|Usage=FLASHONLY|Rotation=0.000|XOffset=0mil|YOffset=0mil|HoleType=Round|Shape=RoundedRectangle|*
%AMROUNDEDRECTD38*
21,1,0.03937,0.02756,0,0,0.0*
21,1,0.00394,0.06299,0,0,0.0*
1,1,0.03543,0.00197,-0.01378*
1,1,0.03543,-0.00197,-0.01378*
1,1,0.03543,-0.00197,0.01378*
1,1,0.03543,0.00197,0.01378*
%
%ADD38ROUNDEDRECTD38*%
%ADD39C,0.02362*%
%ADD40C,0.00197*%
%ADD41C,0.01969*%
%ADD42R,0.01181X0.03347*%
%ADD43R,0.02362X0.03347*%
%ADD44R,0.05512X0.02362*%
%ADD45R,0.01575X0.04724*%
%ADD46C,0.11811*%
D13*
X-113583Y22244D02*
D03*
X-110039D02*
D03*
X-110531Y41240D02*
D03*
X-106988D02*
D03*
X-117815D02*
D03*
X-114272D02*
D03*
X-77362Y87894D02*
D03*
X-73819D02*
D03*
X-81299D02*
D03*
X-84842D02*
D03*
X-103347Y70276D02*
D03*
X-99803D02*
D03*
X-108858Y70374D02*
D03*
X-112402D02*
D03*
X-33268D02*
D03*
X-36811D02*
D03*
X55905Y51083D02*
D03*
X52362D02*
D03*
X34646D02*
D03*
X31102D02*
D03*
X13287D02*
D03*
X9744D02*
D03*
X-18701Y51870D02*
D03*
X-22244D02*
D03*
X-11220Y51279D02*
D03*
X-7677D02*
D03*
X110354Y-1900D02*
D03*
X113897D02*
D03*
X110436Y-6047D02*
D03*
X113979Y-6047D02*
D03*
X103168Y-14920D02*
D03*
X106712D02*
D03*
X106728Y-10999D02*
D03*
X103184Y-10999D02*
D03*
X102889Y-6275D02*
D03*
X106432D02*
D03*
X102873Y-1900D02*
D03*
X106417D02*
D03*
X96653Y12598D02*
D03*
X93110D02*
D03*
Y16240D02*
D03*
X96653D02*
D03*
X93110Y24016D02*
D03*
X96653D02*
D03*
X114075Y20276D02*
D03*
X117618D02*
D03*
X103331Y38500D02*
D03*
X106874Y38500D02*
D03*
X104429Y48130D02*
D03*
X107972D02*
D03*
X107947Y52559D02*
D03*
X104404D02*
D03*
X107947Y58169D02*
D03*
X104404D02*
D03*
X104429Y68209D02*
D03*
X107972D02*
D03*
X88189Y38976D02*
D03*
X84646D02*
D03*
X88189Y43012D02*
D03*
X84646D02*
D03*
X88189Y48031D02*
D03*
X84646D02*
D03*
X88189Y52657D02*
D03*
X84646D02*
D03*
X88189Y63209D02*
D03*
X84646D02*
D03*
X-5118Y131102D02*
D03*
X-8661D02*
D03*
X-5020Y127264D02*
D03*
X-8563D02*
D03*
X-56461Y123224D02*
D03*
X-60004D02*
D03*
X-51930D02*
D03*
X-48387D02*
D03*
D14*
X-120138Y27657D02*
D03*
X-111122D02*
D03*
D15*
X-109547Y36220D02*
D03*
Y32677D02*
D03*
X-113697Y32661D02*
D03*
X-113697Y36205D02*
D03*
X-117602Y36335D02*
D03*
X-117602Y32791D02*
D03*
X-121457Y32776D02*
D03*
Y36319D02*
D03*
X-96965Y99016D02*
D03*
Y95473D02*
D03*
X-93035Y99016D02*
D03*
Y95472D02*
D03*
X-93133Y77362D02*
D03*
Y80905D02*
D03*
X-97063Y77346D02*
D03*
X-97063Y80890D02*
D03*
X-119836Y81049D02*
D03*
Y77506D02*
D03*
X-124320Y80905D02*
D03*
Y77362D02*
D03*
X-124426Y59541D02*
D03*
X-124426Y63084D02*
D03*
X-120079Y59557D02*
D03*
Y63100D02*
D03*
X-67799Y35449D02*
D03*
X-67799Y38992D02*
D03*
X122042Y-5856D02*
D03*
X122042Y-2313D02*
D03*
X118121Y-5840D02*
D03*
Y-2297D02*
D03*
X76657Y12878D02*
D03*
X76657Y16421D02*
D03*
X80709Y12795D02*
D03*
Y16339D02*
D03*
X84646D02*
D03*
Y12795D02*
D03*
X88992Y16256D02*
D03*
X88992Y12713D02*
D03*
X107791Y23441D02*
D03*
X107791Y19898D02*
D03*
X2559Y127624D02*
D03*
Y131167D02*
D03*
X-1280Y131142D02*
D03*
Y127599D02*
D03*
X-30331Y108547D02*
D03*
X-30331Y112091D02*
D03*
X-69313Y104512D02*
D03*
X-69313Y108055D02*
D03*
X-65223Y113189D02*
D03*
Y116732D02*
D03*
X-69671Y113173D02*
D03*
X-69671Y116717D02*
D03*
X-62772Y134350D02*
D03*
Y130807D02*
D03*
X-58527Y134350D02*
D03*
Y130807D02*
D03*
D16*
X-78051Y97503D02*
D03*
X-87500Y93566D02*
D03*
Y101440D02*
D03*
X-77953Y79528D02*
D03*
X-87402Y75590D02*
D03*
Y83465D02*
D03*
X-104974Y79527D02*
D03*
X-114423Y75590D02*
D03*
Y83465D02*
D03*
X123819Y8858D02*
D03*
X114370Y4921D02*
D03*
Y12795D02*
D03*
X114370Y32677D02*
D03*
Y24803D02*
D03*
X123819Y28740D02*
D03*
X-50659Y114961D02*
D03*
X-60108Y111024D02*
D03*
Y118898D02*
D03*
X-42924Y132579D02*
D03*
X-52372Y128642D02*
D03*
Y136516D02*
D03*
X-105414Y61624D02*
D03*
X-114863Y57687D02*
D03*
Y65561D02*
D03*
D17*
X-19488Y70472D02*
D03*
X-12795D02*
D03*
X-19488Y62205D02*
D03*
X-12795D02*
D03*
X-37992Y47441D02*
D03*
X-31299D02*
D03*
X-37992Y54724D02*
D03*
X-31299D02*
D03*
Y63779D02*
D03*
X-37992D02*
D03*
X-41929Y108858D02*
D03*
X-35236D02*
D03*
D18*
X-37106Y6496D02*
D03*
Y17520D02*
D03*
X-46282Y6470D02*
D03*
Y17493D02*
D03*
X-54921Y6496D02*
D03*
Y17520D02*
D03*
X-63583Y6496D02*
D03*
Y17520D02*
D03*
D19*
X-29921Y27165D02*
D03*
Y39764D02*
D03*
X-38189Y39764D02*
D03*
Y27165D02*
D03*
X0Y27165D02*
D03*
Y39764D02*
D03*
D20*
X-52224Y45669D02*
D03*
Y23622D02*
D03*
X-57224Y45669D02*
D03*
X-47224D02*
D03*
Y23622D02*
D03*
X-62224Y45669D02*
D03*
X-57224Y23622D02*
D03*
X-62224D02*
D03*
X62244Y44882D02*
D03*
Y22835D02*
D03*
X57244Y44882D02*
D03*
X67244D02*
D03*
Y22835D02*
D03*
X52244Y44882D02*
D03*
X57244Y22835D02*
D03*
X52244D02*
D03*
X40787Y44882D02*
D03*
Y22835D02*
D03*
X35787Y44882D02*
D03*
X45787D02*
D03*
Y22835D02*
D03*
X30787Y44882D02*
D03*
X35787Y22835D02*
D03*
X30787D02*
D03*
X-12559Y45669D02*
D03*
Y23622D02*
D03*
X-17559Y45669D02*
D03*
X-7559D02*
D03*
Y23622D02*
D03*
X-22559Y45669D02*
D03*
X-17559Y23622D02*
D03*
X-22559D02*
D03*
X19331Y44882D02*
D03*
Y22835D02*
D03*
X14331Y44882D02*
D03*
X24331D02*
D03*
Y22835D02*
D03*
X9331Y44882D02*
D03*
X14331Y22835D02*
D03*
X9331D02*
D03*
D21*
X141535Y-2559D02*
D03*
Y-10433D02*
D03*
Y-18307D02*
D03*
Y-26181D02*
D03*
Y5315D02*
D03*
D22*
Y-34055D02*
D03*
D23*
X7874Y136614D02*
D03*
Y127599D02*
D03*
X-76293Y110472D02*
D03*
Y119488D02*
D03*
D24*
X2067Y135669D02*
D03*
X-5020D02*
D03*
D25*
X-24409Y108563D02*
D03*
Y115256D02*
D03*
D26*
X20541Y8325D02*
D03*
X6827D02*
D03*
X-6886D02*
D03*
X-20600D02*
D03*
D27*
X77284Y-5906D02*
D03*
D28*
X87283D02*
D03*
D29*
X37303Y112598D02*
D03*
X41240Y103150D02*
D03*
X33366D02*
D03*
X77756Y127854D02*
D03*
X81693Y118405D02*
D03*
X73819D02*
D03*
X37402Y127854D02*
D03*
X41339Y118405D02*
D03*
X33465D02*
D03*
X77756Y112598D02*
D03*
X81693Y103150D02*
D03*
X73819D02*
D03*
X50787Y112598D02*
D03*
X54724Y103150D02*
D03*
X46850D02*
D03*
X64304Y127854D02*
D03*
X68242Y118405D02*
D03*
X60367D02*
D03*
X50853Y127854D02*
D03*
X54790Y118405D02*
D03*
X46916D02*
D03*
X64272Y112598D02*
D03*
X68209Y103150D02*
D03*
X60335D02*
D03*
X-38386Y124508D02*
D03*
X-34449Y115059D02*
D03*
X-42323D02*
D03*
D30*
X-77400Y11300D02*
D03*
Y-4900D02*
D03*
D36*
X-11339Y122313D02*
D03*
X11417D02*
D03*
D37*
X-17028Y120344D02*
D03*
X17008D02*
D03*
D38*
X17028Y136801D02*
D03*
X-17028D02*
D03*
M02*
