%FSLAX25Y25*%
%MOIN*%
G70*
G01*
G75*
%ADD10C,0.00500*%
%ADD11C,0.00667*%
D10*
X-12618Y122313D02*
X-10059D01*
X-11339Y121034D02*
Y123592D01*
X-18209Y120344D02*
X-15846D01*
X-17028Y119163D02*
Y121526D01*
X15827Y120344D02*
X18189D01*
X17008Y119163D02*
Y121526D01*
X15846Y136801D02*
X18209D01*
X17028Y135620D02*
Y137982D01*
X-18209Y136801D02*
X-15846D01*
X-17028Y135620D02*
Y137982D01*
X10138Y122313D02*
X12697D01*
X11417Y121034D02*
Y123592D01*
X121913Y-7500D02*
X123487D01*
X122700Y-8287D02*
Y-6713D01*
X99213Y-11900D02*
X100787D01*
X100000Y-12687D02*
Y-11113D01*
X128513Y-17500D02*
X130087D01*
X129300Y-18287D02*
Y-16713D01*
X117613Y-17500D02*
X119187D01*
X118400Y-18287D02*
Y-16713D01*
X117713Y-10800D02*
X119287D01*
X118500Y-11587D02*
Y-10013D01*
X130413Y-10400D02*
X131987D01*
X131200Y-11187D02*
Y-9613D01*
X130513Y1200D02*
X132087D01*
X131300Y413D02*
Y1987D01*
X120813Y1200D02*
X122387D01*
X121600Y413D02*
Y1987D01*
X94413Y2300D02*
X95987D01*
X95200Y1513D02*
Y3087D01*
X102113Y2500D02*
X103687D01*
X102900Y1713D02*
Y3287D01*
X116113Y1000D02*
X117687D01*
X116900Y213D02*
Y1787D01*
X99410Y26870D02*
X100984D01*
X100197Y26083D02*
Y27657D01*
X80709Y68307D02*
X82284D01*
X81496Y67520D02*
Y69095D01*
X132776Y-25098D02*
X134350D01*
X133563Y-25886D02*
Y-24311D01*
X99410Y55610D02*
X100984D01*
X100197Y54823D02*
Y56398D01*
X101988Y58169D02*
X103563D01*
X102776Y57382D02*
Y58957D01*
X-107776Y20965D02*
X-106201D01*
X-106988Y20177D02*
Y21752D01*
X-122244Y39370D02*
X-120669D01*
X-121457Y38583D02*
Y40157D01*
X109547Y67126D02*
X111122D01*
X110335Y66339D02*
Y67913D01*
X109350Y38484D02*
X110925D01*
X110138Y37697D02*
Y39272D01*
X-59842Y139272D02*
X-58268D01*
X-59055Y138484D02*
Y140059D01*
X-37795Y138583D02*
X-36220D01*
X-37008Y137795D02*
Y139370D01*
X-76673Y74410D02*
X-75098D01*
X-75886Y73622D02*
Y75197D01*
X-83858Y79528D02*
X-82284D01*
X-83071Y78740D02*
Y80315D01*
X-53740Y105217D02*
X-52165D01*
X-52953Y104429D02*
Y106004D01*
X-61713Y105413D02*
X-60138D01*
X-60925Y104626D02*
Y106201D01*
X-75492Y102657D02*
X-73917D01*
X-74705Y101870D02*
Y103445D01*
X67716Y5413D02*
X69291D01*
X68504Y4626D02*
Y6201D01*
X67323Y-984D02*
X68898D01*
X68110Y-1772D02*
Y-197D01*
X112402Y-21752D02*
X113976D01*
X113189Y-22539D02*
Y-20965D01*
X122441Y72638D02*
X124016D01*
X123228Y71850D02*
Y73425D01*
X111713Y85335D02*
X113287D01*
X112500Y84547D02*
Y86122D01*
X101279Y87697D02*
X102854D01*
X102067Y86910D02*
Y88484D01*
X106988Y98130D02*
X108563D01*
X107776Y97342D02*
Y98917D01*
X97244Y98819D02*
X98819D01*
X98032Y98032D02*
Y99606D01*
X19686Y63783D02*
X21261D01*
X20473Y62995D02*
Y64570D01*
X22933Y63878D02*
X24508D01*
X23720Y63090D02*
Y64665D01*
X35630Y64173D02*
X37205D01*
X36417Y63386D02*
Y64961D01*
X-2067Y63287D02*
X-492D01*
X-1280Y62500D02*
Y64075D01*
X-62992Y49213D02*
X-61417D01*
X-62205Y48425D02*
Y50000D01*
X5512Y59842D02*
X7087D01*
X6299Y59055D02*
Y60630D01*
X10236Y137008D02*
X11811D01*
X11024Y136221D02*
Y137795D01*
X-9350Y133858D02*
X-7776D01*
X-8563Y133071D02*
Y134646D01*
X133957Y-2854D02*
X135531D01*
X134744Y-3642D02*
Y-2067D01*
X140551Y-2854D02*
X142126D01*
X141339Y-3642D02*
Y-2067D01*
X36614Y116437D02*
X38189D01*
X37402Y115650D02*
Y117224D01*
X50000Y116142D02*
X51575D01*
X50787Y115354D02*
Y116929D01*
X63681Y115748D02*
X65256D01*
X64468Y114961D02*
Y116535D01*
X76772Y115945D02*
X78347D01*
X77559Y115157D02*
Y116732D01*
X-95571Y48819D02*
X-93996D01*
X-94784Y48031D02*
Y49606D01*
X-103150Y74606D02*
X-101575D01*
X-102362Y73819D02*
Y75394D01*
X-119587Y75098D02*
X-118012D01*
X-118799Y74311D02*
Y75886D01*
X-93602Y92520D02*
X-92028D01*
X-92815Y91732D02*
Y93307D01*
X-67028Y129331D02*
X-65453D01*
X-66240Y128543D02*
Y130118D01*
X-49803Y128740D02*
X-48228D01*
X-49016Y127953D02*
Y129528D01*
X-31201Y114469D02*
X-29626D01*
X-30413Y113681D02*
Y115256D01*
X-43406Y112303D02*
X-41831D01*
X-42618Y111516D02*
Y113091D01*
X91043Y50984D02*
X92618D01*
X91831Y50197D02*
Y51772D01*
X100000Y38681D02*
X101575D01*
X100787Y37894D02*
Y39469D01*
X126378Y28642D02*
X127953D01*
X127165Y27854D02*
Y29429D01*
X109843Y20276D02*
X111417D01*
X110630Y19488D02*
Y21063D01*
X90650Y24016D02*
X92224D01*
X91437Y23228D02*
Y24803D01*
X77461Y8465D02*
X79035D01*
X78248Y7677D02*
Y9252D01*
X75787Y11220D02*
X77362D01*
X76575Y10433D02*
Y12008D01*
X-20571Y109941D02*
X-18996D01*
X-19783Y109153D02*
Y110728D01*
X-20669Y112205D02*
X-19094D01*
X-19882Y111417D02*
Y112992D01*
X-20768Y114764D02*
X-19193D01*
X-19980Y113976D02*
Y115551D01*
X-16240Y109941D02*
X-14665D01*
X-15453Y109153D02*
Y110728D01*
X-18307Y110039D02*
X-16732D01*
X-17520Y109252D02*
Y110827D01*
X-16339Y112500D02*
X-14764D01*
X-15551Y111713D02*
Y113287D01*
X-18406Y112500D02*
X-16831D01*
X-17618Y111713D02*
Y113287D01*
X-16634Y114764D02*
X-15059D01*
X-15846Y113976D02*
Y115551D01*
X-18799Y114764D02*
X-17224D01*
X-18012Y113976D02*
Y115551D01*
X-10138Y76181D02*
X-8563D01*
X-9350Y75394D02*
Y76968D01*
X-7776Y78150D02*
X-6201D01*
X-6988Y77362D02*
Y78937D01*
X-7776Y80512D02*
X-6201D01*
X-6988Y79724D02*
Y81299D01*
X-7776Y83071D02*
X-6201D01*
X-6988Y82284D02*
Y83858D01*
X-10138Y78445D02*
X-8563D01*
X-9350Y77658D02*
Y79232D01*
X-12500Y78543D02*
X-10925D01*
X-11713Y77756D02*
Y79331D01*
X-10138Y80709D02*
X-8563D01*
X-9350Y79921D02*
Y81496D01*
X-12500Y80807D02*
X-10925D01*
X-11713Y80020D02*
Y81595D01*
X-10138Y82972D02*
X-8563D01*
X-9350Y82185D02*
Y83760D01*
X-12303Y83169D02*
X-10728D01*
X-11516Y82382D02*
Y83957D01*
X-8779Y123135D02*
X-7205D01*
X-7992Y122348D02*
Y123923D01*
X8268Y112205D02*
X9843D01*
X9055Y111417D02*
Y112992D01*
X109678Y-7847D02*
X111253D01*
X110466Y-8634D02*
Y-7059D01*
X99016Y19193D02*
X100591D01*
X99803Y18406D02*
Y19980D01*
X102067Y25098D02*
X103642D01*
X102854Y24311D02*
Y25886D01*
X86516Y2067D02*
X88090D01*
X87303Y1280D02*
Y2854D01*
X130413Y-31300D02*
X131987D01*
X131200Y-32087D02*
Y-30513D01*
X83858Y3937D02*
X85433D01*
X84646Y3150D02*
Y4724D01*
X79823Y19882D02*
X81398D01*
X80610Y19094D02*
Y20669D01*
X104533Y10237D02*
X106107D01*
X105320Y9449D02*
Y11024D01*
X90650Y19882D02*
X92224D01*
X91437Y19094D02*
Y20669D01*
X90694Y12795D02*
X92269D01*
X91482Y12008D02*
Y13583D01*
X96752Y10335D02*
X98327D01*
X97539Y9547D02*
Y11122D01*
X81988Y39272D02*
X83563D01*
X82776Y38484D02*
Y40059D01*
X86614Y33681D02*
X88189D01*
X87402Y32894D02*
Y34468D01*
X83858Y25591D02*
X85433D01*
X84646Y24803D02*
Y26378D01*
X108559Y31480D02*
X110134D01*
X109346Y30693D02*
Y32268D01*
X96358Y25054D02*
X97933D01*
X97146Y24266D02*
Y25841D01*
X106178Y-9494D02*
X107753D01*
X106966Y-10282D02*
Y-8707D01*
X-115059Y38681D02*
X-113484D01*
X-114272Y37894D02*
Y39469D01*
X119390Y-33858D02*
X120965D01*
X120177Y-34646D02*
Y-33071D01*
X118307Y-38780D02*
X119882D01*
X119095Y-39567D02*
Y-37992D01*
X-98228Y24803D02*
X-96654D01*
X-97441Y24016D02*
Y25591D01*
X-100591Y19980D02*
X-99016D01*
X-99803Y19193D02*
Y20768D01*
X20571Y87008D02*
X22146D01*
X21358Y86221D02*
Y87795D01*
X29921Y48819D02*
X31496D01*
X30709Y48031D02*
Y49606D01*
X18504Y49213D02*
X20079D01*
X19291Y48425D02*
Y50000D01*
X-97638Y67913D02*
X-96063D01*
X-96850Y67126D02*
Y68701D01*
X-97850Y72654D02*
X-96276D01*
X-97063Y71866D02*
Y73441D01*
X-106387Y49300D02*
X-104813D01*
X-105600Y48513D02*
Y50087D01*
X34843Y141142D02*
X36417D01*
X35630Y140354D02*
Y141929D01*
X15060Y84355D02*
X16635D01*
X15847Y83567D02*
Y85142D01*
X35827Y72638D02*
X37402D01*
X36614Y71850D02*
Y73425D01*
X2165Y114173D02*
X3740D01*
X2953Y113386D02*
Y114961D01*
X197Y121063D02*
X1772D01*
X984Y120276D02*
Y121850D01*
X-118898Y53543D02*
X-117323D01*
X-118110Y52756D02*
Y54331D01*
X-114567Y53937D02*
X-112992D01*
X-113779Y53150D02*
Y54724D01*
X-40181Y102060D02*
X-38606D01*
X-39393Y101273D02*
Y102848D01*
X-31735Y101906D02*
X-30161D01*
X-30948Y101119D02*
Y102694D01*
X8661Y85039D02*
X10236D01*
X9449Y84252D02*
Y85827D01*
X11872Y85249D02*
X13447D01*
X12659Y84461D02*
Y86036D01*
X17224Y86713D02*
X18799D01*
X18012Y85925D02*
Y87500D01*
X75590Y97244D02*
X77165D01*
X76378Y96456D02*
Y98031D01*
X65748Y91732D02*
X67323D01*
X66535Y90945D02*
Y92520D01*
Y100394D02*
X68110D01*
X67323Y99606D02*
Y101181D01*
X62402Y91732D02*
X63976D01*
X63189Y90945D02*
Y92520D01*
X689Y65158D02*
X2264D01*
X1476Y64370D02*
Y65945D01*
X2756Y62131D02*
X4331D01*
X3543Y61344D02*
Y62919D01*
X106595Y25886D02*
X108169D01*
X107382Y25098D02*
Y26673D01*
X109842Y48031D02*
X111417D01*
X110630Y47244D02*
Y48819D01*
X101988Y52559D02*
X103563D01*
X102776Y51772D02*
Y53346D01*
X101575Y43012D02*
X103150D01*
X102362Y42224D02*
Y43799D01*
X99410Y62992D02*
X100984D01*
X100197Y62205D02*
Y63779D01*
X99606Y48819D02*
X101181D01*
X100394Y48031D02*
Y49606D01*
X81102Y62992D02*
X82677D01*
X81890Y62205D02*
Y63779D01*
X80709Y48591D02*
X82284D01*
X81496Y47804D02*
Y49379D01*
Y43012D02*
X83071D01*
X82284Y42224D02*
Y43799D01*
X81496Y52756D02*
X83071D01*
X82284Y51968D02*
Y53543D01*
X89370Y57480D02*
X90945D01*
X90158Y56693D02*
Y58268D01*
X51575Y47638D02*
X53150D01*
X52362Y46850D02*
Y48425D01*
X61417Y47638D02*
X62992D01*
X62205Y46850D02*
Y48425D01*
X40157D02*
X41732D01*
X40945Y47638D02*
Y49213D01*
X8661Y48819D02*
X10236D01*
X9449Y48031D02*
Y49606D01*
X-53150Y49213D02*
X-51575D01*
X-52362Y48425D02*
Y50000D01*
X-13386Y49606D02*
X-11811D01*
X-12598Y48819D02*
Y50394D01*
X-23622Y49213D02*
X-22047D01*
X-22835Y48425D02*
Y50000D01*
X38937Y73228D02*
X40512D01*
X39724Y72441D02*
Y74016D01*
X39370Y65354D02*
X40945D01*
X40157Y64567D02*
Y66142D01*
X-32283Y76294D02*
X-30709D01*
X-31496Y75507D02*
Y77081D01*
X-28346Y76294D02*
X-26772D01*
X-27559Y75507D02*
Y77081D01*
X-25394Y76294D02*
X-23819D01*
X-24606Y75507D02*
Y77081D01*
X-20472Y76772D02*
X-18898D01*
X-19685Y75984D02*
Y77559D01*
X-17520Y76772D02*
X-15945D01*
X-16732Y75984D02*
Y77559D01*
X-17520Y73327D02*
X-15945D01*
X-16732Y72539D02*
Y74114D01*
X-20472Y72638D02*
X-18898D01*
X-19685Y71850D02*
Y73425D01*
X-23622Y72835D02*
X-22047D01*
X-22835Y72047D02*
Y73622D01*
X-26378Y72835D02*
X-24803D01*
X-25591Y72047D02*
Y73622D01*
X-29331Y72835D02*
X-27756D01*
X-28543Y72047D02*
Y73622D01*
X-31735Y72835D02*
X-30161D01*
X-30948Y72047D02*
Y73622D01*
X-30315Y69882D02*
X-28740D01*
X-29528Y69095D02*
Y70669D01*
X-26378Y69882D02*
X-24803D01*
X-25591Y69095D02*
Y70669D01*
X-96358Y27362D02*
X-94784D01*
X-95571Y26575D02*
Y28150D01*
X59449Y3445D02*
X61024D01*
X60236Y2657D02*
Y4232D01*
X-88487Y32300D02*
X-86913D01*
X-87700Y31513D02*
Y33087D01*
X-128787Y-19800D02*
X-127213D01*
X-128000Y-20587D02*
Y-19013D01*
X-136887Y-19600D02*
X-135313D01*
X-136100Y-20387D02*
Y-18813D01*
X-137387Y-28200D02*
X-135813D01*
X-136600Y-28987D02*
Y-27413D01*
X-138087Y-35800D02*
X-136513D01*
X-137300Y-36587D02*
Y-35013D01*
X-128287Y-35800D02*
X-126713D01*
X-127500Y-36587D02*
Y-35013D01*
X-128287Y-27900D02*
X-126713D01*
X-127500Y-28687D02*
Y-27113D01*
X-119787Y-36000D02*
X-118213D01*
X-119000Y-36787D02*
Y-35213D01*
X-119487Y-28400D02*
X-117913D01*
X-118700Y-29187D02*
Y-27613D01*
X-119187Y-19900D02*
X-117613D01*
X-118400Y-20687D02*
Y-19113D01*
X-107987Y-20200D02*
X-106413D01*
X-107200Y-20987D02*
Y-19413D01*
X-108087Y-26700D02*
X-106513D01*
X-107300Y-27487D02*
Y-25913D01*
X-136887Y13500D02*
X-135313D01*
X-136100Y12713D02*
Y14287D01*
X-126387Y14200D02*
X-124813D01*
X-125600Y13413D02*
Y14987D01*
X-149187Y40900D02*
X-147613D01*
X-148400Y40113D02*
Y41687D01*
X-139587Y40900D02*
X-138013D01*
X-138800Y40113D02*
Y41687D01*
X-129987Y40000D02*
X-128413D01*
X-129200Y39213D02*
Y40787D01*
X-136687Y55100D02*
X-135113D01*
X-135900Y54313D02*
Y55887D01*
X-135787Y62600D02*
X-134213D01*
X-135000Y61813D02*
Y63387D01*
X-119687Y89900D02*
X-118113D01*
X-118900Y89113D02*
Y90687D01*
X-111387Y90000D02*
X-109813D01*
X-110600Y89213D02*
Y90787D01*
X-102587Y89800D02*
X-101013D01*
X-101800Y89013D02*
Y90587D01*
X-113087Y100400D02*
X-111513D01*
X-112300Y99613D02*
Y101187D01*
X-103887Y99800D02*
X-102313D01*
X-103100Y99013D02*
Y100587D01*
X-107087Y107200D02*
X-105513D01*
X-106300Y106413D02*
Y107987D01*
X-99787Y107300D02*
X-98213D01*
X-99000Y106513D02*
Y108087D01*
X-89487Y107400D02*
X-87913D01*
X-88700Y106613D02*
Y108187D01*
X-100287Y114200D02*
X-98713D01*
X-99500Y113413D02*
Y114987D01*
X-90687Y114200D02*
X-89113D01*
X-89900Y113413D02*
Y114987D01*
X-84587Y113900D02*
X-83013D01*
X-83800Y113113D02*
Y114687D01*
X-84487Y126900D02*
X-82913D01*
X-83700Y126113D02*
Y127687D01*
X-76287Y131000D02*
X-74713D01*
X-75500Y130213D02*
Y131787D01*
X-70687Y134000D02*
X-69113D01*
X-69900Y133213D02*
Y134787D01*
X-36087Y85200D02*
X-34513D01*
X-35300Y84413D02*
Y85987D01*
X-20287Y84500D02*
X-18713D01*
X-19500Y83713D02*
Y85287D01*
X-20287Y90400D02*
X-18713D01*
X-19500Y89613D02*
Y91187D01*
X-35587Y91000D02*
X-34013D01*
X-34800Y90213D02*
Y91787D01*
X-66887Y88700D02*
X-65313D01*
X-66100Y87913D02*
Y89487D01*
X-65887Y78300D02*
X-64313D01*
X-65100Y77513D02*
Y79087D01*
X913Y85600D02*
X2487D01*
X1700Y84813D02*
Y86387D01*
X1213Y75200D02*
X2787D01*
X2000Y74413D02*
Y75987D01*
X10613Y73500D02*
X12187D01*
X11400Y72713D02*
Y74287D01*
X11413Y78400D02*
X12987D01*
X12200Y77613D02*
Y79187D01*
X19213Y103800D02*
X20787D01*
X20000Y103013D02*
Y104587D01*
X28513Y90100D02*
X30087D01*
X29300Y89313D02*
Y90887D01*
X28813Y83900D02*
X30387D01*
X29600Y83113D02*
Y84687D01*
X21513Y96400D02*
X23087D01*
X22300Y95613D02*
Y97187D01*
X70513Y68600D02*
X72087D01*
X71300Y67813D02*
Y69387D01*
X59313Y73100D02*
X60887D01*
X60100Y72313D02*
Y73887D01*
X28913Y64100D02*
X30487D01*
X29700Y63313D02*
Y64887D01*
X82513Y89300D02*
X84087D01*
X83300Y88513D02*
Y90087D01*
X91113Y89400D02*
X92687D01*
X91900Y88613D02*
Y90187D01*
X92013Y115600D02*
X93587D01*
X92800Y114813D02*
Y116387D01*
X92113Y106200D02*
X93687D01*
X92900Y105413D02*
Y106987D01*
X41313Y134400D02*
X42887D01*
X42100Y133613D02*
Y135187D01*
X49313Y134300D02*
X50887D01*
X50100Y133513D02*
Y135087D01*
X58013Y134400D02*
X59587D01*
X58800Y133613D02*
Y135187D01*
X21813Y118700D02*
X23387D01*
X22600Y117913D02*
Y119487D01*
X-12287Y138800D02*
X-10713D01*
X-11500Y138013D02*
Y139587D01*
X-14087Y132800D02*
X-12513D01*
X-13300Y132013D02*
Y133587D01*
X-29287Y120600D02*
X-27713D01*
X-28500Y119813D02*
Y121387D01*
X-25887Y120800D02*
X-24313D01*
X-25100Y120013D02*
Y121587D01*
X-69387Y122000D02*
X-67813D01*
X-68600Y121213D02*
Y122787D01*
X128213Y22000D02*
X129787D01*
X129000Y21213D02*
Y22787D01*
X131613Y30300D02*
X133187D01*
X132400Y29513D02*
Y31087D01*
X104813Y-20500D02*
X106387D01*
X105600Y-21287D02*
Y-19713D01*
X110613Y-26100D02*
X112187D01*
X111400Y-26887D02*
Y-25313D01*
X129013Y-37600D02*
X130587D01*
X129800Y-38387D02*
Y-36813D01*
M02*
